<svg viewBox="0 0 330 200" xmlns="http://www.w3.org/2000/svg"><g><g><g><g><g><line x1="48.8125" y1="177" x2="43.8125" y2="177" style="visibility: inherit;" fill="rgb(0, 0, 0)" stroke="rgb(204, 204, 204)" stroke-width="1px"></line><line x1="48.8125" y1="159.3" x2="43.8125" y2="159.3" style="visibility: inherit;" fill="rgb(0, 0, 0)" stroke="rgb(204, 204, 204)" stroke-width="1px"></line><line x1="48.8125" y1="141.6" x2="43.8125" y2="141.6" style="visibility: inherit;" fill="rgb(0, 0, 0)" stroke="rgb(204, 204, 204)" stroke-width="1px"></line><line x1="48.8125" y1="123.89999999999999" x2="43.8125" y2="123.89999999999999" style="visibility: inherit;" fill="rgb(0, 0, 0)" stroke="rgb(204, 204, 204)" stroke-width="1px"></line><line x1="48.8125" y1="106.2" x2="43.8125" y2="106.2" style="visibility: inherit;" fill="rgb(0, 0, 0)" stroke="rgb(204, 204, 204)" stroke-width="1px"></line><line x1="48.8125" y1="88.5" x2="43.8125" y2="88.5" style="visibility: inherit;" fill="rgb(0, 0, 0)" stroke="rgb(204, 204, 204)" stroke-width="1px"></line><line x1="48.8125" y1="70.8" x2="43.8125" y2="70.8" style="visibility: inherit;" fill="rgb(0, 0, 0)" stroke="rgb(204, 204, 204)" stroke-width="1px"></line><line x1="48.8125" y1="53.10000000000001" x2="43.8125" y2="53.10000000000001" style="visibility: inherit;" fill="rgb(0, 0, 0)" stroke="rgb(204, 204, 204)" stroke-width="1px"></line><line x1="48.8125" y1="35.400000000000006" x2="43.8125" y2="35.400000000000006" style="visibility: inherit;" fill="rgb(0, 0, 0)" stroke="rgb(204, 204, 204)" stroke-width="1px"></line><line x1="48.8125" y1="17.69999999999999" x2="43.8125" y2="17.69999999999999" style="visibility: inherit;" fill="rgb(0, 0, 0)" stroke="rgb(204, 204, 204)" stroke-width="1px"></line><line x1="48.8125" y1="0" x2="43.8125" y2="0" style="visibility: inherit;" fill="rgb(0, 0, 0)" stroke="rgb(204, 204, 204)" stroke-width="1px"></line></g><g transform="translate(38.8125, 0)"><text x="0" y="177" dx="0em" dy="0.3em" style="text-anchor: end; visibility: hidden; font-family: &quot;Helvetica Neue&quot;, sans-serif; font-size: 12px; font-weight: 200;" fill="rgb(50, 49, 63)" stroke="none" stroke-width="1px">-0.1</text><text x="0" y="159.3" dx="0em" dy="0.3em" style="text-anchor: end; visibility: inherit; font-family: &quot;Helvetica Neue&quot;, sans-serif; font-size: 12px; font-weight: 200;" fill="rgb(50, 49, 63)" stroke="none" stroke-width="1px">0</text><text x="0" y="141.6" dx="0em" dy="0.3em" style="text-anchor: end; visibility: hidden; font-family: &quot;Helvetica Neue&quot;, sans-serif; font-size: 12px; font-weight: 200;" fill="rgb(50, 49, 63)" stroke="none" stroke-width="1px">0.1</text><text x="0" y="123.89999999999999" dx="0em" dy="0.3em" style="text-anchor: end; visibility: inherit; font-family: &quot;Helvetica Neue&quot;, sans-serif; font-size: 12px; font-weight: 200;" fill="rgb(50, 49, 63)" stroke="none" stroke-width="1px">0.2</text><text x="0" y="106.2" dx="0em" dy="0.3em" style="text-anchor: end; visibility: hidden; font-family: &quot;Helvetica Neue&quot;, sans-serif; font-size: 12px; font-weight: 200;" fill="rgb(50, 49, 63)" stroke="none" stroke-width="1px">0.3</text><text x="0" y="88.5" dx="0em" dy="0.3em" style="text-anchor: end; visibility: inherit; font-family: &quot;Helvetica Neue&quot;, sans-serif; font-size: 12px; font-weight: 200;" fill="rgb(50, 49, 63)" stroke="none" stroke-width="1px">0.4</text><text x="0" y="70.8" dx="0em" dy="0.3em" style="text-anchor: end; visibility: hidden; font-family: &quot;Helvetica Neue&quot;, sans-serif; font-size: 12px; font-weight: 200;" fill="rgb(50, 49, 63)" stroke="none" stroke-width="1px">0.5</text><text x="0" y="53.10000000000001" dx="0em" dy="0.3em" style="text-anchor: end; visibility: inherit; font-family: &quot;Helvetica Neue&quot;, sans-serif; font-size: 12px; font-weight: 200;" fill="rgb(50, 49, 63)" stroke="none" stroke-width="1px">0.6</text><text x="0" y="35.400000000000006" dx="0em" dy="0.3em" style="text-anchor: end; visibility: hidden; font-family: &quot;Helvetica Neue&quot;, sans-serif; font-size: 12px; font-weight: 200;" fill="rgb(50, 49, 63)" stroke="none" stroke-width="1px">0.7</text><text x="0" y="17.69999999999999" dx="0em" dy="0.3em" style="text-anchor: end; visibility: inherit; font-family: &quot;Helvetica Neue&quot;, sans-serif; font-size: 12px; font-weight: 200;" fill="rgb(50, 49, 63)" stroke="none" stroke-width="1px">0.8</text><text x="0" y="0" dx="0em" dy="0.3em" style="text-anchor: end; visibility: hidden; font-family: &quot;Helvetica Neue&quot;, sans-serif; font-size: 12px; font-weight: 200;" fill="rgb(50, 49, 63)" stroke="none" stroke-width="1px">0.9</text></g><line x1="48.8125" y1="0" x2="48.8125" y2="177" fill="rgb(0, 0, 0)" stroke="rgb(204, 204, 204)" stroke-width="1px"></line></g></g><g transform="translate(48, 0)" clip-path="url(#clip_0)"><clipPath id="clip_0"><rect width="281" height="177"></rect></clipPath><g><g><g><line x1="0" y1="0" x2="0" y2="177" fill="rgb(0, 0, 0)" stroke="rgb(60, 60, 60)" stroke-width="1px" opacity="0.25"></line><line x1="23.432291666666664" y1="0" x2="23.432291666666664" y2="177" fill="rgb(0, 0, 0)" stroke="rgb(60, 60, 60)" stroke-width="1px" opacity="0.25"></line><line x1="46.86458333333333" y1="0" x2="46.86458333333333" y2="177" fill="rgb(0, 0, 0)" stroke="rgb(60, 60, 60)" stroke-width="1px" opacity="0.25"></line><line x1="70.296875" y1="0" x2="70.296875" y2="177" fill="rgb(0, 0, 0)" stroke="rgb(60, 60, 60)" stroke-width="1px" opacity="0.25"></line><line x1="93.72916666666666" y1="0" x2="93.72916666666666" y2="177" fill="rgb(0, 0, 0)" stroke="rgb(60, 60, 60)" stroke-width="1px" opacity="0.25"></line><line x1="117.16145833333334" y1="0" x2="117.16145833333334" y2="177" fill="rgb(0, 0, 0)" stroke="rgb(60, 60, 60)" stroke-width="1px" opacity="0.25"></line><line x1="140.59375" y1="0" x2="140.59375" y2="177" fill="rgb(0, 0, 0)" stroke="rgb(60, 60, 60)" stroke-width="1px" opacity="0.25"></line><line x1="164.02604166666669" y1="0" x2="164.02604166666669" y2="177" fill="rgb(0, 0, 0)" stroke="rgb(60, 60, 60)" stroke-width="1px" opacity="0.25"></line><line x1="187.45833333333331" y1="0" x2="187.45833333333331" y2="177" fill="rgb(0, 0, 0)" stroke="rgb(60, 60, 60)" stroke-width="1px" opacity="0.25"></line><line x1="210.890625" y1="0" x2="210.890625" y2="177" fill="rgb(0, 0, 0)" stroke="rgb(60, 60, 60)" stroke-width="1px" opacity="0.25"></line><line x1="234.32291666666669" y1="0" x2="234.32291666666669" y2="177" fill="rgb(0, 0, 0)" stroke="rgb(60, 60, 60)" stroke-width="1px" opacity="0.25"></line><line x1="257.7552083333333" y1="0" x2="257.7552083333333" y2="177" fill="rgb(0, 0, 0)" stroke="rgb(60, 60, 60)" stroke-width="1px" opacity="0.25"></line><line x1="281.1875" y1="0" x2="281.1875" y2="177" fill="rgb(0, 0, 0)" stroke="rgb(60, 60, 60)" stroke-width="1px" opacity="0.25"></line></g><g><line x1="0" y1="177" x2="281.1875" y2="177" fill="rgb(0, 0, 0)" stroke="rgb(60, 60, 60)" stroke-width="1px" opacity="0.25"></line><line x1="0" y1="159.3" x2="281.1875" y2="159.3" fill="rgb(0, 0, 0)" stroke="rgb(60, 60, 60)" stroke-width="1px" opacity="0.25"></line><line x1="0" y1="141.6" x2="281.1875" y2="141.6" fill="rgb(0, 0, 0)" stroke="rgb(60, 60, 60)" stroke-width="1px" opacity="0.25"></line><line x1="0" y1="123.89999999999999" x2="281.1875" y2="123.89999999999999" fill="rgb(0, 0, 0)" stroke="rgb(60, 60, 60)" stroke-width="1px" opacity="0.25"></line><line x1="0" y1="106.2" x2="281.1875" y2="106.2" fill="rgb(0, 0, 0)" stroke="rgb(60, 60, 60)" stroke-width="1px" opacity="0.25"></line><line x1="0" y1="88.5" x2="281.1875" y2="88.5" fill="rgb(0, 0, 0)" stroke="rgb(60, 60, 60)" stroke-width="1px" opacity="0.25"></line><line x1="0" y1="70.8" x2="281.1875" y2="70.8" fill="rgb(0, 0, 0)" stroke="rgb(60, 60, 60)" stroke-width="1px" opacity="0.25"></line><line x1="0" y1="53.10000000000001" x2="281.1875" y2="53.10000000000001" fill="rgb(0, 0, 0)" stroke="rgb(60, 60, 60)" stroke-width="1px" opacity="0.25"></line><line x1="0" y1="35.400000000000006" x2="281.1875" y2="35.400000000000006" fill="rgb(0, 0, 0)" stroke="rgb(60, 60, 60)" stroke-width="1px" opacity="0.25"></line><line x1="0" y1="17.69999999999999" x2="281.1875" y2="17.69999999999999" fill="rgb(0, 0, 0)" stroke="rgb(60, 60, 60)" stroke-width="1px" opacity="0.25"></line><line x1="0" y1="0" x2="281.1875" y2="0" fill="rgb(0, 0, 0)" stroke="rgb(60, 60, 60)" stroke-width="1px" opacity="0.25"></line></g></g></g><g><g><line x1="0" y1="159.3" x2="281.1875" y2="159.3" fill="rgb(0, 0, 0)" stroke="rgb(153, 153, 153)" stroke-width="1.5px"></line></g></g><g><g><line x1="23.432291666666664" y1="0" x2="23.432291666666664" y2="177" fill="rgb(0, 0, 0)" stroke="rgb(153, 153, 153)" stroke-width="1.5px"></line></g></g><g><g><g><g><g><path stroke="rgb(0, 153, 136)" stroke-width="2px" d="M25.77552083333333,118.69773872494699L28.118750000000002,112.11026270985603L30.46197916666667,110.50956587791443L32.80520833333333,106.92339180707931L35.1484375,103.97133736610412L37.49166666666667,101.73139359354973L39.834895833333334,98.79458393454551L42.178125,96.39574100375175L44.52135416666666,94.04087056517601L46.86458333333333,91.9599631011486L49.207812499999996,89.92719538807869L51.55104166666666,88.14856715798378L53.89427083333334,86.52754570841789L56.237500000000004,85.1842746913433L58.58072916666667,83.92980848550796L60.92395833333334,82.54933809041977L63.2671875,81.3077323615551L65.61041666666667,80.07240389585495L67.95364583333334,79.13398470282554L70.296875,77.99389656186104L72.64010416666667,76.85391392111778L74.98333333333333,75.75880052447319L77.32656250000001,74.79772515892982" style="fill: none;" fill="none"></path></g><g><path stroke="rgb(51, 187, 238)" stroke-width="2px" d="M25.77552083333333,133.41182557046415L28.118750000000002,132.3652185380459L30.46197916666667,128.712347227335L32.80520833333333,125.73156507611276L35.1484375,123.00114813745023L37.49166666666667,120.68321860134603L39.834895833333334,118.38991281688214L42.178125,116.27360739111901L44.52135416666666,114.63443462848664L46.86458333333333,112.97217314243316L49.207812499999996,111.43024520874023L51.55104166666666,110.15556516051292L53.89427083333334,108.85440983176231L56.237500000000004,107.56322954893112L58.58072916666667,106.41752879619598L60.92395833333334,105.24766321778297L63.2671875,104.42004035711288L65.61041666666667,103.48258121609688L67.95364583333334,102.51904769539833L70.296875,101.46563326120376L72.64010416666667,100.51401071548462L74.98333333333333,99.60972084403038L77.32656250000001,98.79477383494377L79.66979166666667,98.00541062951088" style="fill: none;" fill="none"></path></g><g><path stroke="rgb(0, 119, 187)" stroke-width="2px" d="M25.77552083333333,119.15947890579702L28.118750000000002,116.80460846722127L30.46197916666667,112.64382480382919L32.80520833333333,108.27012850642204L35.1484375,104.67933880090713L37.49166666666667,101.89556776285171L39.834895833333334,99.7532433450222L42.178125,97.13452212810516L44.52135416666666,94.97118734121322L46.86458333333333,93.42829408049583L49.207812499999996,91.73497332930565L51.55104166666666,89.89547674655914L53.89427083333334,88.37450115680694L56.237500000000004,86.83773745894432L58.58072916666667,85.65568660497665L60.92395833333334,84.38090105652809L63.2671875,83.18909670710563L65.61041666666667,82.21863709688186L67.95364583333334,81.29849054217338L70.296875,79.9162688434124L72.64010416666667,78.74777476787567L74.98333333333333,77.64772923588752L77.32656250000001,76.60720692873001L79.66979166666667,75.66493697762489L82.01302083333334,74.7266285598278L84.35625,73.81788130402565" style="fill: none;" fill="none"></path></g><g><path stroke="rgb(0, 119, 187)" stroke-width="2px" d="M25.77552083333333,54.977741467952725L28.118750000000002,49.23677812814712L30.46197916666667,45.681389021873485L32.80520833333333,43.4111719608307L35.1484375,41.84587572813035L37.49166666666667,40.130262780189526L39.834895833333334,39.04114179611207L42.178125,38.30510895252229L44.52135416666666,37.137506353855144L46.86458333333333,36.20650910139085L49.207812499999996,35.38601278066636L51.55104166666666,34.88439087867738L53.89427083333334,34.258679616451275L56.237500000000004,33.71575437784196L58.58072916666667,33.27189384698869L60.92395833333334,32.912380743026745L63.2671875,32.64043282270433L65.61041666666667,32.30634527206422L67.95364583333334,31.978271234035503L70.296875,31.419805812835705L72.64010416666667,30.927731680870068L74.98333333333333,30.471981275081646L77.32656250000001,30.042489874362957L79.66979166666667,29.684696424007427L82.01302083333334,29.35921769142152L84.35625,29.071803438663494L86.69947916666668,28.798842716217052L89.04270833333332,28.539871323108684L91.3859375,28.280720579624187L93.72916666666666,28.04295473098756L96.07239583333333,27.85428868532182L98.41562499999999,27.68318842649461L100.75885416666667,27.52524404525758L103.10208333333333,27.374790179729473L105.4453125,27.252283322811138L107.78854166666667,27.139999437332165L110.13177083333333,27.030458557605755L112.47500000000001,26.934780406951916L114.81822916666667,26.84401856660844L117.16145833333334,26.76163344383241L119.5046875,26.66599749326707L121.84791666666668,26.582979369163525L124.19114583333332,26.49738703966142L126.534375,26.40028463602067L128.87760416666666,26.321866321563732L131.22083333333333,26.247530865669262L133.5640625,26.177003967762005L135.90729166666668,26.10942052602769L138.25052083333333,26.047112095356L140.59375,25.992832231521618L142.93697916666665,25.940683472156536L145.28020833333335,25.880474495887768L147.6234375,25.82951788902284L149.96666666666667,25.779299783706676L152.30989583333331,25.733143436908733L154.65312500000002,25.682587730884563L156.99635416666666,25.64029269218446L159.33958333333334,25.60794632434846L161.68281249999998,25.57251935005189L164.02604166666669,25.531606364250194L166.36927083333333,25.486483919620525L168.7125,25.44778643846513L171.05572916666665,25.414216268062603L173.39895833333335,25.37689028978349L175.7421875,25.341189014911663L178.08541666666665,25.30843119621278L180.42864583333335,25.273900973796856L182.771875,25.25079642534257L185.11510416666667,25.222997117042553L187.45833333333331,25.193362104892742L189.80156250000002,25.166733849048626L192.14479166666666,25.132288026809704L194.48802083333334,25.110597181320202L196.83124999999998,25.083662974834454L199.17447916666669,25.057045269012463L201.51770833333333,25.0327380180359L203.8609375,25.006268012523662L206.20416666666665,24.97930215597154L208.54739583333335,24.95729480981828L210.890625,24.936606216430675L213.23385416666665,24.908828008174908L215.57708333333335,24.88060669898988L217.9203125,24.866047668457043L220.26354166666667,24.851826238632214L222.60677083333331,24.83359580039979L224.95000000000002,24.815439212322246L227.29322916666666,24.797335374355328L229.63645833333334,24.778598535060894L231.97968749999998,24.764092254638683L234.32291666666669,24.74921672344209L236.66614583333333,24.734668242931377L239.009375,24.719771611690533L241.35260416666665,24.702216374874126L243.69583333333335,24.686338591575634L246.0390625,24.666588950157177L248.38229166666665,24.65045796632768L250.72552083333335,24.638779091835033L253.06875,24.63048677444459L255.41197916666667,24.609291779994976L257.7552083333333,24.59930090904237" style="fill: none;" fill="none"></path></g><g><path stroke="rgb(187, 187, 187)" stroke-width="2px" d="M25.77552083333333,55.62417297363281L28.118750000000002,50.48347424268722L30.46197916666667,47.28209112882615L32.80520833333333,45.519783782958996L35.1484375,44.394676673412334L37.49166666666667,42.890433418750774L39.834895833333334,41.76320575475694L42.178125,41.12556241750718L44.52135416666666,40.540700840950024L46.86458333333333,39.872715640068066L49.207812499999996,39.57523666620256L51.55104166666666,39.01438694000245L53.89427083333334,38.68663995265962L56.237500000000004,38.3705190896988L58.58072916666667,37.94880305528642L60.92395833333334,37.55671148300172L63.2671875,37.26143746376039L65.61041666666667,36.98188297748567L67.95364583333334,36.73337720632554L70.296875,36.029500830173504L72.64010416666667,35.328177559375774L74.98333333333333,34.6822102546692L77.32656250000001,34.07099472284318L79.66979166666667,33.50815104246141L82.01302083333334,32.98171548843385L84.35625,32.501700031757366L86.69947916666668,32.04583357572557L89.04270833333332,31.639024722576153" style="fill: none;" fill="none"></path></g><g><path stroke="rgb(238, 51, 119)" stroke-width="2px" d="M25.77552083333333,40.32521663904191L28.118750000000002,36.615913259983074L30.46197916666667,34.27130799293519L32.80520833333333,32.86043243408204L35.1484375,32.5679963707924L37.49166666666667,31.777915763854992L39.834895833333334,31.323505210876476L42.178125,30.84032474756242L44.52135416666666,30.669741439819347L46.86458333333333,30.502491939067852L49.207812499999996,30.18374412059785L51.55104166666666,30.166959035396587L53.89427083333334,30.162222075462353L56.237500000000004,30.188945281505596L58.58072916666667,30.240830290317547L60.92395833333334,30.345876860618603L63.2671875,30.310006785392773L65.61041666666667,30.373887169361126L67.95364583333334,30.29980491399766L70.296875,29.746772754192364L72.64010416666667,29.297711062431347L74.98333333333333,28.84050475358964L77.32656250000001,28.38557724952699L79.66979166666667,27.976257491111767L82.01302083333334,27.64154748916627L84.35625,27.291149604320537L86.69947916666668,26.97126238346101L89.04270833333332,26.677528667449963" style="fill: none;" fill="none"></path></g><g><path stroke="rgb(204, 51, 17)" stroke-width="2px" d="M25.77552083333333,38.139652955532085L28.118750000000002,33.876262414455425L30.46197916666667,31.808700728416454L32.80520833333333,29.943783867359173L35.1484375,28.73864428997041L37.49166666666667,27.637654531002056L39.834895833333334,26.657736825943005L42.178125,25.79198091030122L44.52135416666666,25.21437774896623L46.86458333333333,24.72459297180177L49.207812499999996,24.164344596862804L51.55104166666666,23.746215569973003L53.89427083333334,23.35216169357301L56.237500000000004,23.007798421382915L58.58072916666667,22.678574430942547L60.92395833333334,22.400117146968853L63.2671875,22.121828663349163L65.61041666666667,21.93603222370149L67.95364583333334,21.753580141067516L70.296875,21.544753003120434L72.64010416666667,21.329416501522076L74.98333333333333,21.128058779239666L77.32656250000001,20.96831034421922L79.66979166666667,20.814174520969402L82.01302083333334,20.677298533916485L84.35625,20.502400267124187L86.69947916666668,20.350722599029552L89.04270833333332,20.21758131980897" style="fill: none;" fill="none"></path></g><g><path stroke="rgb(255, 112, 67)" stroke-width="2px" d="M25.77552083333333,124.54643361568452L28.118750000000002,117.98973992764951L30.46197916666667,111.86399881839752L32.80520833333333,108.17008792161941L35.1484375,104.64855911135673L37.49166666666667,102.18799855113029L39.834895833333334,99.39704294800758L42.178125,97.02293454408645L44.52135416666666,94.81727306842804L46.86458333333333,92.62486769556999L49.207812499999996,90.50926648378372L51.55104166666666,88.81295480132103L53.89427083333334,87.2000252187252L56.237500000000004,85.9670335829258L58.58072916666667,85.02361895442009L60.92395833333334,83.7883379638195L63.2671875,82.57163028717041L65.61041666666667,81.31397269964218L67.95364583333334,80.14171226620674L70.296875,78.73267768621444L72.64010416666667,77.44464658498764L74.98333333333333,76.20374770760536L77.32656250000001,75.20860632061958L79.66979166666667,74.14632459282875L82.01302083333334,73.21828134655952L84.35625,72.32728977799415L86.69947916666668,71.50002034306526L89.04270833333332,70.71755157709121L91.3859375,69.96568315029144" style="fill: none;" fill="none"></path></g><g><path stroke="rgb(0, 153, 136)" stroke-width="2px" d="M25.77552083333333,126.97826119065286L28.118750000000002,121.05260916352273L30.46197916666667,117.24069626927377L32.80520833333333,113.44160692691804L35.1484375,109.43833245635032L37.49166666666667,106.37956454157829L39.834895833333334,103.79456119537353L42.178125,101.2209149479866L44.52135416666666,98.89084233641624L46.86458333333333,97.06680153608322L49.207812499999996,95.37571738958358L51.55104166666666,94.05369411706924L53.89427083333334,92.64381026029587L56.237500000000004,91.1626979291439L58.58072916666667,89.91805379390716L60.92395833333334,88.65391321778297L63.2671875,87.49504076242447L65.61041666666667,86.35548012256622L67.95364583333334,85.26620616316795L70.296875,83.98111324310302L72.64010416666667,82.73632140755653L74.98333333333333,81.56971578598022L77.32656250000001,80.46841480135917L79.66979166666667,79.51148031949997L82.01302083333334,78.55967842340469L84.35625,77.6372899889946L86.69947916666668,76.81857134699821L89.04270833333332,76.05613179802894L91.3859375,75.34202717542648L93.72916666666666,74.66013704538345" style="fill: none;" fill="none"></path></g><g><path stroke="rgb(51, 187, 238)" stroke-width="2px" d="M25.77552083333333,51.253045606613156L28.118750000000002,65.90557043552398L30.46197916666667,67.06503896713257L32.80520833333333,67.86025743484497L35.1484375,69.88267557621002L37.49166666666667,71.55417360663414L39.834895833333334,72.89321933984756L42.178125,73.59737001657486L44.52135416666666,74.4733911037445L46.86458333333333,75.21422420740127L49.207812499999996,75.85114486813545L51.55104166666666,77.73121683597564L53.89427083333334,77.95814253687858L56.237500000000004,78.32854853868484L58.58072916666667,79.72285001277923L60.92395833333334,80.01554455161094L63.2671875,80.25026144385338L65.61041666666667,80.23315985798835L67.95364583333334,80.89183466434478L70.296875,79.4806953549385L72.64010416666667,78.17903362512588L74.98333333333333,76.87536739110946L77.32656250000001,75.76402806043625L79.66979166666667,74.60549848079681L82.01302083333334,73.55319707393646L84.35625,72.6434053659439L86.69947916666668,71.74855776429176L89.04270833333332,70.87146057486534L91.3859375,70.06121360063553L93.72916666666666,69.3932389497757L96.07239583333333,68.7375656247139L98.41562499999999,68.05264763832092L100.75885416666667,67.39898936748504L103.10208333333333,66.72673140764236L105.4453125,66.16150342226028L107.78854166666667,65.58576761484146L110.13177083333333,65.00288944244384L112.47500000000001,64.51872782707214L114.81822916666667,64.00493119955063L117.16145833333334,63.272886264324185L119.5046875,62.538246023654935L121.84791666666668,61.85472064018249L124.19114583333332,61.159315931797025L126.534375,60.487828123569486L128.87760416666666,59.84754728078842L131.22083333333333,59.26789741516113L133.5640625,58.680166232585904L135.90729166666668,58.10152916908264L138.25052083333333,57.56913285255432L140.59375,57.06295334100723L142.93697916666665,56.53799479007721L145.28020833333335,56.02908282279968L147.6234375,55.52891682386398L149.96666666666667,55.0621099948883L152.30989583333331,54.59603111743927L154.65312500000002,54.1438571691513L156.99635416666666,53.708088505268094L159.33958333333334,53.30061500072479L161.68281249999998,52.88765548467636L164.02604166666669,52.4746010184288L166.36927083333333,52.077107834815976L168.7125,51.69145177602768L171.05572916666665,51.30825387239456L173.39895833333335,50.93704079389572L175.7421875,50.5744048833847L178.08541666666665,50.22602205276489L180.42864583333335,49.88298808336258L182.771875,49.55185453891754L185.11510416666667,49.23299067020416L187.45833333333331,48.92192326784135L189.80156250000002,48.618314731121075L192.14479166666666,48.33382283449174L194.48802083333334,48.04869793653489L196.83124999999998,47.76837329864503L199.17447916666669,47.500434386730205L201.51770833333333,47.235101330280315L203.8609375,46.97985409498216L206.20416666666665,46.734713780879986L208.54739583333335,46.48329620361329L210.890625,46.240097093582165L213.23385416666665,46.00631915330888L215.57708333333335,45.78124498128892L217.9203125,45.55640290975572L220.26354166666667,45.34351401329042L222.60677083333331,45.132376420497906L224.95000000000002,44.922568130493175L227.29322916666666,44.72004990577699L229.63645833333334,44.519346284866344L231.97968749999998,44.327989983558666L234.32291666666669,44.13815288543702L236.66614583333333,43.956555354595196L239.009375,43.77621327638627L241.35260416666665,43.598761904239666L243.69583333333335,43.42083578109742L246.0390625,43.251507925987255L248.38229166666665,43.08250712156297L250.72552083333335,42.92428843975068L253.06875,42.76332675218583L255.41197916666667,42.603135216236126L257.7552083333333,42.445528435707104" style="fill: none;" fill="none"></path></g><g><path stroke="rgb(0, 119, 187)" stroke-width="2px" d="M25.77552083333333,127.47078369855882L28.118750000000002,117.82043581008912L30.46197916666667,115.80417360663415L32.80520833333333,111.19447858929634L35.1484375,106.40316494107246L37.49166666666667,105.21495814919471L39.834895833333334,102.3653655230999L42.178125,99.63945608139038L44.52135416666666,97.74846484065056L46.86458333333333,95.56461026072502L49.207812499999996,93.71345590353012L51.55104166666666,92.71721731424331L53.89427083333334,91.14256848692894L56.237500000000004,89.38170121908188L58.58072916666667,88.22090338468551L60.92395833333334,87.15710772871971L63.2671875,86.03558235168457L65.61041666666667,85.0266942858696L67.95364583333334,84.18557267189026L70.296875,82.41735731363296L72.64010416666667,80.75011094212532L74.98333333333333,79.21624322533607L77.32656250000001,77.72876395583152L79.66979166666667,76.34856258630752L82.01302083333334,75.0430764734745L84.35625,73.84274243116378L86.69947916666668,72.73702626228332L89.04270833333332,71.64762042760849L91.3859375,70.63759295940399L93.72916666666666,69.70209084749222L96.07239583333333,68.8199823975563L98.41562499999999,68.02090262174606L100.75885416666667,67.28052316904068L103.10208333333333,66.62442784309387L105.4453125,65.9108454465866L107.78854166666667,65.22663431167602L110.13177083333333,64.5752548456192L112.47500000000001,63.96869187355041L114.81822916666667,63.34113435745239L117.16145833333334,62.66800074577331L119.5046875,62.0096899151802L121.84791666666668,61.37099157571792L124.19114583333332,60.72979288101196L126.534375,60.13033007383346L128.87760416666666,59.56435303688049L131.22083333333333,59.01026587486267L133.5640625,58.479093360900876L135.90729166666668,57.980330514907834L138.25052083333333,57.50003020763397L140.59375,57.03340272903442L142.93697916666665,56.582051682472226L145.28020833333335,56.145111966133115L147.6234375,55.73858796358108L149.96666666666667,55.3408626794815L152.30989583333331,54.953117716312406L154.65312500000002,54.58196793794632L156.99635416666666,54.21627252101898L159.33958333333334,53.86266742944717L161.68281249999998,53.52521442174911L164.02604166666669,53.17387758493423L166.36927083333333,52.8461727976799L168.7125,52.538966703414914L171.05572916666665,52.23809062242508L173.39895833333335,51.94228910207748L175.7421875,51.64705728292465L178.08541666666665,51.367777097225186L180.42864583333335,51.09407787322998L182.771875,50.82208775281906L185.11510416666667,50.562441158294675L187.45833333333331,50.314610588550565L189.80156250000002,50.064226913452146L192.14479166666666,49.82592301368713L194.48802083333334,49.59963558912277L196.83124999999998,49.371976661682126L199.17447916666669,49.145868587493894L201.51770833333333,48.9338131427765L203.8609375,48.72486995458604L206.20416666666665,48.51417546272279L208.54739583333335,48.3146639943123L210.890625,48.12091283798219L213.23385416666665,47.93308024406434L215.57708333333335,47.75358216762544L217.9203125,47.576194095611584L220.26354166666667,47.39935462474824L222.60677083333331,47.22269450426103L224.95000000000002,47.05909531116487L227.29322916666666,46.89642452001573L229.63645833333334,46.74164514541627L231.97968749999998,46.58550481796266L234.32291666666669,46.4338587999344L236.66614583333333,46.28249763250352L239.009375,46.13410102128984L241.35260416666665,45.983594405651104L243.69583333333335,45.84218190908433L246.0390625,45.705369222164165L248.38229166666665,45.57012848854066L250.72552083333335,45.43671290874482L253.06875,45.306979286670696L255.41197916666667,45.18296377658845L257.7552083333333,45.055888760089886" style="fill: none;" fill="none"></path></g><g><path stroke="rgb(187, 187, 187)" stroke-width="2px" d="M25.77552083333333,123.59217356443406L28.118750000000002,115.23469659984113L30.46197916666667,110.44800122380256L32.80520833333333,106.79256625771522L35.1484375,103.87899302244186L37.49166666666667,100.99260719418525L39.834895833333334,98.49994819164276L42.178125,96.3995864868164L44.52135416666666,94.33501573204994L46.86458333333333,92.28934006690979L49.207812499999996,90.52325581312179L51.55104166666666,88.87451945543289L53.89427083333334,87.23791562318802L56.237500000000004,85.65261127352714L58.58072916666667,84.309461581707L60.92395833333334,83.10149987339973L63.2671875,82.03927617073059L65.61041666666667,81.0078532576561L67.95364583333334,80.0574650645256L70.296875,78.82656760811805L72.64010416666667,77.70849736332893L74.98333333333333,76.62630774378776L77.32656250000001,75.59004237055778L79.66979166666667,74.63884710073471L82.01302083333334,73.76005663275718L84.35625,72.87900846004486L86.69947916666668,72.14075483679771L89.04270833333332,71.45742990374565L91.3859375,70.84457911849022L93.72916666666666,70.22333579063415L96.07239583333333,69.67593734264373L98.41562499999999,69.10311334133148L100.75885416666667,68.57805984020233L103.10208333333333,68.11648582220077L105.4453125,67.618841278553L107.78854166666667,67.11891793012619L110.13177083333333,66.64684664011001L112.47500000000001,66.18665467500686L114.81822916666667,65.77453916072845L117.16145833333334,65.35455332994461L119.5046875,64.94905267953872L121.84791666666668,64.58997212648391L124.19114583333332,64.22039430141449L126.534375,63.83473824262619L128.87760416666666,63.512044715881345L131.22083333333333,63.14985190629959L133.5640625,62.83581994771957L135.90729166666668,62.5432045340538L138.25052083333333,62.2386675953865L140.59375,61.96785907745361L142.93697916666665,61.68291352987289L145.28020833333335,61.41367696523666L147.6234375,61.18014167547226L149.96666666666667,60.91935567855835L152.30989583333331,60.67867802381515L154.65312500000002,60.45099799633026L156.99635416666666,60.2442703127861L159.33958333333334,60.03086446523666L161.68281249999998,59.83304100036621L164.02604166666669,59.61462389230728L166.36927083333333,59.446773040294644L168.7125,59.27041887044906L171.05572916666665,59.097229707241056L173.39895833333335,58.911665368080136L175.7421875,58.754058587551114L178.08541666666665,58.60402672290802L180.42864583333335,58.42447589635849L182.771875,58.295470225811L185.11510416666667,58.14254765510559L187.45833333333331,57.991355288028714L189.80156250000002,57.83141695261001L192.14479166666666,57.672069418430326L194.48802083333334,57.53775708675384L196.83124999999998,57.415809381008145L199.17447916666669,57.28889261484146L201.51770833333333,57.194090116024014L203.8609375,57.07096080780029L206.20416666666665,56.96676878929138L208.54739583333335,56.84028457403183L210.890625,56.7385085105896L213.23385416666665,56.6240407705307L215.57708333333335,56.51574479341507L217.9203125,56.40968542098999L220.26354166666667,56.29735933542251L222.60677083333331,56.20143853425979L224.95000000000002,56.10917859077453L227.29322916666666,56.02575956583023L229.63645833333334,55.9424987912178L231.97968749999998,55.845881688594815L234.32291666666669,55.765089619159696L236.66614583333333,55.679993140697476L239.009375,55.597407567501065L241.35260416666665,55.51064418554306L243.69583333333335,55.42965166568756L246.0390625,55.36787073612213L248.38229166666665,55.29005377292633L250.72552083333335,55.21035890579223L253.06875,55.141699361801145L255.41197916666667,55.06542270183563L257.7552083333333,55.00267117023468" style="fill: none;" fill="none"></path></g><g><path stroke="rgb(204, 51, 17)" stroke-width="2px" d="M25.77552083333333,49.31374053955078L28.118750000000002,43.09565244913102L30.46197916666667,40.468865740299236L32.80520833333333,38.00113116502763L35.1484375,36.471230256557476L37.49166666666667,35.52825872898103L39.834895833333334,34.6876013159752L42.178125,33.56074290275575L44.52135416666666,32.896344709396374L46.86458333333333,32.31865714788438L49.207812499999996,31.938360500335705L51.55104166666666,31.3007804632187L53.89427083333334,30.924682724475872L56.237500000000004,30.54954503774644L58.58072916666667,30.29008834362031L60.92395833333334,30.047669935226452L63.2671875,29.902586030960094L65.61041666666667,29.7137722849846L67.95364583333334,29.572370338439953L70.296875,29.16806184053422L72.64010416666667,28.75095616579057L74.98333333333333,28.373170423507702L77.32656250000001,28.010840463638317L79.66979166666667,27.70435177087785L82.01302083333334,27.450697588920605L84.35625,27.214197742939007L86.69947916666668,27.000907945632946L89.04270833333332,26.791859257221233L91.3859375,26.62908296585084L93.72916666666666,26.46175961494447L96.07239583333333,26.307212340831768L98.41562499999999,26.155597972869884L100.75885416666667,26.025294649600994L103.10208333333333,25.901753890514385L105.4453125,25.779996085166943L107.78854166666667,25.669273602962505L110.13177083333333,25.579514014720928L112.47500000000001,25.493668484687817L114.81822916666667,25.399593937397015L117.16145833333334,25.29330246448518L119.5046875,25.19744496345521L121.84791666666668,25.107611525058758L124.19114583333332,25.019814240932476L126.534375,24.938114869594585L128.87760416666666,24.860719907283794L131.22083333333333,24.775317478179943L133.5640625,24.70403097867967L135.90729166666668,24.64275645017625L138.25052083333333,24.58399282693864L140.59375,24.517728137969982L142.93697916666665,24.458890664577495L145.28020833333335,24.39995824098588L147.6234375,24.35426609516145L149.96666666666667,24.306864845752727L152.30989583333331,24.2656459093094L154.65312500000002,24.221515166759502L156.99635416666666,24.177848625183117L159.33958333333334,24.132504630088818L161.68281249999998,24.100168812274944L164.02604166666669,24.050457108020794L166.36927083333333,24.006400215625774L168.7125,23.976670253276836L171.05572916666665,23.938120472431194L173.39895833333335,23.907504308223736L175.7421875,23.879726099967968L178.08541666666665,23.848592984676372L180.42864583333335,23.808281350135815L182.771875,23.772769975662243L185.11510416666667,23.737849402427685L187.45833333333331,23.713162350654613L189.80156250000002,23.683527338504803L192.14479166666666,23.654725778102886L194.48802083333334,23.630502927303326L196.83124999999998,23.611090886592876L199.17447916666669,23.58235262632371L201.51770833333333,23.55557667016984L203.8609375,23.532303321361553L206.20416666666665,23.508048820495617L208.54739583333335,23.488689529895794L210.890625,23.462504374980938L213.23385416666665,23.435443568229687L215.57708333333335,23.407918560504925L217.9203125,23.389593172073376L220.26354166666667,23.36839817762376L222.60677083333331,23.348426985740673L224.95000000000002,23.33214830160142L227.29322916666666,23.317652571201336L229.63645833333334,23.29963313341142L231.97968749999998,23.280294942855846L234.32291666666669,23.26344655752183L236.66614583333333,23.246619272232067L239.009375,23.230836439132702L241.35260416666665,23.21968506574632L243.69583333333335,23.205178785324108L246.0390625,23.187729048728954L248.38229166666665,23.175775873661053L250.72552083333335,23.153283226490032L253.06875,23.137837994098675L255.41197916666667,23.124576616287243L257.7552083333333,23.113741743564617" style="fill: none;" fill="none"></path></g><g><path stroke="rgb(238, 51, 119)" stroke-width="2px" d="M25.77552083333333,61.44208817481994L28.118750000000002,58.04061334133148L30.46197916666667,54.721217679977414L32.80520833333333,54.00808893442154L35.1484375,53.45092116594314L37.49166666666667,53.42321680784225L39.834895833333334,52.343622493743894L42.178125,51.987981247901914L44.52135416666666,51.43773429393768L46.86458333333333,51.724019694328305L49.207812499999996,52.15692930221557L51.55104166666666,51.87383000850677L53.89427083333334,51.83080701828003L56.237500000000004,51.97863392829895L58.58072916666667,52.260657119750974L60.92395833333334,52.399695861339566L63.2671875,52.3286203622818L65.61041666666667,52.207305657863614L67.95364583333334,52.168418276309964L70.296875,51.10528199672699L72.64010416666667,50.03786240816116L74.98333333333333,49.02270762920379L77.32656250000001,48.10786246061326L79.66979166666667,47.217957544326794L82.01302083333334,46.377078580856335L84.35625,45.63048516511918L86.69947916666668,44.87077807188035L89.04270833333332,44.198330211639416L91.3859375,43.55420916080476L93.72916666666666,42.95713065862657L96.07239583333333,42.44922094345094L98.41562499999999,41.96535472869874L100.75885416666667,41.46510432958604L103.10208333333333,41.02507345676423L105.4453125,40.60665957927705L107.78854166666667,40.22431622743608L110.13177083333333,39.84101282358171L112.47500000000001,39.48922233581544L114.81822916666667,39.138117599487316L117.16145833333334,38.696050572395336L119.5046875,38.25902645587922L121.84791666666668,37.840623128414165L124.19114583333332,37.44954435825349L126.534375,37.07205401659013L128.87760416666666,36.70860575437547L131.22083333333333,36.36831479072572L133.5640625,36.04250900745393L135.90729166666668,35.73476486206056L138.25052083333333,35.43329797983171L140.59375,35.1715941309929L142.93697916666665,34.90868757963182L145.28020833333335,34.645823228359234L147.6234375,34.41727809906007L149.96666666666667,34.190357673168194L152.30989583333331,33.97392396926881L154.65312500000002,33.75862966775895L156.99635416666666,33.55682884454728L159.33958333333334,33.37312130928041L161.68281249999998,33.18365346193315L164.02604166666669,32.98920600414277L166.36927083333333,32.80164771080018L168.7125,32.62758289575578L171.05572916666665,32.45756928920747L173.39895833333335,32.29720895290376L175.7421875,32.135150063037884L178.08541666666665,31.977532732486736L180.42864583333335,31.82508491277696L182.771875,31.684811818599712L185.11510416666667,31.537449109554302L187.45833333333331,31.403094577789318L189.80156250000002,31.2738251566887L192.14479166666666,31.14601163864137L194.48802083333334,31.01621471643449L196.83124999999998,30.893264758586895L199.17447916666669,30.776043462753307L201.51770833333333,30.661913323402416L203.8609375,30.54914413690568L206.20416666666665,30.44754742383958L208.54739583333335,30.344252157211315L210.890625,30.240830290317547L213.23385416666665,30.147578644752514L215.57708333333335,30.04607688188554L217.9203125,29.951105582714092L220.26354166666667,29.855469632148754L222.60677083333331,29.76823149919511L224.95000000000002,29.681236016750347L227.29322916666666,29.5927002310753L229.63645833333334,29.510030257701885L231.97968749999998,29.425408530235302L234.32291666666669,29.345059561729443L236.66614583333333,29.266482996940624L239.009375,29.190944838523876L241.35260416666665,29.119689989089977L243.69583333333335,29.049943792819988L246.0390625,28.97875224351884L248.38229166666665,28.906474041938793L250.72552083333335,28.836643445491802L253.06875,28.772942411899578L255.41197916666667,28.707426774501812L257.7552083333333,28.644137191772472" style="fill: none;" fill="none"></path></g><g><path stroke="rgb(187, 187, 187)" stroke-width="2px" d="M25.77552083333333,128.64052267670633L28.118750000000002,122.34547744989396L30.46197916666667,118.66695639789106L32.80520833333333,114.81912859082223L35.1484375,111.7408695101738L37.49166666666667,108.63182546496391L39.834895833333334,106.52101923823356L42.178125,104.25300185680389L44.52135416666666,101.8220288336277L46.86458333333333,100.01577537059784L49.207812499999996,98.12096502184868L51.55104166666666,96.44704576134681L53.89427083333334,94.8222737789154L56.237500000000004,93.38784002065658L58.58072916666667,92.23700668215751L60.92395833333334,91.1626979291439L63.2671875,89.9105685532093L65.61041666666667,88.7462628364563L67.95364583333334,87.77093966603279L70.296875,86.42525269389152L72.64010416666667,85.2033280313015L74.98333333333333,84.0840972840786L77.32656250000001,83.00196041464805L79.66979166666667,81.98819823861122L82.01302083333334,81.05430500507354L84.35625,80.14488782286644L86.69947916666668,79.35186375975609L89.04270833333332,78.56381403207779L91.3859375,77.86832492351532L93.72916666666666,77.29513167142868L96.07239583333333,76.72316749691963L98.41562499999999,76.12923817634582L100.75885416666667,75.55264781713485L103.10208333333333,75.08602561354637L105.4453125,74.59505395889282L107.78854166666667,74.10998504161834L110.13177083333333,73.65945689678192L112.47500000000001,73.23020814657211L114.81822916666667,72.8071839094162L117.16145833333334,72.37299247384071L119.5046875,71.98775841593742L121.84791666666668,71.59301878809929L124.19114583333332,71.278206127882L126.534375,70.94831748604774L128.87760416666666,70.62350867986679L131.22083333333333,70.30546771287918L133.5640625,70.02584992647171L135.90729166666668,69.73030160665512L138.25052083333333,69.48074083328247L140.59375,69.21961723566055L142.93697916666665,68.95425252914428L145.28020833333335,68.69317113161087L147.6234375,68.42683582305908L149.96666666666667,68.18233906030655L152.30989583333331,67.95737038850784L154.65312500000002,67.74152748584747L156.99635416666666,67.54028581380844L159.33958333333334,67.33164857625961L161.68281249999998,67.13269625902176L164.02604166666669,66.94447331428528L166.36927083333333,66.75436191558838L168.7125,66.56192951202392L171.05572916666665,66.38098608255386L173.39895833333335,66.19992660284042L175.7421875,66.035799908638L178.08541666666665,65.86452029943466L180.42864583333335,65.71903549432754L182.771875,65.55609040260315L185.11510416666667,65.40367423295974L187.45833333333331,65.26220898628235L189.80156250000002,65.13252811431884L192.14479166666666,65.00004093647003L194.48802083333334,64.86486350297928L196.83124999999998,64.76952295303344L199.17447916666669,64.64717434644699L201.51770833333333,64.52520554065704L203.8609375,64.4000189781189L206.20416666666665,64.28671174049377L208.54739583333335,64.17394255399704L210.890625,64.06553052663803L213.23385416666665,63.9628366112709L215.57708333333335,63.8570198893547L217.9203125,63.7541255235672L220.26354166666667,63.65733962059021L222.60677083333331,63.555943357944486L224.95000000000002,63.4637150645256L227.29322916666666,63.36263530254364L229.63645833333334,63.267009902000424L231.97968749999998,63.17836861610412L234.32291666666669,63.08895717859268L236.66614583333333,63.01504372358322L239.009375,62.92467223405838L241.35260416666665,62.82829778194427L243.69583333333335,62.75853048563003L246.0390625,62.70384972095489L248.38229166666665,62.628817963600156L250.72552083333335,62.55216150283813L253.06875,62.48492621183395L255.41197916666667,62.41593961715698L257.7552083333333,62.36649166345596" style="fill: none;" fill="none"></path></g><g><path stroke="rgb(0, 153, 136)" stroke-width="2px" d="M25.77552083333333,128.91756625771524L28.118750000000002,125.00817379653455L30.46197916666667,119.95982732176782L32.80520833333333,116.69686900377275L35.1484375,115.74260895252229L37.49166666666667,112.36678122282028L39.834895833333334,109.8983081459999L42.178125,107.63523872494697L44.52135416666666,105.39281042218208L46.86458333333333,103.69429378509521L49.207812499999996,101.72532733082771L51.55104166666666,100.05630328059196L53.89427083333334,99.13420497179031L56.237500000000004,97.732581782341L58.58072916666667,96.4562770307064L60.92395833333334,95.22792212963104L63.2671875,94.03906123638153L65.61041666666667,96.08107076883316L67.95364583333334,94.79747595191002L70.296875,93.15894674062729L72.64010416666667,91.61197589635849L74.98333333333333,90.13427649736404L77.32656250000001,88.77168838977813L79.66979166666667,87.57395492792129L82.01302083333334,86.43510113954544L84.35625,85.38503633737564L86.69947916666668,84.49484129548073L89.04270833333332,83.4736413538456L91.3859375,82.55258749723434L93.72916666666666,81.59443448781967L96.07239583333333,80.71497936844825L98.41562499999999,79.87509738206863L100.75885416666667,79.12249572873115L103.10208333333333,78.36437113881111L105.4453125,77.64868928790092L107.78854166666667,76.98132126331329L110.13177083333333,76.3200722515583L112.47500000000001,75.70253725647926L114.81822916666667,75.11903663277626L117.16145833333334,74.55085991621017L119.5046875,74.00439514517784L121.84791666666668,73.52059750556946L124.19114583333332,73.0113373875618L126.534375,72.51542832255363L128.87760416666666,72.0319893836975L131.22083333333333,71.6090495467186L133.5640625,71.16087933182716L135.90729166666668,70.74740813970566L138.25052083333333,70.33951263427734L140.59375,69.92392616271972L142.93697916666665,69.5753323316574L145.28020833333335,69.2087718129158L147.6234375,68.83165072202682L149.96666666666667,68.5443208694458L152.30989583333331,68.20195155143738L154.65312500000002,67.87400411367416L156.99635416666666,67.58456425666809L159.33958333333334,67.3194422006607L161.68281249999998,67.04556362628936L164.02604166666669,66.78543173074722L166.36927083333333,66.54543982744217L168.7125,66.28886328935623L171.05572916666665,66.04970483779907L173.39895833333335,65.81081013679504L175.7421875,65.58258150815963L178.08541666666665,65.35381482839584L180.42864583333335,65.14335243701935L182.771875,64.9359179019928L185.11510416666667,64.75233696699142L187.45833333333331,64.55288879871368L189.80156250000002,64.36469750404358L192.14479166666666,64.16634653806686L194.48802083333334,63.96415536403656L196.83124999999998,63.777820873260495L199.17447916666669,63.594408738613126L201.51770833333333,63.43607400655746L203.8609375,63.27345596551895L206.20416666666665,63.1363162279129L208.54739583333335,62.97342388629913L210.890625,62.81383370161056L213.23385416666665,62.67415140867233L215.57708333333335,62.530744957923886L217.9203125,62.38299189805984L220.26354166666667,62.244628357887265L222.60677083333331,62.09395294189453L224.95000000000002,61.95858560800552L227.29322916666666,61.823503124713895L229.63645833333334,61.69009809494018L231.97968749999998,61.568329739570615L234.32291666666669,61.452690947055814L236.66614583333333,61.33620815277099L239.009375,61.22059046030044L241.35260416666665,61.11903594732284L243.69583333333335,60.98853217363357L246.0390625,60.870825576782224L248.38229166666665,60.76903896331787L250.72552083333335,60.65125851631164L253.06875,60.548765051364896L255.41197916666667,60.43714581727981L257.7552083333333,60.34530787467956" style="fill: none;" fill="none"></path></g><g><path stroke="rgb(51, 187, 238)" stroke-width="2px" d="M25.77552083333333,104.66087098717689L28.118750000000002,103.09095911979675L30.46197916666667,100.74121599197387L32.80520833333333,100.3820879638195L35.1484375,103.10327099561691L37.49166666666667,103.97338934540748L39.834895833333334,103.75058342814445L42.178125,103.48728125095367L44.52135416666666,103.5390132844448L46.86458333333333,104.24222500920295L49.207812499999996,103.87731029391288L51.55104166666666,103.55526031851768L53.89427083333334,103.35379182100296L56.237500000000004,103.24486811757087L58.58072916666667,103.03760238289833L60.92395833333334,103.30451266765594L63.2671875,103.02214660048485L65.61041666666667,102.49924530386924L67.95364583333334,102.57737349271774L70.296875,101.23784245848655L72.64010416666667,99.9511301100254L74.98333333333333,98.61208437681198L77.32656250000001,97.51796795725822L79.66979166666667,96.33802183270454L82.01302083333334,95.3300463438034L84.35625,94.30725862383842L86.69947916666668,93.5768489420414L89.04270833333332,92.56990208029747L91.3859375,91.63452129364013L93.72916666666666,90.79432808160782L96.07239583333333,90.02324278950691L98.41562499999999,89.38596342802047L100.75885416666667,88.74066604971885L103.10208333333333,88.03011150956154L105.4453125,87.26957623958587L107.78854166666667,86.68810122013092L110.13177083333333,86.04903890490532L112.47500000000001,85.46305375099182L114.81822916666667,84.86133851408958L117.16145833333334,83.94571264386177L119.5046875,83.05223127007484L121.84791666666668,82.19322736859321L124.19114583333332,81.362729626894L126.534375,80.56927828788757L128.87760416666666,79.76731835603714L131.22083333333333,78.99687134027481L133.5640625,78.27231692075729L135.90729166666668,77.5574263215065L138.25052083333333,76.88490461111068L140.59375,76.21773703694343L142.93697916666665,75.58699868917465L145.28020833333335,74.98702420592308L147.6234375,74.35974626541137L149.96666666666667,73.74885778427124L152.30989583333331,73.1999243080616L154.65312500000002,72.63871060609817L156.99635416666666,72.10367150902748L159.33958333333334,71.57858635783195L161.68281249999998,71.05513118505478L164.02604166666669,70.50704698562622L166.36927083333333,69.97694002389908L168.7125,69.4659180521965L171.05572916666665,68.97112201452255L173.39895833333335,68.48120008707046L175.7421875,67.99784027338028L178.08541666666665,67.54824053049087L180.42864583333335,67.0913823723793L182.771875,66.6638110756874L185.11510416666667,66.23480497598648L187.45833333333331,65.8206955075264L189.80156250000002,65.42691593170166L192.14479166666666,65.03595321178436L194.48802083333334,64.6692027926445L196.83124999999998,64.2973778128624L199.17447916666669,63.927272486686704L201.51770833333333,63.57702230215072L203.8609375,63.2398752450943L206.20416666666665,62.90504919290542L208.54739583333335,62.579486060142514L210.890625,62.258206236362454L213.23385416666665,61.94525038003921L215.57708333333335,61.63766448497772L217.9203125,61.339352059364316L220.26354166666667,61.0481397986412L222.60677083333331,60.76233969926834L224.95000000000002,60.48030595779419L227.29322916666666,60.196985113620755L229.63645833333334,59.930586504936215L231.97968749999998,59.66949455738067L234.32291666666669,59.4124854683876L236.66614583333333,59.165868151187894L239.009375,58.9252748966217L241.35260416666665,58.689861702919L243.69583333333335,58.45355175733566L246.0390625,58.22611438035965L248.38229166666665,57.998919653892514L250.72552083333335,57.77991174459457L253.06875,57.55939518213272L255.41197916666667,57.347065436840055L257.7552083333333,57.143291759490964" style="fill: none;" fill="none"></path></g><g><path stroke="rgb(0, 119, 187)" stroke-width="2px" d="M25.77552083333333,124.76191254258157L28.118750000000002,117.06625956594945L30.46197916666667,113.40313099622728L32.80520833333333,112.41038973927498L35.1484375,111.26681481599807L37.49166666666667,113.1825194835663L39.834895833333334,113.80770324468614L42.178125,112.76054497361183L44.52135416666666,112.87640531659126L46.86458333333333,113.76636298298837L49.207812499999996,113.25761454105378L51.55104166666666,113.02604155540467L53.89427083333334,113.0290008366108L56.237500000000004,113.04693059921266L58.58072916666667,112.72386254668235L60.92395833333334,113.178030449152L63.2671875,113.77433352470399L65.61041666666667,114.46512787342073L67.95364583333334,114.30068467855455L70.296875,113.05374591350557L72.64010416666667,111.80096771121025L74.98333333333333,110.68586729764938L77.32656250000001,109.73865993618965L79.66979166666667,108.80369587540626L82.01302083333334,107.88073246479034L84.35625,106.94707133173942L86.69947916666668,106.0745897769928L89.04270833333332,105.17757942080497L91.3859375,104.32968996763229L93.72916666666666,103.58347635269165L96.07239583333333,102.77518640756607L98.41562499999999,102.01260443329811L100.75885416666667,101.34754158854484L103.10208333333333,100.63197051286697L105.4453125,100.10856281518936L107.78854166666667,99.35428898334503L110.13177083333333,98.81966133713722L112.47500000000001,98.18113179802894L114.81822916666667,97.69295062422752L117.16145833333334,96.77744607925415L119.5046875,95.87130995392799L121.84791666666668,94.96801178455352L124.19114583333332,94.12605671882629L126.534375,93.31187986135483L128.87760416666666,92.50310461521148L131.22083333333333,91.72414373159408L133.5640625,90.99469937682152L135.90729166666668,90.2847514629364L138.25052083333333,89.56168459653854L140.59375,88.90509869456291L142.93697916666665,88.2893519282341L145.28020833333335,87.66768659949302L147.6234375,87.06715824007988L149.96666666666667,86.47404654622078L152.30989583333331,85.92937000393867L154.65312500000002,85.381612855196L156.99635416666666,84.86548994779587L159.33958333333334,84.34328495264053L161.68281249999998,83.85443385243416L164.02604166666669,83.27311180830002L166.36927083333333,82.72144587635994L168.7125,82.1771544098854L171.05572916666665,81.6335223197937L173.39895833333335,81.10976647138595L175.7421875,80.61159970164299L178.08541666666665,80.1052091896534L180.42864583333335,79.62404378056526L182.771875,79.16109825968742L185.11510416666667,78.69908641576767L187.45833333333331,78.25818516612053L189.80156250000002,77.82363502979278L192.14479166666666,77.39346315264702L194.48802083333334,76.97971238493919L196.83124999999998,76.57881154417991L199.17447916666669,76.18613444566726L201.51770833333333,75.80500962138176L203.8609375,75.431781488657L206.20416666666665,75.07167758345604L208.54739583333335,74.71250735521316L210.890625,74.35346900224685L213.23385416666665,73.99986918568611L215.57708333333335,73.65339590907097L217.9203125,73.32195113897323L220.26354166666667,72.98886584043503L222.60677083333331,72.66289125680923L224.95000000000002,72.34664906859398L227.29322916666666,72.03944297432899L229.63645833333334,71.73641996383667L231.97968749999998,71.44228534698486L234.32291666666669,71.15126298666L236.66614583333333,70.87137617468834L239.009375,70.60158573389053L241.35260416666665,70.33693842887878L243.69583333333335,70.07595198154449L246.0390625,69.81301378011703L248.38229166666665,69.55940179824829L250.72552083333335,69.30466096401214L253.06875,69.06423650979995L255.41197916666667,68.82213460206985L257.7552083333333,68.58888416290283" style="fill: none;" fill="none"></path></g><g><path stroke="rgb(238, 51, 119)" stroke-width="2px" d="M25.77552083333333,34.72278563976289L28.118750000000002,33.891654896736156L30.46197916666667,32.106264102458965L32.80520833333333,31.013482260704052L35.1484375,29.71137742996217L37.49166666666667,29.01260726451875L39.834895833333334,28.43872826099397L42.178125,28.00832955837251L44.52135416666666,27.81721590757371L46.86458333333333,27.476555693149578L49.207812499999996,27.290179002285015L51.55104166666666,27.19386785030366L53.89427083333334,27.199986863136303L56.237500000000004,27.11068092584611L58.58072916666667,26.99635033607484L60.92395833333334,26.89630447626115L63.2671875,26.74465845823289L65.61041666666667,26.57564710378648L67.95364583333334,26.52812980413438L70.296875,26.179071772098553L72.64010416666667,25.83980416059495L74.98333333333333,25.524379599094402L77.32656250000001,25.264490354061138L79.66979166666667,25.008304166793835L82.01302083333334,24.776309180259716L84.35625,24.57399140596391L86.69947916666668,24.41631077528001L89.04270833333332,24.258893895149242L91.3859375,24.13993184566499L93.72916666666666,24.01248757839204L96.07239583333333,23.895245182514202L98.41562499999999,23.817080068588268L100.75885416666667,23.74085615873338L103.10208333333333,23.649187016487133L105.4453125,23.58035867214204L107.78854166666667,23.5213312983513L110.13177083333333,23.46216677427293L112.47500000000001,23.432858812809002L114.81822916666667,23.366372573375713L117.16145833333334,23.320131826400768L119.5046875,23.258888947963726L121.84791666666668,23.212289500236523L124.19114583333332,23.155678081512463L126.534375,23.11704390048982L128.87760416666666,23.080118823051464L131.22083333333333,23.046801853179943L133.5640625,23.006395268440258L135.90729166666668,22.97216044664384L138.25052083333333,22.9456060409546L140.59375,22.907182860374462L142.93697916666665,22.869666981697094L145.28020833333335,22.82885949611665L147.6234375,22.79132251739503L149.96666666666667,22.766023564338695L152.30989583333331,22.737717854976665L154.65312500000002,22.71481375694276L156.99635416666666,22.69704751968385L159.33958333333334,22.668203759193432L161.68281249999998,22.641913104057323L164.02604166666669,22.624189066886913L166.36927083333333,22.61310099363328L168.7125,22.587981390953075L171.05572916666665,22.56853770017625L173.39895833333335,22.536718833446514L175.7421875,22.522455203533184L178.08541666666665,22.51421563625337L180.42864583333335,22.498411703109753L182.771875,22.487597930431377L185.11510416666667,22.477554309368145L187.45833333333331,22.46734188795091L189.80156250000002,22.45655976533891L192.14479166666666,22.443087387084972L194.48802083333334,22.431661713123333L196.83124999999998,22.42887650728227L199.17447916666669,22.417123782634746L201.51770833333333,22.402448701858532L203.8609375,22.38695071935655L206.20416666666665,22.370271134376537L208.54739583333335,22.36063896417619L210.890625,22.348559188842785L213.23385416666665,22.33221720457078L215.57708333333335,22.32565509080888L217.9203125,22.317763674259197L220.26354166666667,22.3016326904297L222.60677083333331,22.29674803018571L224.95000000000002,22.286250758171093L227.29322916666666,22.27811669111253L229.63645833333334,22.27296828031541L231.97968749999998,22.264127361774456L234.32291666666669,22.265055763721477L236.66614583333333,22.257512497901928L239.009375,22.255159842968L241.35260416666665,22.245896923542034L243.69583333333335,22.237815606594097L246.0390625,22.23152779340745L248.38229166666665,22.226326632499706L250.72552083333335,22.21806596517564L253.06875,22.213423955440533L255.41197916666667,22.208560395240795L257.7552083333333,22.2087291955948" style="fill: none;" fill="none"></path></g><g><path stroke="rgb(187, 187, 187)" stroke-width="2px" d="M25.77552083333333,40.417560982704174L28.118750000000002,37.878001856803905L30.46197916666667,35.0203490138054L32.80520833333333,34.33030371665956L35.1484375,33.528417634964L37.49166666666667,32.58338885307313L39.834895833333334,31.28392152786256L42.178125,30.647934544086468L44.52135416666666,29.95490359067918L46.86458333333333,29.563613820076L49.207812499999996,29.179118263721477L51.55104166666666,28.799697268009197L53.89427083333334,28.561519968509685L56.237500000000004,28.25843893289567L58.58072916666667,28.205076920986187L60.92395833333334,28.046805489063274L63.2671875,27.816614556312572L65.61041666666667,27.647909152507793L67.95364583333334,27.46133201122285L70.296875,27.091775286197674L72.64010416666667,26.73689364194871L74.98333333333333,26.431069600582134L77.32656250000001,26.14380304813386L79.66979166666667,25.909982907772076L82.01302083333334,25.705945479869854L84.35625,25.486810970306408L86.69947916666668,25.319266068935406L89.04270833333332,25.180174577236187L91.3859375,25.028380858898174L93.72916666666666,24.889795768260967L96.07239583333333,24.759144294261944L98.41562499999999,24.65398167371751L100.75885416666667,24.571047949790966L103.10208333333333,24.509298670291912L105.4453125,24.44051252603532L107.78854166666667,24.383247005939495L110.13177083333333,24.327416288852703L112.47500000000001,24.289098608493816L114.81822916666667,24.259062695503246L117.16145833333334,24.222833919525158L119.5046875,24.179367828369152L121.84791666666668,24.142358350753796L124.19114583333332,24.106361675262463L126.534375,24.05660777091981L128.87760416666666,24.03163586854936L131.22083333333333,24.00574611425401L133.5640625,23.970487940311443L135.90729166666668,23.946307289600384L138.25052083333333,23.917463529109966L140.59375,23.895308482646954L142.93697916666665,23.872214484214794L145.28020833333335,23.85178964138032L147.6234375,23.82748239040376L149.96666666666667,23.801223385334026L152.30989583333331,23.79216091632844L154.65312500000002,23.78231774568559L156.99635416666666,23.766334462165844L159.33958333333334,23.75833754539491L161.68281249999998,23.746437120437633L164.02604166666669,23.742111611366283L166.36927083333333,23.729863035678875L168.7125,23.721971619129192L171.05572916666665,23.69967942237855L173.39895833333335,23.684814441204082L175.7421875,23.677978026866924L178.08541666666665,23.66809265613557L180.42864583333335,23.661720442771923L182.771875,23.650094318389904L185.11510416666667,23.64640181064607L187.45833333333331,23.63224368095399L189.80156250000002,23.625871467590343L192.14479166666666,23.615817296504986L194.48802083333334,23.60646997690202L196.83124999999998,23.599443662166607L199.17447916666669,23.586868035793316L201.51770833333333,23.586361634731304L203.8609375,23.577879416942608L206.20416666666665,23.57671891450883L208.54739583333335,23.57285760641099L210.890625,23.5656308412552L213.23385416666665,23.55211626291276L215.57708333333335,23.540817189216625L217.9203125,23.532007920742046L220.26354166666667,23.523778903484356L222.60677083333331,23.51429443359376L224.95000000000002,23.50717316865922L227.29322916666666,23.499872553348553L229.63645833333334,23.485028672218334L231.97968749999998,23.473645198345196L234.32291666666669,23.465236830711376L236.66614583333333,23.46108012199403L239.009375,23.460025119781506L241.35260416666665,23.457672464847576L243.69583333333335,23.45176445245744L246.0390625,23.445655989646923L248.38229166666665,23.43903057575227L250.72552083333335,23.4306433081627L253.06875,23.423996794223797L255.41197916666667,23.41966073513032L257.7552083333333,23.41879563331605" style="fill: none;" fill="none"></path></g><g><path stroke="rgb(204, 51, 17)" stroke-width="2px" d="M25.77552083333333,126.20869510173799L28.118750000000002,121.09878133535386L30.46197916666667,119.37495783269407L32.80520833333333,115.23469659984113L35.1484375,112.8121029317379L37.49166666666667,110.09400050640106L39.834895833333334,107.5192570567131L42.178125,104.83402322530746L44.52135416666666,102.6942044377327L46.86458333333333,100.64681966900825L49.207812499999996,99.50897868275642L51.55104166666666,97.64243711829185L53.89427083333334,95.87362040877342L56.237500000000004,94.57516588568687L58.58072916666667,93.17279891967773L60.92395833333334,91.84183450341224L63.2671875,90.7199715256691L65.61041666666667,89.56541930437088L67.95364583333334,88.52430092096328L70.296875,87.05629699230194L72.64010416666667,85.7339624941349L74.98333333333333,84.50106053352356L77.32656250000001,83.44897540211677L79.66979166666667,82.4050454378128L82.01302083333334,81.40153260827064L84.35625,80.5367736697197L86.69947916666668,79.69959248900413L89.04270833333332,78.90901603102684L91.3859375,78.17296736240387L93.72916666666666,77.45520188212394L96.07239583333333,76.77083249688148L98.41562499999999,76.11577107310295L100.75885416666667,75.47335912585258L103.10208333333333,74.94207056164741L105.4453125,74.39101125597954L107.78854166666667,73.84833394289016L110.13177083333333,73.33581914305687L112.47500000000001,72.87944628596306L114.81822916666667,72.4109567284584L117.16145833333334,71.96665837168693L119.5046875,71.53277816176414L121.84791666666668,71.12761511206627L124.19114583333332,70.72483109235763L126.534375,70.34245609045028L128.87760416666666,69.9695550084114L131.22083333333333,69.62022267580032L133.5640625,69.2759332537651L135.90729166666668,68.95240627527237L138.25052083333333,68.63516710996628L140.59375,68.33307777643203L142.93697916666665,68.03982936143875L145.28020833333335,67.75489436388015L147.6234375,67.48651235103607L149.96666666666667,67.22978811264038L152.30989583333331,66.97959433794021L154.65312500000002,66.73779838085174L156.99635416666666,66.50663684606552L159.33958333333334,66.29459195137024L161.68281249999998,66.08191405534744L164.02604166666669,65.86401389837265L166.36927083333333,65.67242549657821L168.7125,65.4731144785881L171.05572916666665,65.26744179725647L173.39895833333335,65.08309071063995L175.7421875,64.91862641572952L178.08541666666665,64.74282084703445L180.42864583333335,64.57088713645935L182.771875,64.40400688648224L185.11510416666667,64.25758312940597L187.45833333333331,64.10082035064697L189.80156250000002,63.95498739480972L192.14479166666666,63.80935488939285L194.48802083333334,63.66897629499435L196.83124999999998,63.53364061117172L199.17447916666669,63.3932936668396L201.51770833333333,63.255425977706906L203.8609375,63.11674593687057L206.20416666666665,62.989502120018L208.54739583333335,62.86354540586471L210.890625,62.744572806358335L213.23385416666665,62.629683065414426L215.57708333333335,62.509338963031766L217.9203125,62.399312782287595L220.26354166666667,62.28787289857864L222.60677083333331,62.18702523708343L224.95000000000002,62.089237082004544L227.29322916666666,61.9965234875679L229.63645833333334,61.898228931427L231.97968749999998,61.80248748064041L234.32291666666669,61.707505631446836L236.66614583333333,61.61088852882385L239.009375,61.521719741821286L241.35260416666665,61.44208817481994L243.69583333333335,61.358584749698636L246.0390625,61.26549135446548L248.38229166666665,61.18812804222107L250.72552083333335,61.11045877933502L253.06875,61.03028916120529L255.41197916666667,60.953611600399014L257.7552083333333,60.88246225118637" style="fill: none;" fill="none"></path></g><g><path stroke="rgb(255, 112, 67)" stroke-width="2px" d="M25.77552083333333,133.8120010972023L28.118750000000002,130.37973866164685L30.46197916666667,129.56400040090085L32.80520833333333,127.45539121627809L35.1484375,125.83930453956128L37.49166666666667,125.2390425682068L39.834895833333334,124.97739146947862L42.178125,123.61910777091981L44.52135416666666,123.10991359055043L46.86458333333333,123.15814037919046L49.207812499999996,122.58754243254663L51.55104166666666,122.34034750163556L53.89427083333334,122.65448759794236L56.237500000000004,122.58514230251313L58.58072916666667,122.17206937372686L60.92395833333334,121.96261978447438L63.2671875,122.20514633059503L65.61041666666667,122.22405724525453L67.95364583333334,122.13081087470056L70.296875,121.26346981823446L72.64010416666667,120.34534095525743L74.98333333333333,119.65199877619744L77.32656250000001,119.02296425700189L79.66979166666667,118.32706633508207L82.01302083333334,117.54031426012517L84.35625,116.91708489060403L86.69947916666668,116.31721854507924L89.04270833333332,115.71182662546636L91.3859375,115.12589422166349L93.72916666666666,114.62109412550927L96.07239583333333,113.91551392078401L98.41562499999999,113.30597056746484L100.75885416666667,112.66901298165321L103.10208333333333,112.16730140447616L105.4453125,111.55881305336952L107.78854166666667,111.0833182811737L110.13177083333333,110.67678900361061L112.47500000000001,110.11830248236656L114.81822916666667,109.67685790657997L117.16145833333334,108.99736790657043L119.5046875,108.35703431367874L121.84791666666668,107.69881843328476L124.19114583333332,107.07480044960975L126.534375,106.4728478372097L128.87760416666666,105.87233530282974L131.22083333333333,105.30261828303337L133.5640625,104.79709814786911L135.90729166666668,104.27095799446106L138.25052083333333,103.75561051368713L140.59375,103.26210685372352L142.93697916666665,102.79519979953766L145.28020833333335,102.34151719808578L147.6234375,101.8979837179184L149.96666666666667,101.45662881731987L152.30989583333331,101.0749764919281L154.65312500000002,100.66022874712944L156.99635416666666,100.24329714775085L159.33958333333334,99.88319851756096L161.68281249999998,99.53217290639877L164.02604166666669,99.11845906376838L166.36927083333333,98.71377076506614L168.7125,98.30872904062271L171.05572916666665,97.92583181262016L173.39895833333335,97.54816212058067L175.7421875,97.18732498884201L178.08541666666665,96.82483150362968L180.42864583333335,96.47361599206924L182.771875,96.12322338223457L185.11510416666667,95.78610797524452L187.45833333333331,95.46126751899719L189.80156250000002,95.13517161011696L192.14479166666666,94.83566175699234L194.48802083333334,94.53887380957603L196.83124999999998,94.24054028391838L199.17447916666669,93.95385925769806L201.51770833333333,93.67552857398987L203.8609375,93.408428388834L206.20416666666665,93.13909687399864L208.54739583333335,92.87307806611061L210.890625,92.6229475915432L213.23385416666665,92.37214719057083L215.57708333333335,92.12596769928932L217.9203125,91.88237823843956L220.26354166666667,91.64679096937179L222.60677083333331,91.41420518159866L224.95000000000002,91.18918375968933L227.29322916666666,90.97322480678558L229.63645833333334,90.75832613110542L231.97968749999998,90.54548470973968L234.32291666666669,90.34079845547676L236.66614583333333,90.1351996243L239.009375,89.93708075881004L241.35260416666665,89.74884726405143L243.69583333333335,89.56298224925995L246.0390625,89.3800606906414L248.38229166666665,89.19709693193435L250.72552083333335,89.01791008114814L253.06875,88.84426199197769L255.41197916666667,88.67505546212196L257.7552083333333,88.51231082081794" style="fill: none;" fill="none"></path></g><g><path stroke="rgb(204, 51, 17)" stroke-width="2px" d="M25.77552083333333,134.73547882139684L28.118750000000002,130.53365293443204L30.46197916666667,127.47078369855882L32.80520833333333,125.25443505048753L35.1484375,121.94222659170629L37.49166666666667,119.3287830233574L39.834895833333334,116.72765133082868L42.178125,114.75756393671037L44.52135416666666,112.9961164176464L46.86458333333333,111.34685255885124L49.207812499999996,109.86033334136009L51.55104166666666,108.53947584629059L53.89427083333334,107.29633508920669L56.237500000000004,105.90316774249077L58.58072916666667,104.60135831236839L60.92395833333334,103.43341283798217L63.2671875,102.55497579574585L65.61041666666667,101.46290080547332L67.95364583333334,100.42745305895805L70.296875,99.38934670686722L72.64010416666667,98.41053675413131L74.98333333333333,97.45634000301361L77.32656250000001,96.62125300168991L79.66979166666667,95.82369770407676L82.01302083333334,95.06285120844841L84.35625,94.41736392974853L86.69947916666668,93.7683845937252L89.04270833333332,93.18335421681404L91.3859375,92.59620856046676L93.72916666666666,92.047180134058L96.07239583333333,91.56038628816604L98.41562499999999,91.06169201731682L100.75885416666667,90.63426314592361L103.10208333333333,90.17312695384025L105.4453125,89.77528034448623L107.78854166666667,89.37046544551849L110.13177083333333,88.98835946917534L112.47500000000001,88.61908231973648L114.81822916666667,88.28215153813362L117.16145833333334,87.94822223782539L119.5046875,87.61331178545952L121.84791666666668,87.29141478538513L124.19114583333332,87.00095685124397L126.534375,86.72230439186096L128.87760416666666,86.45603238344192L131.22083333333333,86.18929617404937L133.5640625,85.96862136125564L135.90729166666668,85.71930323839187L138.25052083333333,85.51282875537872L140.59375,85.27829121351242L142.93697916666665,85.08192365169525L145.28020833333335,84.89014534950256L147.6234375,84.68469949364662L149.96666666666667,84.52391188144684L152.30989583333331,84.36729680299759L154.65312500000002,84.20307515859604L156.99635416666666,84.04732518196106L159.33958333333334,83.89746739268303L161.68281249999998,83.75165026187896L164.02604166666669,83.60043679475784L166.36927083333333,83.45064230561256L168.7125,83.30717255473137L171.05572916666665,83.17802973389625L173.39895833333335,83.04330067634582L175.7421875,82.91224830150604L178.08541666666665,82.78749428987503L180.42864583333335,82.67060004472732L182.771875,82.56257836818695L185.11510416666667,82.4509960591793L187.45833333333331,82.33996235132217L189.80156250000002,82.24029101729393L192.14479166666666,82.13783447742462L194.48802083333334,82.03480823636055L196.83124999999998,81.93540065288543L199.17447916666669,81.85177590250969L201.51770833333333,81.76751815080642L203.8609375,81.6822528719902L206.20416666666665,81.58969752788543L208.54739583333335,81.50533427596092L210.890625,81.42269595265388L213.23385416666665,81.33867557644844L215.57708333333335,81.25257157087326L217.9203125,81.17893241643905L220.26354166666667,81.10191197991371L222.60677083333331,81.02055020928383L224.95000000000002,80.94966988563537L227.29322916666666,80.87723343372345L229.63645833333334,80.8256860256195L231.97968749999998,80.76353584527969L234.32291666666669,80.70515729784965L236.66614583333333,80.64772825241089L239.009375,80.5848553955555L241.35260416666665,80.5163804769516L243.69583333333335,80.45755355358123L246.0390625,80.40352689027786L248.38229166666665,80.34549649357795L250.72552083333335,80.28739224672317L253.06875,80.23078610301017L255.41197916666667,80.1712839782238L257.7552083333333,80.11912466883659" style="fill: none;" fill="none"></path></g><g><path stroke="rgb(0, 153, 136)" stroke-width="2px" d="M25.77552083333333,31.79843555688859L28.118750000000002,29.10495160818101L30.46197916666667,27.72487156391145L32.80520833333333,26.365300762653362L35.1484375,25.51262687444688L37.49166666666667,24.974955546855938L39.834895833333334,24.371030080318462L42.178125,23.771873223781597L44.52135416666666,23.401620197296154L46.86458333333333,23.207003939151775L49.207812499999996,22.986213076114666L51.55104166666666,22.79451917409898L53.89427083333334,22.64416025877L56.237500000000004,22.60543112754823L58.58072916666667,22.641638803482067L60.92395833333334,22.600208866596233L63.2671875,22.534682679176342L65.61041666666667,22.49866490364076L67.95364583333334,22.534492778778088L70.296875,22.438983428478252L72.64010416666667,22.305662798881542L74.98333333333333,22.20265238285066L77.32656250000001,22.099241065979015L79.66979166666667,21.99288629293443L82.01302083333334,21.901206600666058L84.35625,21.81539272069932L86.69947916666668,21.747345077991497L89.04270833333332,21.667660760879528L91.3859375,21.614699649810802L93.72916666666666,21.569376754760754L96.07239583333333,21.517048645019543L98.41562499999999,21.51319788694383L100.75885416666667,21.481600570678722L103.10208333333333,21.472675251960766L105.4453125,21.441404986381542L107.78854166666667,21.42042099237443L110.13177083333333,21.401399302482616L112.47500000000001,21.40201120376588L114.81822916666667,21.397854495048534L117.16145833333334,21.387758123874676L119.5046875,21.36913733482362L121.84791666666668,21.363862323760998L124.19114583333332,21.36527602672578L126.534375,21.354040253162395L128.87760416666666,21.33918582201005L131.22083333333333,21.332349407672893L133.5640625,21.317283976078045L135.90729166666668,21.303484547138225L138.25052083333333,21.293398725986492L140.59375,21.2818675518036L142.93697916666665,21.26172755956651L145.28020833333335,21.255386996269237L147.6234375,21.249289083480846L149.96666666666667,21.23885511159898L152.30989583333331,21.216489064693462L154.65312500000002,21.204820740222942L156.99635416666666,21.195716071128857L159.33958333333334,21.183741796016704L161.68281249999998,21.177390682697308L164.02604166666669,21.16868691444398L166.36927083333333,21.162283051013958L168.7125,21.147154319286358L171.05572916666665,21.13836615085603L173.39895833333335,21.136108446121227L175.7421875,21.13581304550172L178.08541666666665,21.13599239587785L180.42864583333335,21.135707545280468L182.771875,21.134979593753826L185.11510416666667,21.13694189786912L187.45833333333331,21.135781395435345L189.80156250000002,21.129440832138073L192.14479166666666,21.12456672191621L194.48802083333334,21.11728720664979L196.83124999999998,21.112708497047436L199.17447916666669,21.104141879081737L201.51770833333333,21.09661971330644L203.8609375,21.092083203792583L206.20416666666665,21.087272393703472L208.54739583333335,21.084919738769543L210.890625,21.083010184764873L213.23385416666665,21.078104424476635L215.57708333333335,21.07181661128999L217.9203125,21.06642554998399L220.26354166666667,21.07252346277238L222.60677083333331,21.072692263126385L224.95000000000002,21.064610946178448L227.29322916666666,21.064146745204937L229.63645833333334,21.05775343179704L231.97968749999998,21.058766233921062L234.32291666666669,21.051887619495403L236.66614583333333,21.04313110113145L239.009375,21.03924869298936L241.35260416666665,21.03279207944871L243.69583333333335,21.03009127378465L246.0390625,21.02711616754533L248.38229166666665,21.020670104026806L250.72552083333335,21.019446301460277L253.06875,21.02389841079713L255.41197916666667,21.017367947101604L257.7552083333333,21.01005678176881" style="fill: none;" fill="none"></path></g></g></g></g></g></g><g transform="translate(48, 177)" clip-path="url(#clip_1)"><clipPath id="clip_1"><rect width="281" height="23"></rect></clipPath><g><g><line x1="0" y1="0" x2="0" y2="5" style="visibility: inherit;" fill="rgb(0, 0, 0)" stroke="rgb(204, 204, 204)" stroke-width="1px"></line><line x1="23.432291666666664" y1="0" x2="23.432291666666664" y2="5" style="visibility: inherit;" fill="rgb(0, 0, 0)" stroke="rgb(204, 204, 204)" stroke-width="1px"></line><line x1="46.86458333333333" y1="0" x2="46.86458333333333" y2="5" style="visibility: inherit;" fill="rgb(0, 0, 0)" stroke="rgb(204, 204, 204)" stroke-width="1px"></line><line x1="70.296875" y1="0" x2="70.296875" y2="5" style="visibility: inherit;" fill="rgb(0, 0, 0)" stroke="rgb(204, 204, 204)" stroke-width="1px"></line><line x1="93.72916666666666" y1="0" x2="93.72916666666666" y2="5" style="visibility: inherit;" fill="rgb(0, 0, 0)" stroke="rgb(204, 204, 204)" stroke-width="1px"></line><line x1="117.16145833333334" y1="0" x2="117.16145833333334" y2="5" style="visibility: inherit;" fill="rgb(0, 0, 0)" stroke="rgb(204, 204, 204)" stroke-width="1px"></line><line x1="140.59375" y1="0" x2="140.59375" y2="5" style="visibility: inherit;" fill="rgb(0, 0, 0)" stroke="rgb(204, 204, 204)" stroke-width="1px"></line><line x1="164.02604166666669" y1="0" x2="164.02604166666669" y2="5" style="visibility: inherit;" fill="rgb(0, 0, 0)" stroke="rgb(204, 204, 204)" stroke-width="1px"></line><line x1="187.45833333333331" y1="0" x2="187.45833333333331" y2="5" style="visibility: inherit;" fill="rgb(0, 0, 0)" stroke="rgb(204, 204, 204)" stroke-width="1px"></line><line x1="210.890625" y1="0" x2="210.890625" y2="5" style="visibility: inherit;" fill="rgb(0, 0, 0)" stroke="rgb(204, 204, 204)" stroke-width="1px"></line><line x1="234.32291666666669" y1="0" x2="234.32291666666669" y2="5" style="visibility: inherit;" fill="rgb(0, 0, 0)" stroke="rgb(204, 204, 204)" stroke-width="1px"></line><line x1="257.7552083333333" y1="0" x2="257.7552083333333" y2="5" style="visibility: inherit;" fill="rgb(0, 0, 0)" stroke="rgb(204, 204, 204)" stroke-width="1px"></line><line x1="281.1875" y1="0" x2="281.1875" y2="5" style="visibility: inherit;" fill="rgb(0, 0, 0)" stroke="rgb(204, 204, 204)" stroke-width="1px"></line></g><g transform="translate(0, 8)"><text x="0" y="0" dx="0em" dy="0.95em" style="text-anchor: middle; visibility: hidden; font-family: &quot;Helvetica Neue&quot;, sans-serif; font-size: 12px; font-weight: 200;" fill="rgb(50, 49, 63)" stroke="none" stroke-width="1px">-10</text><text x="23.432291666666664" y="0" dx="0em" dy="0.95em" style="text-anchor: middle; visibility: inherit; font-family: &quot;Helvetica Neue&quot;, sans-serif; font-size: 12px; font-weight: 200;" fill="rgb(50, 49, 63)" stroke="none" stroke-width="1px">0</text><text x="46.86458333333333" y="0" dx="0em" dy="0.95em" style="text-anchor: middle; visibility: inherit; font-family: &quot;Helvetica Neue&quot;, sans-serif; font-size: 12px; font-weight: 200;" fill="rgb(50, 49, 63)" stroke="none" stroke-width="1px">10</text><text x="70.296875" y="0" dx="0em" dy="0.95em" style="text-anchor: middle; visibility: inherit; font-family: &quot;Helvetica Neue&quot;, sans-serif; font-size: 12px; font-weight: 200;" fill="rgb(50, 49, 63)" stroke="none" stroke-width="1px">20</text><text x="93.72916666666666" y="0" dx="0em" dy="0.95em" style="text-anchor: middle; visibility: inherit; font-family: &quot;Helvetica Neue&quot;, sans-serif; font-size: 12px; font-weight: 200;" fill="rgb(50, 49, 63)" stroke="none" stroke-width="1px">30</text><text x="117.16145833333334" y="0" dx="0em" dy="0.95em" style="text-anchor: middle; visibility: inherit; font-family: &quot;Helvetica Neue&quot;, sans-serif; font-size: 12px; font-weight: 200;" fill="rgb(50, 49, 63)" stroke="none" stroke-width="1px">40</text><text x="140.59375" y="0" dx="0em" dy="0.95em" style="text-anchor: middle; visibility: inherit; font-family: &quot;Helvetica Neue&quot;, sans-serif; font-size: 12px; font-weight: 200;" fill="rgb(50, 49, 63)" stroke="none" stroke-width="1px">50</text><text x="164.02604166666669" y="0" dx="0em" dy="0.95em" style="text-anchor: middle; visibility: inherit; font-family: &quot;Helvetica Neue&quot;, sans-serif; font-size: 12px; font-weight: 200;" fill="rgb(50, 49, 63)" stroke="none" stroke-width="1px">60</text><text x="187.45833333333331" y="0" dx="0em" dy="0.95em" style="text-anchor: middle; visibility: inherit; font-family: &quot;Helvetica Neue&quot;, sans-serif; font-size: 12px; font-weight: 200;" fill="rgb(50, 49, 63)" stroke="none" stroke-width="1px">70</text><text x="210.890625" y="0" dx="0em" dy="0.95em" style="text-anchor: middle; visibility: inherit; font-family: &quot;Helvetica Neue&quot;, sans-serif; font-size: 12px; font-weight: 200;" fill="rgb(50, 49, 63)" stroke="none" stroke-width="1px">80</text><text x="234.32291666666669" y="0" dx="0em" dy="0.95em" style="text-anchor: middle; visibility: inherit; font-family: &quot;Helvetica Neue&quot;, sans-serif; font-size: 12px; font-weight: 200;" fill="rgb(50, 49, 63)" stroke="none" stroke-width="1px">90</text><text x="257.7552083333333" y="0" dx="0em" dy="0.95em" style="text-anchor: middle; visibility: inherit; font-family: &quot;Helvetica Neue&quot;, sans-serif; font-size: 12px; font-weight: 200;" fill="rgb(50, 49, 63)" stroke="none" stroke-width="1px">100</text><text x="281.1875" y="0" dx="0em" dy="0.95em" style="text-anchor: middle; visibility: hidden; font-family: &quot;Helvetica Neue&quot;, sans-serif; font-size: 12px; font-weight: 200;" fill="rgb(50, 49, 63)" stroke="none" stroke-width="1px">110</text></g><line x1="0" y1="0" x2="281.1875" y2="0" fill="rgb(0, 0, 0)" stroke="rgb(204, 204, 204)" stroke-width="1px"></line></g></g></g></g></svg>