<svg viewBox="0 0 330 200" xmlns="http://www.w3.org/2000/svg"><g><g><g><g><g><line x1="48.8125" y1="177" x2="43.8125" y2="177" style="visibility: inherit;" fill="rgb(0, 0, 0)" stroke="rgb(204, 204, 204)" stroke-width="1px"></line><line x1="48.8125" y1="164.35714285714286" x2="43.8125" y2="164.35714285714286" style="visibility: inherit;" fill="rgb(0, 0, 0)" stroke="rgb(204, 204, 204)" stroke-width="1px"></line><line x1="48.8125" y1="151.71428571428572" x2="43.8125" y2="151.71428571428572" style="visibility: inherit;" fill="rgb(0, 0, 0)" stroke="rgb(204, 204, 204)" stroke-width="1px"></line><line x1="48.8125" y1="139.07142857142856" x2="43.8125" y2="139.07142857142856" style="visibility: inherit;" fill="rgb(0, 0, 0)" stroke="rgb(204, 204, 204)" stroke-width="1px"></line><line x1="48.8125" y1="126.42857142857144" x2="43.8125" y2="126.42857142857144" style="visibility: inherit;" fill="rgb(0, 0, 0)" stroke="rgb(204, 204, 204)" stroke-width="1px"></line><line x1="48.8125" y1="113.78571428571429" x2="43.8125" y2="113.78571428571429" style="visibility: inherit;" fill="rgb(0, 0, 0)" stroke="rgb(204, 204, 204)" stroke-width="1px"></line><line x1="48.8125" y1="101.14285714285717" x2="43.8125" y2="101.14285714285717" style="visibility: inherit;" fill="rgb(0, 0, 0)" stroke="rgb(204, 204, 204)" stroke-width="1px"></line><line x1="48.8125" y1="88.50000000000001" x2="43.8125" y2="88.50000000000001" style="visibility: inherit;" fill="rgb(0, 0, 0)" stroke="rgb(204, 204, 204)" stroke-width="1px"></line><line x1="48.8125" y1="75.85714285714286" x2="43.8125" y2="75.85714285714286" style="visibility: inherit;" fill="rgb(0, 0, 0)" stroke="rgb(204, 204, 204)" stroke-width="1px"></line><line x1="48.8125" y1="63.21428571428575" x2="43.8125" y2="63.21428571428575" style="visibility: inherit;" fill="rgb(0, 0, 0)" stroke="rgb(204, 204, 204)" stroke-width="1px"></line><line x1="48.8125" y1="50.571428571428584" x2="43.8125" y2="50.571428571428584" style="visibility: inherit;" fill="rgb(0, 0, 0)" stroke="rgb(204, 204, 204)" stroke-width="1px"></line><line x1="48.8125" y1="37.928571428571445" x2="43.8125" y2="37.928571428571445" style="visibility: inherit;" fill="rgb(0, 0, 0)" stroke="rgb(204, 204, 204)" stroke-width="1px"></line><line x1="48.8125" y1="25.285714285714306" x2="43.8125" y2="25.285714285714306" style="visibility: inherit;" fill="rgb(0, 0, 0)" stroke="rgb(204, 204, 204)" stroke-width="1px"></line><line x1="48.8125" y1="12.642857142857167" x2="43.8125" y2="12.642857142857167" style="visibility: inherit;" fill="rgb(0, 0, 0)" stroke="rgb(204, 204, 204)" stroke-width="1px"></line><line x1="48.8125" y1="0" x2="43.8125" y2="0" style="visibility: inherit;" fill="rgb(0, 0, 0)" stroke="rgb(204, 204, 204)" stroke-width="1px"></line></g><g transform="translate(38.8125, 0)"><text x="0" y="177" dx="0em" dy="0.3em" style="text-anchor: end; visibility: hidden; font-family: &quot;Helvetica Neue&quot;, sans-serif; font-size: 12px; font-weight: 200;" fill="rgb(50, 49, 63)" stroke="none" stroke-width="1px">0.4</text><text x="0" y="164.35714285714286" dx="0em" dy="0.3em" style="text-anchor: end; visibility: inherit; font-family: &quot;Helvetica Neue&quot;, sans-serif; font-size: 12px; font-weight: 200;" fill="rgb(50, 49, 63)" stroke="none" stroke-width="1px">0.45</text><text x="0" y="151.71428571428572" dx="0em" dy="0.3em" style="text-anchor: end; visibility: hidden; font-family: &quot;Helvetica Neue&quot;, sans-serif; font-size: 12px; font-weight: 200;" fill="rgb(50, 49, 63)" stroke="none" stroke-width="1px">0.5</text><text x="0" y="139.07142857142856" dx="0em" dy="0.3em" style="text-anchor: end; visibility: inherit; font-family: &quot;Helvetica Neue&quot;, sans-serif; font-size: 12px; font-weight: 200;" fill="rgb(50, 49, 63)" stroke="none" stroke-width="1px">0.55</text><text x="0" y="126.42857142857144" dx="0em" dy="0.3em" style="text-anchor: end; visibility: hidden; font-family: &quot;Helvetica Neue&quot;, sans-serif; font-size: 12px; font-weight: 200;" fill="rgb(50, 49, 63)" stroke="none" stroke-width="1px">0.6</text><text x="0" y="113.78571428571429" dx="0em" dy="0.3em" style="text-anchor: end; visibility: inherit; font-family: &quot;Helvetica Neue&quot;, sans-serif; font-size: 12px; font-weight: 200;" fill="rgb(50, 49, 63)" stroke="none" stroke-width="1px">0.65</text><text x="0" y="101.14285714285717" dx="0em" dy="0.3em" style="text-anchor: end; visibility: hidden; font-family: &quot;Helvetica Neue&quot;, sans-serif; font-size: 12px; font-weight: 200;" fill="rgb(50, 49, 63)" stroke="none" stroke-width="1px">0.7</text><text x="0" y="88.50000000000001" dx="0em" dy="0.3em" style="text-anchor: end; visibility: inherit; font-family: &quot;Helvetica Neue&quot;, sans-serif; font-size: 12px; font-weight: 200;" fill="rgb(50, 49, 63)" stroke="none" stroke-width="1px">0.75</text><text x="0" y="75.85714285714286" dx="0em" dy="0.3em" style="text-anchor: end; visibility: hidden; font-family: &quot;Helvetica Neue&quot;, sans-serif; font-size: 12px; font-weight: 200;" fill="rgb(50, 49, 63)" stroke="none" stroke-width="1px">0.8</text><text x="0" y="63.21428571428575" dx="0em" dy="0.3em" style="text-anchor: end; visibility: inherit; font-family: &quot;Helvetica Neue&quot;, sans-serif; font-size: 12px; font-weight: 200;" fill="rgb(50, 49, 63)" stroke="none" stroke-width="1px">0.85</text><text x="0" y="50.571428571428584" dx="0em" dy="0.3em" style="text-anchor: end; visibility: hidden; font-family: &quot;Helvetica Neue&quot;, sans-serif; font-size: 12px; font-weight: 200;" fill="rgb(50, 49, 63)" stroke="none" stroke-width="1px">0.9</text><text x="0" y="37.928571428571445" dx="0em" dy="0.3em" style="text-anchor: end; visibility: inherit; font-family: &quot;Helvetica Neue&quot;, sans-serif; font-size: 12px; font-weight: 200;" fill="rgb(50, 49, 63)" stroke="none" stroke-width="1px">0.95</text><text x="0" y="25.285714285714306" dx="0em" dy="0.3em" style="text-anchor: end; visibility: hidden; font-family: &quot;Helvetica Neue&quot;, sans-serif; font-size: 12px; font-weight: 200;" fill="rgb(50, 49, 63)" stroke="none" stroke-width="1px">1</text><text x="0" y="12.642857142857167" dx="0em" dy="0.3em" style="text-anchor: end; visibility: inherit; font-family: &quot;Helvetica Neue&quot;, sans-serif; font-size: 12px; font-weight: 200;" fill="rgb(50, 49, 63)" stroke="none" stroke-width="1px">1.05</text><text x="0" y="0" dx="0em" dy="0.3em" style="text-anchor: end; visibility: hidden; font-family: &quot;Helvetica Neue&quot;, sans-serif; font-size: 12px; font-weight: 200;" fill="rgb(50, 49, 63)" stroke="none" stroke-width="1px">1.1</text></g><line x1="48.8125" y1="0" x2="48.8125" y2="177" fill="rgb(0, 0, 0)" stroke="rgb(204, 204, 204)" stroke-width="1px"></line></g></g><g transform="translate(48, 0)" clip-path="url(#clip_0)"><clipPath id="clip_0"><rect width="281" height="177"></rect></clipPath><g><g><g><line x1="0" y1="0" x2="0" y2="177" fill="rgb(0, 0, 0)" stroke="rgb(60, 60, 60)" stroke-width="1px" opacity="0.25"></line><line x1="25.5625" y1="0" x2="25.5625" y2="177" fill="rgb(0, 0, 0)" stroke="rgb(60, 60, 60)" stroke-width="1px" opacity="0.25"></line><line x1="51.125" y1="0" x2="51.125" y2="177" fill="rgb(0, 0, 0)" stroke="rgb(60, 60, 60)" stroke-width="1px" opacity="0.25"></line><line x1="76.6875" y1="0" x2="76.6875" y2="177" fill="rgb(0, 0, 0)" stroke="rgb(60, 60, 60)" stroke-width="1px" opacity="0.25"></line><line x1="102.25" y1="0" x2="102.25" y2="177" fill="rgb(0, 0, 0)" stroke="rgb(60, 60, 60)" stroke-width="1px" opacity="0.25"></line><line x1="127.8125" y1="0" x2="127.8125" y2="177" fill="rgb(0, 0, 0)" stroke="rgb(60, 60, 60)" stroke-width="1px" opacity="0.25"></line><line x1="153.375" y1="0" x2="153.375" y2="177" fill="rgb(0, 0, 0)" stroke="rgb(60, 60, 60)" stroke-width="1px" opacity="0.25"></line><line x1="178.9375" y1="0" x2="178.9375" y2="177" fill="rgb(0, 0, 0)" stroke="rgb(60, 60, 60)" stroke-width="1px" opacity="0.25"></line><line x1="204.5" y1="0" x2="204.5" y2="177" fill="rgb(0, 0, 0)" stroke="rgb(60, 60, 60)" stroke-width="1px" opacity="0.25"></line><line x1="230.0625" y1="0" x2="230.0625" y2="177" fill="rgb(0, 0, 0)" stroke="rgb(60, 60, 60)" stroke-width="1px" opacity="0.25"></line><line x1="255.625" y1="0" x2="255.625" y2="177" fill="rgb(0, 0, 0)" stroke="rgb(60, 60, 60)" stroke-width="1px" opacity="0.25"></line><line x1="281.1875" y1="0" x2="281.1875" y2="177" fill="rgb(0, 0, 0)" stroke="rgb(60, 60, 60)" stroke-width="1px" opacity="0.25"></line></g><g><line x1="0" y1="177" x2="281.1875" y2="177" fill="rgb(0, 0, 0)" stroke="rgb(60, 60, 60)" stroke-width="1px" opacity="0.25"></line><line x1="0" y1="164.35714285714286" x2="281.1875" y2="164.35714285714286" fill="rgb(0, 0, 0)" stroke="rgb(60, 60, 60)" stroke-width="1px" opacity="0.25"></line><line x1="0" y1="151.71428571428572" x2="281.1875" y2="151.71428571428572" fill="rgb(0, 0, 0)" stroke="rgb(60, 60, 60)" stroke-width="1px" opacity="0.25"></line><line x1="0" y1="139.07142857142856" x2="281.1875" y2="139.07142857142856" fill="rgb(0, 0, 0)" stroke="rgb(60, 60, 60)" stroke-width="1px" opacity="0.25"></line><line x1="0" y1="126.42857142857144" x2="281.1875" y2="126.42857142857144" fill="rgb(0, 0, 0)" stroke="rgb(60, 60, 60)" stroke-width="1px" opacity="0.25"></line><line x1="0" y1="113.78571428571429" x2="281.1875" y2="113.78571428571429" fill="rgb(0, 0, 0)" stroke="rgb(60, 60, 60)" stroke-width="1px" opacity="0.25"></line><line x1="0" y1="101.14285714285717" x2="281.1875" y2="101.14285714285717" fill="rgb(0, 0, 0)" stroke="rgb(60, 60, 60)" stroke-width="1px" opacity="0.25"></line><line x1="0" y1="88.50000000000001" x2="281.1875" y2="88.50000000000001" fill="rgb(0, 0, 0)" stroke="rgb(60, 60, 60)" stroke-width="1px" opacity="0.25"></line><line x1="0" y1="75.85714285714286" x2="281.1875" y2="75.85714285714286" fill="rgb(0, 0, 0)" stroke="rgb(60, 60, 60)" stroke-width="1px" opacity="0.25"></line><line x1="0" y1="63.21428571428575" x2="281.1875" y2="63.21428571428575" fill="rgb(0, 0, 0)" stroke="rgb(60, 60, 60)" stroke-width="1px" opacity="0.25"></line><line x1="0" y1="50.571428571428584" x2="281.1875" y2="50.571428571428584" fill="rgb(0, 0, 0)" stroke="rgb(60, 60, 60)" stroke-width="1px" opacity="0.25"></line><line x1="0" y1="37.928571428571445" x2="281.1875" y2="37.928571428571445" fill="rgb(0, 0, 0)" stroke="rgb(60, 60, 60)" stroke-width="1px" opacity="0.25"></line><line x1="0" y1="25.285714285714306" x2="281.1875" y2="25.285714285714306" fill="rgb(0, 0, 0)" stroke="rgb(60, 60, 60)" stroke-width="1px" opacity="0.25"></line><line x1="0" y1="12.642857142857167" x2="281.1875" y2="12.642857142857167" fill="rgb(0, 0, 0)" stroke="rgb(60, 60, 60)" stroke-width="1px" opacity="0.25"></line><line x1="0" y1="0" x2="281.1875" y2="0" fill="rgb(0, 0, 0)" stroke="rgb(60, 60, 60)" stroke-width="1px" opacity="0.25"></line></g></g></g><g><g><line x1="0" y1="278.1428571428571" x2="281.1875" y2="278.1428571428571" fill="rgb(0, 0, 0)" stroke="rgb(153, 153, 153)" stroke-width="1.5px"></line></g></g><g><g><line x1="25.5625" y1="0" x2="25.5625" y2="177" fill="rgb(0, 0, 0)" stroke="rgb(153, 153, 153)" stroke-width="1.5px"></line></g></g><g><g><g><g><g><path stroke="rgb(0, 153, 136)" stroke-width="2px" d="M26.840625000000003,62.55686259269716L28.118750000000002,54.225208691188286L29.396874999999998,54.4569926772799L30.674999999999997,52.47417630468097L31.953125,51.65871988024031L33.23125,49.90978242669787L34.509375,48.58830172674999L35.787499999999994,47.6288073573794L37.065625,46.92466873782024L38.34375,46.21469746317183L39.621874999999996,45.714279770851164L40.9,45.30778741836551L42.178125,44.954105462346774L43.45625,44.73223849705289L44.734375,44.41688326426916L46.0125,44.128310016223395L47.290625,43.901951755796176L48.56875,43.77660242148809L49.846875000000004,43.5127162252154L51.125,43.285348176956205L52.403125,43.21809932163785L53.681250000000006,43.03513179506575L54.959375,42.88456790787836L56.237500000000004,42.69071878705708L57.515625,42.59530137266432L58.793749999999996,42.41970379011974L60.071875,42.25898173877172L61.349999999999994,42.090784243174994L62.628125,41.985615594046465L63.90625,41.91612109116147L65.184375,41.8388798577445L66.4625,41.763311556407416L67.740625,41.74212108339583L69.01875,41.69613805838995L70.296875,41.59427005904064L71.57499999999999,41.5142255340304L72.853125,41.447383608136874L74.13125,41.38473154817311L75.409375,41.338899237769L76.6875,41.30232080391477L77.965625,41.25641313620977L79.24374999999999,41.23136436939242L80.52187500000001,41.182201266288786L81.8,41.10422153132305L83.078125,41.05501321383886L84.35625,41.0112306220191L85.634375,40.99783209392004L86.9125,40.94705634457728L88.19062500000001,40.902474965368015L89.46875,40.88901615142825L90.746875,40.818089859826244L92.025,40.77126283305034L93.30312500000001,40.74434520517079L94.58125,40.71093177795413L95.859375,40.66632025582453L97.1375,40.61292207241061L98.41562499999999,40.58357793944225L99.69375000000001,40.5360576254981L100.971875,40.51542479651317L102.25,40.481589368411505L103.52812499999999,40.44262964384899L104.80625,40.41798780645644L106.084375,40.39533540180753L107.36250000000001,40.39590811729434L108.640625,40.36300711972376L109.91875,40.32956354958674L111.19687499999999,40.30165120533536" style="fill: none;" fill="none"></path></g><g><path stroke="rgb(51, 187, 238)" stroke-width="2px" d="M31.953125,177.63214074713844L33.23125,174.74114079134804L34.509375,172.04761464255196L35.787499999999994,169.49646104233605L37.065625,167.22004508972168L38.34375,165.13847297430038L39.621874999999996,163.0307895541191L40.9,161.1816796404975L42.178125,159.3194500207901L43.45625,157.551673242024L44.734375,155.98251570122582L46.0125,154.33293684891294L47.290625,152.76885085446494L48.56875,151.21418452262878L49.846875000000004,149.6594880478723L51.125,148.2033589226859L52.403125,146.77393642493658L53.681250000000006,145.42273480551586L54.959375,144.06701174804144L56.237500000000004,142.73363966601238L57.515625,141.54234623908997L58.793749999999996,140.30167870862144L60.071875,139.169766834804L61.349999999999994,138.08438055855888L62.628125,136.92824884823392L63.90625,135.83739163194383L65.184375,134.8438206911087L66.4625,133.8388707978385L67.740625,132.8710720539093L69.01875,131.94606118542808L70.296875,131.05152480942863L71.57499999999999,130.1589175803321L72.853125,129.282436813627L74.13125,128.44410191263472L75.409375,127.63645250456676L76.6875,126.85400257791792L77.965625,126.06593099662237L79.24374999999999,125.30215460913524L80.52187500000001,124.57271100793567L81.8,123.89942366736278L83.078125,123.21335572855816L84.35625,122.54501182692394L85.634375,121.8674592631204L86.9125,121.19759314400811L88.19062500000001,120.5684802532196L89.46875,119.94025657858168L90.746875,119.35947786058699L92.025,118.79083166803633L93.30312500000001,118.2173927511488L94.58125,117.64693798337665L95.859375,117.09722154481072L97.1375,116.55088111332486L98.41562499999999,116.03747182232995L99.69375000000001,115.51385915279388L100.971875,114.9921454872404L102.25,114.47433532987323L103.52812499999999,113.97846921852658L104.80625,113.49125412532263L106.084375,113.00626960822515L107.36250000000001,112.53209132807596L108.640625,112.07328593730928L109.91875,111.61497790472849L111.19687499999999,111.15600672789984L112.47500000000001,110.71313187054227L113.753125,110.28455982889449L115.03125,109.87256639344353L116.309375,109.46363246440889L117.58749999999999,109.03551256656648L118.865625,108.61807833399092L120.14375,108.23105830805643L121.421875,107.84559064252038" style="fill: none;" fill="none"></path></g><g><path stroke="rgb(0, 119, 187)" stroke-width="2px" d="M26.840625000000003,34.0598511866161L28.118750000000002,33.6932077748435L29.396874999999998,33.52042855535237L30.674999999999997,33.33920931816104L31.953125,33.25577371461054L33.23125,33.158005152429865L34.509375,33.077327626092114L35.787499999999994,33.01681571347376L37.065625,32.98943087032865L38.34375,32.954872012138395L39.621874999999996,32.9311947481973L40.9,32.919891153063105L42.178125,32.91033584730968L43.45625,32.89490267208646L44.734375,32.871421337127714L46.0125,32.85720895017897L47.290625,32.8565608773913L48.56875,32.834903189114186L49.846875000000004,32.83283839906966L51.125,32.82717153004239L52.403125,32.83289868491039L53.681250000000006,32.82890474796298L54.959375,32.814255288669074L56.237500000000004,32.801896691322355L57.515625,32.79152752671925L58.793749999999996,32.794602104595754L60.071875,32.79463224751612L61.349999999999994,32.79737525326868L62.628125,32.79208517074588L63.90625,32.790517738887274L65.184375,32.78415758269176L66.4625,32.78608672959467L67.740625,32.788679020745434L69.01875,32.789628522736706L70.296875,32.78328343800138L71.57499999999999,32.78643337317877L72.853125,32.7894175222942L74.13125,32.793577245303595L75.409375,32.79167824132105L76.6875,32.790517738887274L77.965625,32.79125624043604L79.24374999999999,32.79317031587874L80.52187500000001,32.793803317206255L81.8,32.7921303851264L83.078125,32.79220574242731L84.35625,32.78622237273626L85.634375,32.78857352052418L86.9125,32.786614230700934L88.19062500000001,32.78730751786915L89.46875,32.792024884905146L90.746875,32.79309495857785L92.025,32.790713667869596L93.30312500000001,32.79270310061321L94.58125,32.79463224751612L95.859375,32.794647318976274L97.1375,32.79106031145369L98.41562499999999,32.78314779485976L99.69375000000001,32.77856607096538L100.971875,32.775431207248175L102.25,32.768603835787104L103.52812499999999,32.76780504839763L104.80625,32.769884909902316L106.084375,32.77109062671664L107.36250000000001,32.76831747804371L108.640625,32.765227828707026L109.91875,32.76415775503432L111.19687499999999,32.76387139729093L112.47500000000001,32.763961826052L113.753125,32.7603898899896L115.03125,32.758732029369924L116.309375,32.75675766808649L117.58749999999999,32.75904853003368L118.865625,32.7598925318037L120.14375,32.766870617866545L121.421875,32.764896256583086L122.69999999999999,32.76462497029988L123.978125,32.765695043972585L125.25625,32.76444411277774L126.534375,32.76548404353008L127.8125,32.76364532538824L129.09062500000002,32.765604615211515L130.36875,32.76596633025579L131.646875,32.76206282206945L132.925,32.7612489632198L134.203125,32.75898824419295L135.48125,32.75999803202495L136.759375,32.759530816759394L138.0375,32.75965138844083L139.315625,32.758927958352245L140.59375,32.75820452826366L141.871875,32.76167096410481L143.14999999999998,32.76423311233523L144.42812500000002,32.763494610786466L145.70625,32.7627561092377L146.984375,32.760706390653354L148.2625,32.75975688866208L149.540625,32.758551171847785L150.81875,32.75790309906009L152.09687499999998,32.75522037914823L153.375,32.75485866410395L154.65312500000002,32.752763731139055L155.93125,32.75119629928045L157.209375,32.74892050879345L158.48749999999998,32.74791072096144L159.765625,32.7437962123326L161.04375000000002,32.74165606498721L162.321875,32.73933506011966L163.6,32.741249135562384L164.87812499999998,32.74013384750913L166.15625,32.74269599573955L167.434375,32.74385649817333L168.7125,32.745906216757646L169.990625,32.746795432908215L171.26875,32.74744350569591L172.546875,32.74676528998785L173.825,32.74565000193462L175.10312499999998,32.74650907516482L176.38125000000002,32.748212150165045L177.659375,32.747549005917165L178.9375,32.74626793180195L180.215625,32.74457992826191L181.49375,32.74457992826191L182.771875,32.743555068969755L184.05,32.74438399927959L185.328125,32.74216849463329L186.60625000000002,32.7425904955183L187.884375,32.74182185104917L189.1625,32.742424709456316L190.44062499999998,32.74225892339436L191.71875,32.74130942140309L192.99687500000002,32.74152042184559L194.275,32.74155056476596L195.553125,32.73948577472143L196.83124999999998,32.74028456211093L198.109375,32.74013384750913L199.38750000000002,32.74090249197826L200.665625,32.742228780473994L201.94375,32.742982353482944L203.221875,32.74353999750957L204.5,32.742650781359L205.778125,32.74266585281919L207.05624999999998,32.7417917081288L208.33437500000002,32.740405133792365L209.6125,32.740781920296826L210.890625,32.74168620790755L212.16875,32.74257542405812L213.44687499999998,32.7446552855628L214.72500000000002,32.74432371343886L216.003125,32.74483614308497L217.28125,32.74516771520888L218.559375,32.74516771520888L219.8375,32.745665073394804L221.115625,32.745665073394804L222.39374999999998,32.74549928733282L223.671875,32.74614736012052L224.95000000000002,32.74629807472232L226.228125,32.747413362775546L227.50625,32.747081790651606L228.78437499999998,32.74738321985518L230.0625,32.747217433793224L231.34062500000002,32.74892050879345L232.61875,32.74890543733326L233.896875,32.75042765481135L235.17499999999998,32.75039751189098L236.453125,32.74898079463415L237.73125,32.749568581581144L239.009375,32.749990582466154L240.2875,32.74996043954579L241.565625,32.7503824404308L242.84375,32.74946308135989L244.121875,32.7498850822449L245.39999999999998,32.7504427262715L246.67812500000002,32.750849655696356L247.95625,32.752115658351386L249.234375,32.75193480082922L250.5125,32.75261301653728L251.790625,32.75357758998874L253.06875,32.75494909286502L254.346875,32.75517516476771" style="fill: none;" fill="none"></path></g></g></g></g></g></g><g transform="translate(48, 177)" clip-path="url(#clip_1)"><clipPath id="clip_1"><rect width="281" height="23"></rect></clipPath><g><g><line x1="0" y1="0" x2="0" y2="5" style="visibility: inherit;" fill="rgb(0, 0, 0)" stroke="rgb(204, 204, 204)" stroke-width="1px"></line><line x1="25.5625" y1="0" x2="25.5625" y2="5" style="visibility: inherit;" fill="rgb(0, 0, 0)" stroke="rgb(204, 204, 204)" stroke-width="1px"></line><line x1="51.125" y1="0" x2="51.125" y2="5" style="visibility: inherit;" fill="rgb(0, 0, 0)" stroke="rgb(204, 204, 204)" stroke-width="1px"></line><line x1="76.6875" y1="0" x2="76.6875" y2="5" style="visibility: inherit;" fill="rgb(0, 0, 0)" stroke="rgb(204, 204, 204)" stroke-width="1px"></line><line x1="102.25" y1="0" x2="102.25" y2="5" style="visibility: inherit;" fill="rgb(0, 0, 0)" stroke="rgb(204, 204, 204)" stroke-width="1px"></line><line x1="127.8125" y1="0" x2="127.8125" y2="5" style="visibility: inherit;" fill="rgb(0, 0, 0)" stroke="rgb(204, 204, 204)" stroke-width="1px"></line><line x1="153.375" y1="0" x2="153.375" y2="5" style="visibility: inherit;" fill="rgb(0, 0, 0)" stroke="rgb(204, 204, 204)" stroke-width="1px"></line><line x1="178.9375" y1="0" x2="178.9375" y2="5" style="visibility: inherit;" fill="rgb(0, 0, 0)" stroke="rgb(204, 204, 204)" stroke-width="1px"></line><line x1="204.5" y1="0" x2="204.5" y2="5" style="visibility: inherit;" fill="rgb(0, 0, 0)" stroke="rgb(204, 204, 204)" stroke-width="1px"></line><line x1="230.0625" y1="0" x2="230.0625" y2="5" style="visibility: inherit;" fill="rgb(0, 0, 0)" stroke="rgb(204, 204, 204)" stroke-width="1px"></line><line x1="255.625" y1="0" x2="255.625" y2="5" style="visibility: inherit;" fill="rgb(0, 0, 0)" stroke="rgb(204, 204, 204)" stroke-width="1px"></line><line x1="281.1875" y1="0" x2="281.1875" y2="5" style="visibility: inherit;" fill="rgb(0, 0, 0)" stroke="rgb(204, 204, 204)" stroke-width="1px"></line></g><g transform="translate(0, 8)"><text x="0" y="0" dx="0em" dy="0.95em" style="text-anchor: middle; visibility: hidden; font-family: &quot;Helvetica Neue&quot;, sans-serif; font-size: 12px; font-weight: 200;" fill="rgb(50, 49, 63)" stroke="none" stroke-width="1px">-20</text><text x="25.5625" y="0" dx="0em" dy="0.95em" style="text-anchor: middle; visibility: inherit; font-family: &quot;Helvetica Neue&quot;, sans-serif; font-size: 12px; font-weight: 200;" fill="rgb(50, 49, 63)" stroke="none" stroke-width="1px">0</text><text x="51.125" y="0" dx="0em" dy="0.95em" style="text-anchor: middle; visibility: inherit; font-family: &quot;Helvetica Neue&quot;, sans-serif; font-size: 12px; font-weight: 200;" fill="rgb(50, 49, 63)" stroke="none" stroke-width="1px">20</text><text x="76.6875" y="0" dx="0em" dy="0.95em" style="text-anchor: middle; visibility: inherit; font-family: &quot;Helvetica Neue&quot;, sans-serif; font-size: 12px; font-weight: 200;" fill="rgb(50, 49, 63)" stroke="none" stroke-width="1px">40</text><text x="102.25" y="0" dx="0em" dy="0.95em" style="text-anchor: middle; visibility: inherit; font-family: &quot;Helvetica Neue&quot;, sans-serif; font-size: 12px; font-weight: 200;" fill="rgb(50, 49, 63)" stroke="none" stroke-width="1px">60</text><text x="127.8125" y="0" dx="0em" dy="0.95em" style="text-anchor: middle; visibility: inherit; font-family: &quot;Helvetica Neue&quot;, sans-serif; font-size: 12px; font-weight: 200;" fill="rgb(50, 49, 63)" stroke="none" stroke-width="1px">80</text><text x="153.375" y="0" dx="0em" dy="0.95em" style="text-anchor: middle; visibility: inherit; font-family: &quot;Helvetica Neue&quot;, sans-serif; font-size: 12px; font-weight: 200;" fill="rgb(50, 49, 63)" stroke="none" stroke-width="1px">100</text><text x="178.9375" y="0" dx="0em" dy="0.95em" style="text-anchor: middle; visibility: inherit; font-family: &quot;Helvetica Neue&quot;, sans-serif; font-size: 12px; font-weight: 200;" fill="rgb(50, 49, 63)" stroke="none" stroke-width="1px">120</text><text x="204.5" y="0" dx="0em" dy="0.95em" style="text-anchor: middle; visibility: inherit; font-family: &quot;Helvetica Neue&quot;, sans-serif; font-size: 12px; font-weight: 200;" fill="rgb(50, 49, 63)" stroke="none" stroke-width="1px">140</text><text x="230.0625" y="0" dx="0em" dy="0.95em" style="text-anchor: middle; visibility: inherit; font-family: &quot;Helvetica Neue&quot;, sans-serif; font-size: 12px; font-weight: 200;" fill="rgb(50, 49, 63)" stroke="none" stroke-width="1px">160</text><text x="255.625" y="0" dx="0em" dy="0.95em" style="text-anchor: middle; visibility: inherit; font-family: &quot;Helvetica Neue&quot;, sans-serif; font-size: 12px; font-weight: 200;" fill="rgb(50, 49, 63)" stroke="none" stroke-width="1px">180</text><text x="281.1875" y="0" dx="0em" dy="0.95em" style="text-anchor: middle; visibility: hidden; font-family: &quot;Helvetica Neue&quot;, sans-serif; font-size: 12px; font-weight: 200;" fill="rgb(50, 49, 63)" stroke="none" stroke-width="1px">200</text></g><line x1="0" y1="0" x2="281.1875" y2="0" fill="rgb(0, 0, 0)" stroke="rgb(204, 204, 204)" stroke-width="1px"></line></g></g></g></g></svg>