<svg viewBox="0 0 330 200" xmlns="http://www.w3.org/2000/svg"><g><g><g><g><g><line x1="48.8125" y1="177" x2="43.8125" y2="177" style="visibility: inherit;" fill="rgb(0, 0, 0)" stroke="rgb(204, 204, 204)" stroke-width="1px"></line><line x1="48.8125" y1="160.90909090909088" x2="43.8125" y2="160.90909090909088" style="visibility: inherit;" fill="rgb(0, 0, 0)" stroke="rgb(204, 204, 204)" stroke-width="1px"></line><line x1="48.8125" y1="144.81818181818187" x2="43.8125" y2="144.81818181818187" style="visibility: inherit;" fill="rgb(0, 0, 0)" stroke="rgb(204, 204, 204)" stroke-width="1px"></line><line x1="48.8125" y1="128.72727272727278" x2="43.8125" y2="128.72727272727278" style="visibility: inherit;" fill="rgb(0, 0, 0)" stroke="rgb(204, 204, 204)" stroke-width="1px"></line><line x1="48.8125" y1="112.63636363636367" x2="43.8125" y2="112.63636363636367" style="visibility: inherit;" fill="rgb(0, 0, 0)" stroke="rgb(204, 204, 204)" stroke-width="1px"></line><line x1="48.8125" y1="96.54545454545456" x2="43.8125" y2="96.54545454545456" style="visibility: inherit;" fill="rgb(0, 0, 0)" stroke="rgb(204, 204, 204)" stroke-width="1px"></line><line x1="48.8125" y1="80.45454545454544" x2="43.8125" y2="80.45454545454544" style="visibility: inherit;" fill="rgb(0, 0, 0)" stroke="rgb(204, 204, 204)" stroke-width="1px"></line><line x1="48.8125" y1="64.36363636363635" x2="43.8125" y2="64.36363636363635" style="visibility: inherit;" fill="rgb(0, 0, 0)" stroke="rgb(204, 204, 204)" stroke-width="1px"></line><line x1="48.8125" y1="48.27272727272734" x2="43.8125" y2="48.27272727272734" style="visibility: inherit;" fill="rgb(0, 0, 0)" stroke="rgb(204, 204, 204)" stroke-width="1px"></line><line x1="48.8125" y1="32.181818181818215" x2="43.8125" y2="32.181818181818215" style="visibility: inherit;" fill="rgb(0, 0, 0)" stroke="rgb(204, 204, 204)" stroke-width="1px"></line><line x1="48.8125" y1="16.090909090909122" x2="43.8125" y2="16.090909090909122" style="visibility: inherit;" fill="rgb(0, 0, 0)" stroke="rgb(204, 204, 204)" stroke-width="1px"></line><line x1="48.8125" y1="0" x2="43.8125" y2="0" style="visibility: inherit;" fill="rgb(0, 0, 0)" stroke="rgb(204, 204, 204)" stroke-width="1px"></line></g><g transform="translate(38.8125, 0)"><text x="0" y="177" dx="0em" dy="0.3em" style="text-anchor: end; visibility: hidden; font-family: &quot;Helvetica Neue&quot;, sans-serif; font-size: 12px; font-weight: 200;" fill="rgb(50, 49, 63)" stroke="none" stroke-width="1px">0.66</text><text x="0" y="160.90909090909088" dx="0em" dy="0.3em" style="text-anchor: end; visibility: inherit; font-family: &quot;Helvetica Neue&quot;, sans-serif; font-size: 12px; font-weight: 200;" fill="rgb(50, 49, 63)" stroke="none" stroke-width="1px">0.68</text><text x="0" y="144.81818181818187" dx="0em" dy="0.3em" style="text-anchor: end; visibility: hidden; font-family: &quot;Helvetica Neue&quot;, sans-serif; font-size: 12px; font-weight: 200;" fill="rgb(50, 49, 63)" stroke="none" stroke-width="1px">0.7</text><text x="0" y="128.72727272727278" dx="0em" dy="0.3em" style="text-anchor: end; visibility: inherit; font-family: &quot;Helvetica Neue&quot;, sans-serif; font-size: 12px; font-weight: 200;" fill="rgb(50, 49, 63)" stroke="none" stroke-width="1px">0.72</text><text x="0" y="112.63636363636367" dx="0em" dy="0.3em" style="text-anchor: end; visibility: hidden; font-family: &quot;Helvetica Neue&quot;, sans-serif; font-size: 12px; font-weight: 200;" fill="rgb(50, 49, 63)" stroke="none" stroke-width="1px">0.74</text><text x="0" y="96.54545454545456" dx="0em" dy="0.3em" style="text-anchor: end; visibility: inherit; font-family: &quot;Helvetica Neue&quot;, sans-serif; font-size: 12px; font-weight: 200;" fill="rgb(50, 49, 63)" stroke="none" stroke-width="1px">0.76</text><text x="0" y="80.45454545454544" dx="0em" dy="0.3em" style="text-anchor: end; visibility: hidden; font-family: &quot;Helvetica Neue&quot;, sans-serif; font-size: 12px; font-weight: 200;" fill="rgb(50, 49, 63)" stroke="none" stroke-width="1px">0.78</text><text x="0" y="64.36363636363635" dx="0em" dy="0.3em" style="text-anchor: end; visibility: inherit; font-family: &quot;Helvetica Neue&quot;, sans-serif; font-size: 12px; font-weight: 200;" fill="rgb(50, 49, 63)" stroke="none" stroke-width="1px">0.8</text><text x="0" y="48.27272727272734" dx="0em" dy="0.3em" style="text-anchor: end; visibility: hidden; font-family: &quot;Helvetica Neue&quot;, sans-serif; font-size: 12px; font-weight: 200;" fill="rgb(50, 49, 63)" stroke="none" stroke-width="1px">0.82</text><text x="0" y="32.181818181818215" dx="0em" dy="0.3em" style="text-anchor: end; visibility: inherit; font-family: &quot;Helvetica Neue&quot;, sans-serif; font-size: 12px; font-weight: 200;" fill="rgb(50, 49, 63)" stroke="none" stroke-width="1px">0.84</text><text x="0" y="16.090909090909122" dx="0em" dy="0.3em" style="text-anchor: end; visibility: hidden; font-family: &quot;Helvetica Neue&quot;, sans-serif; font-size: 12px; font-weight: 200;" fill="rgb(50, 49, 63)" stroke="none" stroke-width="1px">0.86</text><text x="0" y="0" dx="0em" dy="0.3em" style="text-anchor: end; visibility: hidden; font-family: &quot;Helvetica Neue&quot;, sans-serif; font-size: 12px; font-weight: 200;" fill="rgb(50, 49, 63)" stroke="none" stroke-width="1px">0.88</text></g><line x1="48.8125" y1="0" x2="48.8125" y2="177" fill="rgb(0, 0, 0)" stroke="rgb(204, 204, 204)" stroke-width="1px"></line></g></g><g transform="translate(48, 0)" clip-path="url(#clip_0)"><clipPath id="clip_0"><rect width="281" height="177"></rect></clipPath><g><g><g><line x1="0" y1="0" x2="0" y2="177" fill="rgb(0, 0, 0)" stroke="rgb(60, 60, 60)" stroke-width="1px" opacity="0.25"></line><line x1="23.432291666666664" y1="0" x2="23.432291666666664" y2="177" fill="rgb(0, 0, 0)" stroke="rgb(60, 60, 60)" stroke-width="1px" opacity="0.25"></line><line x1="46.86458333333333" y1="0" x2="46.86458333333333" y2="177" fill="rgb(0, 0, 0)" stroke="rgb(60, 60, 60)" stroke-width="1px" opacity="0.25"></line><line x1="70.296875" y1="0" x2="70.296875" y2="177" fill="rgb(0, 0, 0)" stroke="rgb(60, 60, 60)" stroke-width="1px" opacity="0.25"></line><line x1="93.72916666666666" y1="0" x2="93.72916666666666" y2="177" fill="rgb(0, 0, 0)" stroke="rgb(60, 60, 60)" stroke-width="1px" opacity="0.25"></line><line x1="117.16145833333334" y1="0" x2="117.16145833333334" y2="177" fill="rgb(0, 0, 0)" stroke="rgb(60, 60, 60)" stroke-width="1px" opacity="0.25"></line><line x1="140.59375" y1="0" x2="140.59375" y2="177" fill="rgb(0, 0, 0)" stroke="rgb(60, 60, 60)" stroke-width="1px" opacity="0.25"></line><line x1="164.02604166666669" y1="0" x2="164.02604166666669" y2="177" fill="rgb(0, 0, 0)" stroke="rgb(60, 60, 60)" stroke-width="1px" opacity="0.25"></line><line x1="187.45833333333331" y1="0" x2="187.45833333333331" y2="177" fill="rgb(0, 0, 0)" stroke="rgb(60, 60, 60)" stroke-width="1px" opacity="0.25"></line><line x1="210.890625" y1="0" x2="210.890625" y2="177" fill="rgb(0, 0, 0)" stroke="rgb(60, 60, 60)" stroke-width="1px" opacity="0.25"></line><line x1="234.32291666666669" y1="0" x2="234.32291666666669" y2="177" fill="rgb(0, 0, 0)" stroke="rgb(60, 60, 60)" stroke-width="1px" opacity="0.25"></line><line x1="257.7552083333333" y1="0" x2="257.7552083333333" y2="177" fill="rgb(0, 0, 0)" stroke="rgb(60, 60, 60)" stroke-width="1px" opacity="0.25"></line><line x1="281.1875" y1="0" x2="281.1875" y2="177" fill="rgb(0, 0, 0)" stroke="rgb(60, 60, 60)" stroke-width="1px" opacity="0.25"></line></g><g><line x1="0" y1="177" x2="281.1875" y2="177" fill="rgb(0, 0, 0)" stroke="rgb(60, 60, 60)" stroke-width="1px" opacity="0.25"></line><line x1="0" y1="160.90909090909088" x2="281.1875" y2="160.90909090909088" fill="rgb(0, 0, 0)" stroke="rgb(60, 60, 60)" stroke-width="1px" opacity="0.25"></line><line x1="0" y1="144.81818181818187" x2="281.1875" y2="144.81818181818187" fill="rgb(0, 0, 0)" stroke="rgb(60, 60, 60)" stroke-width="1px" opacity="0.25"></line><line x1="0" y1="128.72727272727278" x2="281.1875" y2="128.72727272727278" fill="rgb(0, 0, 0)" stroke="rgb(60, 60, 60)" stroke-width="1px" opacity="0.25"></line><line x1="0" y1="112.63636363636367" x2="281.1875" y2="112.63636363636367" fill="rgb(0, 0, 0)" stroke="rgb(60, 60, 60)" stroke-width="1px" opacity="0.25"></line><line x1="0" y1="96.54545454545456" x2="281.1875" y2="96.54545454545456" fill="rgb(0, 0, 0)" stroke="rgb(60, 60, 60)" stroke-width="1px" opacity="0.25"></line><line x1="0" y1="80.45454545454544" x2="281.1875" y2="80.45454545454544" fill="rgb(0, 0, 0)" stroke="rgb(60, 60, 60)" stroke-width="1px" opacity="0.25"></line><line x1="0" y1="64.36363636363635" x2="281.1875" y2="64.36363636363635" fill="rgb(0, 0, 0)" stroke="rgb(60, 60, 60)" stroke-width="1px" opacity="0.25"></line><line x1="0" y1="48.27272727272734" x2="281.1875" y2="48.27272727272734" fill="rgb(0, 0, 0)" stroke="rgb(60, 60, 60)" stroke-width="1px" opacity="0.25"></line><line x1="0" y1="32.181818181818215" x2="281.1875" y2="32.181818181818215" fill="rgb(0, 0, 0)" stroke="rgb(60, 60, 60)" stroke-width="1px" opacity="0.25"></line><line x1="0" y1="16.090909090909122" x2="281.1875" y2="16.090909090909122" fill="rgb(0, 0, 0)" stroke="rgb(60, 60, 60)" stroke-width="1px" opacity="0.25"></line><line x1="0" y1="0" x2="281.1875" y2="0" fill="rgb(0, 0, 0)" stroke="rgb(60, 60, 60)" stroke-width="1px" opacity="0.25"></line></g></g></g><g><g><line x1="0" y1="708.0000000000001" x2="281.1875" y2="708.0000000000001" fill="rgb(0, 0, 0)" stroke="rgb(153, 153, 153)" stroke-width="1.5px"></line></g></g><g><g><line x1="23.432291666666664" y1="0" x2="23.432291666666664" y2="177" fill="rgb(0, 0, 0)" stroke="rgb(153, 153, 153)" stroke-width="1.5px"></line></g></g><g><g><g><g><g><path stroke="rgb(255, 112, 67)" stroke-width="2px" d="M25.77552083333333,88.49052032557401L28.118750000000002,74.81227277625693L30.46197916666667,65.1235160936009L32.80520833333333,58.14194304292853L35.1484375,53.839020609855666L37.49166666666667,50.40043271671644L39.834895833333334,46.83164795962247L42.178125,44.74868995493108L44.52135416666666,42.68534540046346L46.86458333333333,41.03465057503095L49.207812499999996,39.33868656375191L51.55104166666666,37.71959385004911L53.89427083333334,37.16792360219091L56.237500000000004,36.138720989227295L58.58072916666667,35.71537737412888L60.92395833333334,34.97682787071574L63.2671875,34.503995060920715L65.61041666666667,34.10477263277227L67.95364583333334,33.66761807961899L70.296875,33.245665149255245L72.64010416666667,32.97246753085744L74.98333333333333,32.69821491024712L77.32656250000001,32.389962445605875L79.66979166666667,32.17071380398491L82.01302083333334,31.832249912348686L84.35625,31.5709930008108L86.69947916666668,31.27276305718857L89.04270833333332,31.02296730605039L91.3859375,30.823188250715077L93.72916666666666,30.769670865752488L96.07239583333333,30.670596567067236L98.41562499999999,30.59554754603994L100.75885416666667,30.358076138929903L103.10208333333333,30.21838425506246L105.4453125,30.081233967434287L107.78854166666667,29.967533501711785L110.13177083333333,29.957558935338795L112.47500000000001,29.833116628906936L114.81822916666667,29.768665584650932L117.16145833333334,29.674146977337927L119.5046875,29.616697311401367L121.84791666666668,29.534838730638683L124.19114583333332,29.500934795899838L126.534375,29.41682234677404L128.87760416666666,29.340622414242148L131.22083333333333,29.218194202943295L133.5640625,29.125258098949075L135.90729166666668,29.119263768196106L138.25052083333333,29.043735200708568L140.59375,28.956026153130978L142.93697916666665,28.923944494941026L145.28020833333335,28.885724642060012L147.6234375,28.852587981657564L149.96666666666667,28.76085074381396L152.30989583333331,28.689734003760606L154.65312500000002,28.68220512433487L156.99635416666666,28.648301189595998L159.33958333333334,28.618809082291335L161.68281249999998,28.567785338921993L164.02604166666669,28.483624935150146L166.36927083333333,28.448953726074905L168.7125,28.397018844431102L171.05572916666665,28.34973556345159L173.39895833333335,28.333622802387595L175.7421875,28.29756090857765L178.08541666666665,28.23665850812739L180.42864583333335,28.194602283564507L182.771875,28.159355618736953L185.11510416666667,28.152689922939658L187.45833333333331,28.124492591077626L189.80156250000002,28.0676663355394L192.14479166666666,28.03874968398702L194.48802083333334,27.98206729238683L196.83124999999998,27.97823092070493L199.17447916666669,27.936510378664195L201.51770833333333,27.898386435075253L203.8609375,27.90562758662483L206.20416666666665,27.86889432777059L208.54739583333335,27.86194090409714L210.890625,27.838491082191467L213.23385416666665,27.82271400364965L215.57708333333335,27.82352923263204L217.9203125,27.815137169577866L220.26354166666667,27.80923874811694L222.60677083333331,27.805690104311168L224.95000000000002,27.777924364263356L227.29322916666666,27.75735182111913L229.63645833333334,27.732942906293005L231.97968749999998,27.702683524651974L234.32291666666669,27.643507491458536L236.66614583333333,27.604472409595132L239.009375,27.586873054504395L241.35260416666665,27.577857581051916L243.69583333333335,27.571095975962578L246.0390625,27.58241327242419L248.38229166666665,27.569753245873898L250.72552083333335,27.582844864238382L253.06875,27.584043730389L255.41197916666667,27.55253752795133L257.7552083333333,27.538822499188512" style="fill: none;" fill="none"></path></g><g><path stroke="rgb(0, 153, 136)" stroke-width="2px" d="M25.77552083333333,67.78317667137495L28.118750000000002,56.859587853605106L30.46197916666667,49.98883798989384L32.80520833333333,45.22363276915118L35.1484375,44.036275733600974L37.49166666666667,41.66160961714658L39.834895833333334,39.63969787684354L42.178125,38.835690281607896L44.52135416666666,38.29480982910505L46.86458333333333,37.23515601591632L49.207812499999996,36.851758620955735L51.55104166666666,35.67734933983195L53.89427083333334,35.19511741941625L56.237500000000004,34.931031183763L58.58072916666667,35.31006470593542L60.92395833333334,34.92935277115214L63.2671875,34.79455226117915L65.61041666666667,34.59026546911761L67.95364583333334,34.567487012256265L70.296875,34.45201222463089L72.64010416666667,34.184713027694016L74.98333333333333,33.91578337279233L77.32656250000001,33.65371123227209L79.66979166666667,33.4214189269326L82.01302083333334,33.18490661274302L84.35625,32.96656910939652L86.69947916666668,32.75739094344053L89.04270833333332,32.63098249652168L91.3859375,32.48707060380417L93.72916666666666,32.295779520815074L96.07239583333333,32.09235591238195L98.41562499999999,31.99659048427236L100.75885416666667,31.860591108148753L103.10208333333333,31.732600157911122L105.4453125,31.63362176851794L107.78854166666667,31.503185131333083L110.13177083333333,31.3644043857401L112.47500000000001,31.23296070098877L114.81822916666667,31.171530799432247L117.16145833333334,31.146450519561768L119.5046875,31.09480336579412L121.84791666666668,31.05010963569987L124.19114583333332,31.011937737464905L126.534375,30.93228507041931L128.87760416666666,30.82242097637871L131.22083333333333,30.80822640115565L133.5640625,30.798635471950888L135.90729166666668,30.74986559694463L138.25052083333333,30.703109817071407L140.59375,30.646811062639415L142.93697916666665,30.60389165444809L145.28020833333335,30.53339832479304L147.6234375,30.48707413673401L149.96666666666667,30.463576360182344L152.30989583333331,30.41677262566307L154.65312500000002,30.38857529380104L156.99635416666666,30.331413355740636L159.33958333333334,30.31218354268509L161.68281249999998,30.28398621082306L164.02604166666669,30.263077985156656L166.36927083333333,30.242841124534607L168.7125,30.21099923957479L171.05572916666665,30.15000092983246L173.39895833333335,30.132449529387742L175.7421875,30.118398818102776L178.08541666666665,30.098977186463088L180.42864583333335,30.060325741767883L182.771875,30.003259712999522L185.11510416666667,29.961587125604808L187.45833333333331,29.95640802383423L189.80156250000002,29.924614093520432L192.14479166666666,29.898958357897698L194.48802083333334,29.894834258339614L196.83124999999998,29.84975689107722L199.17447916666669,29.838775277137756L201.51770833333333,29.823142062533975L203.8609375,29.805398843505174L206.20416666666665,29.77840037779376L208.54739583333335,29.749675544825493L210.890625,29.702632037076086L213.23385416666665,29.694335883313954L215.57708333333335,29.65141647512263L217.9203125,29.64623737335205L220.26354166666667,29.613963896578014L222.60677083333331,29.595932949673056L224.95000000000002,29.576079726219177L227.29322916666666,29.545724435286104L229.63645833333334,29.52908417311582L231.97968749999998,29.52131552045995L234.32291666666669,29.509518677538097L236.66614583333333,29.506305716254502L239.009375,29.50318866426295L241.35260416666665,29.45312401381406L243.69583333333335,29.432407606731772L246.0390625,29.404162320223747L248.38229166666665,29.402244134382784L250.72552083333335,29.38469273393804L253.06875,29.369395201856435L255.41197916666667,29.335251493887483L257.7552083333333,29.31511054255745" style="fill: none;" fill="none"></path></g><g><path stroke="rgb(51, 187, 238)" stroke-width="2px" d="M25.77552083333333,64.36362677270716L28.118750000000002,57.61952512914485L30.46197916666667,51.888609246774166L32.80520833333333,46.83840956471184L35.1484375,44.79616505449468L37.49166666666667,41.851557970047L39.834895833333334,39.341180205345154L42.178125,38.00454035672277L44.52135416666666,36.98607958446851L46.86458333333333,36.72223312204534L49.207812499999996,36.02276665514165L51.55104166666666,35.53487608649513L53.89427083333334,35.44357044046575L56.237500000000004,35.392402833158314L58.58072916666667,35.411392872983754L60.92395833333334,35.47550823471764L63.2671875,35.33092497695577L65.61041666666667,35.719597382978975L67.95364583333334,35.81732895157555L70.296875,35.54437110640785L72.64010416666667,35.3245470090346L74.98333333333333,35.14198367162186L77.32656250000001,34.95050077004868L79.66979166666667,34.85415988618678L82.01302083333334,34.621100306510925L84.35625,34.515600085258484L86.69947916666668,34.34051767262548L89.04270833333332,34.10328603874552L91.3859375,33.9675743904981L93.72916666666666,33.91060427102178L96.07239583333333,33.7040636105971L98.41562499999999,33.569838556376396L100.75885416666667,33.489754297516555L103.10208333333333,33.386507944627255L105.4453125,33.29994980855423L107.78854166666667,33.12323693795639L110.13177083333333,32.98690187931061L112.47500000000001,32.9277258461172L114.81822916666667,32.75465752861717L117.16145833333334,32.66627711599523L119.5046875,32.53118887814611L121.84791666666668,32.3980188261379L124.19114583333332,32.24456395886162L126.534375,32.14985353296453L128.87760416666666,32.059411070563584L131.22083333333333,31.952184482054292L133.5640625,31.89809164133939L135.90729166666668,31.94120286811483L138.25052083333333,31.79642779176885L140.59375,31.691694844852805L142.93697916666665,31.64690520546654L145.28020833333335,31.581926660104244L147.6234375,31.465636643496453L149.96666666666667,31.385312611406505" style="fill: none;" fill="none"></path></g><g><path stroke="rgb(0, 119, 187)" stroke-width="2px" d="M25.77552083333333,78.99171199581842L28.118750000000002,62.08391085537998L30.46197916666667,53.40838788856159L32.80520833333333,48.64318266781896L35.1484375,45.59408240968531L37.49166666666667,42.95974188501185L39.834895833333334,41.45804214477539L42.178125,40.26051872426814L44.52135416666666,39.39244372194463L46.86458333333333,38.355999957431465L49.207812499999996,37.62891161441803L51.55104166666666,36.9597045291554L53.89427083333334,36.62723496827215L56.237500000000004,36.30157496712425L58.58072916666667,36.031973947178244L60.92395833333334,35.92671349915594L63.2671875,35.934386242519736L65.61041666666667,35.772347493605196L67.95364583333334,35.657352252440035L70.296875,35.411392872983754L72.64010416666667,35.161693031137645L74.98333333333333,34.94335552779111L77.32656250000001,34.710967313159586L79.66979166666667,34.50586529211566L82.01302083333334,34.38554708524185L84.35625,34.23794268478048L86.69947916666668,34.08017189936206L89.04270833333332,34.0422397743572L91.3859375,33.92172974889928L93.72916666666666,33.75863599777222L96.07239583333333,33.72247819467026L98.41562499999999,33.63515278426084L100.75885416666667,33.65673237497157L103.10208333333333,33.71614818139511L105.4453125,33.70703679865056L107.78854166666667,33.63515278426084L110.13177083333333,33.685169480063706L112.47500000000001,33.662630796432495L114.81822916666667,33.55842535062271L117.16145833333334,33.5306596105749L119.5046875,33.411540269851685L121.84791666666668,33.34339671785182L124.19114583333332,33.28719387271187L126.534375,33.246528332883656L128.87760416666666,33.173924998803585L131.22083333333333,33.14985176649961L133.5640625,33.1349378715862L135.90729166666668,33.07312433286148L138.25052083333333,33.03322606736964L140.59375,33.02531355077571L142.93697916666665,33.00651532953435L145.28020833333335,32.948298389261424L147.6234375,32.90302920341492L149.96666666666667,32.89808987487447" style="fill: none;" fill="none"></path></g><g><path stroke="rgb(187, 187, 187)" stroke-width="2px" d="M25.77552083333333,69.3030032678084L28.118750000000002,68.7330622998151L30.46197916666667,70.31618902900003L32.80520833333333,72.86502641981299L35.1484375,78.19384259527381L37.49166666666667,80.76483503254978L39.834895833333334,86.29223139719531L42.178125,89.0129382393577L44.52135416666666,89.82035061446105L46.86458333333333,91.32113921642305L49.207812499999996,91.59918025406925L51.55104166666666,93.50902198661458L53.89427083333334,95.41728121584114L56.237500000000004,97.33791274374184L58.58072916666667,98.5465136874806L60.92395833333334,99.40221639112994L63.2671875,100.51481213352899L65.61041666666667,101.99987161159517L67.95364583333334,103.6385298208757L70.296875,101.3328224854036L72.64010416666667,99.30098413337362L74.98333333333333,97.03939507224344L77.32656250000001,95.04050156203185L79.66979166666667,93.1211648095738L82.01302083333334,91.22614106264983L84.35625,89.23578347943048L86.69947916666668,87.7235816717148L89.04270833333332,86.17685251886195L91.3859375,84.71720900318842L93.72916666666666,83.6081139499491L96.07239583333333,82.4786861267957L98.41562499999999,81.47921539436689L100.75885416666667,80.37913581458005L103.10208333333333,79.39961421489717L105.4453125,78.61176733537155L107.78854166666667,77.71995478326625L110.13177083333333,76.99444894357163L112.47500000000001,76.00212345340036L114.81822916666667,75.1240259300579L117.16145833333334,73.96213281154634L119.5046875,72.88008417866449L121.84791666666668,71.83145993406123L124.19114583333332,70.83606534654444L126.534375,69.83836893601853L128.87760416666666,68.90195856311105L131.22083333333333,68.01858602870597L133.5640625,67.07987383278935L135.90729166666668,66.2277677275918L138.25052083333333,65.42980241775514L140.59375,64.71700455925684L142.93697916666665,64.03585676713425L145.28020833333335,63.344350771470516L147.6234375,62.725544019178926L149.96666666666667,62.12965958768672L152.30989583333331,61.55890339071101" style="fill: none;" fill="none"></path></g><g><path stroke="rgb(238, 51, 119)" stroke-width="2px" d="M25.77552083333333,74.6223244233565L28.118750000000002,68.16312133182181L30.46197916666667,63.16044470396909L32.80520833333333,56.859587853605106L35.1484375,53.155091448263704L37.49166666666667,50.463780804113924L39.834895833333334,48.54142290895635L42.178125,47.85950784249741L44.52135416666666,46.97033279592341L46.86458333333333,45.575092369859874L49.207812499999996,45.26247603243047L51.55104166666666,44.416220394047826L53.89427083333334,43.24713407863271L56.237500000000004,42.923584081909866L58.58072916666667,42.26315269686958L60.92395833333334,41.8159276680513L63.2671875,41.44365575096825L65.61041666666667,41.176116780801266L67.95364583333334,40.58670622652227L70.296875,39.98981474746358L72.64010416666667,39.35925910689613L74.98333333333333,38.75152987783605L77.32656250000001,38.254432017152965L79.66979166666667,37.76706894961271L82.01302083333334,37.311164129864096L84.35625,36.85377271608874L86.69947916666668,36.50763608108866L89.04270833333332,36.321907737038345L91.3859375,35.94594331221148L93.72916666666666,35.74702744050461L96.07239583333333,35.456757968122304L98.41562499999999,35.2617743773894L100.75885416666667,35.153492786667556L103.10208333333333,34.911897279999465L105.4453125,34.727463711391806L107.78854166666667,34.54279036955401L110.13177083333333,34.33212560957128L112.47500000000001,34.21756196022034L114.81822916666667,34.01140493696386L117.16145833333334,33.825101137161255L119.5046875,33.610791824080735L121.84791666666668,33.47004493800077L124.19114583333332,33.322536446831435L126.534375,33.15157813375646L128.87760416666666,32.99658871780741L131.22083333333333,32.8896978118203L133.5640625,32.71859563480723L135.90729166666668,32.55070641907781L138.25052083333333,32.416769092733205L140.59375,32.330019138076096L142.93697916666665,32.25410693342036L145.28020833333335,32.15915673429316L147.6234375,32.0570612929084L149.96666666666667,31.96580360152504L152.30989583333331,31.88130751523107L154.65312500000002,31.755714297294617" style="fill: none;" fill="none"></path></g><g><path stroke="rgb(204, 51, 17)" stroke-width="2px" d="M25.77552083333333,91.34012925624849L28.118750000000002,74.7172746224837L30.46197916666667,66.39004624973646L32.80520833333333,61.89396250247957L35.1484375,56.19469668648462L37.49166666666667,52.870144941590056L39.834895833333334,49.626972230997964L42.178125,47.38461298292333L44.52135416666666,45.260557846589535L46.86458333333333,43.71330119263044L49.207812499999996,42.15381610393524L51.55104166666666,40.66420093449682L53.89427083333334,39.68146637353033L56.237500000000004,38.78481040217659L58.58072916666667,38.299029837955146L60.92395833333334,37.74333139983091L63.2671875,36.984832763671875L65.61041666666667,36.65888503464788L67.95364583333334,36.177276524630486L70.296875,35.61088420044291L72.64010416666667,35.09839289838618L74.98333333333333,34.54614719477567L77.32656250000001,34.11628174781799L79.66979166666667,33.674715367230505L82.01302083333334,33.38247975436124L84.35625,33.07614547556096L86.69947916666668,32.77144165472552L89.04270833333332,32.4545573538L91.3859375,32.22504641792992L93.72916666666666,32.00450300086629L96.07239583333333,31.755282705480397L98.41562499999999,31.581015521829784L100.75885416666667,31.31942292776975L103.10208333333333,31.09561859477651L105.4453125,30.79230545867574L107.78854166666667,30.468851371244966L110.13177083333333,30.347765890034765L112.47500000000001,30.158057310364455L114.81822916666667,29.99270969087428L117.16145833333334,29.821367740631104L119.5046875,29.6445110060952L121.84791666666668,29.55291763218969L124.19114583333332,29.417014165358125L126.534375,29.304560520432204L128.87760416666666,29.163334087892025L131.22083333333333,29.04474224827507L133.5640625,28.975687558000743L135.90729166666668,28.842229778116405L138.25052083333333,28.73356455022639L140.59375,28.648301189595998L142.93697916666665,28.532778447324574L145.28020833333335,28.461949435147375L147.6234375,28.375870845534592L149.96666666666667,28.296457951719105L152.30989583333331,28.257950370961964L154.65312500000002,28.22759508002889" style="fill: none;" fill="none"></path></g><g><path style="fill: none;" fill="none" stroke="none" stroke-width="1px"></path></g><g><path stroke="rgb(0, 153, 136)" stroke-width="2px" d="M28.118750000000002,194.49671104821294L30.46197916666667,170.9398064179854L32.80520833333333,158.63886425711894L35.1484375,148.59869592840022L37.49166666666667,141.74693610451442L39.834895833333334,134.87163054943088L42.178125,130.1425831317902L44.52135416666666,126.31671351736244L46.86458333333333,121.9641580256549L49.207812499999996,118.90383638035169L51.55104166666666,117.1292747042396L53.89427083333334,114.25405799258841L56.237500000000004,112.54951009967111L58.58072916666667,110.5276463140141L60.92395833333334,109.11471062356777L63.2671875,107.89033260128717L65.61041666666667,106.5065053809773L67.95364583333334,105.40829603238541L70.296875,102.1687199202451L72.64010416666667,99.31911098957063L74.98333333333333,96.5212930766019L77.32656250000001,93.86762682958084L79.66979166666667,91.49842754277317L82.01302083333334,89.37197467413817L84.35625,87.27026640285148L86.69947916666668,85.25386944684116L89.04270833333332,83.33400519327685L91.3859375,81.62518933686344L93.72916666666666,80.01127572493121L96.07239583333333,78.44018561189826L98.41562499999999,77.10977986725895L100.75885416666667,75.60673739693384L103.10208333333333,74.40998125076295L105.4453125,73.50416594201869L107.78854166666667,72.35843353921717L110.13177083333333,71.42350976033646L112.47500000000001,70.60780123147099L114.81822916666667,69.66347834196958L117.16145833333334,68.78533286398108L119.5046875,67.91754558953373L121.84791666666668,67.07306427305396L124.19114583333332,66.2589862021533L126.534375,65.52508829940449L128.87760416666666,64.79847950285132L131.22083333333333,64.115845116702L133.5640625,63.50672520290723L135.90729166666668,62.859673164107605L138.25052083333333,62.29716516624799L140.59375,61.74578264626591L142.93697916666665,61.22720110416414L145.28020833333335,60.67370857975702L147.6234375,60.202122590758606L149.96666666666667,59.7373941161416L152.30989583333331,59.26882926984268L154.65312500000002,58.77973983504556L156.99635416666666,58.35107325423847L159.33958333333334,57.92413304068826L161.68281249999998,57.48266256939283" style="fill: none;" fill="none"></path></g><g><path stroke="rgb(51, 187, 238)" stroke-width="2px" d="M25.77552083333333,74.0523834553632L28.118750000000002,60.18418755314569L30.46197916666667,56.57464134693147L32.80520833333333,52.96509514071725L35.1484375,50.533410950140535L37.49166666666667,47.677472006190925L39.834895833333334,45.6103390346874L42.178125,43.84627942605454L44.52135416666666,43.14973819255829L46.86458333333333,42.66846536506307L49.207812499999996,42.533760764382095L51.55104166666666,42.168202497742385L53.89427083333334,42.15113064375791L56.237500000000004,42.25864496014336L58.58072916666667,42.16187248446724L60.92395833333334,42.18402753093025L63.2671875,42.2259398915551L65.61041666666667,42.790893576361924L67.95364583333334,43.07641553878784L70.296875,42.373975883830695L72.64010416666667,41.56661146337336L74.98333333333333,40.953511313958614L77.32656250000001,40.32760727405548L79.66979166666667,39.69849027286878L82.01302083333334,39.15770572965795L84.35625,38.70237636566162L86.69947916666668,38.182212320241064L89.04270833333332,37.60426292636177L91.3859375,37.20369776812467L93.72916666666666,36.79186326807195L96.07239583333333,36.437286615371704L98.41562499999999,36.00981890071523L100.75885416666667,35.694613012400566L103.10208333333333,35.392402833158314L105.4453125,35.0911517468366L107.78854166666667,34.81191184303978L110.13177083333333,34.55290879986504L112.47500000000001,34.312560113993584L114.81822916666667,34.099113984541475L117.16145833333334,33.92484680089086L119.5046875,33.73125389489263L121.84791666666668,33.53334507075223L124.19114583333332,33.322536446831435L126.534375,33.12563467025757L128.87760416666666,32.89526055075905L131.22083333333333,32.712073802948L133.5640625,32.552864378148854L135.90729166666668,32.42405819892883L138.25052083333333,32.215167760849L140.59375,32.022246219895095L142.93697916666665,31.836901513012975L145.28020833333335,31.702484640208183L147.6234375,31.537328839302063L149.96666666666667,31.392361944372L152.30989583333331,31.283744671128005L154.65312500000002,31.09422791004181L156.99635416666666,31.001291806047618L159.33958333333334,30.862463105808615L161.68281249999998,30.718695077029167L164.02604166666669,30.624032605778098" style="fill: none;" fill="none"></path></g><g><path stroke="rgb(0, 119, 187)" stroke-width="2px" d="M25.77552083333333,62.84384813091974L28.118750000000002,56.19469668648462L30.46197916666667,51.635312806476264L32.80520833333333,48.120764754035264L35.1484375,44.30223220044917L37.49166666666667,41.851557970047L39.834895833333334,39.15118389779872L42.178125,37.57712059671229L44.52135416666666,36.90163145282051L46.86458333333333,36.09532203457573L49.207812499999996,35.349243651736856L51.55104166666666,34.98080810633573L53.89427083333334,34.78592042489487L56.237500000000004,34.52394419366664L58.58072916666667,34.5248553319411L60.92395833333334,34.64435830983251L63.2671875,34.30282532085073L65.61041666666667,33.999272411519826L67.95364583333334,34.29755030978811L70.296875,34.357014070857645L72.64010416666667,34.28421891819346L74.98333333333333,34.19209804318169L77.32656250000001,34.11628174781799L79.66979166666667,34.14174566485664L82.01302083333334,33.997977636077195L84.35625,33.865287130529225L86.69947916666668,33.86202621459961L89.04270833333332,33.74367414821279L91.3859375,33.63347437165001L93.72916666666666,33.612949783151805L96.07239583333333,33.471195849505364L98.41562499999999,33.4214189269326L100.75885416666667,33.31706961718473L103.10208333333333,33.25237879969856L105.4453125,33.27822635390541L107.78854166666667,33.13906197114426L110.13177083333333,33.002295320684254L112.47500000000001,32.89271895451981L114.81822916666667,32.847209995443166L117.16145833333334,32.761227315122426L119.5046875,32.71188198436391L121.84791666666668,32.64229979298332L124.19114583333332,32.514069069515585L126.534375,32.46505942127922L128.87760416666666,32.40976771441373L131.22083333333333,32.37346604737371L133.5640625,32.314385923472344L135.90729166666668,32.27362447435206L138.25052083333333,32.238425764170586L140.59375,32.17421449314463L142.93697916666665,32.1572385484522L145.28020833333335,32.09341091459447L147.6234375,32.10367320884359L149.96666666666667,32.09600046547979L152.30989583333331,32.05749288472265L154.65312500000002,32.057636748660684L156.99635416666666,32.014525521885275L159.33958333333334,31.98920546878469L161.68281249999998,31.980909315022558L164.02604166666669,31.969687927852988L166.36927083333333,31.937030813910752L168.7125,31.893200267444968L171.05572916666665,31.859775879166335L173.39895833333335,31.868935216556906L175.7421875,31.848650401288808L178.08541666666665,31.805874857035576L180.42864583333335,31.78429526632482L182.771875,31.799640753052444L185.11510416666667,31.74847314574501L187.45833333333331,31.70142963799566L189.80156250000002,31.703923279588878L192.14479166666666,31.674670945514322L194.48802083333334,31.62283197316259L196.83124999999998,31.600581017407507L199.17447916666669,31.596696691079586L201.51770833333333,31.59041463245046L203.8609375,31.55713410810992L206.20416666666665,31.549077727577895L208.54739583333335,31.55320182713598L210.890625,31.505007407882005L213.23385416666665,31.467410965399324L215.57708333333335,31.47244620323181L217.9203125,31.447557741945445L220.26354166666667,31.43911772424525L222.60677083333331,31.40401492335579L224.95000000000002,31.387470570477575L227.29322916666666,31.384353518486023L229.63645833333334,31.351120948791504L231.97968749999998,31.342105475339025L234.32291666666669,31.326951807195485L236.66614583333333,31.297507654536844L239.009375,31.27487306161362L241.35260416666665,31.283408988605856L243.69583333333335,31.27962057156998L246.0390625,31.26192530718717L248.38229166666665,31.246579820459544L250.72552083333335,31.235454342582017L253.06875,31.212963613596855L255.41197916666667,31.206249963153482L257.7552083333333,31.203468593684136" style="fill: none;" fill="none"></path></g><g><path stroke="rgb(187, 187, 187)" stroke-width="2px" d="M25.77552083333333,132.37477599490774L28.118750000000002,124.49084037000485L30.46197916666667,120.72299587726596L32.80520833333333,121.49871023134753L35.1484375,135.03443657268178L37.49166666666667,136.6492613228885L39.834895833333334,142.2806713147597L42.178125,147.5253270864487L44.52135416666666,151.03460012782705L46.86458333333333,157.24256882884288L49.207812499999996,159.3167511333119L51.55104166666666,164.52812638066035L53.89427083333334,170.4575265429237L56.237500000000004,174.29150049252945L58.58072916666667,175.3978621309454L60.92395833333334,179.1681043559855L70.296875,180.2200854258104L72.64010416666667,175.91534071618864L74.98333333333333,171.92421939156276L77.32656250000001,167.9249457771128L79.66979166666667,164.1560942368074L82.01302083333334,161.06867821650073L84.35625,158.02144818956205L86.69947916666668,155.1014897931706L89.04270833333332,152.50541707602417L91.3859375,149.99666976928714L93.72916666666666,147.47152197360995L96.07239583333333,145.07863309166652L98.41562499999999,142.98373438011518L100.75885416666667,140.96973515640607L103.10208333333333,138.94571341167799L105.4453125,136.98307361386043L107.78854166666667,135.3510811003772L110.13177083333333,133.65842595967382L112.47500000000001,132.04484803026375L114.81822916666667,131.11802858656105L117.16145833333334,129.15471742369914L119.5046875,127.31033378297634L121.84791666666668,125.458804899996L124.19114583333332,123.80384211106735L126.534375,122.1420218077573L128.87760416666666,120.50345950776882L131.22083333333333,118.88240065357903L133.5640625,117.40717187794773L135.90729166666668,115.98944072289902L138.25052083333333,114.5636531873183L140.59375,113.1986721428958L142.93697916666665,111.83138927546416L145.28020833333335,110.5276463140141L147.6234375,109.35908749970524L149.96666666666667,108.1951802860607L152.30989583333331,107.06661564653572L154.65312500000002,105.91392982006074L156.99635416666666,104.8850149349733L159.33958333333334,103.91450880874288L161.68281249999998,102.94793496348642L164.02604166666669,101.97877156734468L166.36927083333333,101.06935966014863L168.7125,100.10350513458253L171.05572916666665,99.21356281367217L173.39895833333335,98.3276486830278L175.7421875,97.47194597937845L178.08541666666665,96.65657313303515L180.42864583333335,95.86268396811053L182.771875,95.12566901337019L185.11510416666667,94.38524927876215L187.45833333333331,93.64425408840181L189.80156250000002,92.92148166353053L192.14479166666666,92.20556675304067L194.48802083333334,91.52230895649305L196.83124999999998,90.85751369866459L199.17447916666669,90.17243362556806L201.51770833333333,89.53784979473463L203.8609375,88.95678334886378L206.20416666666665,88.36142641847785L208.54739583333335,87.77628382769498L210.890625,87.18917509642515L213.23385416666665,86.63529893484983L215.57708333333335,86.08338891376151L217.9203125,85.54931802099402L220.26354166666667,85.0189396359704L222.60677083333331,84.53454975648361L224.95000000000002,84.04152804071254L227.29322916666666,83.55114383047278L229.63645833333334,83.09130672975022L231.97968749999998,82.63540191000159L234.32291666666669,82.20654351061042L236.66614583333333,81.7307375127619L239.009375,81.2796761122617L241.35260416666665,80.84247360446237L243.69583333333335,80.43476320396772L246.0390625,80.0355887304653L248.38229166666665,79.6368458487771L250.72552083333335,79.24438502571802L253.06875,78.82890597256748L255.41197916666667,78.45442814176734L257.7552083333333,78.08364281871103" style="fill: none;" fill="none"></path></g><g><path stroke="rgb(238, 51, 119)" stroke-width="2px" d="M25.77552083333333,104.6383841904727L28.118750000000002,93.33485071225601L30.46197916666667,80.38489037210292L32.80520833333333,74.52732626958328L35.1484375,70.86080994389276L37.49166666666667,67.62487838485025L39.834895833333334,63.98368211226031L42.178125,60.42165896025571L44.52135416666666,58.664360956712216L46.86458333333333,57.486546895720764L49.207812499999996,56.48827502944253L51.55104166666666,55.893925146623104L53.89427083333334,54.82103585113178L56.237500000000004,54.457779407501235L58.58072916666667,53.649024302309215L60.92395833333334,53.594403960488066L63.2671875,52.752799922769725L65.61041666666667,52.44795223799619L67.95364583333334,51.81528659300372L70.296875,50.837395451285644L72.64010416666667,49.92548990249634L74.98333333333333,49.061970591545105L77.32656250000001,48.07530374960467L79.66979166666667,47.09170600500974L82.01302083333334,46.34639489650726L84.35625,45.548765269192785L86.69947916666668,44.936911940574646L89.04270833333332,44.34160296483475L91.3859375,43.708745501258164L93.72916666666666,43.137078166007996L96.07239583333333,42.583873369477004L98.41562499999999,42.11276692693883L100.75885416666667,41.64717526869342L103.10208333333333,41.12518894672394L105.4453125,40.83928334712982L107.78854166666667,40.49535262584686L110.13177083333333,40.19055289571935L112.47500000000001,39.87683360143143L114.81822916666667,39.55481815338135L117.16145833333334,39.21563494205475L119.5046875,38.888392437588095L121.84791666666668,38.51343506032771L124.19114583333332,38.22657036781311L126.534375,37.93980158459058L128.87760416666666,37.65734871951017L131.22083333333333,37.40366864204407L133.5640625,37.19717593626544L135.90729166666668,36.943879495967536L138.25052083333333,36.73580428687009L140.59375,36.49425673484802L142.93697916666665,36.25472327795896L145.28020833333335,36.07192016731608L147.6234375,35.89961912415245L149.96666666666667,35.73364809426397L152.30989583333331,35.57371934977445L154.65312500000002,35.42294994267553L156.99635416666666,35.27740759199315L159.33958333333334,35.13037864728409L161.68281249999998,34.98828903111547L164.02604166666669,34.850994879549205L166.36927083333333,34.73058076338336L168.7125,34.59880139610985L171.05572916666665,34.50433074344289L173.39895833333335,34.3653581792658L175.7421875,34.25108225779101L178.08541666666665,34.12592063166878L180.42864583333335,34.010110161521226L182.771875,33.88096829977903L185.11510416666667,33.76386305418882L187.45833333333331,33.641914389350205L189.80156250000002,33.52341845902532L192.14479166666666,33.429331443526536L194.48802083333334,33.34042352979833L196.83124999999998,33.23847195235166L199.17447916666669,33.189941850575536L201.51770833333333,33.105205991051406L203.8609375,33.03500038927251L206.20416666666665,32.947099523110836L208.54739583333335,32.85660910606384L210.890625,32.761227315122426L213.23385416666665,32.6893433007327L215.57708333333335,32.62848885492846L217.9203125,32.55305619673297L220.26354166666667,32.49301697991112L222.60677083333331,32.38967471772975L224.95000000000002,32.29093610156667L227.29322916666666,32.22504641792992L229.63645833333334,32.16280128739098L231.97968749999998,32.09130091016942L234.32291666666669,32.019273031841635L236.66614583333333,31.978079990907162L239.009375,31.912957581606804L241.35260416666665,31.84313561699608L243.69583333333335,31.782856626944124L246.0390625,31.72986674308777L248.38229166666665,31.683926192196935L250.72552083333335,31.621297424489796L253.06875,31.57737096873197L255.41197916666667,31.524764722043813L257.7552083333333,31.471295291727245" style="fill: none;" fill="none"></path></g><g><path stroke="rgb(204, 51, 17)" stroke-width="2px" d="M25.77552083333333,135.98432220112196L28.118750000000002,130.0951080322266L30.46197916666667,118.82322462038562L32.80520833333333,106.91810010779989L35.1484375,103.11860554868527L37.49166666666667,97.98928070068361L39.834895833333334,93.56556051427668L42.178125,88.9654631397941L44.52135416666666,85.93640792369844L46.86458333333333,84.74799588593571L49.207812499999996,82.13494722409683L51.55104166666666,79.86247245831925L53.89427083333334,78.24644884196195L56.237500000000004,76.82056539708918L58.58072916666667,75.7494983781468L60.92395833333334,74.15922640670432L63.2671875,73.24775244972925L65.61041666666667,71.98376388983294L67.95364583333334,71.37272579019721L70.296875,69.40749644149436L72.64010416666667,67.62938612157649L74.98333333333333,66.00434703176673L77.32656250000001,64.42970827492802L79.66979166666667,63.017971450632274L82.01302083333334,61.67356294935401L84.35625,60.52759077332239L86.69947916666668,59.39614885503596L89.04270833333332,58.39974721995267L91.3859375,57.452451142397805L93.72916666666666,56.49230321970853L96.07239583333333,55.69217995080082L98.41562499999999,54.94202542304994L100.75885416666667,54.31799161434175L103.10208333333333,53.6467704339461L105.4453125,52.927115061066374L107.78854166666667,52.29492896253413L110.13177083333333,51.79960542375392L112.47500000000001,51.19532892920755L114.81822916666667,50.67569238489325L117.16145833333334,50.11548621004279L119.5046875,49.63824157281357L121.84791666666668,49.17015627297489L124.19114583333332,48.66193293441427L126.534375,48.13802842660385L128.87760416666666,47.675362001765876L131.22083333333333,47.24520882693204L133.5640625,46.849535042589366L135.90729166666668,46.46637742085892L138.25052083333333,46.087247989394456L140.59375,45.70428218624809L142.93697916666665,45.399626320058644L145.28020833333335,45.099430235949455L147.6234375,44.79616505449468L149.96666666666667,44.49361919273031L152.30989583333331,44.16752759976822L154.65312500000002,43.893802480264156L156.99635416666666,43.65963994372976L159.33958333333334,43.404137589714736L161.68281249999998,43.17975780096921L164.02604166666669,42.95974188501185L166.36927083333333,42.75315326994115L168.7125,42.56243764270437L171.05572916666665,42.365679730068564L173.39895833333335,42.20776508071205L175.7421875,42.04006768356672L178.08541666666665,41.85443524880844L180.42864583333335,41.67719487710434L182.771875,41.51074430075559L185.11510416666667,41.36285217241809L187.45833333333331,41.16762880845505L189.80156250000002,40.99398503520271L192.14479166666666,40.851559736511916L194.48802083333334,40.68697939135811L196.83124999999998,40.560235261917114L199.17447916666669,40.40395107052544L201.51770833333333,40.26675282825124L203.8609375,40.138090512969285L206.20416666666665,40.00050863352689L208.54739583333335,39.8928984078494L210.890625,39.77847862243652L213.23385416666665,39.65744109587237L215.57708333333335,39.5579352053729L217.9203125,39.44941384142095L220.26354166666667,39.341180205345154L222.60677083333331,39.23548816550863L224.95000000000002,39.12121224403381L227.29322916666666,39.01614361459559L229.63645833333334,38.900477008386105L231.97968749999998,38.82154366103086L234.32291666666669,38.71906458247793L236.66614583333333,38.62929348512131L239.009375,38.533192374489516L241.35260416666665,38.44529150832784L243.69583333333335,38.355184728449046L246.0390625,38.2710243246772L248.38229166666665,38.158906362273484L250.72552083333335,38.07066981358963L253.06875,37.97840507463977L255.41197916666667,37.89760149608961L257.7552083333333,37.81459200382233" style="fill: none;" fill="none"></path></g><g><path stroke="rgb(51, 187, 238)" stroke-width="2px" d="M25.77552083333333,125.5356761975722L28.118750000000002,101.31383244557816L30.46197916666667,89.44035799936816L32.80520833333333,80.6065367460251L35.1484375,73.90041518211366L37.49166666666667,68.82806045358832L39.834895833333334,64.0108244419098L42.178125,59.97045369581744L44.52135416666666,57.0601341832768L46.86458333333333,54.29492542960428L49.207812499999996,52.377938454801395L51.55104166666666,50.780425331809326L53.89427083333334,49.384801268577576L56.237500000000004,48.161478248509496L58.58072916666667,46.64524825052783L60.92395833333334,45.532316825606614L63.2671875,44.53917610645294L65.61041666666667,43.78297929330307L67.95364583333334,43.14638136733663L70.296875,42.440488977865755L72.64010416666667,41.82892337712377L74.98333333333333,41.2729851657694L77.32656250000001,40.7488888393749L79.66979166666667,40.24469369108027L82.01302083333334,39.72002190893346L84.35625,39.34535225954923L86.69947916666668,39.01249906149778L89.04270833333332,38.66266991875389L91.3859375,38.258412252772956L93.72916666666666,37.89376512440771L96.07239583333333,37.589396986094414L98.41562499999999,37.35154194181615L100.75885416666667,37.082036831162185L103.10208333333333,36.80044714971024L105.4453125,36.57836918397385L107.78854166666667,36.40031358328733L110.13177083333333,36.24215916070074L112.47500000000001,36.01231254230845L114.81822916666667,35.901441400701344L117.16145833333334,35.753357453779756L119.5046875,35.5754457170313L121.84791666666668,35.42405289953405L124.19114583333332,35.26647393269974L126.534375,35.13766775347969L128.87760416666666,35.05676826563749L131.22083333333333,34.9215841184963L133.5640625,34.75172876227987L135.90729166666668,34.58897069367498L138.25052083333333,34.483230699192404L140.59375,34.40832554210317L142.93697916666665,34.336345618421376L145.28020833333335,34.25621340491554L147.6234375,34.15037750114095L149.96666666666667,34.076623255556285L152.30989583333331,33.99174353209409L154.65312500000002,33.892956961284995L156.99635416666666,33.81095451658422L159.33958333333334,33.721950693564L161.68281249999998,33.66493261944163L164.02604166666669,33.60028975660151L166.36927083333333,33.54092190482399L168.7125,33.45589831742376L171.05572916666665,33.376533378254294L173.39895833333335,33.323447585105896L175.7421875,33.234012170271455L178.08541666666665,33.193298675797195L180.42864583333335,33.1538320021196L182.771875,33.10712417689237L185.11510416666667,33.04526268352163L187.45833333333331,33.04756450653076L189.80156250000002,32.98560710386798L192.14479166666666,32.9464761127125L194.48802083333334,32.87718164920807L196.83124999999998,32.825150858272195L199.17447916666669,32.75681548768824L201.51770833333333,32.71773245117882L203.8609375,32.682150103829116L206.20416666666665,32.60853972218254L208.54739583333335,32.56322258169001L210.890625,32.526153640313595L213.23385416666665,32.4852962819013L215.57708333333335,32.461702596057535L217.9203125,32.443192102692336L220.26354166666667,32.38670152967626L222.60677083333331,32.309206821701736L224.95000000000002,32.26000535488129L227.29322916666666,32.216318672353566L229.63645833333334,32.16280128739098L231.97968749999998,32.14040646769783L234.32291666666669,32.06785108826378L236.66614583333333,32.0198005329479L239.009375,31.976977034048616L241.35260416666665,31.943216963247835L243.69583333333335,31.920294642448425L246.0390625,31.881835016337334L248.38229166666665,31.8323458216407L250.72552083333335,31.797578703273416L253.06875,31.767367276278435L255.41197916666667,31.75504293225029L257.7552083333333,31.735381527380525" style="fill: none;" fill="none"></path></g><g><path stroke="rgb(0, 119, 187)" stroke-width="2px" d="M25.77552083333333,90.01029896736146L28.118750000000002,77.47193335403098L30.46197916666667,79.18170830336484L32.80520833333333,73.86238714781675L35.1484375,69.53097965500574L37.49166666666667,66.67499275641009L39.834895833333334,66.8061966679313L42.178125,65.28977485136554L44.52135416666666,65.35571248964831L46.86458333333333,64.61059319972993L49.207812499999996,64.27726045521824L51.55104166666666,64.79109448736365L53.89427083333334,64.64128417318518L56.237500000000004,64.33648444305769L58.58072916666667,64.92090771415018L60.92395833333334,64.52988553047182L63.2671875,64.02837584235452L65.61041666666667,63.42429116639225L67.95364583333334,63.55372075601059L70.296875,62.017445715990945L72.64010416666667,60.58221111514352L74.98333333333333,59.38972293246876L77.32656250000001,58.267919898033156L79.66979166666667,57.13666979833084L82.01302083333334,56.01232516765596L84.35625,55.04752564430238L86.69947916666668,54.11202640966937L89.04270833333332,53.29080309651117L91.3859375,52.499983028932064L93.72916666666666,51.7872810797258L96.07239583333333,51.14502450552854L98.41562499999999,50.63790412382647L100.75885416666667,50.08095886490564L103.10208333333333,49.573502800681396L105.4453125,48.99732772870499L107.78854166666667,48.56400954723358L110.13177083333333,48.10278176177633L112.47500000000001,47.655796506188125L114.81822916666667,47.192794398828L117.16145833333334,46.75290643085134L119.5046875,46.28352635557002L121.84791666666668,45.85011226480657L124.19114583333332,45.44561482559553L126.534375,45.068211761387914L128.87760416666666,44.7624049836939L131.22083333333333,44.44926114515826L133.5640625,44.16560941392726L135.90729166666668,43.889822244644165L138.25052083333333,43.66793609749189L140.59375,43.428354685956776L142.93697916666665,43.16834459521553L145.28020833333335,42.93298319253057L147.6234375,42.69570360400459L149.96666666666667,42.46369902654129L152.30989583333331,42.28852070461622L154.65312500000002,42.11276692693883L156.99635416666666,41.97652777758512L159.33958333333334,41.81880494681272L161.68281249999998,41.68573080409658L164.02604166666669,41.51592340252617L166.36927083333333,41.345492590557456L168.7125,41.20810252969915L171.05572916666665,41.099197528579026L173.39895833333335,40.972932945598274L175.7421875,40.85055268894544L178.08541666666665,40.740496776320725L180.42864583333335,40.619555159048616L182.771875,40.47142325748098L185.11510416666667,40.322140444408774L187.45833333333331,40.26392350413582L189.80156250000002,40.16988444328308L192.14479166666666,40.05997239459646L194.48802083333334,39.98175836693159L196.83124999999998,39.87990269877693L199.17447916666669,39.79094683040273L201.51770833333333,39.696859814903945L203.8609375,39.578028202056885L206.20416666666665,39.476891853592605L208.54739583333335,39.36146502061325L210.890625,39.27025528387591L213.23385416666665,39.17899759249255L215.57708333333335,39.11315586350182L217.9203125,39.03513365442103L220.26354166666667,38.965743281624526L222.60677083333331,38.880144238471985L224.95000000000002,38.80092316324061L227.29322916666666,38.73009415106341L229.63645833333334,38.61984641985461L231.97968749999998,38.5355421521447L234.32291666666669,38.482648177580415L236.66614583333333,38.41009279814634L239.009375,38.32051351937383L241.35260416666665,38.2410047162663L243.69583333333335,38.163222280415624L246.0390625,38.11306172067469L248.38229166666665,38.03422428261152L250.72552083333335,37.990345781499684L253.06875,37.93572543967855L255.41197916666667,37.880289868874996L257.7552083333333,37.81646223501727" style="fill: none;" fill="none"></path></g></g></g></g></g></g><g transform="translate(48, 177)" clip-path="url(#clip_1)"><clipPath id="clip_1"><rect width="281" height="23"></rect></clipPath><g><g><line x1="0" y1="0" x2="0" y2="5" style="visibility: inherit;" fill="rgb(0, 0, 0)" stroke="rgb(204, 204, 204)" stroke-width="1px"></line><line x1="23.432291666666664" y1="0" x2="23.432291666666664" y2="5" style="visibility: inherit;" fill="rgb(0, 0, 0)" stroke="rgb(204, 204, 204)" stroke-width="1px"></line><line x1="46.86458333333333" y1="0" x2="46.86458333333333" y2="5" style="visibility: inherit;" fill="rgb(0, 0, 0)" stroke="rgb(204, 204, 204)" stroke-width="1px"></line><line x1="70.296875" y1="0" x2="70.296875" y2="5" style="visibility: inherit;" fill="rgb(0, 0, 0)" stroke="rgb(204, 204, 204)" stroke-width="1px"></line><line x1="93.72916666666666" y1="0" x2="93.72916666666666" y2="5" style="visibility: inherit;" fill="rgb(0, 0, 0)" stroke="rgb(204, 204, 204)" stroke-width="1px"></line><line x1="117.16145833333334" y1="0" x2="117.16145833333334" y2="5" style="visibility: inherit;" fill="rgb(0, 0, 0)" stroke="rgb(204, 204, 204)" stroke-width="1px"></line><line x1="140.59375" y1="0" x2="140.59375" y2="5" style="visibility: inherit;" fill="rgb(0, 0, 0)" stroke="rgb(204, 204, 204)" stroke-width="1px"></line><line x1="164.02604166666669" y1="0" x2="164.02604166666669" y2="5" style="visibility: inherit;" fill="rgb(0, 0, 0)" stroke="rgb(204, 204, 204)" stroke-width="1px"></line><line x1="187.45833333333331" y1="0" x2="187.45833333333331" y2="5" style="visibility: inherit;" fill="rgb(0, 0, 0)" stroke="rgb(204, 204, 204)" stroke-width="1px"></line><line x1="210.890625" y1="0" x2="210.890625" y2="5" style="visibility: inherit;" fill="rgb(0, 0, 0)" stroke="rgb(204, 204, 204)" stroke-width="1px"></line><line x1="234.32291666666669" y1="0" x2="234.32291666666669" y2="5" style="visibility: inherit;" fill="rgb(0, 0, 0)" stroke="rgb(204, 204, 204)" stroke-width="1px"></line><line x1="257.7552083333333" y1="0" x2="257.7552083333333" y2="5" style="visibility: inherit;" fill="rgb(0, 0, 0)" stroke="rgb(204, 204, 204)" stroke-width="1px"></line><line x1="281.1875" y1="0" x2="281.1875" y2="5" style="visibility: inherit;" fill="rgb(0, 0, 0)" stroke="rgb(204, 204, 204)" stroke-width="1px"></line></g><g transform="translate(0, 8)"><text x="0" y="0" dx="0em" dy="0.95em" style="text-anchor: middle; visibility: hidden; font-family: &quot;Helvetica Neue&quot;, sans-serif; font-size: 12px; font-weight: 200;" fill="rgb(50, 49, 63)" stroke="none" stroke-width="1px">-10</text><text x="23.432291666666664" y="0" dx="0em" dy="0.95em" style="text-anchor: middle; visibility: inherit; font-family: &quot;Helvetica Neue&quot;, sans-serif; font-size: 12px; font-weight: 200;" fill="rgb(50, 49, 63)" stroke="none" stroke-width="1px">0</text><text x="46.86458333333333" y="0" dx="0em" dy="0.95em" style="text-anchor: middle; visibility: inherit; font-family: &quot;Helvetica Neue&quot;, sans-serif; font-size: 12px; font-weight: 200;" fill="rgb(50, 49, 63)" stroke="none" stroke-width="1px">10</text><text x="70.296875" y="0" dx="0em" dy="0.95em" style="text-anchor: middle; visibility: inherit; font-family: &quot;Helvetica Neue&quot;, sans-serif; font-size: 12px; font-weight: 200;" fill="rgb(50, 49, 63)" stroke="none" stroke-width="1px">20</text><text x="93.72916666666666" y="0" dx="0em" dy="0.95em" style="text-anchor: middle; visibility: inherit; font-family: &quot;Helvetica Neue&quot;, sans-serif; font-size: 12px; font-weight: 200;" fill="rgb(50, 49, 63)" stroke="none" stroke-width="1px">30</text><text x="117.16145833333334" y="0" dx="0em" dy="0.95em" style="text-anchor: middle; visibility: inherit; font-family: &quot;Helvetica Neue&quot;, sans-serif; font-size: 12px; font-weight: 200;" fill="rgb(50, 49, 63)" stroke="none" stroke-width="1px">40</text><text x="140.59375" y="0" dx="0em" dy="0.95em" style="text-anchor: middle; visibility: inherit; font-family: &quot;Helvetica Neue&quot;, sans-serif; font-size: 12px; font-weight: 200;" fill="rgb(50, 49, 63)" stroke="none" stroke-width="1px">50</text><text x="164.02604166666669" y="0" dx="0em" dy="0.95em" style="text-anchor: middle; visibility: inherit; font-family: &quot;Helvetica Neue&quot;, sans-serif; font-size: 12px; font-weight: 200;" fill="rgb(50, 49, 63)" stroke="none" stroke-width="1px">60</text><text x="187.45833333333331" y="0" dx="0em" dy="0.95em" style="text-anchor: middle; visibility: inherit; font-family: &quot;Helvetica Neue&quot;, sans-serif; font-size: 12px; font-weight: 200;" fill="rgb(50, 49, 63)" stroke="none" stroke-width="1px">70</text><text x="210.890625" y="0" dx="0em" dy="0.95em" style="text-anchor: middle; visibility: inherit; font-family: &quot;Helvetica Neue&quot;, sans-serif; font-size: 12px; font-weight: 200;" fill="rgb(50, 49, 63)" stroke="none" stroke-width="1px">80</text><text x="234.32291666666669" y="0" dx="0em" dy="0.95em" style="text-anchor: middle; visibility: inherit; font-family: &quot;Helvetica Neue&quot;, sans-serif; font-size: 12px; font-weight: 200;" fill="rgb(50, 49, 63)" stroke="none" stroke-width="1px">90</text><text x="257.7552083333333" y="0" dx="0em" dy="0.95em" style="text-anchor: middle; visibility: inherit; font-family: &quot;Helvetica Neue&quot;, sans-serif; font-size: 12px; font-weight: 200;" fill="rgb(50, 49, 63)" stroke="none" stroke-width="1px">100</text><text x="281.1875" y="0" dx="0em" dy="0.95em" style="text-anchor: middle; visibility: hidden; font-family: &quot;Helvetica Neue&quot;, sans-serif; font-size: 12px; font-weight: 200;" fill="rgb(50, 49, 63)" stroke="none" stroke-width="1px">110</text></g><line x1="0" y1="0" x2="281.1875" y2="0" fill="rgb(0, 0, 0)" stroke="rgb(204, 204, 204)" stroke-width="1px"></line></g></g></g></g></svg>