<svg viewBox="0 0 330 200" xmlns="http://www.w3.org/2000/svg"><g><g><g><g><g><line x1="48.8125" y1="177" x2="43.8125" y2="177" style="visibility: inherit;" fill="rgb(0, 0, 0)" stroke="rgb(204, 204, 204)" stroke-width="1px"></line><line x1="48.8125" y1="159.3" x2="43.8125" y2="159.3" style="visibility: inherit;" fill="rgb(0, 0, 0)" stroke="rgb(204, 204, 204)" stroke-width="1px"></line><line x1="48.8125" y1="141.6" x2="43.8125" y2="141.6" style="visibility: inherit;" fill="rgb(0, 0, 0)" stroke="rgb(204, 204, 204)" stroke-width="1px"></line><line x1="48.8125" y1="123.89999999999999" x2="43.8125" y2="123.89999999999999" style="visibility: inherit;" fill="rgb(0, 0, 0)" stroke="rgb(204, 204, 204)" stroke-width="1px"></line><line x1="48.8125" y1="106.2" x2="43.8125" y2="106.2" style="visibility: inherit;" fill="rgb(0, 0, 0)" stroke="rgb(204, 204, 204)" stroke-width="1px"></line><line x1="48.8125" y1="88.5" x2="43.8125" y2="88.5" style="visibility: inherit;" fill="rgb(0, 0, 0)" stroke="rgb(204, 204, 204)" stroke-width="1px"></line><line x1="48.8125" y1="70.8" x2="43.8125" y2="70.8" style="visibility: inherit;" fill="rgb(0, 0, 0)" stroke="rgb(204, 204, 204)" stroke-width="1px"></line><line x1="48.8125" y1="53.10000000000001" x2="43.8125" y2="53.10000000000001" style="visibility: inherit;" fill="rgb(0, 0, 0)" stroke="rgb(204, 204, 204)" stroke-width="1px"></line><line x1="48.8125" y1="35.400000000000006" x2="43.8125" y2="35.400000000000006" style="visibility: inherit;" fill="rgb(0, 0, 0)" stroke="rgb(204, 204, 204)" stroke-width="1px"></line><line x1="48.8125" y1="17.69999999999999" x2="43.8125" y2="17.69999999999999" style="visibility: inherit;" fill="rgb(0, 0, 0)" stroke="rgb(204, 204, 204)" stroke-width="1px"></line><line x1="48.8125" y1="0" x2="43.8125" y2="0" style="visibility: inherit;" fill="rgb(0, 0, 0)" stroke="rgb(204, 204, 204)" stroke-width="1px"></line></g><g transform="translate(38.8125, 0)"><text x="0" y="177" dx="0em" dy="0.3em" style="text-anchor: end; visibility: hidden; font-family: &quot;Helvetica Neue&quot;, sans-serif; font-size: 12px; font-weight: 200;" fill="rgb(50, 49, 63)" stroke="none" stroke-width="1px">-0.1</text><text x="0" y="159.3" dx="0em" dy="0.3em" style="text-anchor: end; visibility: inherit; font-family: &quot;Helvetica Neue&quot;, sans-serif; font-size: 12px; font-weight: 200;" fill="rgb(50, 49, 63)" stroke="none" stroke-width="1px">0</text><text x="0" y="141.6" dx="0em" dy="0.3em" style="text-anchor: end; visibility: hidden; font-family: &quot;Helvetica Neue&quot;, sans-serif; font-size: 12px; font-weight: 200;" fill="rgb(50, 49, 63)" stroke="none" stroke-width="1px">0.1</text><text x="0" y="123.89999999999999" dx="0em" dy="0.3em" style="text-anchor: end; visibility: inherit; font-family: &quot;Helvetica Neue&quot;, sans-serif; font-size: 12px; font-weight: 200;" fill="rgb(50, 49, 63)" stroke="none" stroke-width="1px">0.2</text><text x="0" y="106.2" dx="0em" dy="0.3em" style="text-anchor: end; visibility: hidden; font-family: &quot;Helvetica Neue&quot;, sans-serif; font-size: 12px; font-weight: 200;" fill="rgb(50, 49, 63)" stroke="none" stroke-width="1px">0.3</text><text x="0" y="88.5" dx="0em" dy="0.3em" style="text-anchor: end; visibility: inherit; font-family: &quot;Helvetica Neue&quot;, sans-serif; font-size: 12px; font-weight: 200;" fill="rgb(50, 49, 63)" stroke="none" stroke-width="1px">0.4</text><text x="0" y="70.8" dx="0em" dy="0.3em" style="text-anchor: end; visibility: hidden; font-family: &quot;Helvetica Neue&quot;, sans-serif; font-size: 12px; font-weight: 200;" fill="rgb(50, 49, 63)" stroke="none" stroke-width="1px">0.5</text><text x="0" y="53.10000000000001" dx="0em" dy="0.3em" style="text-anchor: end; visibility: inherit; font-family: &quot;Helvetica Neue&quot;, sans-serif; font-size: 12px; font-weight: 200;" fill="rgb(50, 49, 63)" stroke="none" stroke-width="1px">0.6</text><text x="0" y="35.400000000000006" dx="0em" dy="0.3em" style="text-anchor: end; visibility: hidden; font-family: &quot;Helvetica Neue&quot;, sans-serif; font-size: 12px; font-weight: 200;" fill="rgb(50, 49, 63)" stroke="none" stroke-width="1px">0.7</text><text x="0" y="17.69999999999999" dx="0em" dy="0.3em" style="text-anchor: end; visibility: inherit; font-family: &quot;Helvetica Neue&quot;, sans-serif; font-size: 12px; font-weight: 200;" fill="rgb(50, 49, 63)" stroke="none" stroke-width="1px">0.8</text><text x="0" y="0" dx="0em" dy="0.3em" style="text-anchor: end; visibility: hidden; font-family: &quot;Helvetica Neue&quot;, sans-serif; font-size: 12px; font-weight: 200;" fill="rgb(50, 49, 63)" stroke="none" stroke-width="1px">0.9</text></g><line x1="48.8125" y1="0" x2="48.8125" y2="177" fill="rgb(0, 0, 0)" stroke="rgb(204, 204, 204)" stroke-width="1px"></line></g></g><g transform="translate(48, 0)" clip-path="url(#clip_0)"><clipPath id="clip_0"><rect width="281" height="177"></rect></clipPath><g><g><g><line x1="0" y1="0" x2="0" y2="177" fill="rgb(0, 0, 0)" stroke="rgb(60, 60, 60)" stroke-width="1px" opacity="0.25"></line><line x1="23.432291666666664" y1="0" x2="23.432291666666664" y2="177" fill="rgb(0, 0, 0)" stroke="rgb(60, 60, 60)" stroke-width="1px" opacity="0.25"></line><line x1="46.86458333333333" y1="0" x2="46.86458333333333" y2="177" fill="rgb(0, 0, 0)" stroke="rgb(60, 60, 60)" stroke-width="1px" opacity="0.25"></line><line x1="70.296875" y1="0" x2="70.296875" y2="177" fill="rgb(0, 0, 0)" stroke="rgb(60, 60, 60)" stroke-width="1px" opacity="0.25"></line><line x1="93.72916666666666" y1="0" x2="93.72916666666666" y2="177" fill="rgb(0, 0, 0)" stroke="rgb(60, 60, 60)" stroke-width="1px" opacity="0.25"></line><line x1="117.16145833333334" y1="0" x2="117.16145833333334" y2="177" fill="rgb(0, 0, 0)" stroke="rgb(60, 60, 60)" stroke-width="1px" opacity="0.25"></line><line x1="140.59375" y1="0" x2="140.59375" y2="177" fill="rgb(0, 0, 0)" stroke="rgb(60, 60, 60)" stroke-width="1px" opacity="0.25"></line><line x1="164.02604166666669" y1="0" x2="164.02604166666669" y2="177" fill="rgb(0, 0, 0)" stroke="rgb(60, 60, 60)" stroke-width="1px" opacity="0.25"></line><line x1="187.45833333333331" y1="0" x2="187.45833333333331" y2="177" fill="rgb(0, 0, 0)" stroke="rgb(60, 60, 60)" stroke-width="1px" opacity="0.25"></line><line x1="210.890625" y1="0" x2="210.890625" y2="177" fill="rgb(0, 0, 0)" stroke="rgb(60, 60, 60)" stroke-width="1px" opacity="0.25"></line><line x1="234.32291666666669" y1="0" x2="234.32291666666669" y2="177" fill="rgb(0, 0, 0)" stroke="rgb(60, 60, 60)" stroke-width="1px" opacity="0.25"></line><line x1="257.7552083333333" y1="0" x2="257.7552083333333" y2="177" fill="rgb(0, 0, 0)" stroke="rgb(60, 60, 60)" stroke-width="1px" opacity="0.25"></line><line x1="281.1875" y1="0" x2="281.1875" y2="177" fill="rgb(0, 0, 0)" stroke="rgb(60, 60, 60)" stroke-width="1px" opacity="0.25"></line></g><g><line x1="0" y1="177" x2="281.1875" y2="177" fill="rgb(0, 0, 0)" stroke="rgb(60, 60, 60)" stroke-width="1px" opacity="0.25"></line><line x1="0" y1="159.3" x2="281.1875" y2="159.3" fill="rgb(0, 0, 0)" stroke="rgb(60, 60, 60)" stroke-width="1px" opacity="0.25"></line><line x1="0" y1="141.6" x2="281.1875" y2="141.6" fill="rgb(0, 0, 0)" stroke="rgb(60, 60, 60)" stroke-width="1px" opacity="0.25"></line><line x1="0" y1="123.89999999999999" x2="281.1875" y2="123.89999999999999" fill="rgb(0, 0, 0)" stroke="rgb(60, 60, 60)" stroke-width="1px" opacity="0.25"></line><line x1="0" y1="106.2" x2="281.1875" y2="106.2" fill="rgb(0, 0, 0)" stroke="rgb(60, 60, 60)" stroke-width="1px" opacity="0.25"></line><line x1="0" y1="88.5" x2="281.1875" y2="88.5" fill="rgb(0, 0, 0)" stroke="rgb(60, 60, 60)" stroke-width="1px" opacity="0.25"></line><line x1="0" y1="70.8" x2="281.1875" y2="70.8" fill="rgb(0, 0, 0)" stroke="rgb(60, 60, 60)" stroke-width="1px" opacity="0.25"></line><line x1="0" y1="53.10000000000001" x2="281.1875" y2="53.10000000000001" fill="rgb(0, 0, 0)" stroke="rgb(60, 60, 60)" stroke-width="1px" opacity="0.25"></line><line x1="0" y1="35.400000000000006" x2="281.1875" y2="35.400000000000006" fill="rgb(0, 0, 0)" stroke="rgb(60, 60, 60)" stroke-width="1px" opacity="0.25"></line><line x1="0" y1="17.69999999999999" x2="281.1875" y2="17.69999999999999" fill="rgb(0, 0, 0)" stroke="rgb(60, 60, 60)" stroke-width="1px" opacity="0.25"></line><line x1="0" y1="0" x2="281.1875" y2="0" fill="rgb(0, 0, 0)" stroke="rgb(60, 60, 60)" stroke-width="1px" opacity="0.25"></line></g></g></g><g><g><line x1="0" y1="159.3" x2="281.1875" y2="159.3" fill="rgb(0, 0, 0)" stroke="rgb(153, 153, 153)" stroke-width="1.5px"></line></g></g><g><g><line x1="23.432291666666664" y1="0" x2="23.432291666666664" y2="177" fill="rgb(0, 0, 0)" stroke="rgb(153, 153, 153)" stroke-width="1.5px"></line></g></g><g><g><g><g><g><path stroke="rgb(255, 112, 67)" stroke-width="2px" d="M25.77552083333333,135.72052119970323Z" style="fill: none;" fill="none"></path></g><g><path stroke="rgb(0, 153, 136)" stroke-width="2px" d="M25.77552083333333,33.73774062395097L28.118750000000002,30.690261232852947L30.46197916666667,28.237908589839947L32.80520833333333,26.827043581008923L35.1484375,25.685003685951244L37.49166666666667,24.67226486206056L39.834895833333334,24.133570182323467L42.178125,23.65258412361146L44.52135416666666,23.322959232330334L46.86458333333333,22.988449680805218L49.207812499999996,22.655997383594524L51.55104166666666,22.581609177589428L53.89427083333334,22.47130869627L56.237500000000004,22.427325654029858L58.58072916666667,22.346122133731853L60.92395833333334,22.273137080669414L63.2671875,22.331879603862774L65.61041666666667,22.356724905967724L67.95364583333334,22.38544206619264L70.296875,22.228120136260998L72.64010416666667,22.091655600070965" style="fill: none;" fill="none"></path></g><g><path stroke="rgb(51, 187, 238)" stroke-width="2px" d="M25.77552083333333,90.00834615826606L28.118750000000002,76.46400092840194L30.46197916666667,68.93251948356628L32.80520833333333,64.70504121780395L35.1484375,61.22660397291183L37.49166666666667,58.19451706409454L39.834895833333334,56.08151643276214L42.178125,53.65793370008468L44.52135416666666,51.8857937335968L46.86458333333333,50.31417803764343L49.207812499999996,48.87718062400819L51.55104166666666,47.797691810131084L53.89427083333334,46.832185435295116L56.237500000000004,45.7099795818329L58.58072916666667,44.81742660999299L60.92395833333334,44.00373505353929L63.2671875,43.24231885671617L65.61041666666667,42.50394390821458L67.95364583333334,41.906475055217754L70.296875,41.028597164154064L72.64010416666667,40.21088604927064L74.98333333333333,39.43811802864076L77.32656250000001,38.72452508211137" style="fill: none;" fill="none"></path></g><g><path stroke="rgb(0, 119, 187)" stroke-width="2px" d="M25.77552083333333,126.17791277468206L28.118750000000002,119.31339054107667L30.46197916666667,115.73234905600549L32.80520833333333,113.07221900224687L35.1484375,111.38379346132278L37.49166666666667,108.92426152825355L39.834895833333334,106.17801164388656L42.178125,104.69165067672729L44.52135416666666,103.69292755722999L46.86458333333333,102.09667755961418L49.207812499999996,100.53040544986725L51.55104166666666,99.31752215623855L53.89427083333334,98.38121824264526L56.237500000000004,97.48192380666733L58.58072916666667,97.53982760310173L60.92395833333334,97.28074015974998L63.2671875,96.42199473381042L65.61041666666667,96.02634780406952L67.95364583333334,95.32077814936638L70.296875,93.8392438173294L72.64010416666667,92.39620124101639L74.98333333333333,91.11512260437011L77.32656250000001,89.76610182523727L79.66979166666667,88.55515446066856" style="fill: none;" fill="none"></path></g><g><path stroke="rgb(187, 187, 187)" stroke-width="2px" d="M25.77552083333333,123.59217356443406L28.118750000000002,118.09747939109803L30.46197916666667,115.96834777593614L32.80520833333333,112.82595511078834L35.1484375,110.02319930791855L37.49166666666667,106.6566081225872L39.834895833333334,104.12877007126808L42.178125,101.63648031949997L44.52135416666666,99.58173691034317L46.86458333333333,97.68552868366241L49.207812499999996,95.75629888772964L51.55104166666666,93.85104401707649L53.89427083333334,92.64144705533981L56.237500000000004,90.94501932263374L58.58072916666667,89.7395104944706L60.92395833333334,88.5057698071003L63.2671875,87.28861375451088L65.61041666666667,86.20327495336532L67.95364583333334,85.15117399692535L70.296875,83.88106738328933L72.64010416666667,82.70260881185531L74.98333333333333,81.5837051153183L77.32656250000001,80.55675013661384L79.66979166666667,79.59741552472114L82.01302083333334,78.74683581590652" style="fill: none;" fill="none"></path></g><g><path stroke="rgb(238, 51, 119)" stroke-width="2px" d="M25.77552083333333,124.48486896157266L28.118750000000002,123.73069535493852L30.46197916666667,118.27704340517522L32.80520833333333,115.81186984777452L35.1484375,113.1445552289486L37.49166666666667,111.06878035068512L39.834895833333334,109.48054836988449L42.178125,108.83191190958023L44.52135416666666,106.9900890469551L46.86458333333333,105.71363659501075L49.207812499999996,105.5451685667038L51.55104166666666,104.73013188242912L53.89427083333334,104.02390812635421L56.237500000000004,103.73299126625061L58.58072916666667,103.20177127718925L60.92395833333334,102.55418454408645L63.2671875,101.93751465082168L65.61041666666667,101.45092653036117L67.95364583333334,101.12735207676887L70.296875,99.83723734617233L72.64010416666667,98.55858521461487L74.98333333333333,97.30382360816002L77.32656250000001,96.27461619973182L79.66979166666667,95.19393523335457L82.01302083333334,94.18123860955238" style="fill: none;" fill="none"></path></g><g><path stroke="rgb(204, 51, 17)" stroke-width="2px" d="M25.77552083333333,90.50086866617202L28.118750000000002,85.83730523586273L30.46197916666667,83.21565111279487L32.80520833333333,81.94330261945724L35.1484375,86.24055873155594L37.49166666666667,85.52434937953949L39.834895833333334,85.63721879124641L42.178125,85.38325865864753L44.52135416666666,85.53118579387665L46.86458333333333,84.63370596170425L49.207812499999996,84.5374370098114L51.55104166666666,84.39564998745918L53.89427083333334,84.51010190248489L56.237500000000004,84.73572467565536L58.58072916666667,84.27867661714554L60.92395833333334,84.13464244008064L63.2671875,84.14516608715057L65.61041666666667,84.07756682038307L67.95364583333334,84.04138024449348L70.296875,82.53587098717689L72.64010416666667,81.07699282765388L74.98333333333333,79.72695397138595L77.32656250000001,78.45683680772781L79.66979166666667,77.27717553377151L82.01302083333334,76.09707115888595" style="fill: none;" fill="none"></path></g><g><path stroke="rgb(255, 112, 67)" stroke-width="2px" d="M25.77552083333333,42.664694595336925L28.118750000000002,39.21704231500627L30.46197916666667,35.67704569101335L32.80520833333333,33.591517317295086L35.1484375,32.22939341068269L37.49166666666667,31.33669273853303L39.834895833333334,30.553933846950542L42.178125,29.97071807384492L44.52135416666666,29.523945736885082L46.86458333333333,29.06801598072053L49.207812499999996,28.734171080589306L51.55104166666666,28.345655965805065L53.89427083333334,28.111624825000774L56.237500000000004,27.89124541282655L58.58072916666667,27.718710350990307L60.92395833333334,27.517732429504406L63.2671875,27.429112243652355L65.61041666666667,27.29391371011735L67.95364583333334,27.20048271417619L70.296875,26.882452297210705L72.64010416666667,26.574191200733196L74.98333333333333,26.305133986473095L77.32656250000001,26.066175985336315L79.66979166666667,25.859954702854168L82.01302083333334,25.688706743717205L84.35625,25.521151292324078L86.69947916666668,25.356887447834026L89.04270833333332,25.192264902591717L91.3859375,25.06341748237611L93.72916666666666,24.963667023181927L96.07239583333333,24.831633496284496L98.41562499999999,24.754987585544598L100.75885416666667,24.680187928676617L103.10208333333333,24.605261671543133L105.4453125,24.561004328727734L107.78854166666667,24.491838383674633L110.13177083333333,24.445555436611187L112.47500000000001,24.404937851428997L114.81822916666667,24.353780794143688L117.16145833333334,24.328260290622723L119.5046875,24.282219994068157L121.84791666666668,24.237635600566875L124.19114583333332,24.1965643644333L126.534375,24.15315102338792L128.87760416666666,24.110307383537304L131.22083333333333,24.07601981163026L133.5640625,24.04580454826356L135.90729166666668,24.02133904695512L138.25052083333333,23.99409888982774" style="fill: none;" fill="none"></path></g><g><path stroke="rgb(0, 153, 136)" stroke-width="2px" d="M25.77552083333333,136.1206967264414L28.118750000000002,133.61191201508046L30.46197916666667,131.71878175735475L32.80520833333333,130.0565229088068L35.1484375,127.82785974740983L37.49166666666667,126.1163481205702L39.834895833333334,124.20782538056375L42.178125,122.45706503391267L44.52135416666666,120.80463880598546L46.86458333333333,119.26105979382993L49.207812499999996,117.8722047686577L51.55104166666666,116.58912954032422L53.89427083333334,115.48924489617349L56.237500000000004,114.37717761397363L58.58072916666667,113.32104127407075L60.92395833333334,112.2853350520134L63.2671875,111.30810232758522L65.61041666666667,110.36078419089317L67.95364583333334,109.46133677959442L70.296875,108.6102770447731L72.64010416666667,107.79776181578636L74.98333333333333,107.08290286660194L77.32656250000001,106.41414223909378L79.66979166666667,105.79469769001007L82.01302083333334,105.1854075372219" style="fill: none;" fill="none"></path></g><g><path stroke="rgb(0, 119, 187)" stroke-width="2px" d="M25.77552083333333,130.9492183059454L28.118750000000002,122.77643530368806L30.46197916666667,119.69304363727571L32.80520833333333,115.6502619713545L35.1484375,112.94139345288276L37.49166666666667,109.97087119817733L39.834895833333334,107.30377812981605L42.178125,105.06104387640953L44.52135416666666,103.07727574110031L46.86458333333333,101.29325117468834L49.207812499999996,99.81400619745254L51.55104166666666,98.33760972619056L53.89427083333334,96.7947270154953L56.237500000000004,95.6591542840004L58.58072916666667,94.73450286984443L60.92395833333334,93.69071533083915L63.2671875,92.9598572731018L65.61041666666667,91.95107470750808L67.95364583333334,91.21697251796722L70.296875,89.50505207777023L72.64010416666667,87.82864828705787L74.98333333333333,86.3200320482254L77.32656250000001,84.9787391602993L79.66979166666667,83.63506724238395L82.01302083333334,82.33239798545837L84.35625,81.25898070931434L86.69947916666668,80.19781728386879L89.04270833333332,79.1376877605915L91.3859375,78.19844039082527L93.72916666666666,77.29410304427147L96.07239583333333,76.43222426176071L98.41562499999999,75.5972796857357L100.75885416666667,74.7802859723568L103.10208333333333,74.04394190311432L105.4453125,73.30658503174782L107.78854166666667,72.6358410000801L110.13177083333333,72.0055141031742L112.47500000000001,71.39216219186783L114.81822916666667,70.82999371290207L117.16145833333334,70.12893419265747L119.5046875,69.4455670595169L121.84791666666668,68.78153811693191L124.19114583333332,68.13623546361923L126.534375,67.51325665712356L128.87760416666666,66.92138986587524L131.22083333333333,66.36195384263992L133.5640625,65.80077706575393L135.90729166666668,65.26233558654785L138.25052083333333,64.75279061794281L140.59375,64.25130586624145L142.93697916666665,63.76949690580368L145.28020833333335,63.29792146682739L147.6234375,62.85285823345184L149.96666666666667,62.41971652507782L152.30989583333331,62.005691456794736L154.65312500000002,61.58940868377685L156.99635416666666,61.20662223100662L159.33958333333334,60.83121024370193L161.68281249999998,60.46800463199615L164.02604166666669,60.08355127573013L166.36927083333333,59.72078876495361L168.7125,59.3692303776741L171.05572916666665,59.02345340251922L173.39895833333335,58.69137035608291L175.7421875,58.37282298803329L178.08541666666665,58.06066893339157L180.42864583333335,57.75828419923782L182.771875,57.462524878978726L185.11510416666667,57.18426804542541L187.45833333333331,56.8985734462738L189.80156250000002,56.624821472167966L192.14479166666666,56.368519234657285L194.48802083333334,56.110370743274686L196.83124999999998,55.858372914791104L199.17447916666669,55.61719940900802L201.51770833333333,55.379127609729764L203.8609375,55.161638903617856L206.20416666666665,54.939856338500974L208.54739583333335,54.72173463106155L210.890625,54.50830768346786L213.23385416666665,54.30052499771118L215.57708333333335,54.095559167861936L217.9203125,53.896269249916074L220.26354166666667,53.69953243732452L222.60677083333331,53.50705783367157L224.95000000000002,53.31691478490829L227.29322916666666,53.142459619045255L229.63645833333334,52.96952365636825L231.97968749999998,52.80324475765228L234.32291666666669,52.63860111236572L236.66614583333333,52.47826187610626L239.009375,52.31805979013443L241.35260416666665,52.16162406206131L243.69583333333335,52.01638190746307L246.0390625,51.86804859638214L248.38229166666665,51.72183583974838L250.72552083333335,51.57769088745117L253.06875,51.43679534196853L255.41197916666667,51.30155460834503L257.7552083333333,51.16254751682281" style="fill: none;" fill="none"></path></g><g><path stroke="rgb(51, 187, 238)" stroke-width="2px" d="M25.77552083333333,51.961047041416165L28.118750000000002,48.4056473851204L30.46197916666667,45.137567031383526L32.80520833333333,43.010999071598064L35.1484375,40.84851883649827L37.49166666666667,39.1913952112198L39.834895833333334,37.74387942552568L42.178125,36.515867400169384L44.52135416666666,35.77623699903489L46.86458333333333,35.03984545469285L49.207812499999996,34.364580738544475L51.55104166666666,33.712082970142376L53.89427083333334,33.216801631450664L56.237500000000004,32.750501203537L58.58072916666667,32.428451228141796L60.92395833333334,32.06008665561677L63.2671875,31.885346639156353L65.61041666666667,31.5179737687111L67.95364583333334,31.294577050209057L70.296875,30.790307092666637L72.64010416666667,30.288621890544903L74.98333333333333,29.84514116048814L77.32656250000001,29.445569622516643L79.66979166666667,29.07032643556596L82.01302083333334,28.732483077049267L84.35625,28.436027455329906L86.69947916666668,28.135299074649822L89.04270833333332,27.924224781990063L91.3859375,27.696914005279552L93.72916666666666,27.521699237823498L96.07239583333333,27.33992235660554L98.41562499999999,27.156995522975933L100.75885416666667,27.01966588497163L103.10208333333333,26.856921243667614L105.4453125,26.713145542144787L107.78854166666667,26.557690966129314L110.13177083333333,26.44391952753068L112.47500000000001,26.311031448841106L114.81822916666667,26.219678807258617L117.16145833333334,26.1259735107422L119.5046875,26.02556895017625L121.84791666666668,25.9402087211609L124.19114583333332,25.854531991481792L126.534375,25.771345067024242L128.87760416666666,25.681585478782665L131.22083333333333,25.611797082424175L133.5640625,25.527301955223095L135.90729166666668,25.459781813621532L138.25052083333333,25.395648229122173L140.59375,25.33778135776521" style="fill: none;" fill="none"></path></g><g><path stroke="rgb(0, 119, 187)" stroke-width="2px" d="M25.77552083333333,141.44608678221704L28.118750000000002,137.44434733986856L30.46197916666667,133.0116526812315L32.80520833333333,128.46352231800557L35.1484375,124.12163433730603L37.49166666666667,121.15521867871286L39.834895833333334,119.00996399223806L42.178125,116.70071712434293L44.52135416666666,115.38005744218827L46.86458333333333,113.34464167356492L49.207812499999996,111.45822914242744L51.55104166666666,110.14274160861969L53.89427083333334,108.76916565299034L56.237500000000004,107.54344298243522L58.58072916666667,106.51603435277939L60.92395833333334,105.50354345440864L63.2671875,104.52687515616417L65.61041666666667,103.62452121376991L67.95364583333334,102.86251949071884L70.296875,101.22861118912697L72.64010416666667,99.6960727751255L74.98333333333333,98.31825043559074L77.32656250000001,96.96923493146896L79.66979166666667,95.65310912132263L82.01302083333334,94.46443812847137" style="fill: none;" fill="none"></path></g><g><path stroke="rgb(187, 187, 187)" stroke-width="2px" d="M25.77552083333333,120.54469681084157L28.118750000000002,114.44974066615106L30.46197916666667,111.12521769404411L32.80520833333333,106.79256625771522L35.1484375,103.86051993370056L37.49166666666667,101.01825957298279L39.834895833333334,98.31085487008095L42.178125,95.99556283950805L44.52135416666666,93.9348428428173L46.86458333333333,91.90147905349731L49.207812499999996,89.83205001354217L51.55104166666666,87.93565188646316L53.89427083333334,86.70040254592895L56.237500000000004,85.34698240756988L58.58072916666667,84.19454019069671L60.92395833333334,83.00145401358604L63.2671875,81.76041798591613L65.61041666666667,80.6624033331871L67.95364583333334,79.49365605711937L70.296875,78.00774874091148L72.64010416666667,76.61937637925148L74.98333333333333,75.30825127959251L77.32656250000001,74.08704929351806L79.66979166666667,72.99069626927376L82.01302083333334,71.94265179634094" style="fill: none;" fill="none"></path></g><g><path stroke="rgb(238, 51, 119)" stroke-width="2px" d="M25.77552083333333,118.82087067067624L28.118750000000002,110.70965232253074L30.46197916666667,107.50313134789467L32.80520833333333,104.18374096155166L35.1484375,100.64065845608711L37.49166666666667,97.92460801005363L39.834895833333334,95.28096764087677L42.178125,93.01734961867332L44.52135416666666,91.05837931036949L46.86458333333333,89.2295487999916L49.207812499999996,87.8143899321556L51.55104166666666,86.55556656718254L53.89427083333334,84.98604505062103L56.237500000000004,83.54839881062507L58.58072916666667,82.3167997777462L60.92395833333334,80.9928933262825L63.2671875,80.20499129891395L65.61041666666667,79.21049346327781L67.95364583333334,78.3352583527565L70.296875,77.03809620738029L72.64010416666667,75.85274319648742L74.98333333333333,74.78774483799934L77.32656250000001,73.7323786497116L79.66979166666667,72.79060982465744L82.01302083333334,71.87985278964042" style="fill: none;" fill="none"></path></g><g><path stroke="rgb(204, 51, 17)" stroke-width="2px" d="M25.77552083333333,56.76313226222992L28.118750000000002,53.42321680784225L30.46197916666667,52.91530709266662L32.80520833333333,51.30691401958465L35.1484375,49.59693478345871L37.49166666666667,48.25687097311021L39.834895833333334,48.196767497062694L42.178125,47.770757603645336L44.52135416666666,47.17948161363603L46.86458333333333,46.98657445907594L49.207812499999996,46.716810393333446L51.55104166666666,46.29704611301423L53.89427083333334,46.01289181709291L56.237500000000004,45.66820149421693L58.58072916666667,45.37356047630311L60.92395833333334,45.4139670610428L63.2671875,45.27759747505189L65.61041666666667,45.358178544044506L67.95364583333334,45.51128046512605L70.296875,44.56244312524797L72.64010416666667,43.608700025081646L74.98333333333333,42.740253853797924L77.32656250000001,41.93661646842958L79.66979166666667,41.14480565786363L82.01302083333334,40.48158906698228" style="fill: none;" fill="none"></path></g><g><path stroke="rgb(187, 187, 187)" stroke-width="2px" d="M25.77552083333333,130.73373937904836L28.118750000000002,121.63747865259649L30.46197916666667,115.89652058780194L32.80520833333333,111.40995751619339L35.1484375,107.42514558434486L37.49166666666667,104.09652392864227L39.834895833333334,101.25719119906425L42.178125,98.60439341068268L44.52135416666666,96.363246935606L46.86458333333333,94.18246768712997L49.207812499999996,92.35901768803596L51.55104166666666,90.41621528863907L53.89427083333334,89.10618211627006L56.237500000000004,87.60730354785919L58.58072916666667,86.01481990814209L60.92395833333334,84.75606511831283L63.2671875,83.58202700614929L65.61041666666667,82.56921960711479L67.95364583333334,81.53178845643997L70.296875,80.13636340498924L72.64010416666667,78.81080587506294L74.98333333333333,77.58616458177566L77.32656250000001,76.50414903759956L79.66979166666667,75.48023774027824L82.01302083333334,74.4791355907917" style="fill: none;" fill="none"></path></g><g><path stroke="rgb(0, 153, 136)" stroke-width="2px" d="M25.77552083333333,125.56226095855237L28.118750000000002,117.52799974679948L30.46197916666667,112.67460976839065L32.80520833333333,107.88534809947014L35.1484375,104.66087098717689L37.49166666666667,102.78313057422638L39.834895833333334,100.20178808569908L42.178125,97.78095890879631L44.52135416666666,95.3200554728508L46.86458333333333,93.77613885998726L49.207812499999996,92.10995804071426L51.55104166666666,90.39056290984153L53.89427083333334,88.7557314813137L56.237500000000004,87.30387436151504L58.58072916666667,85.96351515054702L60.92395833333334,84.75799049735069L63.2671875,83.50416256785392L65.61041666666667,82.62223346829414L67.95364583333334,81.48642336130142L70.296875,80.16099243164062L72.64010416666667,78.92514173984527L74.98333333333333,77.81563811302185L77.32656250000001,76.7999294579029L79.66979166666667,75.75599949359894L82.01302083333334,74.86823095679283" style="fill: none;" fill="none"></path></g><g><path stroke="rgb(51, 187, 238)" stroke-width="2px" d="M25.77552083333333,121.06799900829793L28.118750000000002,114.81912859082223L30.46197916666667,112.23339201807975L32.80520833333333,107.46978272795677L35.1484375,103.78664340376854L37.49166666666667,101.26965077519417L39.834895833333334,98.54832531809807L42.178125,96.36495603919029L44.52135416666666,94.12295501232147L46.86458333333333,92.48634590506553L49.207812499999996,90.42251365184784L51.55104166666666,88.87451945543289L53.89427083333334,87.29000635743141L56.237500000000004,85.86808492541313L58.58072916666667,84.4879996061325L60.92395833333334,83.3285205245018L63.2671875,82.22397013306617L65.61041666666667,81.26095883846283L67.95364583333334,80.27780227661133L70.296875,78.93738504052162L72.64010416666667,77.74660931825638L74.98333333333333,76.60951738357544L77.32656250000001,75.58201380372047L79.66979166666667,74.6042166531086L82.01302083333334,73.72804259061813L84.35625,72.93228607177734L86.69947916666668,72.16241403222084L89.04270833333332,71.45962958335876L91.3859375,70.79575889110565L93.72916666666666,70.13817601203918L96.07239583333333,69.51805626153946L98.41562499999999,68.94726841449737L100.75885416666667,68.36723874807358L103.10208333333333,67.85120551586151L105.4453125,67.34971021413803L107.78854166666667,66.86495779752731L110.13177083333333,66.40474473237991L112.47500000000001,66.00439249277115L114.81822916666667,65.59457688331604L117.16145833333334,65.17293469905853L119.5046875,64.75534372329712L121.84791666666668,64.38329719305038L124.19114583333332,64.01780222654342L126.534375,63.65493421554565L128.87760416666666,63.32119481563568L131.22083333333333,62.99527298212051L133.5640625,62.70154981613159L135.90729166666668,62.41879867315292L138.25052083333333,62.12244855165481L140.59375,61.84656547307968L142.93697916666665,61.57306669950485L145.28020833333335,61.31717591285705L147.6234375,61.07036869525909L149.96666666666667,60.80989919900894L152.30989583333331,60.56674228906631L154.65312500000002,60.352597939968106L156.99635416666666,60.14003609418869L159.33958333333334,59.935334014892575L161.68281249999998,59.73756330013275L164.02604166666669,59.53459142446518L166.36927083333333,59.34836243391037L168.7125,59.157723534107205L171.05572916666665,58.9858320236206L173.39895833333335,58.81017415523529L175.7421875,58.644180107116696L178.08541666666665,58.48322896957397L180.42864583333335,58.31512491703033L182.771875,58.16554670333862L185.11510416666667,58.01719229221344L187.45833333333331,57.88801782131195L189.80156250000002,57.75814704895019L192.14479166666666,57.62461541891098L194.48802083333334,57.48504917621612L196.83124999999998,57.35590635538101L199.17447916666669,57.231025743484494L201.51770833333333,57.115914452075955L203.8609375,56.991403090953824L206.20416666666665,56.8716603398323L208.54739583333335,56.75650684833526L210.890625,56.65077452659607L213.23385416666665,56.541571247577664L215.57708333333335,56.442538189888L217.9203125,56.34404318332672L220.26354166666667,56.24825953245163L222.60677083333331,56.14856182336807L224.95000000000002,56.04690181016922L227.29322916666666,55.94368039369583L229.63645833333334,55.85749726295471L231.97968749999998,55.773941087722775L234.32291666666669,55.68437139987945L236.66614583333333,55.60353713035583L239.009375,55.51944290399551L241.35260416666665,55.43649863004684L243.69583333333335,55.35793261528015L246.0390625,55.27714054584503L248.38229166666665,55.19514577388763L250.72552083333335,55.128163683414456L253.06875,55.05909268856048L255.41197916666667,54.98737363815307L257.7552083333333,54.91586558818817" style="fill: none;" fill="none"></path></g><g><path stroke="rgb(51, 187, 238)" stroke-width="2px" d="M25.77552083333333,45.80451833009721L28.118750000000002,41.12556241750718L30.46197916666667,37.400866556167614L32.80520833333333,35.95408927202226L35.1484375,34.907474327087414L37.49166666666667,33.73774062395097L39.834895833333334,32.78787993192674L42.178125,32.07162837982179L44.52135416666666,31.23751198053361L46.86458333333333,30.711804378032696L49.207812499999996,30.169754791259777L51.55104166666666,29.617999184131634L53.89427083333334,29.390287506580364L56.237500000000004,29.126948404312145L58.58072916666667,28.9315514445305L60.92395833333334,28.677844512462627L63.2671875,28.452179539203655L65.61041666666667,28.24817376136781L67.95364583333334,28.159606325626385L70.296875,27.79053490161897L72.64010416666667,27.478612947464L74.98333333333333,27.176850664615642L77.32656250000001,26.924072134494793L79.66979166666667,26.68210737705232L82.01302083333334,26.460725712776195L84.35625,26.246908414363872L86.69947916666668,26.067167687416088L89.04270833333332,25.87388073205949L91.3859375,25.689677345752727L93.72916666666666,25.547515797615063L96.07239583333333,25.41153656244279L98.41562499999999,25.310994851589214L100.75885416666667,25.19882701635362L103.10208333333333,25.099593508243572L105.4453125,25.00427405834199L107.78854166666667,24.90911285877229L110.13177083333333,24.86485551595689L112.47500000000001,24.80997430086137L114.81822916666667,24.73579709529878L117.16145833333334,24.673805165290844L119.5046875,24.616328644752514L121.84791666666668,24.56451748609544L124.19114583333332,24.522285747528088L126.534375,24.468681085109722L128.87760416666666,24.416764426231396L131.22083333333333,24.367116022109997L133.5640625,24.322848129272472L135.90729166666668,24.274012076854717L138.25052083333333,24.238479602336895L140.59375,24.190825152397167L142.93697916666665,24.158911335468304L145.28020833333335,24.13296883106233L147.6234375,24.10510622262956L149.96666666666667,24.068582046031963L152.30989583333331,24.0356237769127L154.65312500000002,24.003287959098827L156.99635416666666,23.973167645931255L159.33958333333334,23.944091784954082L161.68281249999998,23.926431047916424L164.02604166666669,23.909878063201916L166.36927083333333,23.878217446804058L168.7125,23.854532647132885L171.05572916666665,23.83404450416566L173.39895833333335,23.809389102458965L175.7421875,23.787381756305706L178.08541666666665,23.765110659599316L180.42864583333335,23.745793569087994L182.771875,23.732943642139446L185.11510416666667,23.714649903774273L187.45833333333331,23.699088621139538L189.80156250000002,23.686565744876873L192.14479166666666,23.67396901845933L194.48802083333334,23.65791188478471L196.83124999999998,23.638130593299877L199.17447916666669,23.618465352058422L201.51770833333333,23.60256646871568" style="fill: none;" fill="none"></path></g><g><path stroke="rgb(0, 119, 187)" stroke-width="2px" d="M25.77552083333333,123.5306089103222L28.118750000000002,117.34330314695836L30.46197916666667,112.99269821047783L32.80520833333333,110.67886735796928L35.1484375,107.9238240301609L37.49166666666667,105.79982500076294L39.834895833333334,104.19912816882133L42.178125,102.70232795476913L44.52135416666666,101.51078208088875L46.86458333333333,101.30864365696907L49.207812499999996,100.56958295702934L51.55104166666666,100.06656317710876L53.89427083333334,99.22655459046364L56.237500000000004,98.26908205747604L58.58072916666667,97.78813819885254L60.92395833333334,97.39424784779548L63.2671875,96.65014951229095L65.61041666666667,96.61805634498596L67.95364583333334,96.39168979525566L70.296875,94.89970566630363L72.64010416666667,93.37684689760208L74.98333333333333,91.92526407837867L77.32656250000001,90.64942880272865L79.66979166666667,89.41578306555748L82.01302083333334,88.2315747320652" style="fill: none;" fill="none"></path></g><g><path stroke="rgb(187, 187, 187)" stroke-width="2px" d="M25.77552083333333,129.93339096307756L28.118750000000002,123.36130479276181L30.46197916666667,119.73408586084844L32.80520833333333,115.5502161115408L35.1484375,112.49196778535843L37.49166666666667,109.24234997034073L39.834895833333334,106.8024621784687L42.178125,104.5839138507843L44.52135416666666,102.61553819775581L46.86458333333333,101.10855721235275L49.207812499999996,99.26272006630897L51.55104166666666,97.73735039234161L53.89427083333334,96.56267400383949L56.237500000000004,95.71851925849914L58.58072916666667,94.04292254447937L60.92395833333334,92.76724024415016L63.2671875,91.67785023450851L65.61041666666667,90.56414242386818L67.95364583333334,89.62761695981025L70.296875,87.7766103029251L72.64010416666667,86.07257072925567L74.98333333333333,84.49686162471771L77.32656250000001,83.02203183174133L79.66979166666667,81.67780603766441L82.01302083333334,80.44480912685394" style="fill: none;" fill="none"></path></g><g><path stroke="rgb(238, 51, 119)" stroke-width="2px" d="M25.77552083333333,75.57130553126335L28.118750000000002,69.07617913484573L30.46197916666667,63.33008848428726L32.80520833333333,59.17187111377716L35.1484375,57.08942334651947L37.49166666666667,54.4903515458107L39.834895833333334,52.05339138507843L42.178125,50.252608108520505L44.52135416666666,49.14272468090057L46.86458333333333,47.65762971639634L49.207812499999996,46.40337978601457L51.55104166666666,45.19143544435502L53.89427083333334,44.24881206750871L56.237500000000004,43.51341222524644L58.58072916666667,42.72216056585313L60.92395833333334,42.06636064052583L63.2671875,41.30664299726487L65.61041666666667,40.73565469980241L67.95364583333334,40.193984913826L70.296875,39.36326562166215L72.64010416666667,38.602862226963055L74.98333333333333,37.8863996744156L77.32656250000001,37.22688614130021L79.66979166666667,36.617200362682354L82.01302083333334,36.030429232120525" style="fill: none;" fill="none"></path></g><g><path stroke="rgb(204, 51, 17)" stroke-width="2px" d="M25.77552083333333,133.31947858929635L28.118750000000002,124.71574037075044L30.46197916666667,119.21078366339208L32.80520833333333,115.48095521628858L35.1484375,115.39784477949144L37.49166666666667,111.84347902536392L39.834895833333334,109.55090646743774L42.178125,107.00804518461227L44.52135416666666,105.00632091164589L46.86458333333333,102.98937295675277L49.207812499999996,100.9501644551754L51.55104166666666,98.87117182016372L53.89427083333334,96.79709549546241L56.237500000000004,95.13585208654403L58.58072916666667,93.70021035075187L60.92395833333334,92.11118711829185L63.2671875,90.69099588990211L65.61041666666667,89.52266533970833L67.95364583333334,88.20837523341179L70.296875,86.61456756591797L72.64010416666667,85.03475977778434L74.98333333333333,83.57198338508606L77.32656250000001,82.2725424349308L79.66979166666667,81.02880560159683L82.01302083333334,79.8931801199913" style="fill: none;" fill="none"></path></g><g><path stroke="rgb(255, 112, 67)" stroke-width="2px" d="M25.77552083333333,131.16469459533693L28.118750000000002,123.14582586586477L30.46197916666667,119.59043412208558L32.80520833333333,115.5348262667656L35.1484375,112.20260705351829L37.49166666666667,109.35008679628372L39.834895833333334,107.42250807881355L42.178125,105.49969797134399L44.52135416666666,103.53217159509659L46.86458333333333,102.010489153862L49.207812499999996,100.13022728562355L51.55104166666666,98.37608565688133L53.89427083333334,96.82314350008964L56.237500000000004,95.45686815977096L58.58072916666667,93.93826104998588L60.92395833333334,92.98656465411186L63.2671875,91.65974639654159L65.61041666666667,90.7419999718666L67.95364583333334,89.59683199524879L70.296875,88.27528874874115L72.64010416666667,87.059082198143L74.98333333333333,85.93944527506828L77.32656250000001,84.87434141635894L79.66979166666667,83.93134878873825L82.01302083333334,83.0009950876236" style="fill: none;" fill="none"></path></g><g><path stroke="rgb(0, 153, 136)" stroke-width="2px" d="M25.77552083333333,48.359480488300335L28.118750000000002,43.24956672191621L30.46197916666667,39.966083335876476L32.80520833333333,37.70869510173799L35.1484375,36.120315420627605L37.49166666666667,34.73817812204362L39.834895833333334,33.988398599624645L42.178125,33.195195186138164L44.52135416666666,32.386725890636455L46.86458333333333,31.924645471572887L49.207812499999996,31.493402767181408L51.55104166666666,30.87752412557603L53.89427083333334,30.47241382598878L56.237500000000004,30.08780221939088L58.58072916666667,29.71548138856889L60.92395833333334,29.43202339410783L63.2671875,29.134829270839703L65.61041666666667,28.95104788541795L67.95364583333334,28.729898321628582L70.296875,28.303065526485454L72.64010416666667,27.89490627050401L74.98333333333333,27.53784077167512L77.32656250000001,27.221192407608044L79.66979166666667,26.93991826772691L82.01302083333334,26.66635619401933L84.35625,26.41621516942979L86.69947916666668,26.2017015695572L89.04270833333332,26.00800316333772L91.3859375,25.839350509643566L93.72916666666666,25.671668457984936L96.07239583333333,25.52077149152757L98.41562499999999,25.376415538787853L100.75885416666667,25.251070725917828L103.10208333333333,25.145770955085766L105.4453125,25.07111899852754L107.78854166666667,24.97922830581666L110.13177083333333,24.882326352596294L112.47500000000001,24.79782067537309L114.81822916666667,24.750007975101482L117.16145833333334,24.693808007240307L119.5046875,24.621582555770885L121.84791666666668,24.554990816116344L124.19114583333332,24.4893591284752L126.534375,24.425299394130718L128.87760416666666,24.366145420074474L131.22083333333333,24.30286638736726L133.5640625,24.246866869926464L135.90729166666668,24.191278803348553L138.25052083333333,24.148013162612926L140.59375,24.10955833196641L142.93697916666665,24.06415103673936L145.28020833333335,24.019313442707073L147.6234375,23.979075658321392L149.96666666666667,23.93233906030656L152.30989583333331,23.896817135810863L154.65312500000002,23.86641197204591L156.99635416666666,23.82195417881013L159.33958333333334,23.786991405487072L161.68281249999998,23.7547821879387L164.02604166666669,23.721591818332683L166.36927083333333,23.683432388305675L168.7125,23.652468073368084L171.05572916666665,23.620522606372845L173.39895833333335,23.59486495256425L175.7421875,23.564797389507305L178.08541666666665,23.53284137248994L180.42864583333335,23.50688831806184L182.771875,23.479437160491955L185.11510416666667,23.45411710739137L187.45833333333331,23.43040065765382L189.80156250000002,23.39911984205247L192.14479166666666,23.378104197978985L194.48802083333334,23.361044812202465L196.83124999999998,23.34403817653657L199.17447916666669,23.316386568546307L201.51770833333333,23.30446504354478L203.8609375,23.285242903232586L206.20416666666665,23.264944660663616L208.54739583333335,23.245933520793926L210.890625,23.227017331123363L213.23385416666665,23.20894514322282L215.57708333333335,23.196949768066418L217.9203125,23.180787134170544L220.26354166666667,23.16098474264146L222.60677083333331,23.145623910427105L224.95000000000002,23.126327919960033L227.29322916666666,23.11348854303361L229.63645833333334,23.099900114536297L231.97968749999998,23.082460927963268L234.32291666666669,23.063017237186443L236.66614583333333,23.045683550834667L239.009375,23.033751475811016L241.35260416666665,23.021745550632488L243.69583333333335,23.005087065696728L246.0390625,22.99137203693391L248.38229166666665,22.975051152706158L250.72552083333335,22.96255992650987L253.06875,22.95314930677415L255.41197916666667,22.94019387960435L257.7552083333333,22.927502202987682" style="fill: none;" fill="none"></path></g><g><path stroke="rgb(51, 187, 238)" stroke-width="2px" d="M25.77552083333333,37.1238229751587L28.118750000000002,34.95365177392961L30.46197916666667,33.399127113819134L32.80520833333333,32.83734898567201L35.1484375,32.641878175735485L37.49166666666667,32.131911206245434L39.834895833333334,31.87319301366807L42.178125,32.02546148300172L44.52135416666666,31.84289335012437L46.86458333333333,31.789204287529003L49.207812499999996,31.946747767925274L51.55104166666666,32.0754791378975L53.89427083333334,32.14651243686677L56.237500000000004,32.159035313129436L58.58072916666667,32.21912823915483L60.92395833333334,32.310196030139934L63.2671875,32.48651854991914L65.61041666666667,32.52012037038804L67.95364583333334,32.61336146593095L70.296875,32.03700320720674L72.64010416666667,31.461288499832165L74.98333333333333,30.939315605163586L77.32656250000001,30.465419161319744L79.66979166666667,29.973281729221355L82.01302083333334,29.569775032997143L84.35625,29.199669706821453L86.69947916666668,28.8376034975052L89.04270833333332,28.49260722398759L91.3859375,28.152284610271465L93.72916666666666,27.860312747955334L96.07239583333333,27.545468437671673L98.41562499999999,27.29455726146699L100.75885416666667,27.065379130840313L103.10208333333333,26.860539901256573L105.4453125,26.69379680156709L107.78854166666667,26.53631662130357L110.13177083333333,26.37903689146043L112.47500000000001,26.238932597637188L114.81822916666667,26.131280171871197L117.16145833333334,26.000533747673046L119.5046875,25.863394010066997L121.84791666666668,25.722530114650738L124.19114583333332,25.58607612848283L126.534375,25.47261064052583L128.87760416666666,25.354608643054974L131.22083333333333,25.233705389499676L133.5640625,25.11139898300172L135.90729166666668,25.014075028896343L138.25052083333333,24.899987089633953L140.59375,24.80462543964387L142.93697916666665,24.717830407619488L145.28020833333335,24.631415176391613L147.6234375,24.554653215408337L149.96666666666667,24.483577716350567L152.30989583333331,24.401656794548046L154.65312500000002,24.327606189250957L156.99635416666666,24.25993834733964L159.33958333333334,24.19938122034074L161.68281249999998,24.13148127794267L164.02604166666669,24.075587260723125L166.36927083333333,24.024567353725445L168.7125,23.96277587413789L171.05572916666665,23.91026841402055L173.39895833333335,23.863257515430462L175.7421875,23.825266885757458L178.08541666666665,23.785166251659405L180.42864583333335,23.740286457538616L182.771875,23.703509080410015L185.11510416666667,23.665581750869762L187.45833333333331,23.634891736507427L189.80156250000002,23.591615545749676L192.14479166666666,23.554679918289196L194.48802083333334,23.51875709295274L196.83124999999998,23.485049772262585L199.17447916666669,23.45142685174943L201.51770833333333,23.412201869487774L203.8609375,23.379190850257885L206.20416666666665,23.345842230319988L208.54739583333335,23.31451921463014L210.890625,23.27780513763429L213.23385416666665,23.24694632291795L215.57708333333335,23.21309130191804L217.9203125,23.177453327178966L220.26354166666667,23.13899849653245L222.60677083333331,23.111948239803326L224.95000000000002,23.086955237388622L227.29322916666666,23.062901186943066L229.63645833333334,23.031335520744335L231.97968749999998,23.001521158218395L234.32291666666669,22.97238199710847L236.66614583333333,22.95131360292436L239.009375,22.92735450267793L241.35260416666665,22.901601898670208L243.69583333333335,22.881303656101238L246.0390625,22.860140311718L248.38229166666665,22.843260276317608L250.72552083333335,22.816895771026623L253.06875,22.795152175426495L255.41197916666667,22.77912669181825L257.7552083333333,22.756971645355236" style="fill: none;" fill="none"></path></g><g><path stroke="rgb(0, 119, 187)" stroke-width="2px" d="M25.77552083333333,135.6897388726473L28.118750000000002,131.51869531273843L30.46197916666667,126.24973996281625L32.80520833333333,122.64560975432397L35.1484375,119.31954911649228L37.49166666666667,117.08678199648858L39.834895833333334,114.6740130364895L42.178125,112.16413112282753L44.52135416666666,110.22909881472587L46.86458333333333,108.26243226528167L49.207812499999996,106.57219212055206L51.55104166666666,105.18417318463325L53.89427083333334,103.64977796673774L56.237500000000004,102.27302117943763L58.58072916666667,100.89718224406242L60.92395833333334,99.58173691034317L63.2671875,98.54599376320839L65.61041666666667,97.39959670901298L67.95364583333334,96.43543018698692L70.296875,95.26447795629501L72.64010416666667,94.14640771150589L74.98333333333333,93.17895485758781L77.32656250000001,92.22469480633735L79.66979166666667,91.36021544337272L82.01302083333334,90.61168609857559" style="fill: none;" fill="none"></path></g><g><path stroke="rgb(187, 187, 187)" stroke-width="2px" d="M25.77552083333333,134.18139165937902L28.118750000000002,126.76278226375581L30.46197916666667,123.1612183481455L32.80520833333333,118.79778194725515L35.1484375,115.26240095794202L37.49166666666667,113.0645227611065L39.834895833333334,110.75582449436187L42.178125,108.51254163980484L44.52135416666666,106.67200060486793L46.86458333333333,104.75321533083915L49.207812499999996,102.80551772117614L51.55104166666666,101.17217384576797L53.89427083333334,99.73328270316124L56.237500000000004,98.34823359847069L58.58072916666667,97.348972427845L60.92395833333334,96.39574100375175L63.2671875,95.48765312433243L65.61041666666667,94.27857838869095L67.95364583333334,93.34259097576141L70.296875,92.07847677469253L72.64010416666667,90.9376870572567L74.98333333333333,89.86702861189842L77.32656250000001,88.92024852633476L79.66979166666667,88.05108495354652L82.01302083333334,87.23052533268928" style="fill: none;" fill="none"></path></g><g><path stroke="rgb(238, 51, 119)" stroke-width="2px" d="M25.77552083333333,56.64000295400619L28.118750000000002,47.68226401805879L30.46197916666667,44.27565132379533L32.80520833333333,41.24869172573091L35.1484375,39.321709084510815L37.49166666666667,38.03191612958909L39.834895833333334,37.27333788871766L42.178125,35.70012913942338L44.52135416666666,34.85616956949235L46.86458333333333,34.113289761543285L49.207812499999996,33.40752493143083L51.55104166666666,32.755259263515484L53.89427083333334,32.29095278978349L56.237500000000004,31.868793654441845L58.58072916666667,31.5254959344864L60.92395833333334,31.211643326282513L63.2671875,30.96730481386186L65.61041666666667,30.733009922504436L67.95364583333334,30.516903269290935L70.296875,30.042289423942577L72.64010416666667,29.55130194425584L74.98333333333333,29.12733875513078L77.32656250000001,28.724190759658825L79.66979166666667,28.380281138420116L82.01302083333334,28.04049657583238L84.35625,27.7422369003296L86.69947916666668,27.454664397239696L89.04270833333332,27.201928067207348L91.3859375,26.991043674945843L93.72916666666666,26.79113130569459L96.07239583333333,26.596177446842205L98.41562499999999,26.42975084781648L100.75885416666667,26.268757510185253L103.10208333333333,26.090071785449993L105.4453125,25.93654786348344L107.78854166666667,25.81121360063554L110.13177083333333,25.702643322944652L112.47500000000001,25.58277397155763L114.81822916666667,25.466692078113567L117.16145833333334,25.369484174251568L119.5046875,25.281528639793407L121.84791666666668,25.19410060644151L124.19114583333332,25.106440472602856L126.534375,25.027663457393658L128.87760416666666,24.953750002384197L131.22083333333333,24.864317464828503L133.5640625,24.780655789375317L135.90729166666668,24.713947999477398L138.25052083333333,24.656239378452312L140.59375,24.58791743516923L142.93697916666665,24.5270965576172L145.28020833333335,24.460336017608654L147.6234375,24.397827136516582L149.96666666666667,24.346195328235638L152.30989583333331,24.28860275745393L154.65312500000002,24.236907649040234L156.99635416666666,24.184864389896404L159.33958333333334,24.137283790111553L161.68281249999998,24.09913491010667L164.02604166666669,24.055584418773662L166.36927083333333,24.013964581489574L168.7125,23.971215891838085L171.05572916666665,23.935187566280376L173.39895833333335,23.897882688045513L175.7421875,23.854627597332012L178.08541666666665,23.81780802011491L180.42864583333335,23.777496385574352L182.771875,23.74606786966325L185.11510416666667,23.714206802845013L187.45833333333331,23.671827363967907L189.80156250000002,23.634543585777294L192.14479166666666,23.598715710639965L194.48802083333334,23.56472353935243L196.83124999999998,23.537884283065807L199.17447916666669,23.506012666225445L201.51770833333333,23.476198303699505L203.8609375,23.438756275177013L206.20416666666665,23.407802510261547L208.54739583333335,23.37724964618684L210.890625,23.355917501449596L213.23385416666665,23.326377439498913L215.57708333333335,23.300930786132824L217.9203125,23.27165447473527L220.26354166666667,23.250396180152904L222.60677083333331,23.22928558588029L224.95000000000002,23.200420725345623L227.29322916666666,23.173992919921886L229.63645833333334,23.151320922374737L231.97968749999998,23.127773272991192L234.32291666666669,23.109532284736645L236.66614583333333,23.08560483455659L239.009375,23.06353418827058L241.35260416666665,23.041611242294323L243.69583333333335,23.01917134523393L246.0390625,23.00108860731126L248.38229166666665,22.98209856748582L250.72552083333335,22.966051983833324L253.06875,22.953455257415783L255.41197916666667,22.937704074382793L257.7552083333333,22.9250440478325" style="fill: none;" fill="none"></path></g><g><path stroke="rgb(204, 51, 17)" stroke-width="2px" d="M25.77552083333333,44.38852601051332L28.118750000000002,41.49496089220048L30.46197916666667,38.621915566921245L32.80520833333333,36.892956840991985L35.1484375,35.61547576189042L37.49166666666667,34.26104282140733L39.834895833333334,33.17925410270692L42.178125,32.32173775434495L44.52135416666666,31.836056935787212L46.86458333333333,31.155074107646954L49.207812499999996,30.597916889190685L51.55104166666666,30.107952761650097L53.89427083333334,29.750212061405193L56.237500000000004,29.485343205928814L58.58072916666667,29.19628314971925L60.92395833333334,28.966429817676556L63.2671875,28.734656381607067L65.61041666666667,28.595332789421093L67.95364583333334,28.485253858566296L70.296875,28.056806910038006L72.64010416666667,27.694086599349987L74.98333333333333,27.378334987163555L77.32656250000001,27.076646554470074L79.66979166666667,26.810374546051037L82.01302083333334,26.591250586509716L84.35625,26.37595628499986L86.69947916666668,26.17091660499574L89.04270833333332,25.979423153400433L91.3859375,25.80537943840028L93.72916666666666,25.637813436985027L96.07239583333333,25.48303406238557L98.41562499999999,25.33504890203477L100.75885416666667,25.21095954179765L103.10208333333333,25.110460031032574L105.4453125,25.006035912036907L107.78854166666667,24.911676514148724L110.13177083333333,24.827424037456524L112.47500000000001,24.750029075145733L114.81822916666667,24.680546629428875L117.16145833333334,24.59453229904176L119.5046875,24.518719840049755L121.84791666666668,24.43698881864549L124.19114583333332,24.36336021423341L126.534375,24.293075966835033L128.87760416666666,24.224543023109447L131.22083333333333,24.17036865949632L133.5640625,24.1047475218773L135.90729166666668,24.04121528863908L138.25052083333333,23.99409888982774L140.59375,23.942709732055675L142.93697916666665,23.906016755104076L145.28020833333335,23.857708203792583L147.6234375,23.812385308742535L149.96666666666667,23.77215807437898L152.30989583333331,23.737870502471935L154.65312500000002,23.695459413528454L156.99635416666666,23.65400837659837L159.33958333333334,23.618750202655804L161.68281249999998,23.58730058670045L164.02604166666669,23.555882620811474L166.36927083333333,23.524981606006634L168.7125,23.491105484962475L171.05572916666665,23.468560087680828L173.39895833333335,23.436150419712078L175.7421875,23.410408365726482L178.08541666666665,23.387324917316448L180.42864583333335,23.36169891357423L182.771875,23.33729671239854L185.11510416666667,23.310468006134045L187.45833333333331,23.285285103321087L189.80156250000002,23.26298235654832L192.14479166666666,23.238305854797375L194.48802083333334,23.213038551807415L196.83124999999998,23.19594751596452L199.17447916666669,23.17356036901475L201.51770833333333,23.154601979255688L203.8609375,23.14133005142213L206.20416666666665,23.11497609615327L208.54739583333335,23.093580651283276L210.890625,23.076563465595257L213.23385416666665,23.0611182332039L215.57708333333335,23.044164347648632L217.9203125,23.02353905439378L220.26354166666667,23.009264874458324L222.60677083333331,22.99496959447862L224.95000000000002,22.98243616819383L227.29322916666666,22.971611845493328L229.63645833333334,22.963825929164898L231.97968749999998,22.948612797260296L234.32291666666669,22.928599405288708L236.66614583333333,22.9174796819687L239.009375,22.902256000041973L241.35260416666665,22.8850489139557L243.69583333333335,22.8721356868744L246.0390625,22.85494970083238L248.38229166666665,22.845180380344402L250.72552083333335,22.832446503639233L253.06875,22.82153778076173L255.41197916666667,22.80960570573808L257.7552083333333,22.795753526687633" style="fill: none;" fill="none"></path></g><g><path stroke="rgb(255, 112, 67)" stroke-width="2px" d="M25.77552083333333,66.02869974374771L28.118750000000002,61.519040036201474L30.46197916666667,57.10173522233963L32.80520833333333,53.42321680784225L35.1484375,51.09297012090683L37.49166666666667,48.78017317056657L39.834895833333334,47.04462068080903L42.178125,45.52363454103471L44.52135416666666,44.23119353055955L46.86458333333333,43.151061165332806L49.207812499999996,41.98747812509538L51.55104166666666,40.956255662441265L53.89427083333334,40.235235500335705L56.237500000000004,39.4303215622902L58.58072916666667,38.75325279235841L60.92395833333334,38.19352136850358L63.2671875,37.576513874530804L65.61041666666667,37.116986560821545L67.95364583333334,36.66209070682527L70.296875,35.97563241720201L72.64010416666667,35.32231174707414L74.98333333333333,34.71858673095704L77.32656250000001,34.145942080020916L79.66979166666667,33.60049538612367L82.01302083333334,33.11469851732255L84.35625,32.69231783151628L86.69947916666668,32.317180144786846L89.04270833333332,31.94795047044755L91.3859375,31.594630229473125L93.72916666666666,31.262821483612072L96.07239583333333,30.94744967222215L98.41562499999999,30.68159966468812L100.75885416666667,30.45706354379655L103.10208333333333,30.21766244173051L105.4453125,29.99017231464387L107.78854166666667,29.80782573223115L110.13177083333333,29.621185290813457L112.47500000000001,29.439513909816753L114.81822916666667,29.28057782649995L117.16145833333334,29.125735151767742L119.5046875,28.98070399761201L121.84791666666668,28.833773839473736L124.19114583333332,28.701560962200176L126.534375,28.571858990192425L128.87760416666666,28.452707040309917L131.22083333333333,28.330041933059704L133.5640625,28.23027037382127L135.90729166666668,28.1288952112198L138.25052083333333,28.032900559902203L140.59375,27.92844479084016L142.93697916666665,27.835931646823894L145.28020833333335,27.749927866458904L147.6234375,27.674147057533276L149.96666666666667,27.5909073829651L152.30989583333331,27.516297626495373L154.65312500000002,27.44654088020326L156.99635416666666,27.386796104908L159.33958333333334,27.313199150562298L161.68281249999998,27.245742309093487L164.02604166666669,27.178992319107067L166.36927083333333,27.11695818901063L168.7125,27.05790971517564L171.05572916666665,26.997320938110363L173.39895833333335,26.937671113014233L175.7421875,26.876058983802807L178.08541666666665,26.820977318286907L180.42864583333335,26.775812673568737L182.771875,26.72156445980073L185.11510416666667,26.67068170309068L187.45833333333331,26.61288868188859L189.80156250000002,26.568430888652813L192.14479166666666,26.52990220785142L194.48802083333334,26.487797069549572L196.83124999999998,26.43935136795045L199.17447916666669,26.39259366989137L201.51770833333333,26.360036301612865L203.8609375,26.32872383594514L206.20416666666665,26.289931404590618L208.54739583333335,26.24392275810243L210.890625,26.216397750377666L213.23385416666665,26.180042374134075L215.57708333333335,26.15283386707307L217.9203125,26.11960129737855L220.26354166666667,26.085324275493633L222.60677083333331,26.051142203807842L224.95000000000002,26.01416437625886L227.29322916666666,25.976627397537243L229.63645833333334,25.951138544082653L231.97968749999998,25.9196467280388L234.32291666666669,25.891931819915783L236.66614583333333,25.866527366638195L239.009375,25.841333913803112L241.35260416666665,25.807077991962444L243.69583333333335,25.781747388839733L246.0390625,25.755319583415996L248.38229166666665,25.731371033191692L250.72552083333335,25.707601833343517L253.06875,25.682429480552685L255.41197916666667,25.6593249320984L257.7552083333333,25.64007114171983" style="fill: none;" fill="none"></path></g><g><path stroke="rgb(0, 153, 136)" stroke-width="2px" d="M25.77552083333333,32.383307683467876L28.118750000000002,29.520516979694378L30.46197916666667,27.673566806316387L32.80520833333333,26.526916551589977L35.1484375,25.51262687444688L37.49166666666667,24.74408941268922L39.834895833333334,24.199528920650494L42.178125,23.875759291648876L44.52135416666666,23.53159646987916L46.86458333333333,23.234708297252666L49.207812499999996,23.05337451696397L51.55104166666666,22.8689179301262L53.89427083333334,22.767289566993725L56.237500000000004,22.587833690643322L58.58072916666667,22.518509495258343L60.92395833333334,22.440523731708538L63.2671875,22.462246227264416L65.61041666666667,22.433676767349255L67.95364583333334,22.38544206619264L70.296875,22.20657699108125L72.64010416666667,22.053538370132458L74.98333333333333,21.914415228366863L77.32656250000001,21.76865612268449L79.66979166666667,21.638890850543987L82.01302083333334,21.521964955329906L84.35625,21.411675024032604L86.69947916666668,21.29129927158357L89.04270833333332,21.191622662544262L91.3859375,21.108382987976086L93.72916666666666,21.03683273792268L96.07239583333333,20.972889053821575L98.41562499999999,20.922554898262035L100.75885416666667,20.87154554128648L103.10208333333333,20.808139908313763L105.4453125,20.744839775562298L107.78854166666667,20.68933610916139L110.13177083333333,20.637662100791943L112.47500000000001,20.615433204174053L114.81822916666667,20.59671746492387L117.16145833333334,20.569709408283245L119.5046875,20.551521170139324L121.84791666666668,20.50634597539903L124.19114583333332,20.47186850309373L126.534375,20.440355587005627L128.87760416666666,20.416396486759197L131.22083333333333,20.39280663728715L133.5640625,20.366294431686413L135.90729166666668,20.340889978408825L138.25052083333333,20.32971750497819L140.59375,20.308522510528576L142.93697916666665,20.295398283004772L145.28020833333335,20.279225099086773L147.6234375,20.275870192050945L149.96666666666667,20.256099450588238L152.30989583333331,20.2392827153206L154.65312500000002,20.226918089389812L156.99635416666666,20.217148768901836L159.33958333333334,20.20454149246217L161.68281249999998,20.187650907039654L164.02604166666669,20.17235337495805L166.36927083333333,20.156053590774548L168.7125,20.14473341703416L171.05572916666665,20.136715400218975L173.39895833333335,20.121723818779003L175.7421875,20.110519695281994L178.08541666666665,20.09357635974885L180.42864583333335,20.08772109746934L182.771875,20.07297216653825L185.11510416666667,20.06223224401475L187.45833333333331,20.053992676734936L189.80156250000002,20.04814796447755L192.14479166666666,20.0394758462906L194.48802083333334,20.03357838392259L196.83124999999998,20.0211715579033L199.17447916666669,20.015263545513164L201.51770833333333,20.00465022325517L203.8609375,19.99910091161729L206.20416666666665,19.989352691173565L208.54739583333335,19.978306818008434L210.890625,19.975215661525738L213.23385416666665,19.971449303627026L215.57708333333335,19.967398095130932L217.9203125,19.960108029842388L220.26354166666667,19.953356015682232L222.60677083333331,19.946403551101696L224.95000000000002,19.935674178600323L227.29322916666666,19.922718751430523L229.63645833333334,19.910048174858105L231.97968749999998,19.90320121049882L234.32291666666669,19.896850097179424L236.66614583333333,19.893009889125835L239.009375,19.89058338403703L241.35260416666665,19.887555527687084L243.69583333333335,19.880982863903057L246.0390625,19.875201451778423L248.38229166666665,19.875950503349316L250.72552083333335,19.872553396224987L253.06875,19.868607687950146L255.41197916666667,19.862551975250256L257.7552083333333,19.86032592058183" style="fill: none;" fill="none"></path></g><g><path stroke="rgb(51, 187, 238)" stroke-width="2px" d="M25.77552083333333,124.14626072645189L28.118750000000002,118.0820869088173L30.46197916666667,113.13634731173516L32.80520833333333,110.13247643709182L35.1484375,106.28003563284874L37.49166666666667,103.29617287516594L39.834895833333334,100.28094490170479L42.178125,97.99258707761764L44.52135416666666,95.87414263486862L46.86458333333333,94.31483353972435L49.207812499999996,92.70042695403099L51.55104166666666,91.11652048230171L53.89427083333334,89.48267548084259L56.237500000000004,88.00967611670494L58.58072916666667,86.57916696667671L60.92395833333334,85.43328158855438L63.2671875,84.2791619181633L65.61041666666667,83.24814518094063L67.95364583333334,82.04051052331924L70.296875,80.64889402985573L72.64010416666667,79.36342658400535L74.98333333333333,78.1682356774807L77.32656250000001,77.07965274453163L79.66979166666667,76.05613179802894L82.01302083333334,75.13419173955917" style="fill: none;" fill="none"></path></g><g><path stroke="rgb(255, 112, 67)" stroke-width="2px" d="M25.77552083333333,130.85686868727208L28.118750000000002,124.93121666014196L30.46197916666667,119.45704227983953L32.80520833333333,114.58826245665551L35.1484375,110.9282065808773L37.49166666666667,108.0110410630703L39.834895833333334,106.05928169488907L42.178125,103.78741355538368L44.52135416666666,101.95199983119964L46.86458333333333,100.37593202590942L49.207812499999996,98.78419216275215L51.55104166666666,97.20891560912132L53.89427083333334,95.86414648890495L56.237500000000004,94.45203657746315L58.58072916666667,93.40674566030502L60.92395833333334,92.24201266765594L63.2671875,91.11108722090721L65.61041666666667,90.06991081237793L67.95364583333334,89.05084725022316L70.296875,87.8073899924755L72.64010416666667,86.60173873901367L74.98333333333333,85.55606274604797L77.32656250000001,84.53439860343933L79.66979166666667,83.61454217433929L82.01302083333334,82.77196993231773" style="fill: none;" fill="none"></path></g><g><path stroke="rgb(187, 187, 187)" stroke-width="2px" d="M25.77552083333333,133.56573984324933L28.118750000000002,130.0565229088068L30.46197916666667,127.3579142868519L32.80520833333333,124.94660914242269L35.1484375,122.77335733473302L37.49166666666667,120.52930432856084L39.834895833333334,118.7768955409527L42.178125,116.66223855614663L44.52135416666666,115.18510094583036L46.86458333333333,113.92335786223413L49.207812499999996,112.41529022455215L51.55104166666666,110.98925955891609L53.89427083333334,109.71158330440521L56.237500000000004,108.38776652812957L58.58072916666667,107.30817221403122L60.92395833333334,106.15959658026695L63.2671875,105.10269008874893L65.61041666666667,104.03495399951935L67.95364583333334,103.06827657222748L70.296875,102.05820162892341L72.64010416666667,101.1091427385807L74.98333333333333,100.22957156896591L77.32656250000001,99.41042565107345L79.66979166666667,98.64800192713737L82.01302083333334,97.92809479236602" style="fill: none;" fill="none"></path></g><g><path stroke="rgb(238, 51, 119)" stroke-width="2px" d="M25.77552083333333,97.05756499171257L28.118750000000002,85.62182630896568L30.46197916666667,77.4182609796524L32.80520833333333,73.30878471136093L35.1484375,69.18083535432815L37.49166666666667,65.87478547096252L39.834895833333334,63.614464330673215L42.178125,61.12656866312027L44.52135416666666,59.502783107757566L46.86458333333333,57.85591410398483L49.207812499999996,56.491680192947385L51.55104166666666,55.23426525592804L53.89427083333334,54.14897392988205L56.237500000000004,53.07141577005386L58.58072916666667,52.15804760456085L60.92395833333334,51.17801384925842L63.2671875,50.31145613193512L65.61041666666667,49.512112605571744L67.95364583333334,48.82931517362596L70.296875,47.78692023754121L72.64010416666667,46.815948951244366L74.98333333333333,45.89826582670213L77.32656250000001,45.03629736900331L79.66979166666667,44.24358980655671L82.01302083333334,43.499517846107494L84.35625,42.81269030570985L86.69947916666668,42.18813954591752L89.04270833333332,41.60598932504655L91.3859375,41.07673691511155L93.72916666666666,40.56634794473649L96.07239583333333,40.068038749694836L98.41562499999999,39.66531275510789L100.75885416666667,39.256225097179424L103.10208333333333,38.875717449188244L105.4453125,38.501128363609325L107.78854166666667,38.165300059318554L110.13177083333333,37.83515821695329L112.47500000000001,37.528859424591076L114.81822916666667,37.245380330085766L117.16145833333334,36.95221631526948L119.5046875,36.66659556627275L121.84791666666668,36.387980031967174L124.19114583333332,36.13376669883729L126.534375,35.88622097969056L128.87760416666666,35.64078526496888L131.22083333333333,35.40334646701814L133.5640625,35.18583666086198L135.90729166666668,34.987000393867504L138.25052083333333,34.78623347282411L140.59375,34.595953273773205L142.93697916666665,34.422194409370434L145.28020833333335,34.25276105403901L147.6234375,34.08273689746858L149.96666666666667,33.92015050649644L152.30989583333331,33.76516013145448L154.65312500000002,33.62285088300706L156.99635416666666,33.48391764163972L159.33958333333334,33.35720132589341L161.68281249999998,33.232173013687145L164.02604166666669,33.10258709192277L166.36927083333333,32.98179988861085L168.7125,32.86241583824159L171.05572916666665,32.74829624891282L173.39895833333335,32.62812094688417L175.7421875,32.5192236185074L178.08541666666665,32.41408209800721L180.42864583333335,32.30290596485139L182.771875,32.2049490094185L185.11510416666667,32.11250971555711L187.45833333333331,32.019194769859325L189.80156250000002,31.930236983299267L192.14479166666666,31.841616797447216L194.48802083333334,31.754157114028942L196.83124999999998,31.668237733840954L199.17447916666669,31.591169822216045L201.51770833333333,31.513690459728252L203.8609375,31.432645189762127L206.20416666666665,31.35523967742921L208.54739583333335,31.276684212684643L210.890625,31.20741276741029L213.23385416666665,31.13338326215745L215.57708333333335,31.06865887641908L217.9203125,31.000315833091747L220.26354166666667,30.93761705160142L222.60677083333331,30.873145866394054L224.95000000000002,30.812314438819897L227.29322916666666,30.752886164188396L229.63645833333334,30.69831089973451L231.97968749999998,30.645297038555157L234.32291666666669,30.584233510494244L236.66614583333333,30.533983755111706L239.009375,30.482140946388256L241.35260416666665,30.433410394191753L243.69583333333335,30.376535224914562L246.0390625,30.32540981769563L248.38229166666665,30.28046672344209L250.72552083333335,30.23106096982957L253.06875,30.185178923606884L255.41197916666667,30.136174070835125L257.7552083333333,30.086610066890728" style="fill: none;" fill="none"></path></g><g><path stroke="rgb(204, 51, 17)" stroke-width="2px" d="M25.77552083333333,122.17617333233358L28.118750000000002,119.40574015975L30.46197916666667,112.87982352375984L32.80520833333333,108.23165257573127L35.1484375,105.15954943299293L37.49166666666667,102.1110414147377L39.834895833333334,99.50258536934852L42.178125,97.63089011907577L44.52135416666666,95.70313205122947L46.86458333333333,93.89003689885139L49.207812499999996,92.1603343963623L51.55104166666666,90.68043531775474L53.89427083333334,89.08723955154419L56.237500000000004,87.46878175735473L58.58072916666667,86.30417536497116L60.92395833333334,85.03310869932174L63.2671875,84.03833128809929L65.61041666666667,83.04463525414467L67.95364583333334,81.91252292990684L70.296875,80.58732937574386L72.64010416666667,79.31945409178734L74.98333333333333,78.14025174379348L77.32656250000001,77.03949936032295L79.66979166666667,76.03047941923141L82.01302083333334,75.0923292517662" style="fill: none;" fill="none"></path></g><g><path stroke="rgb(255, 112, 67)" stroke-width="2px" d="M25.77552083333333,127.77860960662366L28.118750000000002,119.25182588696481L30.46197916666667,113.80330388545991L32.80520833333333,110.34025912284851L35.1484375,107.2342956840992L37.49166666666667,103.99904172420501L39.834895833333334,101.25719119906425L42.178125,99.212348985672L44.52135416666666,97.09518637061119L46.86458333333333,95.75546016097069L49.207812499999996,94.04646735191345L51.55104166666666,92.63000028133392L53.89427083333334,91.30121971964836L56.237500000000004,89.80825971364975L58.58072916666667,88.42817439436912L60.92395833333334,87.14941148757934L63.2671875,86.0156639099121L65.61041666666667,84.9189574599266L67.95364583333334,83.88909067511558L70.296875,82.36348890066147L72.64010416666667,80.96558986902237L74.98333333333333,79.65139998793602L77.32656250000001,78.42070298194885L79.66979166666667,77.24895422458648L82.01302083333334,76.12046583294868" style="fill: none;" fill="none"></path></g><g><path stroke="rgb(0, 153, 136)" stroke-width="2px" d="M25.77552083333333,119.80591304898263L28.118750000000002,113.80330388545991L30.46197916666667,109.75025968551635L32.80520833333333,106.63865198493004L35.1484375,104.35304244160652L37.49166666666667,101.82373793721199L39.834895833333334,99.11999936699867L42.178125,96.87671651244163L44.52135416666666,94.54707117676735L46.86458333333333,92.76338948607444L49.207812499999996,90.80310042500496L51.55104166666666,89.1746517598629L53.89427083333334,87.5859925031662L56.237500000000004,86.10994945764541L58.58072916666667,84.76299120783806L60.92395833333334,83.39008517861366L63.2671875,82.47385268211364L65.61041666666667,81.23872466683387L67.95364583333334,80.22272061109543L70.296875,78.98201690912246L72.64010416666667,77.85361291766166L74.98333333333333,76.76063062548637L77.32656250000001,75.81354986429214L79.66979166666667,74.86843668222427L82.01302083333334,73.99523245096206L84.35625,73.21406661272049L86.69947916666668,72.48050247430801L89.04270833333332,71.78174285888672L91.3859375,71.13330157399177L93.72916666666666,70.51474850177765L96.07239583333333,69.84077088832855L98.41562499999999,69.21566097736358L100.75885416666667,68.64428232908249L103.10208333333333,68.10561929941177L105.4453125,67.63290445804596L107.78854166666667,67.16679393053055L110.13177083333333,66.71839689016342L112.47500000000001,66.31627224683761L114.81822916666667,65.93082718849182L117.16145833333334,65.49615572690963L119.5046875,65.10296695232391L121.84791666666668,64.71677284240722L124.19114583333332,64.35783998966217L126.534375,63.99424402713775L128.87760416666666,63.67006294727325L131.22083333333333,63.367340612411496L133.5640625,63.02771430015564L135.90729166666668,62.73046742677688L138.25052083333333,62.41644601821899L140.59375,62.13900153636932L142.93697916666665,61.8561448931694L145.28020833333335,61.60310261249542L147.6234375,61.347412276268L149.96666666666667,61.10233526229858L152.30989583333331,60.89695798158645L154.65312500000002,60.65273551940918L156.99635416666666,60.4246440410614L159.33958333333334,60.19751261472702L161.68281249999998,59.98434941768646L164.02604166666669,59.76699786186218L166.36927083333333,59.55122880935669L168.7125,59.37022207975387L171.05572916666665,59.183233487606046L173.39895833333335,59.02421300411224L175.7421875,58.85918955802917L178.08541666666665,58.69124375581741L180.42864583333335,58.53059856891632L182.771875,58.38691781759262L185.11510416666667,58.25006293058395L187.45833333333331,58.095578956604L189.80156250000002,57.97665910720825L192.14479166666666,57.85249589681625L194.48802083333334,57.73847125768661L196.83124999999998,57.59925316572189L199.17447916666669,57.4830341219902L201.51770833333333,57.36582337617874L203.8609375,57.25085978507995L206.20416666666665,57.13883965015411L208.54739583333335,57.04250739812851L210.890625,56.94629119634628L213.23385416666665,56.83419721126556L215.57708333333335,56.72408663034439L217.9203125,56.63702784776687L220.26354166666667,56.52419536113739L222.60677083333331,56.41473888158798L224.95000000000002,56.31284676790237L227.29322916666666,56.20408658981323L229.63645833333334,56.1173970580101L231.97968749999998,56.031266677379605L234.32291666666669,55.945684897899625L236.66614583333333,55.86299382448196L239.009375,55.79414438009262L241.35260416666665,55.701958286762235L243.69583333333335,55.632359790802L246.0390625,55.55255942344665L248.38229166666665,55.469298648834226L250.72552083333335,55.3925155878067L253.06875,55.319804835319516L255.41197916666667,55.23083649873733L257.7552083333333,55.15566759109497" style="fill: none;" fill="none"></path></g></g></g></g></g></g><g transform="translate(48, 177)" clip-path="url(#clip_1)"><clipPath id="clip_1"><rect width="281" height="23"></rect></clipPath><g><g><line x1="0" y1="0" x2="0" y2="5" style="visibility: inherit;" fill="rgb(0, 0, 0)" stroke="rgb(204, 204, 204)" stroke-width="1px"></line><line x1="23.432291666666664" y1="0" x2="23.432291666666664" y2="5" style="visibility: inherit;" fill="rgb(0, 0, 0)" stroke="rgb(204, 204, 204)" stroke-width="1px"></line><line x1="46.86458333333333" y1="0" x2="46.86458333333333" y2="5" style="visibility: inherit;" fill="rgb(0, 0, 0)" stroke="rgb(204, 204, 204)" stroke-width="1px"></line><line x1="70.296875" y1="0" x2="70.296875" y2="5" style="visibility: inherit;" fill="rgb(0, 0, 0)" stroke="rgb(204, 204, 204)" stroke-width="1px"></line><line x1="93.72916666666666" y1="0" x2="93.72916666666666" y2="5" style="visibility: inherit;" fill="rgb(0, 0, 0)" stroke="rgb(204, 204, 204)" stroke-width="1px"></line><line x1="117.16145833333334" y1="0" x2="117.16145833333334" y2="5" style="visibility: inherit;" fill="rgb(0, 0, 0)" stroke="rgb(204, 204, 204)" stroke-width="1px"></line><line x1="140.59375" y1="0" x2="140.59375" y2="5" style="visibility: inherit;" fill="rgb(0, 0, 0)" stroke="rgb(204, 204, 204)" stroke-width="1px"></line><line x1="164.02604166666669" y1="0" x2="164.02604166666669" y2="5" style="visibility: inherit;" fill="rgb(0, 0, 0)" stroke="rgb(204, 204, 204)" stroke-width="1px"></line><line x1="187.45833333333331" y1="0" x2="187.45833333333331" y2="5" style="visibility: inherit;" fill="rgb(0, 0, 0)" stroke="rgb(204, 204, 204)" stroke-width="1px"></line><line x1="210.890625" y1="0" x2="210.890625" y2="5" style="visibility: inherit;" fill="rgb(0, 0, 0)" stroke="rgb(204, 204, 204)" stroke-width="1px"></line><line x1="234.32291666666669" y1="0" x2="234.32291666666669" y2="5" style="visibility: inherit;" fill="rgb(0, 0, 0)" stroke="rgb(204, 204, 204)" stroke-width="1px"></line><line x1="257.7552083333333" y1="0" x2="257.7552083333333" y2="5" style="visibility: inherit;" fill="rgb(0, 0, 0)" stroke="rgb(204, 204, 204)" stroke-width="1px"></line><line x1="281.1875" y1="0" x2="281.1875" y2="5" style="visibility: inherit;" fill="rgb(0, 0, 0)" stroke="rgb(204, 204, 204)" stroke-width="1px"></line></g><g transform="translate(0, 8)"><text x="0" y="0" dx="0em" dy="0.95em" style="text-anchor: middle; visibility: hidden; font-family: &quot;Helvetica Neue&quot;, sans-serif; font-size: 12px; font-weight: 200;" fill="rgb(50, 49, 63)" stroke="none" stroke-width="1px">-10</text><text x="23.432291666666664" y="0" dx="0em" dy="0.95em" style="text-anchor: middle; visibility: inherit; font-family: &quot;Helvetica Neue&quot;, sans-serif; font-size: 12px; font-weight: 200;" fill="rgb(50, 49, 63)" stroke="none" stroke-width="1px">0</text><text x="46.86458333333333" y="0" dx="0em" dy="0.95em" style="text-anchor: middle; visibility: inherit; font-family: &quot;Helvetica Neue&quot;, sans-serif; font-size: 12px; font-weight: 200;" fill="rgb(50, 49, 63)" stroke="none" stroke-width="1px">10</text><text x="70.296875" y="0" dx="0em" dy="0.95em" style="text-anchor: middle; visibility: inherit; font-family: &quot;Helvetica Neue&quot;, sans-serif; font-size: 12px; font-weight: 200;" fill="rgb(50, 49, 63)" stroke="none" stroke-width="1px">20</text><text x="93.72916666666666" y="0" dx="0em" dy="0.95em" style="text-anchor: middle; visibility: inherit; font-family: &quot;Helvetica Neue&quot;, sans-serif; font-size: 12px; font-weight: 200;" fill="rgb(50, 49, 63)" stroke="none" stroke-width="1px">30</text><text x="117.16145833333334" y="0" dx="0em" dy="0.95em" style="text-anchor: middle; visibility: inherit; font-family: &quot;Helvetica Neue&quot;, sans-serif; font-size: 12px; font-weight: 200;" fill="rgb(50, 49, 63)" stroke="none" stroke-width="1px">40</text><text x="140.59375" y="0" dx="0em" dy="0.95em" style="text-anchor: middle; visibility: inherit; font-family: &quot;Helvetica Neue&quot;, sans-serif; font-size: 12px; font-weight: 200;" fill="rgb(50, 49, 63)" stroke="none" stroke-width="1px">50</text><text x="164.02604166666669" y="0" dx="0em" dy="0.95em" style="text-anchor: middle; visibility: inherit; font-family: &quot;Helvetica Neue&quot;, sans-serif; font-size: 12px; font-weight: 200;" fill="rgb(50, 49, 63)" stroke="none" stroke-width="1px">60</text><text x="187.45833333333331" y="0" dx="0em" dy="0.95em" style="text-anchor: middle; visibility: inherit; font-family: &quot;Helvetica Neue&quot;, sans-serif; font-size: 12px; font-weight: 200;" fill="rgb(50, 49, 63)" stroke="none" stroke-width="1px">70</text><text x="210.890625" y="0" dx="0em" dy="0.95em" style="text-anchor: middle; visibility: inherit; font-family: &quot;Helvetica Neue&quot;, sans-serif; font-size: 12px; font-weight: 200;" fill="rgb(50, 49, 63)" stroke="none" stroke-width="1px">80</text><text x="234.32291666666669" y="0" dx="0em" dy="0.95em" style="text-anchor: middle; visibility: inherit; font-family: &quot;Helvetica Neue&quot;, sans-serif; font-size: 12px; font-weight: 200;" fill="rgb(50, 49, 63)" stroke="none" stroke-width="1px">90</text><text x="257.7552083333333" y="0" dx="0em" dy="0.95em" style="text-anchor: middle; visibility: inherit; font-family: &quot;Helvetica Neue&quot;, sans-serif; font-size: 12px; font-weight: 200;" fill="rgb(50, 49, 63)" stroke="none" stroke-width="1px">100</text><text x="281.1875" y="0" dx="0em" dy="0.95em" style="text-anchor: middle; visibility: hidden; font-family: &quot;Helvetica Neue&quot;, sans-serif; font-size: 12px; font-weight: 200;" fill="rgb(50, 49, 63)" stroke="none" stroke-width="1px">110</text></g><line x1="0" y1="0" x2="281.1875" y2="0" fill="rgb(0, 0, 0)" stroke="rgb(204, 204, 204)" stroke-width="1px"></line></g></g></g></g></svg>