<svg viewBox="0 0 330 200" xmlns="http://www.w3.org/2000/svg"><g><g><g><g><g><line x1="48.8125" y1="177" x2="43.8125" y2="177" style="visibility: inherit;" fill="rgb(0, 0, 0)" stroke="rgb(204, 204, 204)" stroke-width="1px"></line><line x1="48.8125" y1="157.33333333333337" x2="43.8125" y2="157.33333333333337" style="visibility: inherit;" fill="rgb(0, 0, 0)" stroke="rgb(204, 204, 204)" stroke-width="1px"></line><line x1="48.8125" y1="137.66666666666669" x2="43.8125" y2="137.66666666666669" style="visibility: inherit;" fill="rgb(0, 0, 0)" stroke="rgb(204, 204, 204)" stroke-width="1px"></line><line x1="48.8125" y1="118.00000000000003" x2="43.8125" y2="118.00000000000003" style="visibility: inherit;" fill="rgb(0, 0, 0)" stroke="rgb(204, 204, 204)" stroke-width="1px"></line><line x1="48.8125" y1="98.33333333333334" x2="43.8125" y2="98.33333333333334" style="visibility: inherit;" fill="rgb(0, 0, 0)" stroke="rgb(204, 204, 204)" stroke-width="1px"></line><line x1="48.8125" y1="78.66666666666666" x2="43.8125" y2="78.66666666666666" style="visibility: inherit;" fill="rgb(0, 0, 0)" stroke="rgb(204, 204, 204)" stroke-width="1px"></line><line x1="48.8125" y1="59" x2="43.8125" y2="59" style="visibility: inherit;" fill="rgb(0, 0, 0)" stroke="rgb(204, 204, 204)" stroke-width="1px"></line><line x1="48.8125" y1="39.33333333333334" x2="43.8125" y2="39.33333333333334" style="visibility: inherit;" fill="rgb(0, 0, 0)" stroke="rgb(204, 204, 204)" stroke-width="1px"></line><line x1="48.8125" y1="19.666666666666686" x2="43.8125" y2="19.666666666666686" style="visibility: inherit;" fill="rgb(0, 0, 0)" stroke="rgb(204, 204, 204)" stroke-width="1px"></line><line x1="48.8125" y1="0" x2="43.8125" y2="0" style="visibility: inherit;" fill="rgb(0, 0, 0)" stroke="rgb(204, 204, 204)" stroke-width="1px"></line></g><g transform="translate(38.8125, 0)"><text x="0" y="177" dx="0em" dy="0.3em" style="text-anchor: end; visibility: hidden; font-family: &quot;Helvetica Neue&quot;, sans-serif; font-size: 12px; font-weight: 200;" fill="rgb(50, 49, 63)" stroke="none" stroke-width="1px">0.55</text><text x="0" y="157.33333333333337" dx="0em" dy="0.3em" style="text-anchor: end; visibility: inherit; font-family: &quot;Helvetica Neue&quot;, sans-serif; font-size: 12px; font-weight: 200;" fill="rgb(50, 49, 63)" stroke="none" stroke-width="1px">0.6</text><text x="0" y="137.66666666666669" dx="0em" dy="0.3em" style="text-anchor: end; visibility: hidden; font-family: &quot;Helvetica Neue&quot;, sans-serif; font-size: 12px; font-weight: 200;" fill="rgb(50, 49, 63)" stroke="none" stroke-width="1px">0.65</text><text x="0" y="118.00000000000003" dx="0em" dy="0.3em" style="text-anchor: end; visibility: inherit; font-family: &quot;Helvetica Neue&quot;, sans-serif; font-size: 12px; font-weight: 200;" fill="rgb(50, 49, 63)" stroke="none" stroke-width="1px">0.7</text><text x="0" y="98.33333333333334" dx="0em" dy="0.3em" style="text-anchor: end; visibility: hidden; font-family: &quot;Helvetica Neue&quot;, sans-serif; font-size: 12px; font-weight: 200;" fill="rgb(50, 49, 63)" stroke="none" stroke-width="1px">0.75</text><text x="0" y="78.66666666666666" dx="0em" dy="0.3em" style="text-anchor: end; visibility: inherit; font-family: &quot;Helvetica Neue&quot;, sans-serif; font-size: 12px; font-weight: 200;" fill="rgb(50, 49, 63)" stroke="none" stroke-width="1px">0.8</text><text x="0" y="59" dx="0em" dy="0.3em" style="text-anchor: end; visibility: hidden; font-family: &quot;Helvetica Neue&quot;, sans-serif; font-size: 12px; font-weight: 200;" fill="rgb(50, 49, 63)" stroke="none" stroke-width="1px">0.85</text><text x="0" y="39.33333333333334" dx="0em" dy="0.3em" style="text-anchor: end; visibility: inherit; font-family: &quot;Helvetica Neue&quot;, sans-serif; font-size: 12px; font-weight: 200;" fill="rgb(50, 49, 63)" stroke="none" stroke-width="1px">0.9</text><text x="0" y="19.666666666666686" dx="0em" dy="0.3em" style="text-anchor: end; visibility: hidden; font-family: &quot;Helvetica Neue&quot;, sans-serif; font-size: 12px; font-weight: 200;" fill="rgb(50, 49, 63)" stroke="none" stroke-width="1px">0.95</text><text x="0" y="0" dx="0em" dy="0.3em" style="text-anchor: end; visibility: hidden; font-family: &quot;Helvetica Neue&quot;, sans-serif; font-size: 12px; font-weight: 200;" fill="rgb(50, 49, 63)" stroke="none" stroke-width="1px">1</text></g><line x1="48.8125" y1="0" x2="48.8125" y2="177" fill="rgb(0, 0, 0)" stroke="rgb(204, 204, 204)" stroke-width="1px"></line></g></g><g transform="translate(48, 0)" clip-path="url(#clip_0)"><clipPath id="clip_0"><rect width="281" height="177"></rect></clipPath><g><g><g><line x1="0" y1="0" x2="0" y2="177" fill="rgb(0, 0, 0)" stroke="rgb(60, 60, 60)" stroke-width="1px" opacity="0.25"></line><line x1="35.1484375" y1="0" x2="35.1484375" y2="177" fill="rgb(0, 0, 0)" stroke="rgb(60, 60, 60)" stroke-width="1px" opacity="0.25"></line><line x1="70.296875" y1="0" x2="70.296875" y2="177" fill="rgb(0, 0, 0)" stroke="rgb(60, 60, 60)" stroke-width="1px" opacity="0.25"></line><line x1="105.4453125" y1="0" x2="105.4453125" y2="177" fill="rgb(0, 0, 0)" stroke="rgb(60, 60, 60)" stroke-width="1px" opacity="0.25"></line><line x1="140.59375" y1="0" x2="140.59375" y2="177" fill="rgb(0, 0, 0)" stroke="rgb(60, 60, 60)" stroke-width="1px" opacity="0.25"></line><line x1="175.7421875" y1="0" x2="175.7421875" y2="177" fill="rgb(0, 0, 0)" stroke="rgb(60, 60, 60)" stroke-width="1px" opacity="0.25"></line><line x1="210.890625" y1="0" x2="210.890625" y2="177" fill="rgb(0, 0, 0)" stroke="rgb(60, 60, 60)" stroke-width="1px" opacity="0.25"></line><line x1="246.0390625" y1="0" x2="246.0390625" y2="177" fill="rgb(0, 0, 0)" stroke="rgb(60, 60, 60)" stroke-width="1px" opacity="0.25"></line><line x1="281.1875" y1="0" x2="281.1875" y2="177" fill="rgb(0, 0, 0)" stroke="rgb(60, 60, 60)" stroke-width="1px" opacity="0.25"></line></g><g><line x1="0" y1="177" x2="281.1875" y2="177" fill="rgb(0, 0, 0)" stroke="rgb(60, 60, 60)" stroke-width="1px" opacity="0.25"></line><line x1="0" y1="157.33333333333337" x2="281.1875" y2="157.33333333333337" fill="rgb(0, 0, 0)" stroke="rgb(60, 60, 60)" stroke-width="1px" opacity="0.25"></line><line x1="0" y1="137.66666666666669" x2="281.1875" y2="137.66666666666669" fill="rgb(0, 0, 0)" stroke="rgb(60, 60, 60)" stroke-width="1px" opacity="0.25"></line><line x1="0" y1="118.00000000000003" x2="281.1875" y2="118.00000000000003" fill="rgb(0, 0, 0)" stroke="rgb(60, 60, 60)" stroke-width="1px" opacity="0.25"></line><line x1="0" y1="98.33333333333334" x2="281.1875" y2="98.33333333333334" fill="rgb(0, 0, 0)" stroke="rgb(60, 60, 60)" stroke-width="1px" opacity="0.25"></line><line x1="0" y1="78.66666666666666" x2="281.1875" y2="78.66666666666666" fill="rgb(0, 0, 0)" stroke="rgb(60, 60, 60)" stroke-width="1px" opacity="0.25"></line><line x1="0" y1="59" x2="281.1875" y2="59" fill="rgb(0, 0, 0)" stroke="rgb(60, 60, 60)" stroke-width="1px" opacity="0.25"></line><line x1="0" y1="39.33333333333334" x2="281.1875" y2="39.33333333333334" fill="rgb(0, 0, 0)" stroke="rgb(60, 60, 60)" stroke-width="1px" opacity="0.25"></line><line x1="0" y1="19.666666666666686" x2="281.1875" y2="19.666666666666686" fill="rgb(0, 0, 0)" stroke="rgb(60, 60, 60)" stroke-width="1px" opacity="0.25"></line><line x1="0" y1="0" x2="281.1875" y2="0" fill="rgb(0, 0, 0)" stroke="rgb(60, 60, 60)" stroke-width="1px" opacity="0.25"></line></g></g></g><g><g><line x1="0" y1="393.33333333333337" x2="281.1875" y2="393.33333333333337" fill="rgb(0, 0, 0)" stroke="rgb(153, 153, 153)" stroke-width="1.5px"></line></g></g><g><g><line x1="35.1484375" y1="0" x2="35.1484375" y2="177" fill="rgb(0, 0, 0)" stroke="rgb(153, 153, 153)" stroke-width="1.5px"></line></g></g><g><g><g><g><g><path stroke="rgb(238, 51, 119)" stroke-width="2px" d="M35.851406250000004,154.22599077224731L36.554375,133.55634053548178L37.257343750000004,119.52089587847394L37.9603125,114.10599152247113L38.663281250000004,107.48226563135783L39.36625,101.22434417406718L40.06921875,95.22037347157797L40.772187499999994,92.28582620620728L41.47515625,89.02443925539654L42.178125,85.39659142494203L42.88109375,82.61429270108543L43.5840625,79.8794456322988L44.28703125,77.96168605486552L44.99,76.38813853263856L45.69296875,74.43701744079591L46.3959375,72.76174426078796L47.098906250000006,71.23961051305136L47.801875,69.61345354715984L48.50484375,68.48762551943463L49.207812499999996,67.46846993764241" style="fill: none;" fill="none"></path></g><g><path stroke="rgb(204, 51, 17)" stroke-width="2px" d="M35.851406250000004,18.722655375798553L36.554375,25.291333595911652L37.257343750000004,28.201990922292083L37.9603125,32.0861574014028L38.663281250000004,34.99093015988669L39.36625,36.645548741022736L40.06921875,36.86095674832663L40.772187499999994,37.32241471608481L41.47515625,38.41556111971536L42.178125,38.3146091302236L42.88109375,38.43225359916687L43.5840625,38.63188346227011L44.28703125,39.01564637819925L44.99,39.78005409240723L45.69296875,39.85777258872986L46.3959375,40.0536278883616L47.098906250000006,40.62902609507242L47.801875,41.08584205309549L48.50484375,41.6395072142283L49.207812499999996,41.87425692876181L49.91078125,42.26835886637372L50.613749999999996,42.64806588490805L51.31671875,42.510774930318206L52.019687499999996,42.778276602427155L52.72265625,42.74116396903992L53.425625000000004,42.93687860170999L54.12859375,42.80050198237103L54.831562500000004,42.79607097307843L55.53453125,43.03881525993347L56.237500000000004,43.05689096450806L56.94046875,43.462058703104645L57.6434375,43.38098764419556L58.346406249999994,43.2738228638967L59.049375,43.375407854715974L59.75234375,43.42736085255942L60.4553125,43.72337102890015" style="fill: none;" fill="none"></path></g><g><path stroke="rgb(255, 112, 67)" stroke-width="2px" d="M35.851406250000004,63.12999606132507L36.554375,52.451005776723235L37.257343750000004,49.75667079289754L37.9603125,48.261990547180176L38.663281250000004,50.11065920193991L39.36625,48.943779865900694L40.06921875,47.632670005162566L40.772187499999994,47.19015518824261L41.47515625,46.653698285420745L42.178125,45.98459243774414L42.88109375,45.79473892847696L43.5840625,45.679110685984284L44.28703125,45.254507462183625L44.99,45.09848435719809L45.69296875,44.71938689549765L46.3959375,44.94325836499533L47.098906250000006,44.504518111546844L47.801875,44.601812760035216L48.50484375,44.51084812482199L49.207812499999996,44.56270734469095L49.91078125,44.93927280108133L50.613749999999996,44.85609173774719L51.31671875,44.747660954793304L52.019687499999996,44.85475540161133L52.72265625,44.79752739270529L53.425625000000004,44.71141576766968L54.12859375,44.637495279312134L54.831562500000004,44.6812661488851L55.53453125,44.64874863624573L56.237500000000004,44.85574007034302L56.94046875,44.78798548380533L57.6434375,44.751505851745605L58.346406249999994,44.76252476374307L59.049375,44.650272528330476L59.75234375,44.599515199661255L60.4553125,44.590887626012176L61.15828125,44.54341252644858L61.86125,44.575015703837096L62.56421875,44.60197687149048L63.2671875,44.74855184555054L63.97015625,44.68459526697794L64.673125,44.84936316808066L65.37609375000001,44.720160563786834L66.07906249999999,44.62366302808127L66.78203125,44.76132909456891L67.485,44.59288040796915L68.18796875,44.650858640670776L68.89093749999999,44.62366302808127L69.59390625,44.63690916697183L70.296875,44.5583701133728L70.99984375,44.58394805590311L71.70281250000001,44.440608421961485L72.40578125,44.49936032295227L73.10875,44.38255985577902L73.81171875,44.36943093935648L74.51468750000001,44.37503417332968L75.21765625,44.420446157455444L75.920625,44.330700635910034L76.62359375000001,44.36467170715332L77.32656250000001,44.328004519144685L78.02953125,44.31447704633078L78.7325,44.330559968948364L79.43546875,44.265618721644074L80.1384375,44.27581707636517L80.84140624999999,44.24817601839703L81.54437499999999,44.517576694488525L82.24734375,44.40616846084595L82.9503125,44.39346154530844L83.65328124999999,44.451228777567536L84.35625,44.55286065737408L85.05921875,44.62450702985129L85.7621875,44.561394453048706L86.46515624999999,44.496781428655L87.168125,44.64227795600891L87.87109375,44.59876497586569L88.5740625,44.60556387901306L89.27703125000001,44.5529075463613L89.98,44.54348285992941L90.68296875,44.56765413284302L91.3859375,44.55581466356915L92.08890625000001,44.429659843444824L92.791875,44.42220449447632L93.49484375,44.4348176320394L94.19781250000001,44.43824052810669L94.90078125000001,44.37770684560141L95.60375,44.3616004784902L96.30671875,44.37841018040976L97.0096875,44.373815059661865L97.71265625,44.292861223220825L98.41562499999999,44.27098751068115L99.11859374999999,44.376651843388885L99.8215625,44.32652751604715L100.52453125,44.30540402730307L101.22749999999999,44.22867019971213L101.93046875,44.21521306037903L102.6334375,44.23525810241699L103.33640625,44.167691071828216L104.03937499999999,44.237157106399536L104.74234375,44.25080180168152L105.4453125,44.19413646062216L106.14828125,44.2519505818685L106.85125000000001,44.259265263875335L107.55421875,44.258397817611694L108.2571875,44.274574518203735L108.96015625,44.29832379023233L109.66312500000001,44.23256198565167L110.36609375,44.21066482861838L111.0690625,44.23143664995828L111.77203125000001,44.221847852071136L112.47500000000001,44.141292572021484L113.17796875,44.1302267710368L113.8809375,44.13060188293457L114.58390625,44.12678043047586L115.286875,44.08851901690164L115.98984374999999,44.13953423500061L116.69281249999999,44.10012404123941L117.39578125,44.059049288431794L118.09875,44.03232256571454L118.80171874999999,44.07646854718527L119.5046875,44.01530186335245L120.20765625,43.96426320075989L120.910625,43.96531820297241L121.61359374999999,43.93948237101239L122.3165625,43.94262393315634L123.01953125,43.94131104151407L123.7225,43.919413884480804L124.42546875000001,43.90930930773419L125.1284375,43.868656555811555L125.83140625,43.89355460802713L126.534375,43.89599283536276L127.23734375000001,43.84614984194437L127.9403125,43.81316343943277L128.64328125,43.75434120496115L129.34625,43.76507878303528L130.04921875,43.76547733942667L130.75218750000002,43.790727059046446L131.45515625000002,43.772838910420745L132.15812499999998,43.72271458307901L132.86109374999998,43.71800223986307L133.5640625,43.79035194714865L134.26703125,43.82959802945456L134.97,43.81815711657208L135.67296875,43.83163770039877L136.3759375,43.862138986587524L137.07890625,43.829551140467345L137.78187499999999,43.80763053894043L138.48484375,43.78254493077597L139.1878125,43.800315856933594L139.89078125,43.761632442474365L140.59375,43.602842887242645L141.29671875,43.43859076499939L141.9996875,43.267961740493774L142.70265625,43.095972935358674L143.40562500000001,42.9290246963501L144.10859374999998,42.76320179303488L144.8115625,42.5964879989624L145.51453124999998,42.433900435765594L146.2175,42.27063298225403L146.92046875,42.11116353670758L147.6234375,41.953171094258636L148.32640625,41.79545998573303L149.02937500000002,41.643797556559264L149.73234374999998,41.49401068687439L150.4353125,41.34459892908734L151.13828125,41.193686723709106L151.84125,41.04101618131003L152.54421875,40.896785656611115L153.24718750000002,40.749343236287444L153.95015625,40.60736338297528L154.65312500000002,40.458725293477386L155.35609374999999,40.313674211502075L156.0590625,40.17122546831769L156.76203125,40.03313740094504L157.465,39.89823778470358L158.16796875,39.75993871688843L158.8709375,39.626773993174226L159.57390625,39.49133515357971L160.276875,39.362062215805054L160.97984375000001,39.23841595649719L161.68281249999998,39.11547303199768L162.38578125,38.98955265680948L163.08874999999998,38.87019673983258L163.79171875,38.74483903249106L164.4946875,38.62318555514017L165.19765625,38.500523964564024L165.900625,38.38236371676129L166.60359375000002,38.27006459236145L167.30656249999998,38.153334458669036L168.00953125,38.04802179336548L168.7125,37.936379114786774L169.41546875,37.83577879269919L170.1184375,37.72701978683472L170.82140625000002,37.62651324272156L171.524375,37.52663969993591L172.22734375000002,37.436659733454405L172.93031249999999,37.34578887621561L173.63328125,37.244274218877166L174.33625,37.15073068936667L175.03921875,37.06110239028931L175.7421875,36.967230637868255L176.44515625,36.875492334365845L177.148125,36.79088115692139L177.85109375,36.70399586359659L178.55406250000001,36.624542474746704L179.25703124999998,36.53854807217917L179.96,36.46104057629904L180.66296874999998,36.38885498046875L181.3659375,36.315637826919556L182.06890625,36.244624455769866L182.771875,36.16737484931946L183.47484375,36.09624425570169L184.17781250000002,36.02487921714783L184.88078124999998,35.953256289164216L185.58375,35.883204142252595L186.28671875,35.824241240819305L186.9896875,35.76293389002481L187.69265625,35.72010080019632L188.39562500000002,35.660176674524934L189.09859375,35.594696203867585L189.80156250000002,35.52569905916849L190.50453124999999,35.465681155522674L191.2075,35.39982557296753L191.91046875,35.336689551671356L192.6134375,35.2774453163147L193.31640625,35.22291342417398L194.019375,35.154783725738525L194.72234375,35.103182395299285L195.4253125,35.05031506220499L196.12828125000001,34.98828093210855L196.83124999999998,34.931756258010864L197.53421875,34.87452824910483L198.23718749999998,34.81101711591086L198.94015625,34.75833733876547L199.643125,34.70225811004639L200.34609375,34.63909864425659L201.0490625,34.57382917404175L201.75203125000002,34.53500509262085L202.45499999999998,34.49815034866333L203.15796875,34.45698181788126L203.8609375,34.39830025037131L204.56390625,34.34191624323529L205.266875,34.29802815119427L205.96984375000002,34.24525459607443L206.6728125,34.210978746414185L207.37578125000002,34.15787696838379L208.07874999999999,34.11255876223248L208.78171875,34.070475896199554L209.4846875,34.00891065597534L210.18765625,33.96298289299011L210.890625,33.905637661616L211.59359375,33.854552110036224L212.2965625,33.807616233825684L212.99953125,33.757163683573395L213.70250000000001,33.70340545972189L214.40546874999998,33.66068959236145L215.1084375,33.611573378245026L215.81140624999998,33.581798871358245L216.514375,33.53577733039856L217.21734375,33.48300377527872L217.9203125,33.43967835108441L218.62328125,33.402143716812134L219.32625000000002,33.352558612823486L220.02921874999998,33.319525321324676L220.7321875,33.26883832613626L221.43515625,33.221972783406585L222.138125,33.182703256607056L222.84109375,33.14664562543234L223.54406250000002,33.1031092007955L224.24703125,33.05242220560709L224.95000000000002,33.01437179247537L225.65296874999999,32.975711822509766L226.3559375,32.933863401412964L227.05890625,32.89923588434854L227.761875,32.85755157470703L228.46484375,32.83131718635559L229.1678125,32.79118021329245L229.87078125,32.74593234062195L230.57375,32.70382603009543L231.27671875000001,32.65921115875244L231.97968749999998,32.62193441390991L232.68265625,32.58437633514404L233.38562499999998,32.55113204320273L234.08859375,32.52337376276651L234.7915625,32.474796772003174L235.49453125,32.43510524431866L236.1975,32.39801605542502L236.90046875000002,32.362966537475586L237.60343749999998,32.32217311859131L238.30640625,32.2806998093923L239.009375,32.24858085314435L239.71234375,32.21643845240274L240.4153125,32.17803637186685L241.11828125000002,32.14983264605206L241.82125,32.110047340393066L242.52421875000002,32.07492748896283L243.22718749999999,32.04337120056152L243.93015625,32.005672454833984L244.633125,31.974960168202728L245.33609375,31.946568886438996L246.0390625,31.893443663915008" style="fill: none;" fill="none"></path></g><g><path stroke="rgb(0, 153, 136)" stroke-width="2px" d="M35.851406250000004,157.13667154312134L36.554375,136.32933179537457L37.257343750000004,121.12044334411623L37.9603125,113.51601084073386L38.663281250000004,104.80760057767233L39.36625,97.97934492429098L40.06921875,92.48953541119894L40.772187499999994,87.85099546114604L41.47515625,83.48281741142274L42.178125,80.58613300323486L42.88109375,78.15890113512675L43.5840625,75.8084499835968L44.28703125,73.47466786702475L44.99,71.26075744628906L45.69296875,69.50724999109904L46.3959375,67.74429440498353L47.098906250000006,66.20957096417746L47.801875,64.57877198855083L48.50484375,63.326671918233245L49.207812499999996,62.038490772247314L49.91078125,60.676342248916626L50.613749999999996,59.513120253880814L51.31671875,58.29370180765788L52.019687499999996,57.18573848406474L52.72265625,56.348934173583984L53.425625000000004,55.74139356613159L54.12859375,54.960316816965744L54.831562500000004,54.299674431482956L55.53453125,53.56656511624655L56.237500000000004,52.947911818822234L56.94046875,52.314605712890625L57.6434375,51.702446540196746L58.346406249999994,51.08208179473877L59.049375,50.493578116099044L59.75234375,49.93759195009868L60.4553125,49.50647115707399L61.15828125,48.99871031443277L61.86125,48.48661224047342L62.56421875,47.96044747034708L63.2671875,47.54712104797363L63.97015625,47.189451853434235L64.673125,46.73080722490948L65.37609375000001,46.29166841506958L66.07906249999999,45.87965488433838L66.78203125,45.500791867574065L67.485,45.244449774424226L68.18796875,44.90863084793091L68.89093749999999,44.557291666666686L69.59390625,44.24036900202435L70.296875,43.94555449485779L70.99984375,43.672332366307586L71.70281250000001,43.42323462168375L72.40578125,43.19097002347311L73.10875,42.91922489802042L73.81171875,42.69884665807089L74.51468750000001,42.42522597312927L75.21765625,42.215022643407195L75.920625,41.970027685165405L76.62359375000001,41.7406702041626L77.32656250000001,41.524863640467316L78.02953125,41.3264294465383L78.7325,41.14900151888531L79.43546875,40.94787120819092L80.1384375,40.74871023495993L80.84140624999999,40.53632656733194L81.54437499999999,40.314283768336L82.24734375,40.11765480041504L82.9503125,39.953988790512085L83.65328124999999,39.76999640464783L84.35625,39.56258296966553L85.05921875,39.370994567871094L85.7621875,39.25466299057007L86.46515624999999,39.10541534423828L87.168125,38.977736632029206L87.87109375,38.82042407989502L88.5740625,38.694175481796265L89.27703125000001,38.54410727818808L89.98,38.386818170547485L90.68296875,38.2314984003703L91.3859375,38.10956358909607L92.08890625000001,37.96784162521362L92.791875,37.82811244328818L93.49484375,37.738202810287476L94.19781250000001,37.618120114008605L94.90078125000001,37.52307613690695L95.60375,37.38083839416504L96.30671875,37.26856271425882L97.0096875,37.14988668759665L97.71265625,37.04007267951965L98.41562499999999,36.91783308982849L99.11859374999999,36.82074944178265L99.8215625,36.70955220858258L100.52453125,36.58930540084839L101.22749999999999,36.455718676249205L101.93046875,36.34109854698181L102.6334375,36.23705188433328L103.33640625,36.13638122876486L104.03937499999999,36.0562245051066L104.74234375,35.97489555676779L105.4453125,35.89009682337442L106.14828125,35.801124970118195L106.85125000000001,35.69768786430359L107.55421875,35.60735623041788L108.2571875,35.56527336438498L108.96015625,35.489524205525726L109.66312500000001,35.396660566329956L110.36609375,35.298545360565186L111.0690625,35.20807305971783L111.77203125000001,35.12142221132913L112.47500000000001,35.055660406748444L113.17796875,34.98115380605063L113.8809375,34.91569677988687L114.58390625,34.83783761660257L115.286875,34.79758342107138L115.98984374999999,34.739534854888916L116.69281249999999,34.67675050099692L117.39578125,34.61232503255209L118.09875,34.55866058667502L118.80171874999999,34.48509176572165L119.5046875,34.42190885543823L120.20765625,34.36010917027792L120.910625,34.30222471555075L121.61359374999999,34.23343857129416L122.3165625,34.17686700820923L123.01953125,34.10608808199564L123.7225,34.05017296473184L124.42546875000001,33.98337960243225L125.1284375,33.916093905766814L125.83140625,33.85136365890503L126.534375,33.78944675127664L127.23734375000001,33.716182708740234L127.9403125,33.67290417353311L128.64328125,33.60988537470499L129.34625,33.55134447415671L130.04921875,33.47936987876892L130.75218750000002,33.43130866686502L131.45515625000002,33.378206888834626L132.15812499999998,33.3210257689158L132.86109374999998,33.26778332392374L133.5640625,33.21081320444742L134.26703125,33.16579977671307L134.97,33.138604164123535L135.67296875,33.084001938501984L136.3759375,33.0367143948873L137.07890625,32.981666723887116L137.78187499999999,32.92901039123535L138.48484375,32.87356416384381L139.1878125,32.83136407534283L139.89078125,32.78949220975241L140.59375,32.72612174352011L141.29671875,32.6555303732554L141.9996875,32.580156326293945L142.70265625,32.506306171417236L143.40562500000001,32.43186990420023L144.10859374999998,32.357128858566284L144.8115625,32.280301253000886L145.51453124999998,32.205724318822234L146.2175,32.13035027186075L146.92046875,32.05790678660074L147.6234375,31.985135078430176L148.32640625,31.91105047861734L149.02937500000002,31.840341885884612L149.73234374999998,31.770477294921875L150.4353125,31.70122226079306L151.13828125,31.63330356280011L151.84125,31.56428297360739L152.54421875,31.497747500737518L153.24718750000002,31.4298991362254L153.95015625,31.364723443984985L154.65312500000002,31.300766865412413L155.35609374999999,31.234583059946686L156.0590625,31.1680006980896L156.76203125,31.105169455210387L157.465,31.041916211446136L158.16796875,30.977818965911865L158.8709375,30.91623028119406L159.57390625,30.855344931284606L160.276875,30.794694026311248L160.97984375000001,30.732730229695647L161.68281249999998,30.67236065864563L162.38578125,30.613491535186768L163.08874999999998,30.555302302042662L163.79171875,30.4964331785838L164.4946875,30.43929894765219L165.19765625,30.382774273554475L165.900625,30.326413710912078L166.60359375000002,30.269631147384644L167.30656249999998,30.215333700180054L168.00953125,30.16241947809857L168.7125,30.109880367914855L169.41546875,30.056848923365266L170.1184375,30.004989703496307L170.82140625000002,29.95385726292929L171.524375,29.900028705596924L172.22734375000002,29.848146041234344L172.93031249999999,29.79579448699951L173.63328125,29.743396043777466L174.33625,29.694092273712158L175.03921875,29.64506983757019L175.7421875,29.59773540496826L176.44515625,29.546767075856536L177.148125,29.497861862182617L177.85109375,29.448651870091766L178.55406250000001,29.399746656417847L179.25703124999998,29.354170560836792L179.96,29.309438467025757L180.66296874999998,29.262666702270508L181.3659375,29.215965270996094L182.06890625,29.170459508895874L182.771875,29.12277340888977L183.47484375,29.077033201853453L184.17781250000002,29.03244177500406L184.88078124999998,28.988295793533325L185.58375,28.943258921305357L186.28671875,28.899394273757935L186.9896875,28.856819073359162L187.69265625,28.814103205998748L188.39562500000002,28.77016822497049L189.09859375,28.727710247039795L189.80156250000002,28.684361378351866L190.50453124999999,28.64213784535727L191.2075,28.598882754643768L191.91046875,28.556002775828034L192.6134375,28.51438879966736L193.31640625,28.473665714263916L194.019375,28.433833519617707L194.72234375,28.393110434214265L195.4253125,28.35208257039389L196.12828125000001,28.312789599100768L196.83124999999998,28.272793292999268L197.53421875,28.233336210250854L198.23718749999998,28.195379575093597L198.94015625,28.157938718795776L199.643125,28.117965857187897L200.34609375,28.08047811190289L201.0490625,28.043506145477295L201.75203125000002,28.007331291834504L202.45499999999998,27.971625328063965L203.15796875,27.93538014094034L203.8609375,27.899463176727295L204.56390625,27.86267876625061L205.266875,27.82720724741617L205.96984375000002,27.793283065160125L206.6728125,27.758374214172363L207.37578125000002,27.725833257039397L208.07874999999999,27.69083062807718L208.78171875,27.656742334365845L209.4846875,27.622302373250335L210.18765625,27.589409748713166L210.890625,27.555977900822967L211.59359375,27.523155609766633L212.2965625,27.489465872446715L212.99953125,27.455588579177856L213.70250000000001,27.423539956410735L214.40546874999998,27.38942821820578L215.1084375,27.35709826151529L215.81140624999998,27.324885527292906L216.514375,27.29459524154663L217.21734375,27.26437528928122L217.9203125,27.231974999109894L218.62328125,27.201637824376434L219.32625000000002,27.16956575711569L220.02921874999998,27.139392693837493L220.7321875,27.111235857009888L221.43515625,27.08136757214865L222.138125,27.050538063049316L222.84109375,27.01994299888611L223.54406250000002,26.989558935165405L224.24703125,26.95957342783609L224.95000000000002,26.93022092183432L225.65296874999999,26.900516748428345L226.3559375,26.872031688690186L227.05890625,26.84319496154785L227.761875,26.816585461298644L228.46484375,26.78957740465802L229.1678125,26.76306168238321L229.87078125,26.73600673675537L230.57375,26.70988957087198L231.27671875000001,26.683233181635558L231.97968749999998,26.65774901707968L232.68265625,26.632171074549376L233.38562499999998,26.606218020121275L234.08859375,26.581413745880127L234.7915625,26.554851134618133L235.49453125,26.528616746266692L236.1975,26.503249804178893L236.90046875000002,26.478468974431365L237.60343749999998,26.4539929231008L238.30640625,26.428321202596038L239.009375,26.40297770500183L239.71234375,26.378478209177644L240.4153125,26.354142824808747L241.11828125000002,26.33011221885681L241.82125,26.30624572436014L242.52421875000002,26.28106633822125L243.22718749999999,26.257387399673462L243.93015625,26.233356793721526L244.633125,26.20815396308899L245.33609375,26.184545358022064L246.0390625,26.161640087763487" style="fill: none;" fill="none"></path></g><g><path stroke="rgb(51, 187, 238)" stroke-width="2px" d="M45.69296875,178.54972322781882L46.3959375,175.81016381581625L47.098906250000006,173.3697561422984L47.801875,170.98854581514996L48.50484375,168.74622066815695L49.207812499999996,166.7654657363892L49.91078125,164.7448551654816L50.613749999999996,162.6862410704295L51.31671875,160.79809188842776L52.019687499999996,158.955823580424L52.72265625,157.3160219192505L53.425625000000004,155.81447243690494L54.12859375,154.20997818311056L54.831562500000004,152.60771115620932L55.53453125,151.1579974492391L56.237500000000004,149.6856129169464L56.94046875,148.25367013613385L57.6434375,146.8854260444641L58.346406249999994,145.67158738772076L59.049375,144.3938155968984L59.75234375,143.16433946291608L60.4553125,141.97694619496664L61.15828125,140.78781803448996L61.86125,139.67059413592023L62.56421875,138.5672962665558L63.2671875,137.56734172503155L63.97015625,136.52793010075888L64.673125,135.440597931544L65.37609375000001,134.4166362285614L66.07906249999999,133.45531821250916L66.78203125,132.593545516332L67.485,131.7119387785594L68.18796875,130.7791527112325L68.89093749999999,129.90406354268393L69.59390625,129.07755136489868L70.296875,128.2730770111084L70.99984375,127.44539260864259L71.70281250000001,126.62912567456564L72.40578125,125.84439158439638L73.10875,125.06106416384381L73.81171875,124.34483488400778L74.51468750000001,123.66049011548361L75.21765625,122.95738975207013L75.920625,122.27037231127423L76.62359375000001,121.60799503326416L77.32656250000001,120.93098839124045L78.02953125,120.27876257896425L78.7325,119.59491014480592L79.43546875,118.94336422284445L80.1384375,118.34109862645468L80.84140624999999,117.73133079210919L81.54437499999999,117.13705976804098L82.24734375,116.56109889348349L82.9503125,116.04548414548239L83.65328124999999,115.45587857564291L84.35625,114.91121610005698L85.05921875,114.35806671778363L85.7621875,113.82191459337872L86.46515624999999,113.33227634429932L87.168125,112.82819628715515L87.87109375,112.35541462898256L88.5740625,111.84899012247723L89.27703125000001,111.38638337453207L89.98,110.91545383135478L90.68296875,110.46841422716778L91.3859375,110.02418796221416L92.08890625000001,109.60305452346802L92.791875,109.17685707410178L93.49484375,108.75476241111757L94.19781250000001,108.36380203564963L94.90078125000001,107.93019612630209L95.60375,107.55060633023581L96.30671875,107.13856935501099L97.0096875,106.71849091847739L97.71265625,106.33390744527182L98.41562499999999,105.95176219940187L99.11859374999999,105.58061242103578L99.8215625,105.19101182619731L100.52453125,104.82333183288576L101.22749999999999,104.46892142295839L101.93046875,104.15258487065634L102.6334375,103.79287600517274L103.33640625,103.4620742003123L104.03937499999999,103.12719305356345L104.74234375,102.84792224566144L105.4453125,102.53177324930827L106.14828125,102.22732305526733L106.85125000000001,101.90843105316164L107.55421875,101.61785999933879L108.2571875,101.32267038027446L108.96015625,101.05406681696574L109.66312500000001,100.76011975606283L110.36609375,100.46136657396953L111.0690625,100.16270716985068L111.77203125000001,99.86986200014752L112.47500000000001,99.59415475527446L113.17796875,99.34644023577373L113.8809375,99.07821178436281L114.58390625,98.79802664120993L115.286875,98.52170983950298L115.98984374999999,98.26970497767131L116.69281249999999,98.01596522331238L117.39578125,97.73728052775067L118.09875,97.4913243452708L118.80171874999999,97.26306875546774L119.5046875,97.01141556104025L120.20765625,96.75870736440024L120.910625,96.52721643447877L121.61359374999999,96.30493919054668L122.3165625,96.07293248176576L123.01953125,95.82826574643454L123.7225,95.60498038927715L124.42546875000001,95.36877711613974L125.1284375,95.16054312388104L125.83140625,94.92138584454855L126.534375,94.7170905272166L127.23734375000001,94.52311078707379L127.9403125,94.30852333704632L128.64328125,94.09892956415813L129.34625,93.89071901639304L130.04921875,93.69781772295634L130.75218750000002,93.48956028620402L131.45515625000002,93.30327033996582L132.15812499999998,93.1082590421041L132.86109374999998,92.91749119758607L133.5640625,92.72777835528056L134.26703125,92.54631797472636L134.97,92.35355734825134L135.67296875,92.18714833259584L136.3759375,92.0178790887197L137.07890625,91.85064951578777L137.78187499999999,91.66848580042523L138.48484375,91.48264129956564L139.1878125,91.32056951522829L139.89078125,91.13664746284486L140.59375,90.93577504158021L141.29671875,90.73417584101361L141.9996875,90.53058385849L142.70265625,90.32706220944723L143.40562500000001,90.12977679570517L144.10859374999998,89.93757883707683L144.8115625,89.74404454231264L145.51453124999998,89.55222169558208L146.2175,89.3718163172404L146.92046875,89.18969949086508L147.6234375,89.00985678037009L148.32640625,88.82956862449647L149.02937500000002,88.65467270215353L149.73234374999998,88.47539265950522L150.4353125,88.30309907595318L151.13828125,88.13289205233256L151.84125,87.96048124631247L152.54421875,87.78964122136435L153.24718750000002,87.62435754140219L153.95015625,87.46289531389874L154.65312500000002,87.30494976043701L155.35609374999999,87.14749654134116L156.0590625,86.99184854825339L156.76203125,86.82980020840964L157.465,86.67846600214641L158.16796875,86.52389645576477L158.8709375,86.37577414512634L159.57390625,86.23287995656332L160.276875,86.08984510103862L160.97984375000001,85.94727913538617L161.68281249999998,85.80283761024475L162.38578125,85.65952142079672L163.08874999999998,85.51627556482951L163.79171875,85.37546793619794L164.4946875,85.2332067489624L165.19765625,85.09840091069542L165.900625,84.96000806490582L166.60359375000002,84.82306877772015L167.30656249999998,84.68528548876446L168.00953125,84.55106576283775L168.7125,84.41865126291911L169.41546875,84.28761998812358L170.1184375,84.16308283805849L170.82140625000002,84.04126524925232L171.524375,83.91278942426048L172.22734375000002,83.78745516141258L172.93031249999999,83.6616051197052L173.63328125,83.54100664456688L174.33625,83.41923594474792L175.03921875,83.30325603485109L175.7421875,83.18685412406921L176.44515625,83.07218710581463L177.148125,82.95712153116862L177.85109375,82.84104784329733L178.55406250000001,82.72820949554443L179.25703124999998,82.61382381121318L179.96,82.50300168991089L180.66296874999998,82.39173412323L181.3659375,82.28494445482892L182.06890625,82.17787345250449L182.771875,82.070685227712L183.47484375,81.9626530011495L184.17781250000002,81.85841878255209L184.88078124999998,81.756458679835L185.58375,81.65086468060814L186.28671875,81.55026435852052L186.9896875,81.44877314567567L187.69265625,81.34477337201437L188.39562500000002,81.24318838119507L189.09859375,81.13677382469177L189.80156250000002,81.03631416956584L190.50453124999999,80.94284097353618L191.2075,80.85126678148906L191.91046875,80.75927058855693L192.6134375,80.66178838411967L193.31640625,80.57565331459047L194.019375,80.48436045646667L194.72234375,80.39717038472494L195.4253125,80.30590097109477L196.12828125000001,80.21526455879213L196.83124999999998,80.12814482053122L197.53421875,80.04231452941895L198.23718749999998,79.95669523874919L198.94015625,79.86491004625957L199.643125,79.77253874142967L200.34609375,79.68799789746603L201.0490625,79.60467616717021L201.75203125000002,79.52137788136801L202.45499999999998,79.43482081095378L203.15796875,79.35145219167075L203.8609375,79.27108446756999L204.56390625,79.19153730074565L205.266875,79.11672592163086L205.96984375000002,79.03928875923157L206.6728125,78.9590851465861L207.37578125000002,78.87953797976176L208.07874999999999,78.80449215571088L208.78171875,78.7275004386902L209.4846875,78.65175127983095L210.18765625,78.57630689938864L210.890625,78.50194096565248L211.59359375,78.42612147331238L212.2965625,78.35262298583984L212.99953125,78.27893694241843L213.70250000000001,78.2044303417206L214.40546874999998,78.1340499718984L215.1084375,78.06390404701234L215.81140624999998,77.99249211947124L216.514375,77.92680064837138L217.21734375,77.8591867287954L217.9203125,77.79377659161888L218.62328125,77.72583444913231L219.32625000000002,77.65496174494427L220.02921874999998,77.59091138839722L220.7321875,77.52109368642172L221.43515625,77.45340943336487L222.138125,77.38921840985617L222.84109375,77.3232924938202L223.54406250000002,77.25492835044862L224.24703125,77.19364444414775L224.95000000000002,77.13003953297934L225.65296874999999,77.06371506055196L226.3559375,77.00006326039633L227.05890625,76.93988124529523L227.761875,76.88059012095135L228.46484375,76.8151330947876L229.1678125,76.75415396690369L229.87078125,76.69148683547974L230.57375,76.63378993670146L231.27671875000001,76.57325625419617L231.97968749999998,76.51105801264445L232.68265625,76.44846121470135L233.38562499999998,76.39062364896138L234.08859375,76.3329267501831L234.7915625,76.27661307652792L235.49453125,76.21572772661847L236.1975,76.15648349126181L236.90046875000002,76.1021860440572L237.60343749999998,76.04826370875041L238.30640625,75.99457581837972L239.009375,75.93720714251202L239.71234375,75.88251113891602L240.4153125,75.82940936088563L241.11828125000002,75.7734473546346L241.82125,75.72013457616171L242.52421875000002,75.67132314046223L243.22718749999999,75.61646302541097L243.93015625,75.56343158086142L244.633125,75.51234602928162L245.33609375,75.4607915878296L246.0390625,75.4113002618154" style="fill: none;" fill="none"></path></g><g><path stroke="rgb(0, 119, 187)" stroke-width="2px" d="M35.851406250000004,53.65066051483154L36.554375,87.61500318845115L37.257343750000004,96.57644987106325L37.9603125,106.08199636141461L38.663281250000004,123.96292408307394L39.36625,125.67655245463055L40.06921875,122.5795348485311L40.772187499999994,119.94207620620729L41.47515625,120.91066201527914L42.178125,121.70519590377809L42.88109375,129.57473874092102L43.5840625,129.84589775403342L44.28703125,130.17215132713318L44.99,130.09499549865723L45.69296875,138.74439597129822L46.3959375,138.71145645777386L47.098906250000006,137.62501517931622L47.801875,137.6513667901357L48.50484375,137.44308590888977L49.207812499999996,137.38346656163534L49.91078125,138.39713613192242L50.613749999999996,140.18400510152182L51.31671875,139.42128539085388L52.019687499999996,138.22224020957947L52.72265625,137.59270866711935L53.425625000000004,136.72115961710614L54.12859375,138.7039073308309L54.831562500000004,140.00418583552045L55.53453125,139.06774242719015L56.237500000000004,140.30856569608054L56.94046875,140.8856519063314L57.6434375,140.99647402763367L58.346406249999994,140.90630650520325L59.049375,141.53984705607098L59.75234375,141.34153008460999L60.4553125,141.61967555681866L61.15828125,140.8005718390147L61.86125,140.74088215827942L62.56421875,140.93941013018292L63.2671875,140.93427578608197L63.97015625,141.46857579549155L64.673125,140.66630522410077L65.37609375000001,140.16937573750815L66.07906249999999,140.7015891869863L66.78203125,140.94881137212118L67.485,141.45207087198895L68.18796875,141.55063152313232L68.89093749999999,143.2823121547699L69.59390625,143.1203575929006L70.296875,142.84922202428183L70.99984375,143.70471159617108L71.70281250000001,142.85184780756634L72.40578125,142.64269948005676L73.10875,142.55056262016296L73.81171875,142.12706128756207L74.51468750000001,142.06990361213684L75.21765625,142.33009060223898L75.920625,141.98383887608847L76.62359375000001,142.25999156634015L77.32656250000001,142.85407503445944L78.02953125,142.79159545898438L78.7325,143.24437896410626L79.43546875,143.00974647204083L80.1384375,143.0461088816325L80.84140624999999,143.35487286249798L81.54437499999999,143.3068350950877L82.24734375,144.0163592497508L82.9503125,144.08146460851034L83.65328124999999,143.5792132218679L84.35625,144.0055044492086L85.05921875,144.48074777921042L85.7621875,144.29434061050415L86.46515624999999,144.73912954330444L87.168125,146.18551413218182L87.87109375,145.64661900202435L88.5740625,145.60010512669882L89.27703125000001,145.4715355237325L89.98,145.25849541028342L90.68296875,145.283393462499L91.3859375,145.4291009902954L92.08890625000001,145.2924664815267L92.791875,145.9271558125814L93.49484375,145.87311625480652L94.19781250000001,145.97676436106366L94.90078125000001,146.285293896993L95.60375,146.6515906651815L96.30671875,146.44026199976605L97.0096875,147.05481251080832L97.71265625,146.7676877975464L98.41562499999999,146.81952357292178L99.11859374999999,146.40385270118716L99.8215625,146.68382684389752L100.52453125,146.50989214579266L101.22749999999999,147.36148993174237L101.93046875,146.99031670888266L102.6334375,147.09232370058697L103.33640625,147.10221727689108L104.03937499999999,147.84275849660239L104.74234375,147.3609507083893L105.4453125,147.43784864743552L106.14828125,147.2822944323222L106.85125000000001,147.3989776770274L107.55421875,147.50611901283267L108.2571875,147.0593841870626L108.96015625,147.0497250556946L109.66312500000001,147.07734266916913L110.36609375,147.3978054523468L111.0690625,147.3372014363607L111.77203125000001,147.29828357696536L112.47500000000001,147.4649504820506L113.17796875,147.598162094752L113.8809375,147.88772503534955L114.58390625,147.70120064417523L115.286875,147.44134187698367L115.98984374999999,147.87110288937888L116.69281249999999,147.77261257171634L117.39578125,147.53732363382977L118.09875,147.60334332784018L118.80171874999999,147.68113215764365L119.5046875,147.70190397898358L120.20765625,147.9866373538971L120.910625,147.913959423701L121.61359374999999,147.90772318840027L122.3165625,147.83497492472333L123.01953125,147.51763025919598L123.7225,147.44038065274557L124.42546875000001,147.32873797416687L125.1284375,147.78792182604474L125.83140625,147.67166058222455L126.534375,148.66669178009033L127.23734375000001,148.4575200080872L127.9403125,148.4282143910726L128.64328125,148.522367477417L129.34625,148.81268064181012L130.04921875,148.4268077214559L130.75218750000002,148.21407238642377L131.45515625000002,148.52897882461548L132.15812499999998,148.61984968185425L132.86109374999998,148.38542819023132L133.5640625,148.19817701975506L134.26703125,148.4356228510539L134.97,148.34151665369671L135.67296875,148.33975831667584L136.3759375,148.18697055180868L137.07890625,148.22591185569763L137.78187499999999,148.07760198911032L138.48484375,148.2893526554108L139.1878125,148.45808267593384L139.89078125,148.61769278844199L140.59375,147.94631282488507L141.29671875,147.29811946551007L141.9996875,146.62432471911114L142.70265625,145.99118272463483L143.40562500000001,145.4449494679769L144.10859374999998,144.8611112435659L144.8115625,144.27642901738486L145.51453124999998,143.7916437784831L146.2175,143.28885316848755L146.92046875,142.76170372962952L147.6234375,142.2140872478485L148.32640625,141.81644519170126L149.02937500000002,141.33827129999798L149.73234374999998,140.8695689837138L150.4353125,140.40297667185467L151.13828125,139.97851411501568L151.84125,139.4150960445404L152.54421875,138.88811071713766L153.24718750000002,138.34820747375488L153.95015625,137.97551035881042L154.65312500000002,137.57758696873984L155.35609374999999,137.11186210314435L156.0590625,136.56877040863037L156.76203125,136.06082201004028L157.465,135.63490589459738L158.16796875,135.23473183314007L158.8709375,134.76539651552838L159.57390625,134.27489082018536L160.276875,133.92446597417197L160.97984375000001,133.496017853419L161.68281249999998,133.0146320660909L162.38578125,132.66634066899618L163.08874999999998,132.210134267807L163.79171875,131.75742109616598L164.4946875,131.363506714503L165.19765625,130.96830288569134L165.900625,130.5985128879547L166.60359375000002,130.19458770751953L167.30656249999998,129.7897481918335L168.00953125,129.42103664080304L168.7125,128.97854526837668L169.41546875,128.52505842844647L170.1184375,128.06871136029562L170.82140625000002,127.73612777392071L171.524375,127.35848387082419L172.22734375000002,126.91798528035483L172.93031249999999,126.5594251950582L173.63328125,126.1979111035665L174.33625,125.84978381792706L175.03921875,125.49328684806825L175.7421875,125.28158307075502L176.44515625,124.91345763206483L177.148125,124.56186056137086L177.85109375,124.1398831208547L178.55406250000001,123.74594529469809L179.25703124999998,123.39270710945131L179.96,123.04708838462831L180.66296874999998,122.74697542190552L181.3659375,122.49119599660239L182.06890625,122.13922381401063L182.771875,121.8544904390971L183.47484375,121.49916569391888L184.17781250000002,121.14203572273256L184.88078124999998,120.7629382610321L185.58375,120.38353602091473L186.28671875,120.00563422838849L186.9896875,119.82790152231854L187.69265625,119.48162635167441L188.39562500000002,119.1289273897807L189.09859375,118.9635733763377L189.80156250000002,118.68423223495485L190.50453124999999,118.33139260609946L191.2075,118.08417042096457L191.91046875,117.81462907791138L192.6134375,117.4702294667562L193.31640625,117.150399684906L194.019375,116.86700264612836L194.72234375,116.65070374806723L195.4253125,116.29711389541626L196.12828125000001,116.0173507531484L196.83124999999998,115.70668776830038L197.53421875,115.40298779805502L198.23718749999998,115.09748260180157L198.94015625,114.87628380457562L199.643125,114.61682359377545L200.34609375,114.350376923879L201.0490625,114.12350455919903L201.75203125000002,113.82153948148093L202.45499999999998,113.50295225779217L203.15796875,113.22239200274151L203.8609375,112.93271183967592L204.56390625,112.72117217381796L205.266875,112.51089851061505L205.96984375000002,112.21978823343915L206.6728125,111.93751653035483L207.37578125000002,111.6771185398102L208.07874999999999,111.45802974700929L208.78171875,111.22925837834677L209.4846875,110.95282435417175L210.18765625,110.6851116816203L210.890625,110.46309232711792L211.59359375,110.18082062403363L212.2965625,109.94602402051291L212.99953125,109.72259799639386L213.70250000000001,109.46452101071677L214.40546874999998,109.18886065483093L215.1084375,108.90630761782329L215.81140624999998,108.68030269940695L216.514375,108.509392340978L217.21734375,108.24367245038351L217.9203125,107.96229163805644L218.62328125,107.77996381123862L219.32625000000002,107.51930793126425L220.02921874999998,107.26828773816428L220.7321875,107.02033877372743L221.43515625,106.7794700463613L222.138125,106.5211820602417L222.84109375,106.28411134084067L223.54406250000002,106.07217311859131L224.24703125,105.8540455500285L224.95000000000002,105.681236187617L225.65296874999999,105.47966043154399L226.3559375,105.27972579002382L227.05890625,105.04593729972841L227.761875,104.8280676205953L228.46484375,104.6870255470276L229.1678125,104.50467427571616L229.87078125,104.35289462407431L230.57375,104.1378382841746L231.27671875000001,103.9694130420685L231.97968749999998,103.7760897477468L232.68265625,103.61268162727357L233.38562499999998,103.39199860890707L234.08859375,103.19274385770163L234.7915625,102.97065416971843L235.49453125,102.75440216064453L236.1975,102.53857215245566L236.90046875000002,102.33561317125958L237.60343749999998,102.1731193860372L238.30640625,102.00438936551413L239.009375,101.82302276293437L239.71234375,101.66854699452719L240.4153125,101.48012359937033L241.11828125000002,101.28668308258057L241.82125,101.07462763786316L242.52421875000002,100.90212305386862L243.22718749999999,100.70926864941916L243.93015625,100.56686679522197L244.633125,100.38657863934836L245.33609375,100.23369709650676L246.0390625,99.96907909711203" style="fill: none;" fill="none"></path></g></g></g></g></g></g><g transform="translate(48, 177)" clip-path="url(#clip_1)"><clipPath id="clip_1"><rect width="281" height="23"></rect></clipPath><g><g><line x1="0" y1="0" x2="0" y2="5" style="visibility: inherit;" fill="rgb(0, 0, 0)" stroke="rgb(204, 204, 204)" stroke-width="1px"></line><line x1="35.1484375" y1="0" x2="35.1484375" y2="5" style="visibility: inherit;" fill="rgb(0, 0, 0)" stroke="rgb(204, 204, 204)" stroke-width="1px"></line><line x1="70.296875" y1="0" x2="70.296875" y2="5" style="visibility: inherit;" fill="rgb(0, 0, 0)" stroke="rgb(204, 204, 204)" stroke-width="1px"></line><line x1="105.4453125" y1="0" x2="105.4453125" y2="5" style="visibility: inherit;" fill="rgb(0, 0, 0)" stroke="rgb(204, 204, 204)" stroke-width="1px"></line><line x1="140.59375" y1="0" x2="140.59375" y2="5" style="visibility: inherit;" fill="rgb(0, 0, 0)" stroke="rgb(204, 204, 204)" stroke-width="1px"></line><line x1="175.7421875" y1="0" x2="175.7421875" y2="5" style="visibility: inherit;" fill="rgb(0, 0, 0)" stroke="rgb(204, 204, 204)" stroke-width="1px"></line><line x1="210.890625" y1="0" x2="210.890625" y2="5" style="visibility: inherit;" fill="rgb(0, 0, 0)" stroke="rgb(204, 204, 204)" stroke-width="1px"></line><line x1="246.0390625" y1="0" x2="246.0390625" y2="5" style="visibility: inherit;" fill="rgb(0, 0, 0)" stroke="rgb(204, 204, 204)" stroke-width="1px"></line><line x1="281.1875" y1="0" x2="281.1875" y2="5" style="visibility: inherit;" fill="rgb(0, 0, 0)" stroke="rgb(204, 204, 204)" stroke-width="1px"></line></g><g transform="translate(0, 8)"><text x="0" y="0" dx="0em" dy="0.95em" style="text-anchor: middle; visibility: hidden; font-family: &quot;Helvetica Neue&quot;, sans-serif; font-size: 12px; font-weight: 200;" fill="rgb(50, 49, 63)" stroke="none" stroke-width="1px">-50</text><text x="35.1484375" y="0" dx="0em" dy="0.95em" style="text-anchor: middle; visibility: inherit; font-family: &quot;Helvetica Neue&quot;, sans-serif; font-size: 12px; font-weight: 200;" fill="rgb(50, 49, 63)" stroke="none" stroke-width="1px">0</text><text x="70.296875" y="0" dx="0em" dy="0.95em" style="text-anchor: middle; visibility: inherit; font-family: &quot;Helvetica Neue&quot;, sans-serif; font-size: 12px; font-weight: 200;" fill="rgb(50, 49, 63)" stroke="none" stroke-width="1px">50</text><text x="105.4453125" y="0" dx="0em" dy="0.95em" style="text-anchor: middle; visibility: inherit; font-family: &quot;Helvetica Neue&quot;, sans-serif; font-size: 12px; font-weight: 200;" fill="rgb(50, 49, 63)" stroke="none" stroke-width="1px">100</text><text x="140.59375" y="0" dx="0em" dy="0.95em" style="text-anchor: middle; visibility: inherit; font-family: &quot;Helvetica Neue&quot;, sans-serif; font-size: 12px; font-weight: 200;" fill="rgb(50, 49, 63)" stroke="none" stroke-width="1px">150</text><text x="175.7421875" y="0" dx="0em" dy="0.95em" style="text-anchor: middle; visibility: inherit; font-family: &quot;Helvetica Neue&quot;, sans-serif; font-size: 12px; font-weight: 200;" fill="rgb(50, 49, 63)" stroke="none" stroke-width="1px">200</text><text x="210.890625" y="0" dx="0em" dy="0.95em" style="text-anchor: middle; visibility: inherit; font-family: &quot;Helvetica Neue&quot;, sans-serif; font-size: 12px; font-weight: 200;" fill="rgb(50, 49, 63)" stroke="none" stroke-width="1px">250</text><text x="246.0390625" y="0" dx="0em" dy="0.95em" style="text-anchor: middle; visibility: inherit; font-family: &quot;Helvetica Neue&quot;, sans-serif; font-size: 12px; font-weight: 200;" fill="rgb(50, 49, 63)" stroke="none" stroke-width="1px">300</text><text x="281.1875" y="0" dx="0em" dy="0.95em" style="text-anchor: middle; visibility: hidden; font-family: &quot;Helvetica Neue&quot;, sans-serif; font-size: 12px; font-weight: 200;" fill="rgb(50, 49, 63)" stroke="none" stroke-width="1px">350</text></g><line x1="0" y1="0" x2="281.1875" y2="0" fill="rgb(0, 0, 0)" stroke="rgb(204, 204, 204)" stroke-width="1px"></line></g></g></g></g></svg>