<svg viewBox="0 0 330 200" xmlns="http://www.w3.org/2000/svg"><g><g><g><g><g><line x1="48.8125" y1="177" x2="43.8125" y2="177" style="visibility: inherit;" fill="rgb(0, 0, 0)" stroke="rgb(204, 204, 204)" stroke-width="1px"></line><line x1="48.8125" y1="160.9090909090909" x2="43.8125" y2="160.9090909090909" style="visibility: inherit;" fill="rgb(0, 0, 0)" stroke="rgb(204, 204, 204)" stroke-width="1px"></line><line x1="48.8125" y1="144.8181818181818" x2="43.8125" y2="144.8181818181818" style="visibility: inherit;" fill="rgb(0, 0, 0)" stroke="rgb(204, 204, 204)" stroke-width="1px"></line><line x1="48.8125" y1="128.72727272727272" x2="43.8125" y2="128.72727272727272" style="visibility: inherit;" fill="rgb(0, 0, 0)" stroke="rgb(204, 204, 204)" stroke-width="1px"></line><line x1="48.8125" y1="112.63636363636364" x2="43.8125" y2="112.63636363636364" style="visibility: inherit;" fill="rgb(0, 0, 0)" stroke="rgb(204, 204, 204)" stroke-width="1px"></line><line x1="48.8125" y1="96.54545454545455" x2="43.8125" y2="96.54545454545455" style="visibility: inherit;" fill="rgb(0, 0, 0)" stroke="rgb(204, 204, 204)" stroke-width="1px"></line><line x1="48.8125" y1="80.45454545454547" x2="43.8125" y2="80.45454545454547" style="visibility: inherit;" fill="rgb(0, 0, 0)" stroke="rgb(204, 204, 204)" stroke-width="1px"></line><line x1="48.8125" y1="64.36363636363639" x2="43.8125" y2="64.36363636363639" style="visibility: inherit;" fill="rgb(0, 0, 0)" stroke="rgb(204, 204, 204)" stroke-width="1px"></line><line x1="48.8125" y1="48.27272727272728" x2="43.8125" y2="48.27272727272728" style="visibility: inherit;" fill="rgb(0, 0, 0)" stroke="rgb(204, 204, 204)" stroke-width="1px"></line><line x1="48.8125" y1="32.18181818181819" x2="43.8125" y2="32.18181818181819" style="visibility: inherit;" fill="rgb(0, 0, 0)" stroke="rgb(204, 204, 204)" stroke-width="1px"></line><line x1="48.8125" y1="16.090909090909093" x2="43.8125" y2="16.090909090909093" style="visibility: inherit;" fill="rgb(0, 0, 0)" stroke="rgb(204, 204, 204)" stroke-width="1px"></line><line x1="48.8125" y1="0" x2="43.8125" y2="0" style="visibility: inherit;" fill="rgb(0, 0, 0)" stroke="rgb(204, 204, 204)" stroke-width="1px"></line></g><g transform="translate(38.8125, 0)"><text x="0" y="177" dx="0em" dy="0.3em" style="text-anchor: end; visibility: hidden; font-family: &quot;Helvetica Neue&quot;, sans-serif; font-size: 12px; font-weight: 200;" fill="rgb(50, 49, 63)" stroke="none" stroke-width="1px">-0.1</text><text x="0" y="160.9090909090909" dx="0em" dy="0.3em" style="text-anchor: end; visibility: inherit; font-family: &quot;Helvetica Neue&quot;, sans-serif; font-size: 12px; font-weight: 200;" fill="rgb(50, 49, 63)" stroke="none" stroke-width="1px">0</text><text x="0" y="144.8181818181818" dx="0em" dy="0.3em" style="text-anchor: end; visibility: hidden; font-family: &quot;Helvetica Neue&quot;, sans-serif; font-size: 12px; font-weight: 200;" fill="rgb(50, 49, 63)" stroke="none" stroke-width="1px">0.1</text><text x="0" y="128.72727272727272" dx="0em" dy="0.3em" style="text-anchor: end; visibility: inherit; font-family: &quot;Helvetica Neue&quot;, sans-serif; font-size: 12px; font-weight: 200;" fill="rgb(50, 49, 63)" stroke="none" stroke-width="1px">0.2</text><text x="0" y="112.63636363636364" dx="0em" dy="0.3em" style="text-anchor: end; visibility: hidden; font-family: &quot;Helvetica Neue&quot;, sans-serif; font-size: 12px; font-weight: 200;" fill="rgb(50, 49, 63)" stroke="none" stroke-width="1px">0.3</text><text x="0" y="96.54545454545455" dx="0em" dy="0.3em" style="text-anchor: end; visibility: inherit; font-family: &quot;Helvetica Neue&quot;, sans-serif; font-size: 12px; font-weight: 200;" fill="rgb(50, 49, 63)" stroke="none" stroke-width="1px">0.4</text><text x="0" y="80.45454545454547" dx="0em" dy="0.3em" style="text-anchor: end; visibility: hidden; font-family: &quot;Helvetica Neue&quot;, sans-serif; font-size: 12px; font-weight: 200;" fill="rgb(50, 49, 63)" stroke="none" stroke-width="1px">0.5</text><text x="0" y="64.36363636363639" dx="0em" dy="0.3em" style="text-anchor: end; visibility: inherit; font-family: &quot;Helvetica Neue&quot;, sans-serif; font-size: 12px; font-weight: 200;" fill="rgb(50, 49, 63)" stroke="none" stroke-width="1px">0.6</text><text x="0" y="48.27272727272728" dx="0em" dy="0.3em" style="text-anchor: end; visibility: hidden; font-family: &quot;Helvetica Neue&quot;, sans-serif; font-size: 12px; font-weight: 200;" fill="rgb(50, 49, 63)" stroke="none" stroke-width="1px">0.7</text><text x="0" y="32.18181818181819" dx="0em" dy="0.3em" style="text-anchor: end; visibility: inherit; font-family: &quot;Helvetica Neue&quot;, sans-serif; font-size: 12px; font-weight: 200;" fill="rgb(50, 49, 63)" stroke="none" stroke-width="1px">0.8</text><text x="0" y="16.090909090909093" dx="0em" dy="0.3em" style="text-anchor: end; visibility: hidden; font-family: &quot;Helvetica Neue&quot;, sans-serif; font-size: 12px; font-weight: 200;" fill="rgb(50, 49, 63)" stroke="none" stroke-width="1px">0.9</text><text x="0" y="0" dx="0em" dy="0.3em" style="text-anchor: end; visibility: hidden; font-family: &quot;Helvetica Neue&quot;, sans-serif; font-size: 12px; font-weight: 200;" fill="rgb(50, 49, 63)" stroke="none" stroke-width="1px">1</text></g><line x1="48.8125" y1="0" x2="48.8125" y2="177" fill="rgb(0, 0, 0)" stroke="rgb(204, 204, 204)" stroke-width="1px"></line></g></g><g transform="translate(48, 0)" clip-path="url(#clip_0)"><clipPath id="clip_0"><rect width="281" height="177"></rect></clipPath><g><g><g><line x1="0" y1="0" x2="0" y2="177" fill="rgb(0, 0, 0)" stroke="rgb(60, 60, 60)" stroke-width="1px" opacity="0.25"></line><line x1="23.432291666666664" y1="0" x2="23.432291666666664" y2="177" fill="rgb(0, 0, 0)" stroke="rgb(60, 60, 60)" stroke-width="1px" opacity="0.25"></line><line x1="46.86458333333333" y1="0" x2="46.86458333333333" y2="177" fill="rgb(0, 0, 0)" stroke="rgb(60, 60, 60)" stroke-width="1px" opacity="0.25"></line><line x1="70.296875" y1="0" x2="70.296875" y2="177" fill="rgb(0, 0, 0)" stroke="rgb(60, 60, 60)" stroke-width="1px" opacity="0.25"></line><line x1="93.72916666666666" y1="0" x2="93.72916666666666" y2="177" fill="rgb(0, 0, 0)" stroke="rgb(60, 60, 60)" stroke-width="1px" opacity="0.25"></line><line x1="117.16145833333334" y1="0" x2="117.16145833333334" y2="177" fill="rgb(0, 0, 0)" stroke="rgb(60, 60, 60)" stroke-width="1px" opacity="0.25"></line><line x1="140.59375" y1="0" x2="140.59375" y2="177" fill="rgb(0, 0, 0)" stroke="rgb(60, 60, 60)" stroke-width="1px" opacity="0.25"></line><line x1="164.02604166666669" y1="0" x2="164.02604166666669" y2="177" fill="rgb(0, 0, 0)" stroke="rgb(60, 60, 60)" stroke-width="1px" opacity="0.25"></line><line x1="187.45833333333331" y1="0" x2="187.45833333333331" y2="177" fill="rgb(0, 0, 0)" stroke="rgb(60, 60, 60)" stroke-width="1px" opacity="0.25"></line><line x1="210.890625" y1="0" x2="210.890625" y2="177" fill="rgb(0, 0, 0)" stroke="rgb(60, 60, 60)" stroke-width="1px" opacity="0.25"></line><line x1="234.32291666666669" y1="0" x2="234.32291666666669" y2="177" fill="rgb(0, 0, 0)" stroke="rgb(60, 60, 60)" stroke-width="1px" opacity="0.25"></line><line x1="257.7552083333333" y1="0" x2="257.7552083333333" y2="177" fill="rgb(0, 0, 0)" stroke="rgb(60, 60, 60)" stroke-width="1px" opacity="0.25"></line><line x1="281.1875" y1="0" x2="281.1875" y2="177" fill="rgb(0, 0, 0)" stroke="rgb(60, 60, 60)" stroke-width="1px" opacity="0.25"></line></g><g><line x1="0" y1="177" x2="281.1875" y2="177" fill="rgb(0, 0, 0)" stroke="rgb(60, 60, 60)" stroke-width="1px" opacity="0.25"></line><line x1="0" y1="160.9090909090909" x2="281.1875" y2="160.9090909090909" fill="rgb(0, 0, 0)" stroke="rgb(60, 60, 60)" stroke-width="1px" opacity="0.25"></line><line x1="0" y1="144.8181818181818" x2="281.1875" y2="144.8181818181818" fill="rgb(0, 0, 0)" stroke="rgb(60, 60, 60)" stroke-width="1px" opacity="0.25"></line><line x1="0" y1="128.72727272727272" x2="281.1875" y2="128.72727272727272" fill="rgb(0, 0, 0)" stroke="rgb(60, 60, 60)" stroke-width="1px" opacity="0.25"></line><line x1="0" y1="112.63636363636364" x2="281.1875" y2="112.63636363636364" fill="rgb(0, 0, 0)" stroke="rgb(60, 60, 60)" stroke-width="1px" opacity="0.25"></line><line x1="0" y1="96.54545454545455" x2="281.1875" y2="96.54545454545455" fill="rgb(0, 0, 0)" stroke="rgb(60, 60, 60)" stroke-width="1px" opacity="0.25"></line><line x1="0" y1="80.45454545454547" x2="281.1875" y2="80.45454545454547" fill="rgb(0, 0, 0)" stroke="rgb(60, 60, 60)" stroke-width="1px" opacity="0.25"></line><line x1="0" y1="64.36363636363639" x2="281.1875" y2="64.36363636363639" fill="rgb(0, 0, 0)" stroke="rgb(60, 60, 60)" stroke-width="1px" opacity="0.25"></line><line x1="0" y1="48.27272727272728" x2="281.1875" y2="48.27272727272728" fill="rgb(0, 0, 0)" stroke="rgb(60, 60, 60)" stroke-width="1px" opacity="0.25"></line><line x1="0" y1="32.18181818181819" x2="281.1875" y2="32.18181818181819" fill="rgb(0, 0, 0)" stroke="rgb(60, 60, 60)" stroke-width="1px" opacity="0.25"></line><line x1="0" y1="16.090909090909093" x2="281.1875" y2="16.090909090909093" fill="rgb(0, 0, 0)" stroke="rgb(60, 60, 60)" stroke-width="1px" opacity="0.25"></line><line x1="0" y1="0" x2="281.1875" y2="0" fill="rgb(0, 0, 0)" stroke="rgb(60, 60, 60)" stroke-width="1px" opacity="0.25"></line></g></g></g><g><g><line x1="0" y1="160.9090909090909" x2="281.1875" y2="160.9090909090909" fill="rgb(0, 0, 0)" stroke="rgb(153, 153, 153)" stroke-width="1.5px"></line></g></g><g><g><line x1="23.432291666666664" y1="0" x2="23.432291666666664" y2="177" fill="rgb(0, 0, 0)" stroke="rgb(153, 153, 153)" stroke-width="1.5px"></line></g></g><g><g><g><g><g><path stroke="rgb(0, 153, 136)" stroke-width="2px" d="M25.77552083333333,50.1534816351804L28.118750000000002,43.979282595894574L30.46197916666667,40.32542629675433L32.80520833333333,38.09955385598272L35.1484375,36.505656513300835L37.49166666666667,35.240421132607906L39.834895833333334,34.11956760016355L42.178125,33.335921547629624L44.52135416666666,32.54066087982872L46.86458333333333,31.870254928415477L49.207812499999996,31.297570954669624L51.55104166666666,30.832995934919893L53.89427083333334,30.401893258094816L56.237500000000004,30.06495432420212L58.58072916666667,29.752664078365683L60.92395833333334,29.462797425009995L63.2671875,29.175740913911312L65.61041666666667,28.943793882023215L67.95364583333334,28.708269433541744L70.296875,28.500098315152286L72.64010416666667,28.308126276189626L74.98333333333333,28.130166584795177L77.32656250000001,27.957760041410268L79.66979166666667,27.820302844047575L82.01302083333334,27.68776579336688L84.35625,27.572722597555696L86.69947916666668,27.452135844664156L89.04270833333332,27.341514067216366L91.3859375,27.243772907690584L93.72916666666666,27.17153402892029L96.07239583333333,27.08067915656352L98.41562499999999,27.010924328457236L100.75885416666667,26.930437250570833L103.10208333333333,26.855800639499336L105.4453125,26.781087300994187L107.78854166666667,26.69047220186755L110.13177083333333,26.63248544389552L112.47500000000001,26.570547223091154L114.81822916666667,26.510814916003852L117.16145833333334,26.457863395864308L119.5046875,26.4074918356809L121.84791666666668,26.36767029762271L124.19114583333332,26.322621703147917L126.534375,26.28654062747958L128.87760416666666,26.24445563012904L131.22083333333333,26.198419169946163L133.5640625,26.15758099339226L135.90729166666668,26.123187921263963L138.25052083333333,26.092525720596342L140.59375,26.054737459529548L142.93697916666665,26.02885154160589L145.28020833333335,25.998851115053355L147.6234375,25.968553369695485L149.96666666666667,25.94499804756859L152.30989583333331,25.914709893139957L154.65312500000002,25.896352854642032L156.99635416666666,25.872634486718624L159.33958333333334,25.851054896007895L161.68281249999998,25.830846808173447L164.02604166666669,25.810044082728325L166.36927083333333,25.787438262592673L168.7125,25.761878436261952L171.05572916666665,25.730496915903984L173.39895833333335,25.710192918777494L175.7421875,25.693427974527538L178.08541666666665,25.667964057488888L180.42864583333335,25.646662603725105L182.771875,25.631585663015187L185.11510416666667,25.616384040225654L187.45833333333331,25.596185543320416L189.80156250000002,25.57602541013199L192.14479166666666,25.561706152829288L194.48802083333334,25.54413557052615L196.83124999999998,25.529605312780916L199.17447916666669,25.518499016761808L201.51770833333333,25.51118113777855L203.8609375,25.500611933794914L206.20416666666665,25.485918630253195L208.54739583333335,25.47448624264112L210.890625,25.463341582905173L213.23385416666665,25.44590527361089L215.57708333333335,25.430281649936347L217.9203125,25.412749431350022L220.26354166666667,25.403321547941744L222.60677083333331,25.389194109223126L224.95000000000002,25.374961170283257L227.29322916666666,25.365849787538707L229.63645833333334,25.35566422072327L231.97968749999998,25.3452676534653L234.32291666666669,25.336798862977474L236.66614583333333,25.323496244170457L239.009375,25.312150174921214L241.35260416666665,25.300621878017097L243.69583333333335,25.288144079121707L246.0390625,25.27791055766022L248.38229166666665,25.270678997039823L250.72552083333335,25.26358170942828L253.06875,25.254700508984683L255.41197916666667,25.244841033762157L257.7552083333333,25.237081972035526" style="fill: none;" fill="none"></path></g><g><path stroke="rgb(51, 187, 238)" stroke-width="2px" d="M25.77552083333333,91.72007967125286L28.118750000000002,83.81711084734312L30.46197916666667,75.57217744263737L32.80520833333333,69.25550515001471L35.1484375,64.87276700409977L37.49166666666667,62.204253998669714L39.834895833333334,60.037624727595954L42.178125,58.03745562380011L44.52135416666666,56.36356034062128L46.86458333333333,55.039647655053585L49.207812499999996,53.659388260407894L51.55104166666666,52.41735333746131L53.89427083333334,51.337174935774385L56.237500000000004,50.34617299383338L58.58072916666667,49.50249731540681L60.92395833333334,48.78091416575694L63.2671875,47.96541663733396L65.61041666666667,47.109656388109386L67.95364583333334,46.53395127166402L70.296875,45.77834909612483L72.64010416666667,45.00243333252996L74.98333333333333,44.32123758576134L77.32656250000001,43.70258428833702L79.66979166666667,43.10539549047297L82.01302083333334,42.55294837734917" style="fill: none;" fill="none"></path></g><g><path stroke="rgb(0, 119, 187)" stroke-width="2px" d="M25.77552083333333,36.13330786878413L28.118750000000002,33.245680494741976L30.46197916666667,31.345928419720053L32.80520833333333,30.225074887275724L35.1484375,29.438570737838774L37.49166666666667,28.800256035544663L39.834895833333334,28.338884386149346L42.178125,27.91212640025401L44.52135416666666,27.55908429622653L46.86458333333333,27.295650243759184L49.207812499999996,27.142291285774945L51.55104166666666,27.030317187309294L53.89427083333334,26.90050396052277L56.237500000000004,26.819086562503486L58.58072916666667,26.66493155739525L60.92395833333334,26.568043990568697L63.2671875,26.493733471090138L65.61041666666667,26.47623002529147L67.95364583333334,26.408566019751817L70.296875,26.34957221421331L72.64010416666667,26.30886831066826L74.98333333333333,26.256319609555362L77.32656250000001,26.224851770834505L79.66979166666667,26.192846840078175L82.01302083333334,26.175554394722013L84.35625,26.143530282107292L86.69947916666668,26.102605787190555L89.04270833333332,26.094463088295697L91.3859375,26.07378504493022L93.72916666666666,26.049414493820905L96.07239583333333,26.029072132977603L98.41562499999999,26.014743284745663L100.75885416666667,26.009343591603397L103.10208333333333,25.989739732308834L105.4453125,25.969080870801747L107.78854166666667,25.937958305532277L110.13177083333333,25.93419866128403L112.47500000000001,25.9156306223436L114.81822916666667,25.90873474424535L117.16145833333334,25.91643626039678L119.5046875,25.907996242696584L121.84791666666668,25.885495922782212L124.19114583333332,25.866688110611676L126.534375,25.84959707476878L128.87760416666666,25.83917173472321L131.22083333333333,25.821773789145738L133.5640625,25.808346488259076L135.90729166666668,25.79943651502782L138.25052083333333,25.790114131840824L140.59375,25.7834484360435L142.93697916666665,25.768102949315846L145.28020833333335,25.75699665329674L147.6234375,25.75276705351746L149.96666666666667,25.746580904180348L152.30989583333331,25.743377533825992L154.65312500000002,25.732156146656394L156.99635416666666,25.719994848424733L159.33958333333334,25.712830424308805L161.68281249999998,25.71299347010529L164.02604166666669,25.707459503954112L166.36927083333333,25.69525025107646L168.7125,25.692018107934445L171.05572916666665,25.690694559704184L173.39895833333335,25.681698268110097L175.7421875,25.68056653846395L178.08541666666665,25.677756396206973L180.42864583333335,25.672184066338986L182.771875,25.671253746206105L185.11510416666667,25.658229264346062L187.45833333333331,25.65155397761953L189.80156250000002,25.646135102618842L192.14479166666666,25.645080100406318L194.48802083333334,25.640946409919053L196.83124999999998,25.63690862872386L199.17447916666669,25.636026263237028L201.51770833333333,25.62966747717425L203.8609375,25.621994733810453L206.20416666666665,25.618906454606503L208.54739583333335,25.6144466725263L210.890625,25.612950487570345L213.23385416666665,25.60539283535698L215.57708333333335,25.602649829604417L217.9203125,25.602266192436247L220.26354166666667,25.60143178159541L222.60677083333331,25.60017536986959L224.95000000000002,25.59585945172745L227.29322916666666,25.594698949293672L229.63645833333334,25.590536486018806L231.97968749999998,25.584340745752513L234.32291666666669,25.579967282035142L236.66614583333333,25.576936548406422L239.009375,25.57563218203461L241.35260416666665,25.56781557473272L243.69583333333335,25.565830252387315L246.0390625,25.559481057253777L248.38229166666665,25.558013645085452L250.72552083333335,25.558138327165096L253.06875,25.55865623734215L255.41197916666667,25.557630007917226L257.7552083333333,25.553198998624623" style="fill: none;" fill="none"></path></g><g><path stroke="rgb(187, 187, 187)" stroke-width="2px" d="M25.77552083333333,42.63046226718211L28.118750000000002,38.12804850665006L30.46197916666667,35.85467219352725L32.80520833333333,34.42352332852104L35.1484375,33.12409628521314L37.49166666666667,32.11849694902247L39.834895833333334,31.183093623681515L42.178125,30.53853522647512L44.52135416666666,29.986548477953136L46.86458333333333,29.404379075223744L49.207812499999996,28.96260169419378L51.55104166666666,28.63244354724887L53.89427083333334,28.361854661594748L56.237500000000004,28.124488754705965L58.58072916666667,27.96183618632233L60.92395833333334,27.767265005545198L63.2671875,27.595587372779875L65.61041666666667,27.442986098202823L67.95364583333334,27.34644380482763L70.296875,27.234862934459358L72.64010416666667,27.12304229086095L74.98333333333333,27.026576724919437L77.32656250000001,26.953369162299424L79.66979166666667,26.875174316492974L82.01302083333334,26.801717389713644L84.35625,26.736834753643393L86.69947916666668,26.65423767133194L89.04270833333332,26.595186320218204L91.3859375,26.53889715671542L93.72916666666666,26.49522006511691L96.07239583333333,26.464174227281063L98.41562499999999,26.408940065990805L100.75885416666667,26.363968198949635L103.10208333333333,26.31492977792567L105.4453125,26.263273033228813L107.78854166666667,26.221868991851835L110.13177083333333,26.188866604458212L112.47500000000001,26.146599379452823L114.81822916666667,26.11916932192719L117.16145833333334,26.094060269269107L119.5046875,26.057202328335165L121.84791666666668,26.024804169481456L124.19114583333332,26.001872257752865L126.534375,25.980848940936028L128.87760416666666,25.956535935401945L131.22083333333333,25.936586802655995L133.5640625,25.91828730973333L135.90729166666668,25.895221124995857L138.25052083333333,25.869987390258103L140.59375,25.85563936016777L142.93697916666665,25.838135914369076L145.28020833333335,25.816911188038944L147.6234375,25.793634002858937L149.96666666666667,25.771210410378217L152.30989583333331,25.76134134422651L154.65312500000002,25.74979386546397L156.99635416666666,25.731321735815584L159.33958333333334,25.714144381609856L161.68281249999998,25.698185075413107L164.02604166666669,25.691624879837065L166.36927083333333,25.685908686031013L168.7125,25.6724046577107L171.05572916666665,25.653903755274712L173.39895833333335,25.640140771865873L175.7421875,25.63264066522771L178.08541666666665,25.621908415447592L180.42864583333335,25.60980466279119L182.771875,25.591907988895088L185.11510416666667,25.584992928938448L187.45833333333331,25.57556504553014L189.80156250000002,25.565321933139472L192.14479166666666,25.55748614397919L194.48802083333334,25.549861355261385L196.83124999999998,25.540893836454927L199.17447916666669,25.532684001055657L201.51770833333333,25.523179390213727L203.8609375,25.514921600168407L206.20416666666665,25.50248216498983L208.54739583333335,25.493246100165635L210.890625,25.484240217642366L213.23385416666665,25.47451501542872L215.57708333333335,25.466420271179913L217.9203125,25.45806657184255L220.26354166666667,25.45714584263891L222.60677083333331,25.448197505690842L224.95000000000002,25.43769543821162L227.29322916666666,25.432669791308342L229.63645833333334,25.43035837737L231.97968749999998,25.425102548165768L234.32291666666669,25.419539809227018L236.66614583333333,25.410342108119636L239.009375,25.404654687101186L241.35260416666665,25.397864309224246L243.69583333333335,25.392023433338522L246.0390625,25.3850987824527L248.38229166666665,25.381885821169078L250.72552083333335,25.378356359221726L253.06875,25.37372394041583L255.41197916666667,25.368420156565605L257.7552083333333,25.369302522052436" style="fill: none;" fill="none"></path></g><g><path stroke="rgb(238, 51, 119)" stroke-width="2px" d="M25.77552083333333,56.23269211162223L28.118750000000002,49.12761666558008L30.46197916666667,44.542874368754326L32.80520833333333,41.73757553100589L35.1484375,39.72003725442022L37.49166666666667,38.12804850665006L39.834895833333334,36.93119645118716L42.178125,35.867341811006725L44.52135416666666,35.001894723285346L46.86458333333333,34.21455616300756L49.207812499999996,33.45983635295522L51.55104166666666,32.85623122345319L53.89427083333334,32.39810130812907L56.237500000000004,31.95384946736425L58.58072916666667,31.523235927928596L60.92395833333334,31.134582703763783L63.2671875,30.818465677174686L65.61041666666667,30.499480962753324L67.95364583333334,30.206075256521046L70.296875,29.94390720670873L72.64010416666667,29.70851703123614L74.98333333333333,29.48761874979192L77.32656250000001,29.279322949322818L79.66979166666667,29.085221724076717L82.01302083333334,28.917284553701222L84.35625,28.763724186203717L86.69947916666668,28.614508509635954L89.04270833333332,28.481367230415373L91.3859375,28.357414061372936L93.72916666666666,28.251865885474473L96.07239583333333,28.13595950603488L98.41562499999999,28.028483553366243L100.75885416666667,27.935585813088863L103.10208333333333,27.838084426793216L105.4453125,27.736391804435044L107.78854166666667,27.64034823937851L110.13177083333333,27.54745049910113L112.47500000000001,27.457430037585198L114.81822916666667,27.39054289731115L117.16145833333334,27.31654887849635L119.5046875,27.25172378800133L121.84791666666668,27.182755416089833L124.19114583333332,27.11963751099327L126.534375,27.049892273816226L128.87760416666666,26.99675852602178L131.22083333333333,26.944276961413323L133.5640625,26.89403967423874L135.90729166666668,26.840349652550458L138.25052083333333,26.7911673675884L140.59375,26.735607114705203L142.93697916666665,26.696370623328477L145.28020833333335,26.646229245445966L147.6234375,26.597257960926413L149.96666666666667,26.561359112912953L152.30989583333331,26.51640642773023L154.65312500000002,26.483240994540154L156.99635416666666,26.443899002942203L159.33958333333334,26.40787547284907L161.68281249999998,26.37372217395091L164.02604166666669,26.34260919961065L166.36927083333333,26.323101249608158L168.7125,26.298711516640424L171.05572916666665,26.269065954468488L173.39895833333335,26.237367933446706L175.7421875,26.208412918177544L178.08541666666665,26.17801926352763L180.42864583333335,26.15421457724139L182.771875,26.131100437857896L185.11510416666667,26.107017614624738L187.45833333333331,26.079808148470818L189.80156250000002,26.054977232759654L192.14479166666666,26.032946868376314L194.48802083333334,26.016728607091068L196.83124999999998,25.99170587279582L199.17447916666669,25.9683615511114L201.51770833333333,25.945132320577443L203.8609375,25.93040065331894L206.20416666666665,25.911170840263395L208.54739583333335,25.89099152521655L210.890625,25.872739986939877L213.23385416666665,25.859629186716973L215.57708333333335,25.845444202423124L217.9203125,25.831604491580634L220.26354166666667,25.82533202388072L222.60677083333331,25.80982349135661L224.95000000000002,25.79422864046967L227.29322916666666,25.781175385821967L229.63645833333334,25.767987858165412L231.97968749999998,25.755529241128414L234.32291666666669,25.740385163914084L236.66614583333333,25.72766759178856L239.009375,25.712331695990144L241.35260416666665,25.699374350634514L243.69583333333335,25.685064684260993L246.0390625,25.671867565675228L248.38229166666665,25.662497227842152L250.72552083333335,25.650192065672456L253.06875,25.639689998193234L255.41197916666667,25.62824801965195L257.7552083333333,25.618167953057736" style="fill: none;" fill="none"></path></g><g><path stroke="rgb(204, 51, 17)" stroke-width="2px" d="M25.77552083333333,50.53343588655646L28.118750000000002,44.8721693320708L30.46197916666667,43.28904260288587L32.80520833333333,41.75657516176051L35.1484375,40.388755202293424L37.49166666666667,39.451539191332756L39.834895833333334,38.54327819564128L42.178125,37.56762174042791L44.52135416666666,37.04940465363592L46.86458333333333,36.433465589176535L49.207812499999996,36.09876134178856L51.55104166666666,35.5443768609654L53.89427083333334,35.16881525516513L56.237500000000004,34.95545544407585L58.58072916666667,34.8288072239269L60.92395833333334,34.554132602431565L63.2671875,34.31848347187045L65.61041666666667,34.161786870522945L67.95364583333334,34.03158041563901L70.296875,33.604736111380845L72.64010416666667,33.187780055132805L74.98333333333333,32.786284576762824L77.32656250000001,32.4742149222981L79.66979166666667,32.13748698884791L82.01302083333334,31.845941922881394" style="fill: none;" fill="none"></path></g><g><path stroke="rgb(51, 187, 238)" stroke-width="2px" d="M25.77552083333333,44.75818113847214L28.118750000000002,43.31437224691564L30.46197916666667,42.95974763956937L32.80520833333333,44.501719691536664L35.1484375,44.29464193907651L37.49166666666667,44.637862931598335L39.834895833333334,44.443368478254854L42.178125,44.24050114371562L44.52135416666666,44.766630747101544L46.86458333333333,44.5416083660993L49.207812499999996,45.22794485092166L51.55104166666666,45.06214645775884L53.89427083333334,45.53562185981059L56.237500000000004,46.147714961658835L58.58072916666667,46.25519091432744L60.92395833333334,46.92153031175786L63.2671875,47.55864614790136L65.61041666666667,47.62469887733462L67.95364583333334,48.70967274362391L70.296875,47.887077927589445L72.64010416666667,47.106644836339086L74.98333333333333,46.37125074863437L77.32656250000001,45.658500844782054L79.66979166666667,45.019399686293184L82.01302083333334,44.40103411674502L84.35625,43.868219635703355L86.69947916666668,43.362221392718254L89.04270833333332,42.89099985902959L91.3859375,42.40379983728582L93.72916666666666,42.0643384890123L96.07239583333333,41.745545593175024L98.41562499999999,41.39917877587408L100.75885416666667,41.04963736100632L103.10208333333333,40.739648938179045L105.4453125,40.4050310091539L107.78854166666667,40.085844885219245L110.13177083333333,39.83730554580691L112.47500000000001,39.543861475857824L114.81822916666667,39.266434257680714L117.16145833333334,38.93449219790372L119.5046875,38.619660355828046L121.84791666666668,38.30988293344325L124.19114583333332,38.02599142898214L126.534375,37.75068380615929L128.87760416666666,37.495219815861105L131.22083333333333,37.24094510078433L133.5640625,37.00961188836533L135.90729166666668,36.80059676820582L138.25052083333333,36.58536672592166L140.59375,36.38027429580691L142.93697916666665,36.181732470339L145.28020833333335,35.99375025792557L147.6234375,35.81500411033633L149.96666666666667,35.644295161420644L152.30989583333331,35.47633880918676L154.65312500000002,35.31709102067083L156.99635416666666,35.16009710051799L159.33958333333334,35.006555914878874L161.68281249999998,34.860150380568086L164.02604166666669,34.72622264515272L166.36927083333333,34.596064144914806L168.7125,34.47316597808492L171.05572916666665,34.35175440528178L173.39895833333335,34.2341408404437L175.7421875,34.11255663091487L178.08541666666665,34.00155121629888L180.42864583333335,33.88819602402776L182.771875,33.78263825720006L185.11510416666667,33.6762940341776L187.45833333333331,33.57949278571391L189.80156250000002,33.47311978990382L192.14479166666666,33.37813122705981L194.48802083333334,33.28731471841985L196.83124999999998,33.19741893898359L199.17447916666669,33.10636265711352L201.51770833333333,33.02070606838575L203.8609375,32.9353084347465L206.20416666666665,32.84868316216904L208.54739583333335,32.76617239822042L210.890625,32.68572368405083L213.23385416666665,32.609610069881796L215.57708333333335,32.534426775845645L217.9203125,32.45739243247294L220.26354166666667,32.38943110812795L222.60677083333331,32.31725936586207L224.95000000000002,32.24632485346362L227.29322916666666,32.176579616286546L229.63645833333334,32.10841688242829L231.97968749999998,32.045634659853874L234.32291666666669,31.986775127324222L236.66614583333333,31.927129138599753L239.009375,31.8712523850528L241.35260416666665,31.810858303850353L243.69583333333335,31.750531359152376L246.0390625,31.694683378392995L248.38229166666665,31.635238799181877L250.72552083333335,31.583687554706245L253.06875,31.533574949611335L255.41197916666667,31.4810166575692L257.7552083333333,31.43141237172216" style="fill: none;" fill="none"></path></g><g><path stroke="rgb(0, 119, 187)" stroke-width="2px" d="M25.77552083333333,152.77814749628305L28.118750000000002,150.7074161280285L30.46197916666667,149.3459273807027L32.80520833333333,148.8741543685848L35.1484375,150.22487969561058L37.49166666666667,149.76387250152501L39.834895833333334,149.315169270743L42.178125,149.7005471925844L44.52135416666666,149.45146836340427L46.86458333333333,149.91711876609108L49.207812499999996,149.77308339016005L51.55104166666666,150.06150061433965L53.89427083333334,149.88467744805595L56.237500000000004,150.25690380822527L58.58072916666667,150.14635636047885L60.92395833333334,149.9783868207173L63.2671875,150.09837773713198L65.61041666666667,149.97284566136923L67.95364583333334,149.95051438158208L70.296875,149.3965866687623L72.64010416666667,148.8103770871054L74.98333333333333,148.08057570999318L77.32656250000001,147.38780491054058L79.66979166666667,146.60395025529644L82.01302083333334,145.8676054667343" style="fill: none;" fill="none"></path></g><g><path stroke="rgb(187, 187, 187)" stroke-width="2px" d="M25.77552083333333,42.78244013136083L28.118750000000002,38.489003127271474L30.46197916666667,35.96866038712591L32.80520833333333,34.319039745764314L35.1484375,33.09370263056323L37.49166666666667,32.112157344818144L39.834895833333334,31.367642283439665L42.178125,30.700008110566586L44.52135416666666,30.17652560364118L46.86458333333333,29.636153470386176L49.207812499999996,29.131852821870297L51.55104166666666,28.790761015631944L53.89427083333334,28.537215211174725L56.237500000000004,28.268323919989854L58.58072916666667,28.085952401161222L60.92395833333334,27.87412713874471L63.2671875,27.682759328321993L65.61041666666667,27.544314265251188L67.95364583333334,27.43843040683055L70.296875,27.30325585061854L72.64010416666667,27.175514264540254L74.98333333333333,27.045576355674058L77.32656250000001,26.925286921587883L79.66979166666667,26.803932894359946L82.01302083333334,26.701405861160993L84.35625,26.625771793452202L86.69947916666668,26.52758945118299L89.04270833333332,26.44592268900439L91.3859375,26.380368687889813L93.72916666666666,26.305252530358075L96.07239583333333,26.248464638536632L98.41562499999999,26.183351820165456L100.75885416666667,26.126784519715756L103.10208333333333,26.06685080311516L105.4453125,26.002735441381276L107.78854166666667,25.94113290309909L110.13177083333333,25.87977013804698L112.47500000000001,25.843641107732594L114.81822916666667,25.786958716132432L117.16145833333334,25.746408267454683L119.5046875,25.69578734311193L121.84791666666668,25.657519535584896L124.19114583333332,25.605133880268454" style="fill: none;" fill="none"></path></g><g><path stroke="rgb(255, 112, 67)" stroke-width="2px" d="M25.77552083333333,148.33272483538497L28.118750000000002,147.47783616185188L30.46197916666667,149.24460640685126L32.80520833333333,148.5891922766512L35.1484375,149.27500245923346L37.49166666666667,149.82719781046563L39.834895833333334,150.03164764832366L42.178125,150.7121660357172L44.52135416666666,151.24145824800837L46.86458333333333,151.41032513908365L49.207812499999996,151.2583448771726L51.55104166666666,151.7807771773501L53.89427083333334,152.07377766682345L56.237500000000004,151.89611949026585L58.58072916666667,151.9853169301694L60.92395833333334,152.10136057978326L63.2671875,152.29985684833744L65.61041666666667,152.38553201949054L67.95364583333334,152.59017187763345L70.296875,152.3772994056344L72.64010416666667,152.09423631768334L74.98333333333333,151.97507022118026L77.32656250000001,151.6977658867836L79.66979166666667,151.4894814755429L82.01302083333334,150.68082048134372" style="fill: none;" fill="none"></path></g><g><path stroke="rgb(238, 51, 119)" stroke-width="2px" d="M25.77552083333333,33.58763548460874L28.118750000000002,31.630894108252107L30.46197916666667,30.47204131429845L32.80520833333333,29.607649228789597L35.1484375,28.868648951703847L37.49166666666667,28.36331248283389L39.834895833333334,27.80153339559382L42.178125,27.4514357068322L44.52135416666666,27.259348576719105L46.86458333333333,27.018290162086515L49.207812499999996,26.82451502843338L51.55104166666666,26.634537902745365L53.89427083333334,26.400720639662325L56.237500000000004,26.287154446948676L58.58072916666667,26.252051646059215L60.92395833333334,26.20472041043371L63.2671875,26.192012429237394L65.61041666666667,26.100495782765506L67.95364583333334,26.090607534755378L70.296875,26.03802046992564L72.64010416666667,25.95967216925189L74.98333333333333,25.89363862167707L77.32656250000001,25.826732299544602L79.66979166666667,25.78598044135356L82.01302083333334,25.74848949909213L84.35625,25.73288505727595L86.69947916666668,25.708581642671078L89.04270833333332,25.662948001514792L91.3859375,25.63225702805954L93.72916666666666,25.609938935800045L96.07239583333333,25.604999607259572L98.41562499999999,25.576610456813484L100.75885416666667,25.55916455659002L103.10208333333333,25.55615300481969L105.4453125,25.539196241985678L107.78854166666667,25.513684370301007L110.13177083333333,25.493658510121463L112.47500000000001,25.484690991315006L114.81822916666667,25.47617424618116L117.16145833333334,25.474735606800436L119.5046875,25.474304014986217L121.84791666666668,25.464837767861127L124.19114583333332,25.46110689640048L126.534375,25.45237915082413L128.87760416666666,25.449933463876903L131.22083333333333,25.451736558567404L133.5640625,25.445377772504628L135.90729166666668,25.43769543821162L138.25052083333333,25.42257054285571L140.59375,25.424018773165642L142.93697916666665,25.416461120952277L145.28020833333335,25.410658608783393L147.6234375,25.41009274396032L149.96666666666667,25.404625914313584L152.30989583333331,25.40488486940211L154.65312500000002,25.40309136564082L156.99635416666666,25.39270438931206L159.33958333333334,25.37939217957586L161.68281249999998,25.374903624707997L164.02604166666669,25.366770516742378L166.36927083333333,25.357659133997856L168.7125,25.352508805014878L171.05572916666665,25.349343798377305L173.39895833333335,25.34567047249189" style="fill: none;" fill="none"></path></g><g><path stroke="rgb(204, 51, 17)" stroke-width="2px" d="M25.77552083333333,46.96189853278074L28.118750000000002,43.447350480339765L30.46197916666667,41.5286083654924L32.80520833333333,40.08478988300672L35.1484375,38.542194420641124L37.49166666666667,37.69110495393926L39.834895833333334,36.8335032463074L42.178125,36.760218956253766L44.52135416666666,36.340165029872566L46.86458333333333,35.82174653356725L49.207812499999996,35.55992375720632L51.55104166666666,35.34173970872706L53.89427083333334,35.20680492574519L56.237500000000004,35.02873014320028L58.58072916666667,34.84907285733658L60.92395833333334,34.67524685642937L63.2671875,34.58668421615255L65.61041666666667,34.495292251760304L67.95364583333334,34.309544725851595L70.296875,33.88969220898369L72.64010416666667,33.54421734809878L74.98333333333333,33.22150176221675L77.32656250000001,32.87068475376478L79.66979166666667,32.57126553492114L82.01302083333334,32.298844781788944" style="fill: none;" fill="none"></path></g><g><path stroke="rgb(255, 112, 67)" stroke-width="2px" d="M25.77552083333333,142.74745080958712L28.118750000000002,145.02715473825282L30.46197916666667,135.75635876167905L32.80520833333333,131.27294223416936L35.1484375,126.13600938157603L37.49166666666667,123.3952982588248L39.834895833333334,122.08899212154475L42.178125,119.19526251879606L44.52135416666666,116.78838047114286L46.86458333333333,114.84007911248642L49.207812499999996,112.69680854949084L51.55104166666666,110.66062071106651L53.89427083333334,109.60699000141838L56.237500000000004,108.06881595741619L58.58072916666667,107.22966719757427L60.92395833333334,106.35055783120069L63.2671875,105.42512427676809L65.61041666666667,104.76294254714793L67.95364583333334,105.40030295198615L70.296875,103.5783429037441L72.64010416666667,101.85571610927583L74.98333333333333,100.19125350496986L77.32656250000001,98.72438801960513L79.66979166666667,97.26102801886472L82.01302083333334,95.9360123764385" style="fill: none;" fill="none"></path></g><g><path stroke="rgb(0, 153, 136)" stroke-width="2px" d="M25.77552083333333,147.49683339487422L28.118750000000002,147.15487840500745L30.46197916666667,146.6229474883188L32.80520833333333,144.49522382156414L35.1484375,142.15472778813404L37.49166666666667,141.48728183724666L39.834895833333334,139.09992452372205L42.178125,136.34053266861224L44.52135416666666,134.4856349717487L46.86458333333333,131.998647085645L49.207812499999996,130.35760553045708L51.55104166666666,128.60062162984502L53.89427083333334,125.57368361137131L56.237500000000004,123.679357604547L58.58072916666667,121.22451371767305L60.92395833333334,118.8651810992848L63.2671875,116.37440719387749L65.61041666666667,113.89442308382556L67.95364583333334,111.4675151759928L70.296875,108.90334668484601L72.64010416666667,106.57072240656073L74.98333333333333,104.44497447122228L77.32656250000001,102.39834690635855L79.66979166666667,100.53176985545593L82.01302083333334,98.71725236827677" style="fill: none;" fill="none"></path></g><g><path stroke="rgb(51, 187, 238)" stroke-width="2px" d="M25.77552083333333,59.272297349843114L28.118750000000002,58.417409875176176L30.46197916666667,55.764088901606485L32.80520833333333,55.78625353899869L35.1484375,55.442399545149385L37.49166666666667,54.91553144021469L39.834895833333334,55.31538686969064L42.178125,55.425298918377294L44.52135416666666,55.363025015050724L46.86458333333333,54.28734475916083L49.207812499999996,53.773376454006566L51.55104166666666,53.4843825752085L53.89427083333334,53.178470297293245L56.237500000000004,53.3586359024048L58.58072916666667,53.768082261085524L60.92395833333334,53.48042152144694L63.2671875,53.18191344087775L65.61041666666667,52.979890108108535L67.95364583333334,52.52117514610292L70.296875,51.716975732283174L72.64010416666667,50.93147863041273L74.98333333333333,50.24329109625384L77.32656250000001,49.59511691873725L79.66979166666667,48.97563880140132L82.01302083333334,48.41178807345304" style="fill: none;" fill="none"></path></g><g><path stroke="rgb(0, 119, 187)" stroke-width="2px" d="M25.77552083333333,95.86154360662808L28.118750000000002,91.45411840894006L30.46197916666667,92.17602285471831L32.80520833333333,91.2071471864527L35.1484375,87.90537869388407L37.49166666666667,87.02135877175766L39.834895833333334,83.96366024559195L42.178125,82.39229199561207L44.52135416666666,80.47776509415021L46.86458333333333,79.39447923140094L49.207812499999996,77.924419966611L51.55104166666666,77.3357862775976L53.89427083333334,76.10996002500708L56.237500000000004,75.29264022003522L58.58072916666667,75.43793320655824L60.92395833333334,75.12810782952744L63.2671875,74.61783203211698L65.61041666666667,74.35844535177405L67.95364583333334,73.81440948356284L70.296875,72.61806574734776L72.64010416666667,71.42710252241656L74.98333333333333,70.30813840302555L77.32656250000001,69.25674237988214L79.66979166666667,68.2882119850679L82.01302083333334,67.47467100620271" style="fill: none;" fill="none"></path></g><g><path stroke="rgb(187, 187, 187)" stroke-width="2px" d="M25.77552083333333,40.464744134382784L28.118750000000002,36.74122891642833L30.46197916666667,34.638830098238884L32.80520833333333,33.407162969762624L35.1484375,32.219815525141655L37.49166666666667,31.326928788965404L39.834895833333334,30.53174484859815L42.178125,29.96385633945468L44.52135416666666,29.52216527678752L46.86458333333333,29.13841301744634L49.207812499999996,28.751898570494234L51.55104166666666,28.436136408285677L53.89427083333334,28.233249891888022L56.237500000000004,28.037642890756786L58.58072916666667,27.865581620823264L60.92395833333334,27.731644294478684L63.2671875,27.57547519423747L65.61041666666667,27.476765350861996L67.95364583333334,27.36244147474116L70.296875,27.267155593091786L72.64010416666667,27.164657332680463L74.98333333333333,27.071481455456137L77.32656250000001,26.996317343278378L79.66979166666667,26.916338584639817L82.01302083333334,26.842747384851634L84.35625,26.768983548337758L86.69947916666668,26.70771669257772L89.04270833333332,26.650823300535023L91.3859375,26.580819108269452L93.72916666666666,26.530687321316123L96.07239583333333,26.500945849852144L98.41562499999999,26.464749683033347L100.75885416666667,26.412325664000093L103.10208333333333,26.36075523766607L105.4453125,26.320809017528205L107.78854166666667,26.278858293186545L110.13177083333333,26.251504963094533L112.47500000000001,26.230587146498948L114.81822916666667,26.199061762202888L117.16145833333334,26.165301691402107L119.5046875,26.13782367923045L121.84791666666668,26.1071327057752L124.19114583333332,26.080517877231955L126.534375,26.060300198468326L128.87760416666666,26.035056872801363L131.22083333333333,26.00514276461169L133.5640625,25.98215330730787L135.90729166666668,25.963297540491283L138.25052083333333,25.943645726550727L140.59375,25.927072600884884L142.93697916666665,25.916359532963156L145.28020833333335,25.903862552209347L147.6234375,25.87893572720617L149.96666666666667,25.86689911105418L152.30989583333331,25.85391299291092L154.65312500000002,25.84139683029869L156.99635416666666,25.82664598118177L159.33958333333334,25.80453888936478L161.68281249999998,25.796712691133678L164.02604166666669,25.784081437371015L166.36927083333333,25.77310941436076L168.7125,25.76923467896202L171.05572916666665,25.747386542233585L173.39895833333335,25.740471482276945L175.7421875,25.719735893336235L178.08541666666665,25.71517061103475L180.42864583333335,25.701676173643648L182.771875,25.69136592474854L185.11510416666667,25.682455951517284L187.45833333333331,25.675982074304073L189.80156250000002,25.668606649745612L192.14479166666666,25.661442225629628L194.48802083333334,25.652388388460338L196.83124999999998,25.637934858148753L199.17447916666669,25.628938566554694L201.51770833333333,25.624670603058576L203.8609375,25.622493462129086L206.20416666666665,25.619875138456166L208.54739583333335,25.613477988676607L210.890625,25.603445876728415L213.23385416666665,25.593663128939568L215.57708333333335,25.588752573186696L217.9203125,25.579833009026288L220.26354166666667,25.567057891325533L222.60677083333331,25.559059056368767L224.95000000000002,25.55609545924449L227.29322916666666,25.556699687784374L229.63645833333334,25.546063347296297L231.97968749999998,25.540366335348665L234.32291666666669,25.533528002825676L236.66614583333333,25.52725553512576L239.009375,25.523179390213727L241.35260416666665,25.512667731805294L243.69583333333335,25.510452227158993L246.0390625,25.507488630034715L248.38229166666665,25.499432249502718L250.72552083333335,25.49312141808599L253.06875,25.4865420406515L255.41197916666667,25.481641075827866L257.7552083333333,25.477210066535264" style="fill: none;" fill="none"></path></g><g><path stroke="rgb(238, 51, 119)" stroke-width="2px" d="M25.77552083333333,138.79596399989995L28.118750000000002,139.97381162914363L30.46197916666667,134.48985737833112L32.80520833333333,130.28506933288142L35.1484375,124.32744546370074L37.49166666666667,118.11398595571518L39.834895833333334,112.68249888311733L42.178125,107.86323438991201L44.52135416666666,103.74762759967285L46.86458333333333,99.43687896836889L49.207812499999996,95.80627587708561L51.55104166666666,92.65096087347378L53.89427083333334,90.26457943699577L56.237500000000004,87.67360909418628L58.58072916666667,85.33184466036884L60.92395833333334,83.2614315910773L63.2671875,81.24014805663715L65.61041666666667,79.4181208718907L67.95364583333334,77.73389615795831L70.296875,75.9331320632588L72.64010416666667,74.27491794932975L74.98333333333333,72.7260020646182L77.32656250000001,71.28039007837123L79.66979166666667,69.92991051890634L82.01302083333334,68.67075578732926" style="fill: none;" fill="none"></path></g><g><path stroke="rgb(204, 51, 17)" stroke-width="2px" d="M25.77552083333333,31.00397342985326L28.118750000000002,30.073087432167767L30.46197916666667,29.420846700668363L32.80520833333333,28.315818201411872L35.1484375,27.911176898262738L37.49166666666667,27.39443681456828L39.834895833333334,27.068767222491203L42.178125,26.93374612114647L44.52135416666666,26.870954307642876L46.86458333333333,26.71813244169408L49.207812499999996,26.568907174197136L51.55104166666666,26.539549339901328L53.89427083333334,26.412411982362926L56.237500000000004,26.317011009563117L58.58072916666667,26.26218925822866L60.92395833333334,26.20472041043371L63.2671875,26.21212460777977L65.61041666666667,26.22292399406436L67.95364583333334,26.25058423389089L70.296875,26.201392357999623L72.64010416666667,26.127935431220322L74.98333333333333,26.047342853112667L77.32656250000001,25.975410884076894L79.66979166666667,25.909463654864936L82.01302083333334,25.835124362598776L84.35625,25.762118209492087L86.69947916666668,25.707181367007195L89.04270833333332,25.67109070040965L91.3859375,25.634875351732433L93.72916666666666,25.588407299735337L96.07239583333333,25.54494120857933L98.41562499999999,25.520810430700124L100.75885416666667,25.488930182023495L103.10208333333333,25.454460382461576L105.4453125,25.428468964316636L107.78854166666667,25.395476167852223L110.13177083333333,25.378644087097882L112.47500000000001,25.35870454528117L114.81822916666667,25.347579067403615L117.16145833333334,25.33226235346362L119.5046875,25.32231655987829L121.84791666666668,25.308332985097707L124.19114583333332,25.294109637087047L126.534375,25.279665697704672L128.87760416666666,25.27262595566839L131.22083333333333,25.255151282657295L133.5640625,25.241656845266164L135.90729166666668,25.228718681768953L138.25052083333333,25.220969210971504L140.59375,25.202123035084128L142.93697916666665,25.189980918710887L145.28020833333335,25.176112435080796L147.6234375,25.158465125344037L149.96666666666667,25.14569959857249L152.30989583333331,25.133384845473557L154.65312500000002,25.12355414303869L156.99635416666666,25.116073218258975L159.33958333333334,25.106875517151593L161.68281249999998,25.103787237947643L164.02604166666669,25.093208443034797L166.36927083333333,25.086082382635652L168.7125,25.076740817590206L171.05572916666665,25.0652796571905L173.39895833333335,25.05655191161418L175.7421875,25.0457621162588L178.08541666666665,25.03586427731949L180.42864583333335,25.034780502319364L182.771875,25.030924948779045L185.11510416666667,25.02553484656596L187.45833333333331,25.018667741255342L189.80156250000002,25.011455362493336L192.14479166666666,25.000224384394585L194.48802083333334,24.99398068948227L196.83124999999998,24.99048000032252L199.17447916666669,24.98099457133901L201.51770833333333,24.973753419789432L203.8609375,24.971144687045722L206.20416666666665,24.96713567863813L208.54739583333335,24.956499338150053L210.890625,24.952778057618588L213.23385416666665,24.94821277531713L215.57708333333335,24.940981214696706L217.9203125,24.939408302307157L220.26354166666667,24.939235665581464L222.60677083333331,24.93817107243973L224.95000000000002,24.92962555451828L227.29322916666666,24.922576221552788L229.63645833333334,24.91698470982641L231.97968749999998,24.913234656507314L234.32291666666669,24.914203340357005L236.66614583333333,24.9105683781884L239.009375,24.90452609278941L241.35260416666665,24.897793260487674L243.69583333333335,24.894446026195197L246.0390625,24.890763109380543L248.38229166666665,24.88716651092878L250.72552083333335,24.88245736468923L253.06875,24.877460490573554L255.41197916666667,24.874103665351896L257.7552083333333,24.870046702298282" style="fill: none;" fill="none"></path></g><g><path stroke="rgb(255, 112, 67)" stroke-width="2px" d="M25.77552083333333,59.0823202241551L28.118750000000002,53.497052192688L30.46197916666667,49.811526645313634L32.80520833333333,47.18037030913615L35.1484375,44.8341700705615L37.49166666666667,43.43469045378947L39.834895833333334,42.179947549646556L42.178125,40.920687317848234L44.52135416666666,40.114339535886586L46.86458333333333,39.33248698711398L49.207812499999996,38.71696992353961L51.55104166666666,38.04255496371877L53.89427083333334,37.51574440435931L56.237500000000004,37.09132660518995L58.58072916666667,36.80708023634824L60.92395833333334,36.572620381008505L63.2671875,36.33892780000514L65.61041666666667,36.029869697310716L67.95364583333334,35.68735843355006L70.296875,35.2233205058358L72.64010416666667,34.76910368962723L74.98333333333333,34.328534765677034L77.32656250000001,33.91637417403135L79.66979166666667,33.52588908238846L82.01302083333334,33.2000852173025" style="fill: none;" fill="none"></path></g><g><path stroke="rgb(0, 153, 136)" stroke-width="2px" d="M25.77552083333333,146.6229474883188L28.118750000000002,147.47783616185188L30.46197916666667,147.19287287105215L32.80520833333333,149.7765373235399L35.1484375,149.14581983604214L37.49166666666667,148.86465575207365L39.834895833333334,149.02749174697834L42.178125,148.94064588302916L44.52135416666666,149.19816832650793L46.86458333333333,149.0242356265133L49.207812499999996,148.8059364868836L51.55104166666666,148.79183182662183L53.89427083333334,149.02540452101013L56.237500000000004,149.36944793571126L58.58072916666667,149.24207320267504L60.92395833333334,148.99288887327367L63.2671875,149.29154201664707L65.61041666666667,149.42191751165825L67.95364583333334,149.38058899884874L70.296875,149.42128331146458L72.64010416666667,149.19756529683417L74.98333333333333,148.8335691527887L77.32656250000001,148.07997507805175L79.66979166666667,147.17070943252608L82.01302083333334,146.22019919482145" style="fill: none;" fill="none"></path></g><g><path stroke="rgb(0, 119, 187)" stroke-width="2px" d="M25.77552083333333,49.43157239393756L28.118750000000002,43.523349003358334L30.46197916666667,40.300096652724534L32.80520833333333,38.09955385598272L35.1484375,36.688028032129466L37.49166666666667,35.39239899678665L39.834895833333334,34.52665459025991L42.178125,33.57814046469602L44.52135416666666,32.823516563935726L46.86458333333333,32.21601751717657L49.207812499999996,31.687883409586846L51.55104166666666,31.184445944699405L53.89427083333334,30.78184750947088L56.237500000000004,30.431327819824247L58.58072916666667,30.112352696332096L60.92395833333334,29.788131334564923L63.2671875,29.540042768825202L65.61041666666667,29.26252923228526L67.95364583333334,29.0602277625691L70.296875,28.857254927808583L72.64010416666667,28.666366663846134L74.98333333333333,28.50493214347148L77.32656250000001,28.357529152523398L79.66979166666667,28.20816961201757L82.01302083333334,28.084427443417667L84.35625,27.95267684893176L86.69947916666668,27.846159989183604L89.04270833333332,27.74182027036494L91.3859375,27.655166224999874L93.72916666666666,27.548956274986296L96.07239583333333,27.466752420772224L98.41562499999999,27.38968930461192L100.75885416666667,27.310391501946896L103.10208333333333,27.246928323398947L105.4453125,27.1675537933003L107.78854166666667,27.099976106123506L110.13177083333333,27.041193301027477L112.47500000000001,26.982496814294308L114.81822916666667,26.93850322203204L117.16145833333334,26.885302337733208L119.5046875,26.83656123551458L121.84791666666668,26.78471267223361L124.19114583333332,26.737036163156688L126.534375,26.696715896779835L128.87760416666666,26.653115532614976L131.22083333333333,26.608105301857023L133.5640625,26.57471927729523L135.90729166666668,26.527675769545823L138.25052083333333,26.494961110028385L140.59375,26.452166383916676L142.93697916666665,26.429666064002305L145.28020833333335,26.39926281842321L147.6234375,26.365704157135724L149.96666666666667,26.3270623033697L152.30989583333331,26.2960356473923L154.65312500000002,26.27086904915899L156.99635416666666,26.239919120615184L159.33958333333334,26.21594179760328L161.68281249999998,26.185682415962248L164.02604166666669,26.167833696712165L166.36927083333333,26.149323203346967L168.7125,26.124674515290707L171.05572916666665,26.103814244270353L173.39895833333335,26.081831834533006L175.7421875,26.059350696477054L178.08541666666665,26.03928647258067L180.42864583333335,26.017543836073457L182.771875,25.999800617044627L185.11510416666667,25.98531831394544L187.45833333333331,25.97179510376671L189.80156250000002,25.95758134668523L192.14479166666666,25.939550399780302L194.48802083333334,25.921998999335557L196.83124999999998,25.90236636725342L199.17447916666669,25.883759964596152L201.51770833333333,25.861134962602108L203.8609375,25.84305606105113L206.20416666666665,25.830798853527426L208.54739583333335,25.81884855573827L210.890625,25.803867524320424L213.23385416666665,25.79255022785881L215.57708333333335,25.77872010794556L217.9203125,25.773013505068718L220.26354166666667,25.761561935598195L222.60677083333331,25.750369321216255L224.95000000000002,25.73768052187836L227.29322916666666,25.723092718557893L229.63645833333334,25.707977414131193L231.97968749999998,25.69533656943929L234.32291666666669,25.685927867889433L236.66614583333333,25.670045289126335L239.009375,25.65905408425766L241.35260416666665,25.647075013680904L243.69583333333335,25.632928393103867L246.0390625,25.61746781522578L248.38229166666665,25.614609718322782L250.72552083333335,25.607886476950227L253.06875,25.59626227075404L255.41197916666667,25.591016032479047L257.7552083333333,25.579794645309477" style="fill: none;" fill="none"></path></g></g></g></g></g></g><g transform="translate(48, 177)" clip-path="url(#clip_1)"><clipPath id="clip_1"><rect width="281" height="23"></rect></clipPath><g><g><line x1="0" y1="0" x2="0" y2="5" style="visibility: inherit;" fill="rgb(0, 0, 0)" stroke="rgb(204, 204, 204)" stroke-width="1px"></line><line x1="23.432291666666664" y1="0" x2="23.432291666666664" y2="5" style="visibility: inherit;" fill="rgb(0, 0, 0)" stroke="rgb(204, 204, 204)" stroke-width="1px"></line><line x1="46.86458333333333" y1="0" x2="46.86458333333333" y2="5" style="visibility: inherit;" fill="rgb(0, 0, 0)" stroke="rgb(204, 204, 204)" stroke-width="1px"></line><line x1="70.296875" y1="0" x2="70.296875" y2="5" style="visibility: inherit;" fill="rgb(0, 0, 0)" stroke="rgb(204, 204, 204)" stroke-width="1px"></line><line x1="93.72916666666666" y1="0" x2="93.72916666666666" y2="5" style="visibility: inherit;" fill="rgb(0, 0, 0)" stroke="rgb(204, 204, 204)" stroke-width="1px"></line><line x1="117.16145833333334" y1="0" x2="117.16145833333334" y2="5" style="visibility: inherit;" fill="rgb(0, 0, 0)" stroke="rgb(204, 204, 204)" stroke-width="1px"></line><line x1="140.59375" y1="0" x2="140.59375" y2="5" style="visibility: inherit;" fill="rgb(0, 0, 0)" stroke="rgb(204, 204, 204)" stroke-width="1px"></line><line x1="164.02604166666669" y1="0" x2="164.02604166666669" y2="5" style="visibility: inherit;" fill="rgb(0, 0, 0)" stroke="rgb(204, 204, 204)" stroke-width="1px"></line><line x1="187.45833333333331" y1="0" x2="187.45833333333331" y2="5" style="visibility: inherit;" fill="rgb(0, 0, 0)" stroke="rgb(204, 204, 204)" stroke-width="1px"></line><line x1="210.890625" y1="0" x2="210.890625" y2="5" style="visibility: inherit;" fill="rgb(0, 0, 0)" stroke="rgb(204, 204, 204)" stroke-width="1px"></line><line x1="234.32291666666669" y1="0" x2="234.32291666666669" y2="5" style="visibility: inherit;" fill="rgb(0, 0, 0)" stroke="rgb(204, 204, 204)" stroke-width="1px"></line><line x1="257.7552083333333" y1="0" x2="257.7552083333333" y2="5" style="visibility: inherit;" fill="rgb(0, 0, 0)" stroke="rgb(204, 204, 204)" stroke-width="1px"></line><line x1="281.1875" y1="0" x2="281.1875" y2="5" style="visibility: inherit;" fill="rgb(0, 0, 0)" stroke="rgb(204, 204, 204)" stroke-width="1px"></line></g><g transform="translate(0, 8)"><text x="0" y="0" dx="0em" dy="0.95em" style="text-anchor: middle; visibility: hidden; font-family: &quot;Helvetica Neue&quot;, sans-serif; font-size: 12px; font-weight: 200;" fill="rgb(50, 49, 63)" stroke="none" stroke-width="1px">-10</text><text x="23.432291666666664" y="0" dx="0em" dy="0.95em" style="text-anchor: middle; visibility: inherit; font-family: &quot;Helvetica Neue&quot;, sans-serif; font-size: 12px; font-weight: 200;" fill="rgb(50, 49, 63)" stroke="none" stroke-width="1px">0</text><text x="46.86458333333333" y="0" dx="0em" dy="0.95em" style="text-anchor: middle; visibility: inherit; font-family: &quot;Helvetica Neue&quot;, sans-serif; font-size: 12px; font-weight: 200;" fill="rgb(50, 49, 63)" stroke="none" stroke-width="1px">10</text><text x="70.296875" y="0" dx="0em" dy="0.95em" style="text-anchor: middle; visibility: inherit; font-family: &quot;Helvetica Neue&quot;, sans-serif; font-size: 12px; font-weight: 200;" fill="rgb(50, 49, 63)" stroke="none" stroke-width="1px">20</text><text x="93.72916666666666" y="0" dx="0em" dy="0.95em" style="text-anchor: middle; visibility: inherit; font-family: &quot;Helvetica Neue&quot;, sans-serif; font-size: 12px; font-weight: 200;" fill="rgb(50, 49, 63)" stroke="none" stroke-width="1px">30</text><text x="117.16145833333334" y="0" dx="0em" dy="0.95em" style="text-anchor: middle; visibility: inherit; font-family: &quot;Helvetica Neue&quot;, sans-serif; font-size: 12px; font-weight: 200;" fill="rgb(50, 49, 63)" stroke="none" stroke-width="1px">40</text><text x="140.59375" y="0" dx="0em" dy="0.95em" style="text-anchor: middle; visibility: inherit; font-family: &quot;Helvetica Neue&quot;, sans-serif; font-size: 12px; font-weight: 200;" fill="rgb(50, 49, 63)" stroke="none" stroke-width="1px">50</text><text x="164.02604166666669" y="0" dx="0em" dy="0.95em" style="text-anchor: middle; visibility: inherit; font-family: &quot;Helvetica Neue&quot;, sans-serif; font-size: 12px; font-weight: 200;" fill="rgb(50, 49, 63)" stroke="none" stroke-width="1px">60</text><text x="187.45833333333331" y="0" dx="0em" dy="0.95em" style="text-anchor: middle; visibility: inherit; font-family: &quot;Helvetica Neue&quot;, sans-serif; font-size: 12px; font-weight: 200;" fill="rgb(50, 49, 63)" stroke="none" stroke-width="1px">70</text><text x="210.890625" y="0" dx="0em" dy="0.95em" style="text-anchor: middle; visibility: inherit; font-family: &quot;Helvetica Neue&quot;, sans-serif; font-size: 12px; font-weight: 200;" fill="rgb(50, 49, 63)" stroke="none" stroke-width="1px">80</text><text x="234.32291666666669" y="0" dx="0em" dy="0.95em" style="text-anchor: middle; visibility: inherit; font-family: &quot;Helvetica Neue&quot;, sans-serif; font-size: 12px; font-weight: 200;" fill="rgb(50, 49, 63)" stroke="none" stroke-width="1px">90</text><text x="257.7552083333333" y="0" dx="0em" dy="0.95em" style="text-anchor: middle; visibility: inherit; font-family: &quot;Helvetica Neue&quot;, sans-serif; font-size: 12px; font-weight: 200;" fill="rgb(50, 49, 63)" stroke="none" stroke-width="1px">100</text><text x="281.1875" y="0" dx="0em" dy="0.95em" style="text-anchor: middle; visibility: hidden; font-family: &quot;Helvetica Neue&quot;, sans-serif; font-size: 12px; font-weight: 200;" fill="rgb(50, 49, 63)" stroke="none" stroke-width="1px">110</text></g><line x1="0" y1="0" x2="281.1875" y2="0" fill="rgb(0, 0, 0)" stroke="rgb(204, 204, 204)" stroke-width="1px"></line></g></g></g></g></svg>