<svg viewBox="0 0 330 200" xmlns="http://www.w3.org/2000/svg"><g><g><g><g><g><line x1="48.8125" y1="177" x2="43.8125" y2="177" style="visibility: inherit;" fill="rgb(0, 0, 0)" stroke="rgb(204, 204, 204)" stroke-width="1px"></line><line x1="48.8125" y1="159.3" x2="43.8125" y2="159.3" style="visibility: inherit;" fill="rgb(0, 0, 0)" stroke="rgb(204, 204, 204)" stroke-width="1px"></line><line x1="48.8125" y1="141.60000000000002" x2="43.8125" y2="141.60000000000002" style="visibility: inherit;" fill="rgb(0, 0, 0)" stroke="rgb(204, 204, 204)" stroke-width="1px"></line><line x1="48.8125" y1="123.90000000000003" x2="43.8125" y2="123.90000000000003" style="visibility: inherit;" fill="rgb(0, 0, 0)" stroke="rgb(204, 204, 204)" stroke-width="1px"></line><line x1="48.8125" y1="106.20000000000002" x2="43.8125" y2="106.20000000000002" style="visibility: inherit;" fill="rgb(0, 0, 0)" stroke="rgb(204, 204, 204)" stroke-width="1px"></line><line x1="48.8125" y1="88.5" x2="43.8125" y2="88.5" style="visibility: inherit;" fill="rgb(0, 0, 0)" stroke="rgb(204, 204, 204)" stroke-width="1px"></line><line x1="48.8125" y1="70.80000000000003" x2="43.8125" y2="70.80000000000003" style="visibility: inherit;" fill="rgb(0, 0, 0)" stroke="rgb(204, 204, 204)" stroke-width="1px"></line><line x1="48.8125" y1="53.10000000000001" x2="43.8125" y2="53.10000000000001" style="visibility: inherit;" fill="rgb(0, 0, 0)" stroke="rgb(204, 204, 204)" stroke-width="1px"></line><line x1="48.8125" y1="35.400000000000034" x2="43.8125" y2="35.400000000000034" style="visibility: inherit;" fill="rgb(0, 0, 0)" stroke="rgb(204, 204, 204)" stroke-width="1px"></line><line x1="48.8125" y1="17.700000000000017" x2="43.8125" y2="17.700000000000017" style="visibility: inherit;" fill="rgb(0, 0, 0)" stroke="rgb(204, 204, 204)" stroke-width="1px"></line><line x1="48.8125" y1="0" x2="43.8125" y2="0" style="visibility: inherit;" fill="rgb(0, 0, 0)" stroke="rgb(204, 204, 204)" stroke-width="1px"></line></g><g transform="translate(38.8125, 0)"><text x="0" y="177" dx="0em" dy="0.3em" style="text-anchor: end; visibility: hidden; font-family: &quot;Helvetica Neue&quot;, sans-serif; font-size: 12px; font-weight: 200;" fill="rgb(50, 49, 63)" stroke="none" stroke-width="1px">0.55</text><text x="0" y="159.3" dx="0em" dy="0.3em" style="text-anchor: end; visibility: inherit; font-family: &quot;Helvetica Neue&quot;, sans-serif; font-size: 12px; font-weight: 200;" fill="rgb(50, 49, 63)" stroke="none" stroke-width="1px">0.6</text><text x="0" y="141.60000000000002" dx="0em" dy="0.3em" style="text-anchor: end; visibility: hidden; font-family: &quot;Helvetica Neue&quot;, sans-serif; font-size: 12px; font-weight: 200;" fill="rgb(50, 49, 63)" stroke="none" stroke-width="1px">0.65</text><text x="0" y="123.90000000000003" dx="0em" dy="0.3em" style="text-anchor: end; visibility: inherit; font-family: &quot;Helvetica Neue&quot;, sans-serif; font-size: 12px; font-weight: 200;" fill="rgb(50, 49, 63)" stroke="none" stroke-width="1px">0.7</text><text x="0" y="106.20000000000002" dx="0em" dy="0.3em" style="text-anchor: end; visibility: hidden; font-family: &quot;Helvetica Neue&quot;, sans-serif; font-size: 12px; font-weight: 200;" fill="rgb(50, 49, 63)" stroke="none" stroke-width="1px">0.75</text><text x="0" y="88.5" dx="0em" dy="0.3em" style="text-anchor: end; visibility: inherit; font-family: &quot;Helvetica Neue&quot;, sans-serif; font-size: 12px; font-weight: 200;" fill="rgb(50, 49, 63)" stroke="none" stroke-width="1px">0.8</text><text x="0" y="70.80000000000003" dx="0em" dy="0.3em" style="text-anchor: end; visibility: hidden; font-family: &quot;Helvetica Neue&quot;, sans-serif; font-size: 12px; font-weight: 200;" fill="rgb(50, 49, 63)" stroke="none" stroke-width="1px">0.85</text><text x="0" y="53.10000000000001" dx="0em" dy="0.3em" style="text-anchor: end; visibility: inherit; font-family: &quot;Helvetica Neue&quot;, sans-serif; font-size: 12px; font-weight: 200;" fill="rgb(50, 49, 63)" stroke="none" stroke-width="1px">0.9</text><text x="0" y="35.400000000000034" dx="0em" dy="0.3em" style="text-anchor: end; visibility: hidden; font-family: &quot;Helvetica Neue&quot;, sans-serif; font-size: 12px; font-weight: 200;" fill="rgb(50, 49, 63)" stroke="none" stroke-width="1px">0.95</text><text x="0" y="17.700000000000017" dx="0em" dy="0.3em" style="text-anchor: end; visibility: inherit; font-family: &quot;Helvetica Neue&quot;, sans-serif; font-size: 12px; font-weight: 200;" fill="rgb(50, 49, 63)" stroke="none" stroke-width="1px">1</text><text x="0" y="0" dx="0em" dy="0.3em" style="text-anchor: end; visibility: hidden; font-family: &quot;Helvetica Neue&quot;, sans-serif; font-size: 12px; font-weight: 200;" fill="rgb(50, 49, 63)" stroke="none" stroke-width="1px">1.05</text></g><line x1="48.8125" y1="0" x2="48.8125" y2="177" fill="rgb(0, 0, 0)" stroke="rgb(204, 204, 204)" stroke-width="1px"></line></g></g><g transform="translate(48, 0)" clip-path="url(#clip_0)"><clipPath id="clip_0"><rect width="281" height="177"></rect></clipPath><g><g><g><line x1="0" y1="0" x2="0" y2="177" fill="rgb(0, 0, 0)" stroke="rgb(60, 60, 60)" stroke-width="1px" opacity="0.25"></line><line x1="23.432291666666664" y1="0" x2="23.432291666666664" y2="177" fill="rgb(0, 0, 0)" stroke="rgb(60, 60, 60)" stroke-width="1px" opacity="0.25"></line><line x1="46.86458333333333" y1="0" x2="46.86458333333333" y2="177" fill="rgb(0, 0, 0)" stroke="rgb(60, 60, 60)" stroke-width="1px" opacity="0.25"></line><line x1="70.296875" y1="0" x2="70.296875" y2="177" fill="rgb(0, 0, 0)" stroke="rgb(60, 60, 60)" stroke-width="1px" opacity="0.25"></line><line x1="93.72916666666666" y1="0" x2="93.72916666666666" y2="177" fill="rgb(0, 0, 0)" stroke="rgb(60, 60, 60)" stroke-width="1px" opacity="0.25"></line><line x1="117.16145833333334" y1="0" x2="117.16145833333334" y2="177" fill="rgb(0, 0, 0)" stroke="rgb(60, 60, 60)" stroke-width="1px" opacity="0.25"></line><line x1="140.59375" y1="0" x2="140.59375" y2="177" fill="rgb(0, 0, 0)" stroke="rgb(60, 60, 60)" stroke-width="1px" opacity="0.25"></line><line x1="164.02604166666669" y1="0" x2="164.02604166666669" y2="177" fill="rgb(0, 0, 0)" stroke="rgb(60, 60, 60)" stroke-width="1px" opacity="0.25"></line><line x1="187.45833333333331" y1="0" x2="187.45833333333331" y2="177" fill="rgb(0, 0, 0)" stroke="rgb(60, 60, 60)" stroke-width="1px" opacity="0.25"></line><line x1="210.890625" y1="0" x2="210.890625" y2="177" fill="rgb(0, 0, 0)" stroke="rgb(60, 60, 60)" stroke-width="1px" opacity="0.25"></line><line x1="234.32291666666669" y1="0" x2="234.32291666666669" y2="177" fill="rgb(0, 0, 0)" stroke="rgb(60, 60, 60)" stroke-width="1px" opacity="0.25"></line><line x1="257.7552083333333" y1="0" x2="257.7552083333333" y2="177" fill="rgb(0, 0, 0)" stroke="rgb(60, 60, 60)" stroke-width="1px" opacity="0.25"></line><line x1="281.1875" y1="0" x2="281.1875" y2="177" fill="rgb(0, 0, 0)" stroke="rgb(60, 60, 60)" stroke-width="1px" opacity="0.25"></line></g><g><line x1="0" y1="177" x2="281.1875" y2="177" fill="rgb(0, 0, 0)" stroke="rgb(60, 60, 60)" stroke-width="1px" opacity="0.25"></line><line x1="0" y1="159.3" x2="281.1875" y2="159.3" fill="rgb(0, 0, 0)" stroke="rgb(60, 60, 60)" stroke-width="1px" opacity="0.25"></line><line x1="0" y1="141.60000000000002" x2="281.1875" y2="141.60000000000002" fill="rgb(0, 0, 0)" stroke="rgb(60, 60, 60)" stroke-width="1px" opacity="0.25"></line><line x1="0" y1="123.90000000000003" x2="281.1875" y2="123.90000000000003" fill="rgb(0, 0, 0)" stroke="rgb(60, 60, 60)" stroke-width="1px" opacity="0.25"></line><line x1="0" y1="106.20000000000002" x2="281.1875" y2="106.20000000000002" fill="rgb(0, 0, 0)" stroke="rgb(60, 60, 60)" stroke-width="1px" opacity="0.25"></line><line x1="0" y1="88.5" x2="281.1875" y2="88.5" fill="rgb(0, 0, 0)" stroke="rgb(60, 60, 60)" stroke-width="1px" opacity="0.25"></line><line x1="0" y1="70.80000000000003" x2="281.1875" y2="70.80000000000003" fill="rgb(0, 0, 0)" stroke="rgb(60, 60, 60)" stroke-width="1px" opacity="0.25"></line><line x1="0" y1="53.10000000000001" x2="281.1875" y2="53.10000000000001" fill="rgb(0, 0, 0)" stroke="rgb(60, 60, 60)" stroke-width="1px" opacity="0.25"></line><line x1="0" y1="35.400000000000034" x2="281.1875" y2="35.400000000000034" fill="rgb(0, 0, 0)" stroke="rgb(60, 60, 60)" stroke-width="1px" opacity="0.25"></line><line x1="0" y1="17.700000000000017" x2="281.1875" y2="17.700000000000017" fill="rgb(0, 0, 0)" stroke="rgb(60, 60, 60)" stroke-width="1px" opacity="0.25"></line><line x1="0" y1="0" x2="281.1875" y2="0" fill="rgb(0, 0, 0)" stroke="rgb(60, 60, 60)" stroke-width="1px" opacity="0.25"></line></g></g></g><g><g><line x1="0" y1="371.70000000000005" x2="281.1875" y2="371.70000000000005" fill="rgb(0, 0, 0)" stroke="rgb(153, 153, 153)" stroke-width="1.5px"></line></g></g><g><g><line x1="23.432291666666664" y1="0" x2="23.432291666666664" y2="177" fill="rgb(0, 0, 0)" stroke="rgb(153, 153, 153)" stroke-width="1.5px"></line></g></g><g><g><g><g><g><path stroke="rgb(255, 112, 67)" stroke-width="2px" d="M24.603906249999998,167.6544063806534L25.77552083333333,155.93700320720674L26.94713541666667,144.84500534534456L28.118750000000002,132.3694564819336L29.290364583333336,123.57432503700258L30.46197916666667,116.40699870586397L31.63359375,110.9183074951172L32.80520833333333,107.07615823745729L33.97682291666667,106.03873236179354L35.1484375,103.78218812942507L36.32005208333334,101.2858418941498L37.49166666666667,98.86334581375124L38.663281250000004,96.79448647499086L39.834895833333334,95.52436931133272L41.00651041666667,94.20884485244753L42.178125,92.705952000618L43.34973958333334,91.50274307727815L44.52135416666666,91.56405980587007L45.69296875,90.72832925319673L46.86458333333333,90.01865036487581L48.036197916666666,89.162494969368L49.207812499999996,88.00922985076906L50.37942708333333,86.95317263603212L51.55104166666666,86.56185121536257L52.72265625,85.59437198638918L53.89427083333334,84.94094581604006L55.06588541666667,84.83019168376924L56.237500000000004,84.4416343688965L57.409114583333334,83.80523593425752L58.58072916666667,83.7977032184601L59.75234375,83.4583512067795L60.92395833333334,82.93777091503145L62.09557291666666,82.79631621837618L63.2671875,82.60173161029817L64.43880208333333,82.05517716407778L65.61041666666667,81.53406937122347L66.78203125,81.05260856151583L67.95364583333334,80.8265848875046L69.12526041666666,80.368882727623L70.296875,80.13055772781374L71.46848958333332,79.78728110790254L72.64010416666667,79.95004684925081L73.81171875,79.5973174095154L74.98333333333333,79.17854483127596" style="fill: none;" fill="none"></path></g><g><path stroke="rgb(0, 153, 136)" stroke-width="2px" d="M30.46197916666667,181.2362094640732L31.63359375,176.4487782239914L32.80520833333333,172.00418050289156L33.97682291666667,167.64653606414797L35.1484375,163.79225428104402L36.32005208333334,160.13350660800936L37.49166666666667,156.8750900745392L38.663281250000004,153.70406992435457L39.834895833333334,150.6851599931717L41.00651041666667,147.83275051116945L42.178125,145.3346951723099L43.34973958333334,142.91188259124758L44.52135416666666,140.58912642002107L45.69296875,138.75122816562654L46.86458333333333,136.697096657753L48.036197916666666,134.98693807125093L49.207812499999996,133.25202913284303L50.37942708333333,131.564869594574L51.55104166666666,130.03895659446718L52.72265625,128.43119652271272L53.89427083333334,126.92397816181185L55.06588541666667,125.3881059408188L56.237500000000004,123.96699686050417L57.409114583333334,122.5401485681534L58.58072916666667,121.38070113658907L59.75234375,120.14989335536958L60.92395833333334,118.95506114959719L62.09557291666666,117.86376686096193L63.2671875,116.83665890693666L64.43880208333333,115.77722568511965L65.61041666666667,114.77664048671724L66.78203125,113.81960577964784L67.95364583333334,112.98003501892092L69.12526041666666,112.27609534263613L70.296875,111.503812623024L71.46848958333332,110.63449079990389L72.64010416666667,109.85041315555574L73.81171875,109.05586988925936L74.98333333333333,108.44145770072939L76.15494791666666,107.76074917316438L77.32656250000001,107.03267104625704L78.49817708333333,106.33632738590242L79.66979166666667,105.59894413948061L80.84140624999999,104.96604831218721L82.01302083333334,104.352121424675L83.18463541666667,103.76642639636995L84.35625,103.14471359252931L85.52786458333333,102.55914516448976L86.69947916666668,101.95855350494386L87.87109375,101.4306514978409L89.04270833333332,100.89884598255159L90.21432291666667,100.440975022316L91.3859375,99.92809624671938L92.55755208333333,99.37500078678133L93.72916666666666,98.99787969589235L94.90078125000001,98.55475766658785L96.07239583333333,98.11509604454042L97.24401041666667,97.72985143661501L98.41562499999999,97.3903728246689L99.58723958333334,97.05209691524507L100.75885416666667,96.63503344058992L101.93046875,96.21507925987245L103.10208333333333,95.84133417606355L104.27369791666668,95.46353788375856L105.4453125,95.09300000667574L106.61692708333332,94.69100196361543L107.78854166666667,94.29773933887483L108.96015625,93.94045228958132L110.13177083333333,93.56554670333864L111.30338541666666,93.28135020732881" style="fill: none;" fill="none"></path></g><g><path stroke="rgb(51, 187, 238)" stroke-width="2px" d="M24.603906249999998,47.931594800949114L25.77552083333333,48.03779132366182L26.94713541666667,46.669010353088396L28.118750000000002,45.701404523849504L29.290364583333336,46.68551058769228L30.46197916666667,45.91379756927492L31.63359375,45.02373440265657L32.80520833333333,44.24115486145021L33.97682291666667,43.48693377971651L35.1484375,42.87294359207155L36.32005208333334,42.393107485771196L37.49166666666667,41.84575123786928L38.663281250000004,41.393492889404314L39.834895833333334,41.106975388526934L41.00651041666667,40.86575968265535L42.178125,40.49095959663393L43.34973958333334,40.09571356773378L44.52135416666666,39.92923421859743L45.69296875,39.649869632720964L46.86458333333333,39.39135189056398L48.036197916666666,39.218141627311724L49.207812499999996,38.959307384490984L50.37942708333333,38.90767557621004L51.55104166666666,38.814624381065386L52.72265625,38.636983108520525L53.89427083333334,38.48388118743898L55.06588541666667,38.313287329673784L56.237500000000004,38.177635145187395L57.409114583333334,38.07574303150179L58.58072916666667,37.86147208213808L59.75234375,37.66787917613985L60.92395833333334,37.582634997367876L62.09557291666666,37.47464497089388L63.2671875,37.36365873813631L64.43880208333333,37.2832886695862L65.61041666666667,37.179835152626055L66.78203125,37.08963246345522L67.95364583333334,36.9874027490616L69.12526041666666,36.89587075710298L70.296875,36.834575128555315L71.46848958333332,36.68993432521822L72.64010416666667,36.60190494060518L73.81171875,36.56242675781252L74.98333333333333,36.478089880943315L76.15494791666666,36.38411028385164L77.32656250000001,36.30578691959383L78.49817708333333,36.32794196605684L79.66979166666667,36.2658234357834L80.84140624999999,36.20697541236879L82.01302083333334,36.156145405769365L83.18463541666667,36.10244579315187L84.35625,36.03652925491335L85.52786458333333,35.9784197330475L86.69947916666668,35.89233155250551L87.87109375,35.80290956497194L89.04270833333332,35.70911986827852L90.21432291666667,35.685065817832964L91.3859375,35.63864572048189L92.55755208333333,35.65799446105959L93.72916666666666,35.62714619636537L94.90078125000001,35.590917420387285L96.07239583333333,35.552452039718645L97.24401041666667,35.48877210617067L98.41562499999999,35.456974339485186L99.58723958333334,35.40762133598329L100.75885416666667,35.342063498497026L101.93046875,35.2932801961899L103.10208333333333,35.24538309574129L104.27369791666668,35.18913037776949L105.4453125,35.15372450351717L106.61692708333332,35.11679942607881L107.78854166666667,35.0774689435959L108.96015625,35.03144974708559L110.13177083333333,34.98142154216768L111.30338541666666,34.91620130538942" style="fill: none;" fill="none"></path></g><g><path stroke="rgb(0, 119, 187)" stroke-width="2px" d="M24.603906249999998,28.709391188621538L25.77552083333333,28.62089760303499L26.94713541666667,28.614989590644853L28.118750000000002,28.558947873115557L29.290364583333336,28.482840013504045L30.46197916666667,28.325897884368914L31.63359375,28.274477076530474L32.80520833333333,28.23592729568483L33.97682291666667,28.225609374046343L35.1484375,28.220882964134233L36.32005208333334,28.21379334926607L37.49166666666667,28.204952430725115L38.663281250000004,28.19746191501619L39.834895833333334,28.168280553817766L41.00651041666667,28.16895575523378L42.178125,28.169546556472795L43.34973958333334,28.15549392700197L44.52135416666666,28.133170080184954L45.69296875,28.139267992973345L46.86458333333333,28.132389378547686L48.036197916666666,28.12783176898958L49.207812499999996,28.134963583946245L50.37942708333333,28.119919252395647L51.55104166666666,28.11791474819185L52.72265625,28.109010529518144L53.89427083333334,28.093987298011797L55.06588541666667,28.084006977081316L56.237500000000004,28.09622390270235L57.409114583333334,28.08196027278902L58.58072916666667,28.084006977081316L59.75234375,28.09160299301149L60.92395833333334,28.07552475929262L62.09557291666666,28.076495361328142L63.2671875,28.078436565399187L64.43880208333333,28.084344577789324L65.61041666666667,28.063350033760088L66.78203125,28.058813524246233L67.95364583333334,28.060079526901262L69.12526041666666,28.05132300853731L70.296875,28.056260418891924L71.46848958333332,28.060121726989763L72.64010416666667,28.067148041725176L73.81171875,28.05655581951143L74.98333333333333,28.060121726989763L76.15494791666666,28.054108214378374L77.32656250000001,28.051428508758562L78.49817708333333,28.056387019157427L79.66979166666667,28.066304039955156L80.84140624999999,28.058475923538225L82.01302083333334,28.06299133300783L83.18463541666667,28.073583555221575L84.35625,28.086496782302873L85.52786458333333,28.079554867744463L86.69947916666668,28.084006977081316L87.87109375,28.08508307933809L89.04270833333332,28.081685972213762L90.21432291666667,28.089598488807695L91.3859375,28.092953395843523L92.55755208333333,28.098608207702654L93.72916666666666,28.100528311729448L94.90078125000001,28.1070271253586L96.07239583333333,28.109875631332415L97.24401041666667,28.104220819473284L98.41562499999999,28.104284119606035L99.58723958333334,28.107596826553362L100.75885416666667,28.1070693254471L101.93046875,28.110761833190935L103.10208333333333,28.115931344032305L104.27369791666668,28.114264440536516L105.4453125,28.11620564460756L106.61692708333332,28.11656434535982L107.78854166666667,28.119898152351396L108.96015625,28.12312645912172L110.13177083333333,28.12960417270662L111.30338541666666,28.13213617801668L112.47500000000001,28.138803791999834L113.64661458333333,28.146209907531755L114.81822916666667,28.147539210319536L115.98984374999999,28.146146607399004L117.16145833333334,28.152729821205156L118.33307291666667,28.150429916381853L119.5046875,28.15207571983339L120.67630208333333,28.15026111602785L121.84791666666668,28.149311614036577L123.01953125,28.149248313903826L124.19114583333332,28.150007915496843L125.36276041666667,28.153573822975176L126.534375,28.157477331161516L127.70598958333333,28.161697340011614L128.87760416666666,28.172099661827104L130.04921875,28.172563862800615L131.22083333333333,28.17108685970308L132.39244791666667,28.184105587005632L133.5640625,28.19573171138765L134.73567708333334,28.19703991413118L135.90729166666668,28.200521421432512L137.07890625,28.20467813014986L138.25052083333333,28.212358546257036L139.42213541666666,28.217021656036394L140.59375,28.221937966346758L141.76536458333334,28.223604869842546L142.93697916666665,28.232192587852495L144.10859374999998,28.236138296127336L145.28020833333335,28.239662003517168L146.45182291666669,28.252912831306475L147.6234375,28.25620443820955L148.79505208333333,28.264749956131L149.96666666666667,28.30458683967592L151.13828125,28.312858057022112L152.30989583333331,28.313891959190386L153.48151041666665,28.31106455326082L154.65312500000002,28.31146545410158L155.82473958333335,28.309671950340288L156.99635416666666,28.309123349189775L158.16796875,28.31446166038515L159.33958333333334,28.31969447135927L160.51119791666665,28.323323678970354L161.68281249999998,28.324800682067888L162.85442708333335,28.327142786979692L164.02604166666669,28.39875633716585L165.19765625,28.420932483673113L166.36927083333333,28.441294026374834L167.54088541666667,28.44720203876497L168.7125,28.443615031242388L169.88411458333331,28.47349269390108L171.05572916666665,28.50514276027681L172.22734375000002,28.520419192314165L173.39895833333335,28.530737113952654L174.57057291666666,28.53103251457216L175.7421875,28.552005958557146L176.91380208333334,28.564560484886186L178.08541666666665,28.58549172878267L179.25703124999998,28.59707565307619L180.42864583333335,28.60927147865297L181.60026041666669,28.62260670661928L182.771875,28.62167830467226L183.94348958333333,28.62515981197359L185.11510416666667,28.624231410026567L186.28671875,28.62484331130983L187.45833333333331,28.653518271446245L188.62994791666665,28.671242308616655L189.80156250000002,28.6774879217148L190.97317708333335,28.679450225830095L192.14479166666666,28.680399727821367L193.31640625,28.71818990707399L194.48802083333334,28.74237055778505L195.65963541666665,28.751295876503008L196.83124999999998,28.754608583450334L198.00286458333335,28.752878379821794L199.17447916666669,28.749523472785967L200.34609375,28.745493364334123L201.51770833333333,28.741547656059282L202.68932291666667,28.738551449775713L203.8609375,28.73536534309389L205.03255208333331,28.732917737960832L206.20416666666665,28.72937293052675L207.37578125000002,28.724498820304888L208.54739583333335,28.721059513092058L209.71901041666666,28.719202709198015L210.890625,28.714940500259416L212.06223958333334,28.71116359233858L213.23385416666665,28.707660984992998L214.40546874999998,28.704833579063433L215.57708333333335,28.70076127052309L216.74869791666669,28.69609816074373L217.9203125,28.69084424972536L219.09192708333333,28.687573742866533L220.26354166666667,28.684324336051958L221.43515625,28.68048412799837L222.60677083333331,28.67879612445833L223.77838541666665,28.676074218750017L224.95000000000002,28.672550511360186L226.12161458333335,28.670313906669634L227.29322916666666,28.665650796890276L228.46484375,28.662063789367693L229.63645833333334,28.660734486579912L230.80807291666665,28.65718967914583L231.97968749999998,28.652716469764727L233.15130208333335,28.64946706295015L234.32291666666669,28.64547915458681L235.49453125,28.64212424755098L236.66614583333333,28.63898034095766L237.83776041666667,28.635498833656328L239.009375,28.632439327240007L240.18098958333331,28.630561423301714L241.35260416666665,28.6277551174164L242.52421875000002,28.624210309982317L243.69583333333335,28.621467304229753L244.86744791666666,28.61781699657442L246.0390625,28.614757490158098L247.21067708333334,28.612837386131304L248.38229166666665,28.60872287750246L249.55390624999998,28.606866073608415L250.72552083333335,28.605578970909136L251.89713541666669,28.60319466590883L253.06875,28.60104246139528L254.24036458333333,28.599059057235735L255.41197916666667,28.59802515506746L256.58359375,28.596611452102678L257.7552083333333,28.5932776451111L258.92682291666665,28.591399741172808L260.0984375,28.589880537986772L261.2700520833333,28.587327432632463" style="fill: none;" fill="none"></path></g></g></g></g></g></g><g transform="translate(48, 177)" clip-path="url(#clip_1)"><clipPath id="clip_1"><rect width="281" height="23"></rect></clipPath><g><g><line x1="0" y1="0" x2="0" y2="5" style="visibility: inherit;" fill="rgb(0, 0, 0)" stroke="rgb(204, 204, 204)" stroke-width="1px"></line><line x1="23.432291666666664" y1="0" x2="23.432291666666664" y2="5" style="visibility: inherit;" fill="rgb(0, 0, 0)" stroke="rgb(204, 204, 204)" stroke-width="1px"></line><line x1="46.86458333333333" y1="0" x2="46.86458333333333" y2="5" style="visibility: inherit;" fill="rgb(0, 0, 0)" stroke="rgb(204, 204, 204)" stroke-width="1px"></line><line x1="70.296875" y1="0" x2="70.296875" y2="5" style="visibility: inherit;" fill="rgb(0, 0, 0)" stroke="rgb(204, 204, 204)" stroke-width="1px"></line><line x1="93.72916666666666" y1="0" x2="93.72916666666666" y2="5" style="visibility: inherit;" fill="rgb(0, 0, 0)" stroke="rgb(204, 204, 204)" stroke-width="1px"></line><line x1="117.16145833333334" y1="0" x2="117.16145833333334" y2="5" style="visibility: inherit;" fill="rgb(0, 0, 0)" stroke="rgb(204, 204, 204)" stroke-width="1px"></line><line x1="140.59375" y1="0" x2="140.59375" y2="5" style="visibility: inherit;" fill="rgb(0, 0, 0)" stroke="rgb(204, 204, 204)" stroke-width="1px"></line><line x1="164.02604166666669" y1="0" x2="164.02604166666669" y2="5" style="visibility: inherit;" fill="rgb(0, 0, 0)" stroke="rgb(204, 204, 204)" stroke-width="1px"></line><line x1="187.45833333333331" y1="0" x2="187.45833333333331" y2="5" style="visibility: inherit;" fill="rgb(0, 0, 0)" stroke="rgb(204, 204, 204)" stroke-width="1px"></line><line x1="210.890625" y1="0" x2="210.890625" y2="5" style="visibility: inherit;" fill="rgb(0, 0, 0)" stroke="rgb(204, 204, 204)" stroke-width="1px"></line><line x1="234.32291666666669" y1="0" x2="234.32291666666669" y2="5" style="visibility: inherit;" fill="rgb(0, 0, 0)" stroke="rgb(204, 204, 204)" stroke-width="1px"></line><line x1="257.7552083333333" y1="0" x2="257.7552083333333" y2="5" style="visibility: inherit;" fill="rgb(0, 0, 0)" stroke="rgb(204, 204, 204)" stroke-width="1px"></line><line x1="281.1875" y1="0" x2="281.1875" y2="5" style="visibility: inherit;" fill="rgb(0, 0, 0)" stroke="rgb(204, 204, 204)" stroke-width="1px"></line></g><g transform="translate(0, 8)"><text x="0" y="0" dx="0em" dy="0.95em" style="text-anchor: middle; visibility: hidden; font-family: &quot;Helvetica Neue&quot;, sans-serif; font-size: 12px; font-weight: 200;" fill="rgb(50, 49, 63)" stroke="none" stroke-width="1px">-20</text><text x="23.432291666666664" y="0" dx="0em" dy="0.95em" style="text-anchor: middle; visibility: inherit; font-family: &quot;Helvetica Neue&quot;, sans-serif; font-size: 12px; font-weight: 200;" fill="rgb(50, 49, 63)" stroke="none" stroke-width="1px">0</text><text x="46.86458333333333" y="0" dx="0em" dy="0.95em" style="text-anchor: middle; visibility: hidden; font-family: &quot;Helvetica Neue&quot;, sans-serif; font-size: 12px; font-weight: 200;" fill="rgb(50, 49, 63)" stroke="none" stroke-width="1px">20</text><text x="70.296875" y="0" dx="0em" dy="0.95em" style="text-anchor: middle; visibility: inherit; font-family: &quot;Helvetica Neue&quot;, sans-serif; font-size: 12px; font-weight: 200;" fill="rgb(50, 49, 63)" stroke="none" stroke-width="1px">40</text><text x="93.72916666666666" y="0" dx="0em" dy="0.95em" style="text-anchor: middle; visibility: hidden; font-family: &quot;Helvetica Neue&quot;, sans-serif; font-size: 12px; font-weight: 200;" fill="rgb(50, 49, 63)" stroke="none" stroke-width="1px">60</text><text x="117.16145833333334" y="0" dx="0em" dy="0.95em" style="text-anchor: middle; visibility: inherit; font-family: &quot;Helvetica Neue&quot;, sans-serif; font-size: 12px; font-weight: 200;" fill="rgb(50, 49, 63)" stroke="none" stroke-width="1px">80</text><text x="140.59375" y="0" dx="0em" dy="0.95em" style="text-anchor: middle; visibility: hidden; font-family: &quot;Helvetica Neue&quot;, sans-serif; font-size: 12px; font-weight: 200;" fill="rgb(50, 49, 63)" stroke="none" stroke-width="1px">100</text><text x="164.02604166666669" y="0" dx="0em" dy="0.95em" style="text-anchor: middle; visibility: inherit; font-family: &quot;Helvetica Neue&quot;, sans-serif; font-size: 12px; font-weight: 200;" fill="rgb(50, 49, 63)" stroke="none" stroke-width="1px">120</text><text x="187.45833333333331" y="0" dx="0em" dy="0.95em" style="text-anchor: middle; visibility: hidden; font-family: &quot;Helvetica Neue&quot;, sans-serif; font-size: 12px; font-weight: 200;" fill="rgb(50, 49, 63)" stroke="none" stroke-width="1px">140</text><text x="210.890625" y="0" dx="0em" dy="0.95em" style="text-anchor: middle; visibility: inherit; font-family: &quot;Helvetica Neue&quot;, sans-serif; font-size: 12px; font-weight: 200;" fill="rgb(50, 49, 63)" stroke="none" stroke-width="1px">160</text><text x="234.32291666666669" y="0" dx="0em" dy="0.95em" style="text-anchor: middle; visibility: hidden; font-family: &quot;Helvetica Neue&quot;, sans-serif; font-size: 12px; font-weight: 200;" fill="rgb(50, 49, 63)" stroke="none" stroke-width="1px">180</text><text x="257.7552083333333" y="0" dx="0em" dy="0.95em" style="text-anchor: middle; visibility: inherit; font-family: &quot;Helvetica Neue&quot;, sans-serif; font-size: 12px; font-weight: 200;" fill="rgb(50, 49, 63)" stroke="none" stroke-width="1px">200</text><text x="281.1875" y="0" dx="0em" dy="0.95em" style="text-anchor: middle; visibility: hidden; font-family: &quot;Helvetica Neue&quot;, sans-serif; font-size: 12px; font-weight: 200;" fill="rgb(50, 49, 63)" stroke="none" stroke-width="1px">220</text></g><line x1="0" y1="0" x2="281.1875" y2="0" fill="rgb(0, 0, 0)" stroke="rgb(204, 204, 204)" stroke-width="1px"></line></g></g></g></g></svg>