<svg viewBox="0 0 330 200" xmlns="http://www.w3.org/2000/svg"><g><g><g><g><g><line x1="58.515625" y1="177" x2="53.515625" y2="177" style="visibility: inherit;" fill="rgb(0, 0, 0)" stroke="rgb(204, 204, 204)" stroke-width="1px"></line><line x1="58.515625" y1="160.90909090909088" x2="53.515625" y2="160.90909090909088" style="visibility: inherit;" fill="rgb(0, 0, 0)" stroke="rgb(204, 204, 204)" stroke-width="1px"></line><line x1="58.515625" y1="144.81818181818176" x2="53.515625" y2="144.81818181818176" style="visibility: inherit;" fill="rgb(0, 0, 0)" stroke="rgb(204, 204, 204)" stroke-width="1px"></line><line x1="58.515625" y1="128.72727272727298" x2="53.515625" y2="128.72727272727298" style="visibility: inherit;" fill="rgb(0, 0, 0)" stroke="rgb(204, 204, 204)" stroke-width="1px"></line><line x1="58.515625" y1="112.63636363636387" x2="53.515625" y2="112.63636363636387" style="visibility: inherit;" fill="rgb(0, 0, 0)" stroke="rgb(204, 204, 204)" stroke-width="1px"></line><line x1="58.515625" y1="96.54545454545475" x2="53.515625" y2="96.54545454545475" style="visibility: inherit;" fill="rgb(0, 0, 0)" stroke="rgb(204, 204, 204)" stroke-width="1px"></line><line x1="58.515625" y1="80.45454545454562" x2="53.515625" y2="80.45454545454562" style="visibility: inherit;" fill="rgb(0, 0, 0)" stroke="rgb(204, 204, 204)" stroke-width="1px"></line><line x1="58.515625" y1="64.3636363636365" x2="53.515625" y2="64.3636363636365" style="visibility: inherit;" fill="rgb(0, 0, 0)" stroke="rgb(204, 204, 204)" stroke-width="1px"></line><line x1="58.515625" y1="48.272727272727366" x2="53.515625" y2="48.272727272727366" style="visibility: inherit;" fill="rgb(0, 0, 0)" stroke="rgb(204, 204, 204)" stroke-width="1px"></line><line x1="58.515625" y1="32.181818181818244" x2="53.515625" y2="32.181818181818244" style="visibility: inherit;" fill="rgb(0, 0, 0)" stroke="rgb(204, 204, 204)" stroke-width="1px"></line><line x1="58.515625" y1="16.090909090909122" x2="53.515625" y2="16.090909090909122" style="visibility: inherit;" fill="rgb(0, 0, 0)" stroke="rgb(204, 204, 204)" stroke-width="1px"></line><line x1="58.515625" y1="0" x2="53.515625" y2="0" style="visibility: inherit;" fill="rgb(0, 0, 0)" stroke="rgb(204, 204, 204)" stroke-width="1px"></line></g><g transform="translate(48.515625, 0)"><text x="0" y="177" dx="0em" dy="0.3em" style="text-anchor: end; visibility: hidden; font-family: &quot;Helvetica Neue&quot;, sans-serif; font-size: 12px; font-weight: 200;" fill="rgb(50, 49, 63)" stroke="none" stroke-width="1px">0.925</text><text x="0" y="160.90909090909088" dx="0em" dy="0.3em" style="text-anchor: end; visibility: inherit; font-family: &quot;Helvetica Neue&quot;, sans-serif; font-size: 12px; font-weight: 200;" fill="rgb(50, 49, 63)" stroke="none" stroke-width="1px">0.93</text><text x="0" y="144.81818181818176" dx="0em" dy="0.3em" style="text-anchor: end; visibility: hidden; font-family: &quot;Helvetica Neue&quot;, sans-serif; font-size: 12px; font-weight: 200;" fill="rgb(50, 49, 63)" stroke="none" stroke-width="1px">0.935</text><text x="0" y="128.72727272727298" dx="0em" dy="0.3em" style="text-anchor: end; visibility: inherit; font-family: &quot;Helvetica Neue&quot;, sans-serif; font-size: 12px; font-weight: 200;" fill="rgb(50, 49, 63)" stroke="none" stroke-width="1px">0.94</text><text x="0" y="112.63636363636387" dx="0em" dy="0.3em" style="text-anchor: end; visibility: hidden; font-family: &quot;Helvetica Neue&quot;, sans-serif; font-size: 12px; font-weight: 200;" fill="rgb(50, 49, 63)" stroke="none" stroke-width="1px">0.945</text><text x="0" y="96.54545454545475" dx="0em" dy="0.3em" style="text-anchor: end; visibility: inherit; font-family: &quot;Helvetica Neue&quot;, sans-serif; font-size: 12px; font-weight: 200;" fill="rgb(50, 49, 63)" stroke="none" stroke-width="1px">0.95</text><text x="0" y="80.45454545454562" dx="0em" dy="0.3em" style="text-anchor: end; visibility: hidden; font-family: &quot;Helvetica Neue&quot;, sans-serif; font-size: 12px; font-weight: 200;" fill="rgb(50, 49, 63)" stroke="none" stroke-width="1px">0.955</text><text x="0" y="64.3636363636365" dx="0em" dy="0.3em" style="text-anchor: end; visibility: inherit; font-family: &quot;Helvetica Neue&quot;, sans-serif; font-size: 12px; font-weight: 200;" fill="rgb(50, 49, 63)" stroke="none" stroke-width="1px">0.96</text><text x="0" y="48.272727272727366" dx="0em" dy="0.3em" style="text-anchor: end; visibility: hidden; font-family: &quot;Helvetica Neue&quot;, sans-serif; font-size: 12px; font-weight: 200;" fill="rgb(50, 49, 63)" stroke="none" stroke-width="1px">0.965</text><text x="0" y="32.181818181818244" dx="0em" dy="0.3em" style="text-anchor: end; visibility: inherit; font-family: &quot;Helvetica Neue&quot;, sans-serif; font-size: 12px; font-weight: 200;" fill="rgb(50, 49, 63)" stroke="none" stroke-width="1px">0.97</text><text x="0" y="16.090909090909122" dx="0em" dy="0.3em" style="text-anchor: end; visibility: hidden; font-family: &quot;Helvetica Neue&quot;, sans-serif; font-size: 12px; font-weight: 200;" fill="rgb(50, 49, 63)" stroke="none" stroke-width="1px">0.975</text><text x="0" y="0" dx="0em" dy="0.3em" style="text-anchor: end; visibility: hidden; font-family: &quot;Helvetica Neue&quot;, sans-serif; font-size: 12px; font-weight: 200;" fill="rgb(50, 49, 63)" stroke="none" stroke-width="1px">0.98</text></g><line x1="58.515625" y1="0" x2="58.515625" y2="177" fill="rgb(0, 0, 0)" stroke="rgb(204, 204, 204)" stroke-width="1px"></line></g></g><g transform="translate(58, 0)" clip-path="url(#clip_0)"><clipPath id="clip_0"><rect width="271" height="177"></rect></clipPath><g><g><g><line x1="0" y1="0" x2="0" y2="177" fill="rgb(0, 0, 0)" stroke="rgb(60, 60, 60)" stroke-width="1px" opacity="0.25"></line><line x1="24.680397727272727" y1="0" x2="24.680397727272727" y2="177" fill="rgb(0, 0, 0)" stroke="rgb(60, 60, 60)" stroke-width="1px" opacity="0.25"></line><line x1="49.36079545454545" y1="0" x2="49.36079545454545" y2="177" fill="rgb(0, 0, 0)" stroke="rgb(60, 60, 60)" stroke-width="1px" opacity="0.25"></line><line x1="74.04119318181817" y1="0" x2="74.04119318181817" y2="177" fill="rgb(0, 0, 0)" stroke="rgb(60, 60, 60)" stroke-width="1px" opacity="0.25"></line><line x1="98.7215909090909" y1="0" x2="98.7215909090909" y2="177" fill="rgb(0, 0, 0)" stroke="rgb(60, 60, 60)" stroke-width="1px" opacity="0.25"></line><line x1="123.40198863636363" y1="0" x2="123.40198863636363" y2="177" fill="rgb(0, 0, 0)" stroke="rgb(60, 60, 60)" stroke-width="1px" opacity="0.25"></line><line x1="148.08238636363635" y1="0" x2="148.08238636363635" y2="177" fill="rgb(0, 0, 0)" stroke="rgb(60, 60, 60)" stroke-width="1px" opacity="0.25"></line><line x1="172.7627840909091" y1="0" x2="172.7627840909091" y2="177" fill="rgb(0, 0, 0)" stroke="rgb(60, 60, 60)" stroke-width="1px" opacity="0.25"></line><line x1="197.4431818181818" y1="0" x2="197.4431818181818" y2="177" fill="rgb(0, 0, 0)" stroke="rgb(60, 60, 60)" stroke-width="1px" opacity="0.25"></line><line x1="222.12357954545456" y1="0" x2="222.12357954545456" y2="177" fill="rgb(0, 0, 0)" stroke="rgb(60, 60, 60)" stroke-width="1px" opacity="0.25"></line><line x1="246.80397727272725" y1="0" x2="246.80397727272725" y2="177" fill="rgb(0, 0, 0)" stroke="rgb(60, 60, 60)" stroke-width="1px" opacity="0.25"></line><line x1="271.484375" y1="0" x2="271.484375" y2="177" fill="rgb(0, 0, 0)" stroke="rgb(60, 60, 60)" stroke-width="1px" opacity="0.25"></line></g><g><line x1="0" y1="177" x2="271.484375" y2="177" fill="rgb(0, 0, 0)" stroke="rgb(60, 60, 60)" stroke-width="1px" opacity="0.25"></line><line x1="0" y1="160.90909090909088" x2="271.484375" y2="160.90909090909088" fill="rgb(0, 0, 0)" stroke="rgb(60, 60, 60)" stroke-width="1px" opacity="0.25"></line><line x1="0" y1="144.81818181818176" x2="271.484375" y2="144.81818181818176" fill="rgb(0, 0, 0)" stroke="rgb(60, 60, 60)" stroke-width="1px" opacity="0.25"></line><line x1="0" y1="128.72727272727298" x2="271.484375" y2="128.72727272727298" fill="rgb(0, 0, 0)" stroke="rgb(60, 60, 60)" stroke-width="1px" opacity="0.25"></line><line x1="0" y1="112.63636363636387" x2="271.484375" y2="112.63636363636387" fill="rgb(0, 0, 0)" stroke="rgb(60, 60, 60)" stroke-width="1px" opacity="0.25"></line><line x1="0" y1="96.54545454545475" x2="271.484375" y2="96.54545454545475" fill="rgb(0, 0, 0)" stroke="rgb(60, 60, 60)" stroke-width="1px" opacity="0.25"></line><line x1="0" y1="80.45454545454562" x2="271.484375" y2="80.45454545454562" fill="rgb(0, 0, 0)" stroke="rgb(60, 60, 60)" stroke-width="1px" opacity="0.25"></line><line x1="0" y1="64.3636363636365" x2="271.484375" y2="64.3636363636365" fill="rgb(0, 0, 0)" stroke="rgb(60, 60, 60)" stroke-width="1px" opacity="0.25"></line><line x1="0" y1="48.272727272727366" x2="271.484375" y2="48.272727272727366" fill="rgb(0, 0, 0)" stroke="rgb(60, 60, 60)" stroke-width="1px" opacity="0.25"></line><line x1="0" y1="32.181818181818244" x2="271.484375" y2="32.181818181818244" fill="rgb(0, 0, 0)" stroke="rgb(60, 60, 60)" stroke-width="1px" opacity="0.25"></line><line x1="0" y1="16.090909090909122" x2="271.484375" y2="16.090909090909122" fill="rgb(0, 0, 0)" stroke="rgb(60, 60, 60)" stroke-width="1px" opacity="0.25"></line><line x1="0" y1="0" x2="271.484375" y2="0" fill="rgb(0, 0, 0)" stroke="rgb(60, 60, 60)" stroke-width="1px" opacity="0.25"></line></g></g></g><g><g><line x1="0" y1="3153.818181818185" x2="271.484375" y2="3153.818181818185" fill="rgb(0, 0, 0)" stroke="rgb(153, 153, 153)" stroke-width="1.5px"></line></g></g><g><g><line x1="24.680397727272727" y1="0" x2="24.680397727272727" y2="177" fill="rgb(0, 0, 0)" stroke="rgb(153, 153, 153)" stroke-width="1.5px"></line></g></g><g><g><g><g><g><path stroke="rgb(51, 187, 238)" stroke-width="2px" d="M25.914417613636363,140.63461082631903L27.1484375,137.57721441442325L28.382457386363633,138.59634655172184L29.61647727272727,137.4968424276873L30.850497159090907,137.54518071087932L32.08451704545455,136.93366306478336L33.31853693181818,137.41627862236726L34.55255681818181,136.89338116212335L35.78657670454545,137.9884734587237L37.020596590909086,137.73815020647925L38.25461647727273,137.9430124542931L39.48863636363636,137.9794579852712L40.72265625,137.71340560913097L41.95667613636363,137.89908599853527L43.19069602272727,138.29595864902853L44.42471590909091,138.38189337470325L45.65873579545455,138.98765646327635L46.89275568181818,138.97173552079644L48.12677556818182,138.82211702520206L49.36079545454545,139.1380422332071L50.59481534090909,139.48523387041968L51.82883522727273,139.33273809606388L53.06285511363637,139.13746677745482L54.296875,139.1595259146258L55.53089488636364,138.99974103407436L56.764914772727266,139.09967851638805L57.99893465909091,139.20421964472L59.23295454545454,139.40467006509965L60.46697443181818,139.32506535270008L61.70099431818181,139.40083369341772L62.93501420454545,139.54450581290516L64.1690340909091,139.66899607398304L65.40305397727272,139.65940514477828L66.63707386363636,139.73536530408003L67.87109375,140.10116334394985L69.10511363636363,140.2770609855653L70.33913352272728,140.36491389708095L71.5731534090909,140.56670704754927L72.80717329545455,140.55193701657393L74.04119318181817,140.63461082631903L75.27521306818183,140.68160637942236L76.50923295454545,140.56555613604468L77.7432528409091,140.4698386625811L78.97727272727272,140.5248905962165L80.21129261363637,140.45583590594214L81.4453125,140.38275302540183L82.67933238636364,140.52508241480058L83.91335227272727,140.4669613838197L85.14737215909092,140.55577338825583L86.38139204545455,140.55078610506934L87.61541193181819,140.60929077321845L88.84943181818181,140.57879161834728L90.08345170454547,140.5191360386936L91.3174715909091,140.5152996670117L92.55149147727272,140.61120895905938L93.78551136363636,140.69771914048638L95.01953125,140.74183741482832L96.25355113636364,140.7011718750001L97.48757102272727,140.71095462278896L98.7215909090909,140.59164346348166L99.95561079545455,140.49746053869086L101.18963068181819,140.46849593249243L102.42365056818181,140.5323715209962L103.65767045454545,140.594328923659L104.8916903409091,140.55040246790116L106.12571022727273,140.54675791480335L107.35973011363636,140.62501989711424L108.59375,140.59663074666815L109.82776988636364,140.69982914491143L111.06178977272728,140.75871745022872L112.2958096590909,140.70711825110706L113.52982954545453,140.72399828650745L114.76384943181819,140.79324479536587L115.99786931818181,140.8824404369702L117.23188920454545,140.88761953874078L118.46590909090908,140.87591860511097L119.69992897727273,140.93135417591452L120.93394886363636,141.0307162024759L122.16796875,141.04184168035346L123.40198863636363,141.00060068477293L124.63600852272728,141.03589530424648L125.8700284090909,140.99944977326837L127.10404829545455,140.97969245910656L128.3380681818182,140.9486178484831L129.5720880681818,140.9526460387491L130.80610795454544,140.94132874228748L132.0401278409091,141.00808160955268L133.27414772727272,140.92713416706442L134.50816761363637,140.90929503874355L135.7421875,140.8669031316585L136.97620738636363,140.84676218032848L138.21022727272725,140.8164548440414L139.4442471590909,140.70366551659333L140.67826704545456,140.68582638827246L141.9122869318182,140.60065893693414L143.1463068181818,140.60430349003195L144.38032670454547,140.6278971758757L145.6143465909091,140.57879161834728L146.84836647727272,140.61504533074128L148.08238636363635,140.56689886613336L149.31640625,140.52297241037553L150.55042613636365,140.52105422453457L151.78444602272728,140.55960975993773L153.0184659090909,140.4828823262996L154.25248579545456,140.441449512135L155.4865056818182,140.44029860063043L156.7205255681818,140.31868561831396L157.95454545454544,140.27993826432672L159.18856534090907,140.2596054944126L160.42258522727275,140.24828819795098L161.65660511363637,140.29528375105434L162.890625,140.2551936669784L164.12464488636363,140.19879900325438L165.35866477272728,140.2477127421987L166.5926846590909,140.28761100769054L167.82670454545453,140.24886365370327L169.06072443181816,140.2108835740524L170.29474431818184,140.19266080856335L171.52876420454547,140.10998699881824L172.7627840909091,140.06606054306042L173.99680397727272,140.08409148996537L175.23082386363637,140.03038228641867L176.46484375,140.03805502978247L177.69886363636363,139.99086765809503L178.93288352272725,139.98837401650178L180.16690340909093,139.99086765809503L181.40092329545456,140.02635409615266L182.6349431818182,139.96573942357853L183.8689630681818,139.9310202598573L185.10298295454544,139.94636574658492L186.3370028409091,140.01791407845246L187.57102272727272,140.00314404747712L188.80504261363635,139.9352402687074L190.0390625,139.8924647244541L191.27308238636365,139.79540452090185L192.50710227272728,139.73766712708917L193.7411221590909,139.68779429522436L194.97514204545453,139.7157998085023L196.2091619318182,139.65058148990988" style="fill: none;" fill="none"></path></g><g><path stroke="rgb(0, 119, 187)" stroke-width="2px" d="M25.914417613636363,24.7800224044106L27.1484375,24.7800224044106L28.382457386363633,24.029052647677304L29.61647727272727,24.136279236186624L30.850497159090907,24.200730280442627L32.08451704545455,24.136279236186624L33.31853693181818,23.952517032623263L34.55255681818181,24.699458599090548L35.78657670454545,24.887248992919893L37.020596590909086,25.359314528378547L38.25461647727273,25.65759242664683L39.48863636363636,26.254915497519733L40.72265625,26.710868271914364L41.95667613636363,27.07877631620923L43.19069602272727,27.268676714463624L44.42471590909091,27.978021838448257L45.65873579545455,28.490369276566895L46.89275568181818,28.766971674832405L48.12677556818182,29.404001192613038L49.36079545454545,29.623441652818116L50.59481534090909,29.57663791829887L51.82883522727273,29.534054192629696L53.06285511363637,29.607328891754122L54.296875,29.593901590867432L55.53089488636364,29.54287784749809L56.764914772727266,29.508158683776827L57.99893465909091,29.666792652823688L59.23295454545454,29.87165490063751L60.46697443181818,29.906949520111056L61.70099431818181,30.368848670612664L62.93501420454545,30.45861976796928L64.1690340909091,30.512328971515984L65.40305397727272,30.709326657381894L66.63707386363636,30.87563336979258L67.87109375,30.96808992732653L69.10511363636363,31.06438285654238L70.33913352272728,31.068411046808393L71.5731534090909,31.114831144159467L72.80717329545455,31.100828387520522L74.04119318181817,31.04750282114199L75.27521306818183,30.996670896356733L76.50923295454545,31.101403843272806L77.7432528409091,31.126532077789278L78.97727272727272,31.143220294605584L80.21129261363637,31.20920588753438L81.4453125,31.405244480479837L82.67933238636364,31.52455563978714L83.91335227272727,31.705824201757224L85.14737215909092,31.7812089053067L86.38139204545455,31.840672666376264L87.61541193181819,32.13127782128072L88.84943181818181,32.175587914206744L90.08345170454547,32.21817163987592L91.3174715909091,32.26516719297928L92.55149147727272,32.31638275493273L93.78551136363636,32.503597693009795L95.01953125,32.53754958239466L96.25355113636364,32.71440631693059L97.48757102272727,32.83084019747645L98.7215909090909,32.88972850279373L99.95561079545455,33.07349070635706L101.18963068181819,33.14216175946319L102.42365056818181,33.32611578161064L103.65767045454545,33.459046060388715L104.8916903409091,33.63245006041092L106.12571022727273,33.80067495866254L107.35973011363636,33.97829896753484L108.59375,34.03699545426801L109.82776988636364,34.16397935693914L111.06178977272728,34.310336936603875L112.2958096590909,34.493523684414924L113.52982954545453,34.56411292336202L114.76384943181819,34.619740312749684L115.99786931818181,34.634510343725026L117.23188920454545,34.7091277729381L118.46590909090908,34.87063902074641L119.69992897727273,34.98630562695587L120.93394886363636,35.06993852962145L122.16796875,35.11482407829976L123.40198863636363,35.379917361519546L124.63600852272728,35.59475417570633L125.8700284090909,35.721738078377456L127.10404829545455,35.915666666897835L128.3380681818182,36.08580975099042L129.5720880681818,36.2442519014532L130.80610795454544,36.36912579969925L132.0401278409091,36.676227352835895L133.27414772727272,36.833518591794075L134.50816761363637,36.94400609623301L135.7421875,36.96970978650177L136.97620738636363,37.03377719358963L138.21022727272725,37.20852392370051L139.4442471590909,37.27201587503606L140.67826704545456,37.42336073788729L141.9122869318182,37.54765918038106L143.1463068181818,37.80354517156428L144.38032670454547,37.98443009636617L145.6143465909091,38.04024930433792L146.84836647727272,38.28654436631635L148.08238636363635,38.41544645482844L149.31640625,38.49716117165303L150.55042613636365,38.67497699910945L151.78444602272728,38.768200830979765L153.0184659090909,38.86257557435468L154.25248579545456,38.988984021273524L155.4865056818182,39.204204472628504L156.7205255681818,39.307019233703585L157.95454545454544,39.5091960213401L159.18856534090907,39.64557903463191L160.42258522727275,39.70945462313563L161.65660511363637,39.80977574261752L162.890625,39.827806689522475L164.12464488636363,39.88554408333519L165.35866477272728,39.99008521166712L166.5926846590909,40.12090548602015L167.82670454545453,40.224487521431655L169.06072443181816,40.36470690640536L170.29474431818184,40.51643540642479L171.52876420454547,40.60582286661321L172.7627840909091,40.71266581795433L173.99680397727272,40.836388804695815L175.23082386363637,40.98428093303332L176.46484375,41.08536932685158L177.69886363636363,41.20832503925669L178.93288352272725,41.424504583532155L180.16690340909093,41.51197385787961L181.40092329545456,41.58045309240168L182.6349431818182,41.630134105682345L183.8689630681818,41.74407434463498L185.10298295454544,41.89580284465441L186.3370028409091,42.00590671192515L187.57102272727272,42.11179057034579L188.80504261363635,42.22592262788251L190.0390625,42.33103921196678L191.27308238636365,42.451309464194566L192.50710227272728,42.576950636776985L193.7411221590909,42.6632689996199L194.97514204545453,42.8157647739757L196.2091619318182,42.93373320319435L197.4431818181818,43.13514271649447L198.67720170454544,43.315452185544075L199.9112215909091,43.540647203272044L201.14524147727275,43.71328392895785L202.37926136363637,43.79634137587112L203.61328125,43.97588357058436L204.84730113636363,44.12435115467417L206.08132102272725,44.26418690247968L207.3153409090909,44.42397178303111L208.54936079545456,44.58586666800758L209.7833806818182,44.6104194467718L211.0174005681818,44.598526694557876L212.25142045454547,44.58241393349388L213.4854403409091,44.568602995438994L214.71946022727272,44.53215746446088L215.95348011363635,44.50223376534203L217.1875,44.46252731843427L218.42151988636365,44.42320450869471L219.65553977272728,44.38042896444148L220.8895596590909,44.34417525204745L222.12357954545456,44.30024879628962L223.3575994318182,44.2509514201771L224.5916193181818,44.214314070614876L225.82563920454544,44.16616760600698L227.05965909090907,44.11859659715131L228.29367897727275,44.0813837918368L229.52769886363637,44.02709913253784L230.76171875,43.98892723430288L231.99573863636363,43.947302601554185L233.22975852272728,43.90433523871681L234.4637784090909,43.86577970331365L235.69779829545453,43.833170544017435L236.93181818181816,43.802863207730354L238.16583806818184,43.75989584489301L239.39985795454547,43.7153939333829L240.6338778409091,43.684511141343535L241.86789772727272,43.639241955497056L243.10191761363637,43.579970013011575L244.3359375,43.526836265217185L245.56995738636363,43.472359787334085L246.80397727272725,43.425747871398926L248.03799715909093,43.390261433341294L249.27201704545456,43.34997953068125L250.5060369318182,43.31008126518944L251.7400568181818,43.275745738636346L252.97407670454544,43.241985667835564L254.2080965909091,43.20496468110517L255.44211647727272,43.17005369879982L256.6761363636364,43.13897908817637L257.91015625,43.10483538020739L259.1441761363636,43.082968061620534L260.37819602272725,43.05285254391757L261.6122159090909,43.029834313826115L262.84623579545456,42.995306968688965L264.0802556818182,42.9644241766496L265.3142755681818,42.930472287264735" style="fill: none;" fill="none"></path></g></g></g></g></g></g><g transform="translate(58, 177)" clip-path="url(#clip_1)"><clipPath id="clip_1"><rect width="271" height="23"></rect></clipPath><g><g><line x1="0" y1="0" x2="0" y2="5" style="visibility: inherit;" fill="rgb(0, 0, 0)" stroke="rgb(204, 204, 204)" stroke-width="1px"></line><line x1="24.680397727272727" y1="0" x2="24.680397727272727" y2="5" style="visibility: inherit;" fill="rgb(0, 0, 0)" stroke="rgb(204, 204, 204)" stroke-width="1px"></line><line x1="49.36079545454545" y1="0" x2="49.36079545454545" y2="5" style="visibility: inherit;" fill="rgb(0, 0, 0)" stroke="rgb(204, 204, 204)" stroke-width="1px"></line><line x1="74.04119318181817" y1="0" x2="74.04119318181817" y2="5" style="visibility: inherit;" fill="rgb(0, 0, 0)" stroke="rgb(204, 204, 204)" stroke-width="1px"></line><line x1="98.7215909090909" y1="0" x2="98.7215909090909" y2="5" style="visibility: inherit;" fill="rgb(0, 0, 0)" stroke="rgb(204, 204, 204)" stroke-width="1px"></line><line x1="123.40198863636363" y1="0" x2="123.40198863636363" y2="5" style="visibility: inherit;" fill="rgb(0, 0, 0)" stroke="rgb(204, 204, 204)" stroke-width="1px"></line><line x1="148.08238636363635" y1="0" x2="148.08238636363635" y2="5" style="visibility: inherit;" fill="rgb(0, 0, 0)" stroke="rgb(204, 204, 204)" stroke-width="1px"></line><line x1="172.7627840909091" y1="0" x2="172.7627840909091" y2="5" style="visibility: inherit;" fill="rgb(0, 0, 0)" stroke="rgb(204, 204, 204)" stroke-width="1px"></line><line x1="197.4431818181818" y1="0" x2="197.4431818181818" y2="5" style="visibility: inherit;" fill="rgb(0, 0, 0)" stroke="rgb(204, 204, 204)" stroke-width="1px"></line><line x1="222.12357954545456" y1="0" x2="222.12357954545456" y2="5" style="visibility: inherit;" fill="rgb(0, 0, 0)" stroke="rgb(204, 204, 204)" stroke-width="1px"></line><line x1="246.80397727272725" y1="0" x2="246.80397727272725" y2="5" style="visibility: inherit;" fill="rgb(0, 0, 0)" stroke="rgb(204, 204, 204)" stroke-width="1px"></line><line x1="271.484375" y1="0" x2="271.484375" y2="5" style="visibility: inherit;" fill="rgb(0, 0, 0)" stroke="rgb(204, 204, 204)" stroke-width="1px"></line></g><g transform="translate(0, 8)"><text x="0" y="0" dx="0em" dy="0.95em" style="text-anchor: middle; visibility: hidden; font-family: &quot;Helvetica Neue&quot;, sans-serif; font-size: 12px; font-weight: 200;" fill="rgb(50, 49, 63)" stroke="none" stroke-width="1px">-20</text><text x="24.680397727272727" y="0" dx="0em" dy="0.95em" style="text-anchor: middle; visibility: inherit; font-family: &quot;Helvetica Neue&quot;, sans-serif; font-size: 12px; font-weight: 200;" fill="rgb(50, 49, 63)" stroke="none" stroke-width="1px">0</text><text x="49.36079545454545" y="0" dx="0em" dy="0.95em" style="text-anchor: middle; visibility: hidden; font-family: &quot;Helvetica Neue&quot;, sans-serif; font-size: 12px; font-weight: 200;" fill="rgb(50, 49, 63)" stroke="none" stroke-width="1px">20</text><text x="74.04119318181817" y="0" dx="0em" dy="0.95em" style="text-anchor: middle; visibility: inherit; font-family: &quot;Helvetica Neue&quot;, sans-serif; font-size: 12px; font-weight: 200;" fill="rgb(50, 49, 63)" stroke="none" stroke-width="1px">40</text><text x="98.7215909090909" y="0" dx="0em" dy="0.95em" style="text-anchor: middle; visibility: hidden; font-family: &quot;Helvetica Neue&quot;, sans-serif; font-size: 12px; font-weight: 200;" fill="rgb(50, 49, 63)" stroke="none" stroke-width="1px">60</text><text x="123.40198863636363" y="0" dx="0em" dy="0.95em" style="text-anchor: middle; visibility: inherit; font-family: &quot;Helvetica Neue&quot;, sans-serif; font-size: 12px; font-weight: 200;" fill="rgb(50, 49, 63)" stroke="none" stroke-width="1px">80</text><text x="148.08238636363635" y="0" dx="0em" dy="0.95em" style="text-anchor: middle; visibility: hidden; font-family: &quot;Helvetica Neue&quot;, sans-serif; font-size: 12px; font-weight: 200;" fill="rgb(50, 49, 63)" stroke="none" stroke-width="1px">100</text><text x="172.7627840909091" y="0" dx="0em" dy="0.95em" style="text-anchor: middle; visibility: inherit; font-family: &quot;Helvetica Neue&quot;, sans-serif; font-size: 12px; font-weight: 200;" fill="rgb(50, 49, 63)" stroke="none" stroke-width="1px">120</text><text x="197.4431818181818" y="0" dx="0em" dy="0.95em" style="text-anchor: middle; visibility: hidden; font-family: &quot;Helvetica Neue&quot;, sans-serif; font-size: 12px; font-weight: 200;" fill="rgb(50, 49, 63)" stroke="none" stroke-width="1px">140</text><text x="222.12357954545456" y="0" dx="0em" dy="0.95em" style="text-anchor: middle; visibility: inherit; font-family: &quot;Helvetica Neue&quot;, sans-serif; font-size: 12px; font-weight: 200;" fill="rgb(50, 49, 63)" stroke="none" stroke-width="1px">160</text><text x="246.80397727272725" y="0" dx="0em" dy="0.95em" style="text-anchor: middle; visibility: hidden; font-family: &quot;Helvetica Neue&quot;, sans-serif; font-size: 12px; font-weight: 200;" fill="rgb(50, 49, 63)" stroke="none" stroke-width="1px">180</text><text x="271.484375" y="0" dx="0em" dy="0.95em" style="text-anchor: middle; visibility: hidden; font-family: &quot;Helvetica Neue&quot;, sans-serif; font-size: 12px; font-weight: 200;" fill="rgb(50, 49, 63)" stroke="none" stroke-width="1px">200</text></g><line x1="0" y1="0" x2="271.484375" y2="0" fill="rgb(0, 0, 0)" stroke="rgb(204, 204, 204)" stroke-width="1px"></line></g></g></g></g></svg>